M48
; DRILL file {KiCad (5.1.5)-3} date 30.03.2020 21:53:21
; FORMAT={3:3/ absolute / metric / suppress leading zeros}
; #@! TF.CreationDate,2020-03-30T21:53:21+02:00
; #@! TF.GenerationSoftware,Kicad,Pcbnew,(5.1.5)-3
; #@! TF.FileFunction,Plated,1,2,PTH
FMAT,2
METRIC,TZ
T1C0.400
T2C0.600
%
G90
G05
T1
X34163Y-36576
X34163Y-93726
X36576Y-55626
X38989Y-74676
X46609Y-50800
X46609Y-85598
X48768Y-45212
X50800Y-50927
X53213Y-36576
X53213Y-93726
X58039Y-55626
X62738Y-74676
X72263Y-36576
X72263Y-93726
X77089Y-55626
X81788Y-74676
X91313Y-36576
X91313Y-93726
X96139Y-55626
X100838Y-74676
X110363Y-36576
X112776Y-93726
X113284Y-50800
X113411Y-88900
X115189Y-55626
X115316Y-45212
X115443Y-83312
X119888Y-74676
X129413Y-36576
X134239Y-55626
X138938Y-74676
X143764Y-93726
X148463Y-36576
X153289Y-55626
X157988Y-74676
X167513Y-36576
X172339Y-55626
X174752Y-93726
X177038Y-74676
X179959Y-50800
X179959Y-88900
X182118Y-45212
X182118Y-83312
X186563Y-36576
X191389Y-55626
X196088Y-74676
X196088Y-93726
X205613Y-36576
X210439Y-55626
X215138Y-74676
X215138Y-93726
X220218Y-48260
X220980Y-50292
X224663Y-36576
X229108Y-82550
X229489Y-55626
X229840Y-88950
X234188Y-74676
X234188Y-93726
X243430Y-36230
X245150Y-45570
X248050Y-55580
X251060Y-65780
X252125Y-52175
X252790Y-74440
X252790Y-93810
X254290Y-71090
X255875Y-49975
X258860Y-40630
X258870Y-65060
X258900Y-45550
X259556Y-64450
X261020Y-47640
X262025Y-43975
X262610Y-39750
X263230Y-62300
X263500Y-44000
X263750Y-55190
X263807Y-61470
X264200Y-49075
X264210Y-71740
X264290Y-53680
X264525Y-62175
X265775Y-52325
X266610Y-66600
X266800Y-68100
X266940Y-69640
X267500Y-68925
X267510Y-39770
X268240Y-101680
X269466Y-55606
X269510Y-83360
X270880Y-88960
X271810Y-74560
X271840Y-93620
X272050Y-70800
X272350Y-51525
X276000Y-35775
X282180Y-45990
T2
G00X260743Y-32700
M15
G01X260743Y-33300
M16
G05
G00X260743Y-36630
M15
G01X260743Y-37730
M16
G05
G00X269383Y-32700
M15
G01X269383Y-33300
M16
G05
G00X269383Y-36630
M15
G01X269383Y-37730
M16
G05
T0
M30
