%TF.GenerationSoftware,KiCad,Pcbnew,(5.1.5)-3*%
%TF.CreationDate,2020-03-30T21:53:17+02:00*%
%TF.ProjectId,UT51,55543531-2e6b-4696-9361-645f70636258,rev?*%
%TF.SameCoordinates,Original*%
%TF.FileFunction,Legend,Top*%
%TF.FilePolarity,Positive*%
%FSLAX46Y46*%
G04 Gerber Fmt 4.6, Leading zero omitted, Abs format (unit mm)*
G04 Created by KiCad (PCBNEW (5.1.5)-3) date 2020-03-30 21:53:17*
%MOMM*%
%LPD*%
G04 APERTURE LIST*
%ADD10C,0.150000*%
%ADD11C,3.448000*%
%ADD12C,4.387800*%
%ADD13C,2.101800*%
%ADD14C,3.400000*%
%ADD15O,1.400000X2.500000*%
%ADD16C,1.050000*%
%ADD17O,1.400000X2.000000*%
G04 APERTURE END LIST*
D10*
X257825000Y-34275000D02*
X257825000Y-35275000D01*
X256825000Y-48275000D02*
X257825000Y-48275000D01*
X257825000Y-34275000D02*
X256825000Y-34275000D01*
X257825000Y-47275000D02*
X257825000Y-48275000D01*
X243825000Y-48275000D02*
X243825000Y-47275000D01*
X244825000Y-34275000D02*
X243825000Y-34275000D01*
X243825000Y-48275000D02*
X244825000Y-48275000D01*
X243825000Y-35275000D02*
X243825000Y-34275000D01*
X243537500Y-53325000D02*
X243537500Y-54325000D01*
X242537500Y-67325000D02*
X243537500Y-67325000D01*
X243537500Y-53325000D02*
X242537500Y-53325000D01*
X243537500Y-66325000D02*
X243537500Y-67325000D01*
X229537500Y-67325000D02*
X229537500Y-66325000D01*
X230537500Y-53325000D02*
X229537500Y-53325000D01*
X229537500Y-67325000D02*
X230537500Y-67325000D01*
X229537500Y-54325000D02*
X229537500Y-53325000D01*
X267637500Y-48275000D02*
X267637500Y-47275000D01*
X268637500Y-34275000D02*
X267637500Y-34275000D01*
X267637500Y-48275000D02*
X268637500Y-48275000D01*
X267637500Y-35275000D02*
X267637500Y-34275000D01*
X281637500Y-34275000D02*
X281637500Y-35275000D01*
X280637500Y-48275000D02*
X281637500Y-48275000D01*
X281637500Y-34275000D02*
X280637500Y-34275000D01*
X281637500Y-47275000D02*
X281637500Y-48275000D01*
X50656250Y-53325000D02*
X50656250Y-54325000D01*
X49656250Y-67325000D02*
X50656250Y-67325000D01*
X50656250Y-53325000D02*
X49656250Y-53325000D01*
X50656250Y-66325000D02*
X50656250Y-67325000D01*
X36656250Y-67325000D02*
X36656250Y-66325000D01*
X37656250Y-53325000D02*
X36656250Y-53325000D01*
X36656250Y-67325000D02*
X37656250Y-67325000D01*
X36656250Y-54325000D02*
X36656250Y-53325000D01*
X72087500Y-53325000D02*
X72087500Y-54325000D01*
X71087500Y-67325000D02*
X72087500Y-67325000D01*
X72087500Y-53325000D02*
X71087500Y-53325000D01*
X72087500Y-66325000D02*
X72087500Y-67325000D01*
X58087500Y-67325000D02*
X58087500Y-66325000D01*
X59087500Y-53325000D02*
X58087500Y-53325000D01*
X58087500Y-67325000D02*
X59087500Y-67325000D01*
X58087500Y-54325000D02*
X58087500Y-53325000D01*
X67325000Y-34275000D02*
X67325000Y-35275000D01*
X66325000Y-48275000D02*
X67325000Y-48275000D01*
X67325000Y-34275000D02*
X66325000Y-34275000D01*
X67325000Y-47275000D02*
X67325000Y-48275000D01*
X53325000Y-48275000D02*
X53325000Y-47275000D01*
X54325000Y-34275000D02*
X53325000Y-34275000D01*
X53325000Y-48275000D02*
X54325000Y-48275000D01*
X53325000Y-35275000D02*
X53325000Y-34275000D01*
X48275000Y-34275000D02*
X48275000Y-35275000D01*
X47275000Y-48275000D02*
X48275000Y-48275000D01*
X48275000Y-34275000D02*
X47275000Y-34275000D01*
X48275000Y-47275000D02*
X48275000Y-48275000D01*
X34275000Y-48275000D02*
X34275000Y-47275000D01*
X35275000Y-34275000D02*
X34275000Y-34275000D01*
X34275000Y-48275000D02*
X35275000Y-48275000D01*
X34275000Y-35275000D02*
X34275000Y-34275000D01*
X286400000Y-91425000D02*
X286400000Y-92425000D01*
X285400000Y-105425000D02*
X286400000Y-105425000D01*
X286400000Y-91425000D02*
X285400000Y-91425000D01*
X286400000Y-104425000D02*
X286400000Y-105425000D01*
X272400000Y-105425000D02*
X272400000Y-104425000D01*
X273400000Y-91425000D02*
X272400000Y-91425000D01*
X272400000Y-105425000D02*
X273400000Y-105425000D01*
X272400000Y-92425000D02*
X272400000Y-91425000D01*
X284018750Y-53325000D02*
X284018750Y-54325000D01*
X283018750Y-67325000D02*
X284018750Y-67325000D01*
X284018750Y-53325000D02*
X283018750Y-53325000D01*
X284018750Y-66325000D02*
X284018750Y-67325000D01*
X270018750Y-67325000D02*
X270018750Y-66325000D01*
X271018750Y-53325000D02*
X270018750Y-53325000D01*
X270018750Y-67325000D02*
X271018750Y-67325000D01*
X270018750Y-54325000D02*
X270018750Y-53325000D01*
X286400000Y-72375000D02*
X286400000Y-73375000D01*
X285400000Y-86375000D02*
X286400000Y-86375000D01*
X286400000Y-72375000D02*
X285400000Y-72375000D01*
X286400000Y-85375000D02*
X286400000Y-86375000D01*
X272400000Y-86375000D02*
X272400000Y-85375000D01*
X273400000Y-72375000D02*
X272400000Y-72375000D01*
X272400000Y-86375000D02*
X273400000Y-86375000D01*
X272400000Y-73375000D02*
X272400000Y-72375000D01*
X267350000Y-91425000D02*
X267350000Y-92425000D01*
X266350000Y-105425000D02*
X267350000Y-105425000D01*
X267350000Y-91425000D02*
X266350000Y-91425000D01*
X267350000Y-104425000D02*
X267350000Y-105425000D01*
X253350000Y-105425000D02*
X253350000Y-104425000D01*
X254350000Y-91425000D02*
X253350000Y-91425000D01*
X253350000Y-105425000D02*
X254350000Y-105425000D01*
X253350000Y-92425000D02*
X253350000Y-91425000D01*
X248300000Y-91425000D02*
X248300000Y-92425000D01*
X247300000Y-105425000D02*
X248300000Y-105425000D01*
X248300000Y-91425000D02*
X247300000Y-91425000D01*
X248300000Y-104425000D02*
X248300000Y-105425000D01*
X234300000Y-105425000D02*
X234300000Y-104425000D01*
X235300000Y-91425000D02*
X234300000Y-91425000D01*
X234300000Y-105425000D02*
X235300000Y-105425000D01*
X234300000Y-92425000D02*
X234300000Y-91425000D01*
X229250000Y-91425000D02*
X229250000Y-92425000D01*
X228250000Y-105425000D02*
X229250000Y-105425000D01*
X229250000Y-91425000D02*
X228250000Y-91425000D01*
X229250000Y-104425000D02*
X229250000Y-105425000D01*
X215250000Y-105425000D02*
X215250000Y-104425000D01*
X216250000Y-91425000D02*
X215250000Y-91425000D01*
X215250000Y-105425000D02*
X216250000Y-105425000D01*
X215250000Y-92425000D02*
X215250000Y-91425000D01*
X210200000Y-91425000D02*
X210200000Y-92425000D01*
X209200000Y-105425000D02*
X210200000Y-105425000D01*
X210200000Y-91425000D02*
X209200000Y-91425000D01*
X210200000Y-104425000D02*
X210200000Y-105425000D01*
X196200000Y-105425000D02*
X196200000Y-104425000D01*
X197200000Y-91425000D02*
X196200000Y-91425000D01*
X196200000Y-105425000D02*
X197200000Y-105425000D01*
X196200000Y-92425000D02*
X196200000Y-91425000D01*
X188768750Y-91425000D02*
X188768750Y-92425000D01*
X187768750Y-105425000D02*
X188768750Y-105425000D01*
X188768750Y-91425000D02*
X187768750Y-91425000D01*
X188768750Y-104425000D02*
X188768750Y-105425000D01*
X174768750Y-105425000D02*
X174768750Y-104425000D01*
X175768750Y-91425000D02*
X174768750Y-91425000D01*
X174768750Y-105425000D02*
X175768750Y-105425000D01*
X174768750Y-92425000D02*
X174768750Y-91425000D01*
X157812500Y-91425000D02*
X157812500Y-92425000D01*
X156812500Y-105425000D02*
X157812500Y-105425000D01*
X157812500Y-91425000D02*
X156812500Y-91425000D01*
X157812500Y-104425000D02*
X157812500Y-105425000D01*
X143812500Y-105425000D02*
X143812500Y-104425000D01*
X144812500Y-91425000D02*
X143812500Y-91425000D01*
X143812500Y-105425000D02*
X144812500Y-105425000D01*
X143812500Y-92425000D02*
X143812500Y-91425000D01*
X126856250Y-91425000D02*
X126856250Y-92425000D01*
X125856250Y-105425000D02*
X126856250Y-105425000D01*
X126856250Y-91425000D02*
X125856250Y-91425000D01*
X126856250Y-104425000D02*
X126856250Y-105425000D01*
X112856250Y-105425000D02*
X112856250Y-104425000D01*
X113856250Y-91425000D02*
X112856250Y-91425000D01*
X112856250Y-105425000D02*
X113856250Y-105425000D01*
X112856250Y-92425000D02*
X112856250Y-91425000D01*
X105425000Y-91425000D02*
X105425000Y-92425000D01*
X104425000Y-105425000D02*
X105425000Y-105425000D01*
X105425000Y-91425000D02*
X104425000Y-91425000D01*
X105425000Y-104425000D02*
X105425000Y-105425000D01*
X91425000Y-105425000D02*
X91425000Y-104425000D01*
X92425000Y-91425000D02*
X91425000Y-91425000D01*
X91425000Y-105425000D02*
X92425000Y-105425000D01*
X91425000Y-92425000D02*
X91425000Y-91425000D01*
X86375000Y-91425000D02*
X86375000Y-92425000D01*
X85375000Y-105425000D02*
X86375000Y-105425000D01*
X86375000Y-91425000D02*
X85375000Y-91425000D01*
X86375000Y-104425000D02*
X86375000Y-105425000D01*
X72375000Y-105425000D02*
X72375000Y-104425000D01*
X73375000Y-91425000D02*
X72375000Y-91425000D01*
X72375000Y-105425000D02*
X73375000Y-105425000D01*
X72375000Y-92425000D02*
X72375000Y-91425000D01*
X67325000Y-91425000D02*
X67325000Y-92425000D01*
X66325000Y-105425000D02*
X67325000Y-105425000D01*
X67325000Y-91425000D02*
X66325000Y-91425000D01*
X67325000Y-104425000D02*
X67325000Y-105425000D01*
X53325000Y-105425000D02*
X53325000Y-104425000D01*
X54325000Y-91425000D02*
X53325000Y-91425000D01*
X53325000Y-105425000D02*
X54325000Y-105425000D01*
X53325000Y-92425000D02*
X53325000Y-91425000D01*
X48275000Y-91425000D02*
X48275000Y-92425000D01*
X47275000Y-105425000D02*
X48275000Y-105425000D01*
X48275000Y-91425000D02*
X47275000Y-91425000D01*
X48275000Y-104425000D02*
X48275000Y-105425000D01*
X34275000Y-105425000D02*
X34275000Y-104425000D01*
X35275000Y-91425000D02*
X34275000Y-91425000D01*
X34275000Y-105425000D02*
X35275000Y-105425000D01*
X34275000Y-92425000D02*
X34275000Y-91425000D01*
X267350000Y-72375000D02*
X267350000Y-73375000D01*
X266350000Y-86375000D02*
X267350000Y-86375000D01*
X267350000Y-72375000D02*
X266350000Y-72375000D01*
X267350000Y-85375000D02*
X267350000Y-86375000D01*
X253350000Y-86375000D02*
X253350000Y-85375000D01*
X254350000Y-72375000D02*
X253350000Y-72375000D01*
X253350000Y-86375000D02*
X254350000Y-86375000D01*
X253350000Y-73375000D02*
X253350000Y-72375000D01*
X248300000Y-72375000D02*
X248300000Y-73375000D01*
X247300000Y-86375000D02*
X248300000Y-86375000D01*
X248300000Y-72375000D02*
X247300000Y-72375000D01*
X248300000Y-85375000D02*
X248300000Y-86375000D01*
X234300000Y-86375000D02*
X234300000Y-85375000D01*
X235300000Y-72375000D02*
X234300000Y-72375000D01*
X234300000Y-86375000D02*
X235300000Y-86375000D01*
X234300000Y-73375000D02*
X234300000Y-72375000D01*
X229250000Y-72375000D02*
X229250000Y-73375000D01*
X228250000Y-86375000D02*
X229250000Y-86375000D01*
X229250000Y-72375000D02*
X228250000Y-72375000D01*
X229250000Y-85375000D02*
X229250000Y-86375000D01*
X215250000Y-86375000D02*
X215250000Y-85375000D01*
X216250000Y-72375000D02*
X215250000Y-72375000D01*
X215250000Y-86375000D02*
X216250000Y-86375000D01*
X215250000Y-73375000D02*
X215250000Y-72375000D01*
X210200000Y-72375000D02*
X210200000Y-73375000D01*
X209200000Y-86375000D02*
X210200000Y-86375000D01*
X210200000Y-72375000D02*
X209200000Y-72375000D01*
X210200000Y-85375000D02*
X210200000Y-86375000D01*
X196200000Y-86375000D02*
X196200000Y-85375000D01*
X197200000Y-72375000D02*
X196200000Y-72375000D01*
X196200000Y-86375000D02*
X197200000Y-86375000D01*
X196200000Y-73375000D02*
X196200000Y-72375000D01*
X191150000Y-72375000D02*
X191150000Y-73375000D01*
X190150000Y-86375000D02*
X191150000Y-86375000D01*
X191150000Y-72375000D02*
X190150000Y-72375000D01*
X191150000Y-85375000D02*
X191150000Y-86375000D01*
X177150000Y-86375000D02*
X177150000Y-85375000D01*
X178150000Y-72375000D02*
X177150000Y-72375000D01*
X177150000Y-86375000D02*
X178150000Y-86375000D01*
X177150000Y-73375000D02*
X177150000Y-72375000D01*
X172100000Y-72375000D02*
X172100000Y-73375000D01*
X171100000Y-86375000D02*
X172100000Y-86375000D01*
X172100000Y-72375000D02*
X171100000Y-72375000D01*
X172100000Y-85375000D02*
X172100000Y-86375000D01*
X158100000Y-86375000D02*
X158100000Y-85375000D01*
X159100000Y-72375000D02*
X158100000Y-72375000D01*
X158100000Y-86375000D02*
X159100000Y-86375000D01*
X158100000Y-73375000D02*
X158100000Y-72375000D01*
X153050000Y-72375000D02*
X153050000Y-73375000D01*
X152050000Y-86375000D02*
X153050000Y-86375000D01*
X153050000Y-72375000D02*
X152050000Y-72375000D01*
X153050000Y-85375000D02*
X153050000Y-86375000D01*
X139050000Y-86375000D02*
X139050000Y-85375000D01*
X140050000Y-72375000D02*
X139050000Y-72375000D01*
X139050000Y-86375000D02*
X140050000Y-86375000D01*
X139050000Y-73375000D02*
X139050000Y-72375000D01*
X134000000Y-72375000D02*
X134000000Y-73375000D01*
X133000000Y-86375000D02*
X134000000Y-86375000D01*
X134000000Y-72375000D02*
X133000000Y-72375000D01*
X134000000Y-85375000D02*
X134000000Y-86375000D01*
X120000000Y-86375000D02*
X120000000Y-85375000D01*
X121000000Y-72375000D02*
X120000000Y-72375000D01*
X120000000Y-86375000D02*
X121000000Y-86375000D01*
X120000000Y-73375000D02*
X120000000Y-72375000D01*
X114950000Y-72375000D02*
X114950000Y-73375000D01*
X113950000Y-86375000D02*
X114950000Y-86375000D01*
X114950000Y-72375000D02*
X113950000Y-72375000D01*
X114950000Y-85375000D02*
X114950000Y-86375000D01*
X100950000Y-86375000D02*
X100950000Y-85375000D01*
X101950000Y-72375000D02*
X100950000Y-72375000D01*
X100950000Y-86375000D02*
X101950000Y-86375000D01*
X100950000Y-73375000D02*
X100950000Y-72375000D01*
X95900000Y-72375000D02*
X95900000Y-73375000D01*
X94900000Y-86375000D02*
X95900000Y-86375000D01*
X95900000Y-72375000D02*
X94900000Y-72375000D01*
X95900000Y-85375000D02*
X95900000Y-86375000D01*
X81900000Y-86375000D02*
X81900000Y-85375000D01*
X82900000Y-72375000D02*
X81900000Y-72375000D01*
X81900000Y-86375000D02*
X82900000Y-86375000D01*
X81900000Y-73375000D02*
X81900000Y-72375000D01*
X76850000Y-72375000D02*
X76850000Y-73375000D01*
X75850000Y-86375000D02*
X76850000Y-86375000D01*
X76850000Y-72375000D02*
X75850000Y-72375000D01*
X76850000Y-85375000D02*
X76850000Y-86375000D01*
X62850000Y-86375000D02*
X62850000Y-85375000D01*
X63850000Y-72375000D02*
X62850000Y-72375000D01*
X62850000Y-86375000D02*
X63850000Y-86375000D01*
X62850000Y-73375000D02*
X62850000Y-72375000D01*
X53037500Y-72375000D02*
X53037500Y-73375000D01*
X52037500Y-86375000D02*
X53037500Y-86375000D01*
X53037500Y-72375000D02*
X52037500Y-72375000D01*
X53037500Y-85375000D02*
X53037500Y-86375000D01*
X39037500Y-86375000D02*
X39037500Y-85375000D01*
X40037500Y-72375000D02*
X39037500Y-72375000D01*
X39037500Y-86375000D02*
X40037500Y-86375000D01*
X39037500Y-73375000D02*
X39037500Y-72375000D01*
X262587500Y-53325000D02*
X262587500Y-54325000D01*
X261587500Y-67325000D02*
X262587500Y-67325000D01*
X262587500Y-53325000D02*
X261587500Y-53325000D01*
X262587500Y-66325000D02*
X262587500Y-67325000D01*
X248587500Y-67325000D02*
X248587500Y-66325000D01*
X249587500Y-53325000D02*
X248587500Y-53325000D01*
X248587500Y-67325000D02*
X249587500Y-67325000D01*
X248587500Y-54325000D02*
X248587500Y-53325000D01*
X224487500Y-53325000D02*
X224487500Y-54325000D01*
X223487500Y-67325000D02*
X224487500Y-67325000D01*
X224487500Y-53325000D02*
X223487500Y-53325000D01*
X224487500Y-66325000D02*
X224487500Y-67325000D01*
X210487500Y-67325000D02*
X210487500Y-66325000D01*
X211487500Y-53325000D02*
X210487500Y-53325000D01*
X210487500Y-67325000D02*
X211487500Y-67325000D01*
X210487500Y-54325000D02*
X210487500Y-53325000D01*
X205437500Y-53325000D02*
X205437500Y-54325000D01*
X204437500Y-67325000D02*
X205437500Y-67325000D01*
X205437500Y-53325000D02*
X204437500Y-53325000D01*
X205437500Y-66325000D02*
X205437500Y-67325000D01*
X191437500Y-67325000D02*
X191437500Y-66325000D01*
X192437500Y-53325000D02*
X191437500Y-53325000D01*
X191437500Y-67325000D02*
X192437500Y-67325000D01*
X191437500Y-54325000D02*
X191437500Y-53325000D01*
X186387500Y-53325000D02*
X186387500Y-54325000D01*
X185387500Y-67325000D02*
X186387500Y-67325000D01*
X186387500Y-53325000D02*
X185387500Y-53325000D01*
X186387500Y-66325000D02*
X186387500Y-67325000D01*
X172387500Y-67325000D02*
X172387500Y-66325000D01*
X173387500Y-53325000D02*
X172387500Y-53325000D01*
X172387500Y-67325000D02*
X173387500Y-67325000D01*
X172387500Y-54325000D02*
X172387500Y-53325000D01*
X167337500Y-53325000D02*
X167337500Y-54325000D01*
X166337500Y-67325000D02*
X167337500Y-67325000D01*
X167337500Y-53325000D02*
X166337500Y-53325000D01*
X167337500Y-66325000D02*
X167337500Y-67325000D01*
X153337500Y-67325000D02*
X153337500Y-66325000D01*
X154337500Y-53325000D02*
X153337500Y-53325000D01*
X153337500Y-67325000D02*
X154337500Y-67325000D01*
X153337500Y-54325000D02*
X153337500Y-53325000D01*
X148287500Y-53325000D02*
X148287500Y-54325000D01*
X147287500Y-67325000D02*
X148287500Y-67325000D01*
X148287500Y-53325000D02*
X147287500Y-53325000D01*
X148287500Y-66325000D02*
X148287500Y-67325000D01*
X134287500Y-67325000D02*
X134287500Y-66325000D01*
X135287500Y-53325000D02*
X134287500Y-53325000D01*
X134287500Y-67325000D02*
X135287500Y-67325000D01*
X134287500Y-54325000D02*
X134287500Y-53325000D01*
X129237500Y-53325000D02*
X129237500Y-54325000D01*
X128237500Y-67325000D02*
X129237500Y-67325000D01*
X129237500Y-53325000D02*
X128237500Y-53325000D01*
X129237500Y-66325000D02*
X129237500Y-67325000D01*
X115237500Y-67325000D02*
X115237500Y-66325000D01*
X116237500Y-53325000D02*
X115237500Y-53325000D01*
X115237500Y-67325000D02*
X116237500Y-67325000D01*
X115237500Y-54325000D02*
X115237500Y-53325000D01*
X110187500Y-53325000D02*
X110187500Y-54325000D01*
X109187500Y-67325000D02*
X110187500Y-67325000D01*
X110187500Y-53325000D02*
X109187500Y-53325000D01*
X110187500Y-66325000D02*
X110187500Y-67325000D01*
X96187500Y-67325000D02*
X96187500Y-66325000D01*
X97187500Y-53325000D02*
X96187500Y-53325000D01*
X96187500Y-67325000D02*
X97187500Y-67325000D01*
X96187500Y-54325000D02*
X96187500Y-53325000D01*
X91137500Y-53325000D02*
X91137500Y-54325000D01*
X90137500Y-67325000D02*
X91137500Y-67325000D01*
X91137500Y-53325000D02*
X90137500Y-53325000D01*
X91137500Y-66325000D02*
X91137500Y-67325000D01*
X77137500Y-67325000D02*
X77137500Y-66325000D01*
X78137500Y-53325000D02*
X77137500Y-53325000D01*
X77137500Y-67325000D02*
X78137500Y-67325000D01*
X77137500Y-54325000D02*
X77137500Y-53325000D01*
X238775000Y-34275000D02*
X238775000Y-35275000D01*
X237775000Y-48275000D02*
X238775000Y-48275000D01*
X238775000Y-34275000D02*
X237775000Y-34275000D01*
X238775000Y-47275000D02*
X238775000Y-48275000D01*
X224775000Y-48275000D02*
X224775000Y-47275000D01*
X225775000Y-34275000D02*
X224775000Y-34275000D01*
X224775000Y-48275000D02*
X225775000Y-48275000D01*
X224775000Y-35275000D02*
X224775000Y-34275000D01*
X219725000Y-34275000D02*
X219725000Y-35275000D01*
X218725000Y-48275000D02*
X219725000Y-48275000D01*
X219725000Y-34275000D02*
X218725000Y-34275000D01*
X219725000Y-47275000D02*
X219725000Y-48275000D01*
X205725000Y-48275000D02*
X205725000Y-47275000D01*
X206725000Y-34275000D02*
X205725000Y-34275000D01*
X205725000Y-48275000D02*
X206725000Y-48275000D01*
X205725000Y-35275000D02*
X205725000Y-34275000D01*
X200675000Y-34275000D02*
X200675000Y-35275000D01*
X199675000Y-48275000D02*
X200675000Y-48275000D01*
X200675000Y-34275000D02*
X199675000Y-34275000D01*
X200675000Y-47275000D02*
X200675000Y-48275000D01*
X186675000Y-48275000D02*
X186675000Y-47275000D01*
X187675000Y-34275000D02*
X186675000Y-34275000D01*
X186675000Y-48275000D02*
X187675000Y-48275000D01*
X186675000Y-35275000D02*
X186675000Y-34275000D01*
X181625000Y-34275000D02*
X181625000Y-35275000D01*
X180625000Y-48275000D02*
X181625000Y-48275000D01*
X181625000Y-34275000D02*
X180625000Y-34275000D01*
X181625000Y-47275000D02*
X181625000Y-48275000D01*
X167625000Y-48275000D02*
X167625000Y-47275000D01*
X168625000Y-34275000D02*
X167625000Y-34275000D01*
X167625000Y-48275000D02*
X168625000Y-48275000D01*
X167625000Y-35275000D02*
X167625000Y-34275000D01*
X162575000Y-34275000D02*
X162575000Y-35275000D01*
X161575000Y-48275000D02*
X162575000Y-48275000D01*
X162575000Y-34275000D02*
X161575000Y-34275000D01*
X162575000Y-47275000D02*
X162575000Y-48275000D01*
X148575000Y-48275000D02*
X148575000Y-47275000D01*
X149575000Y-34275000D02*
X148575000Y-34275000D01*
X148575000Y-48275000D02*
X149575000Y-48275000D01*
X148575000Y-35275000D02*
X148575000Y-34275000D01*
X143525000Y-34275000D02*
X143525000Y-35275000D01*
X142525000Y-48275000D02*
X143525000Y-48275000D01*
X143525000Y-34275000D02*
X142525000Y-34275000D01*
X143525000Y-47275000D02*
X143525000Y-48275000D01*
X129525000Y-48275000D02*
X129525000Y-47275000D01*
X130525000Y-34275000D02*
X129525000Y-34275000D01*
X129525000Y-48275000D02*
X130525000Y-48275000D01*
X129525000Y-35275000D02*
X129525000Y-34275000D01*
X124475000Y-34275000D02*
X124475000Y-35275000D01*
X123475000Y-48275000D02*
X124475000Y-48275000D01*
X124475000Y-34275000D02*
X123475000Y-34275000D01*
X124475000Y-47275000D02*
X124475000Y-48275000D01*
X110475000Y-48275000D02*
X110475000Y-47275000D01*
X111475000Y-34275000D02*
X110475000Y-34275000D01*
X110475000Y-48275000D02*
X111475000Y-48275000D01*
X110475000Y-35275000D02*
X110475000Y-34275000D01*
X105425000Y-34275000D02*
X105425000Y-35275000D01*
X104425000Y-48275000D02*
X105425000Y-48275000D01*
X105425000Y-34275000D02*
X104425000Y-34275000D01*
X105425000Y-47275000D02*
X105425000Y-48275000D01*
X91425000Y-48275000D02*
X91425000Y-47275000D01*
X92425000Y-34275000D02*
X91425000Y-34275000D01*
X91425000Y-48275000D02*
X92425000Y-48275000D01*
X91425000Y-35275000D02*
X91425000Y-34275000D01*
X86375000Y-34275000D02*
X86375000Y-35275000D01*
X85375000Y-48275000D02*
X86375000Y-48275000D01*
X86375000Y-34275000D02*
X85375000Y-34275000D01*
X86375000Y-47275000D02*
X86375000Y-48275000D01*
X72375000Y-48275000D02*
X72375000Y-47275000D01*
X73375000Y-34275000D02*
X72375000Y-34275000D01*
X72375000Y-48275000D02*
X73375000Y-48275000D01*
X72375000Y-35275000D02*
X72375000Y-34275000D01*
%LPC*%
D11*
X162600000Y-104540050D03*
X138800000Y-104540050D03*
D12*
X162600000Y-89300050D03*
X138800000Y-89300050D03*
D13*
X245745000Y-41275000D03*
X255905000Y-41275000D03*
D12*
X250825000Y-41275000D03*
D14*
X247015000Y-38735000D03*
X253365000Y-36195000D03*
D13*
X231457500Y-60325000D03*
X241617500Y-60325000D03*
D12*
X236537500Y-60325000D03*
D14*
X232727500Y-57785000D03*
X239077500Y-55245000D03*
D13*
X279717500Y-41275000D03*
X269557500Y-41275000D03*
D12*
X274637500Y-41275000D03*
D14*
X278447500Y-43815000D03*
X272097500Y-46355000D03*
D13*
X38576250Y-60325000D03*
X48736250Y-60325000D03*
D12*
X43656250Y-60325000D03*
D14*
X39846250Y-57785000D03*
X46196250Y-55245000D03*
D13*
X60007500Y-60325000D03*
X70167500Y-60325000D03*
D12*
X65087500Y-60325000D03*
D14*
X61277500Y-57785000D03*
X67627500Y-55245000D03*
D13*
X55245000Y-41275000D03*
X65405000Y-41275000D03*
D12*
X60325000Y-41275000D03*
D14*
X56515000Y-38735000D03*
X62865000Y-36195000D03*
D13*
X36195000Y-41275000D03*
X46355000Y-41275000D03*
D12*
X41275000Y-41275000D03*
D14*
X37465000Y-38735000D03*
X43815000Y-36195000D03*
D15*
X269383399Y-37180000D03*
X260743399Y-37180000D03*
D16*
X262173399Y-36650000D03*
D17*
X260743399Y-33000000D03*
D16*
X267953399Y-36650000D03*
D17*
X269383399Y-33000000D03*
D13*
X274320000Y-98425000D03*
X284480000Y-98425000D03*
D12*
X279400000Y-98425000D03*
D14*
X275590000Y-95885000D03*
X281940000Y-93345000D03*
D13*
X271938750Y-60325000D03*
X282098750Y-60325000D03*
D12*
X277018750Y-60325000D03*
D14*
X273208750Y-57785000D03*
X279558750Y-55245000D03*
D13*
X274320000Y-79375000D03*
X284480000Y-79375000D03*
D12*
X279400000Y-79375000D03*
D14*
X275590000Y-76835000D03*
X281940000Y-74295000D03*
D13*
X255270000Y-98425000D03*
X265430000Y-98425000D03*
D12*
X260350000Y-98425000D03*
D14*
X256540000Y-95885000D03*
X262890000Y-93345000D03*
D13*
X236220000Y-98425000D03*
X246380000Y-98425000D03*
D12*
X241300000Y-98425000D03*
D14*
X237490000Y-95885000D03*
X243840000Y-93345000D03*
D13*
X217170000Y-98425000D03*
X227330000Y-98425000D03*
D12*
X222250000Y-98425000D03*
D14*
X218440000Y-95885000D03*
X224790000Y-93345000D03*
D13*
X198120000Y-98425000D03*
X208280000Y-98425000D03*
D12*
X203200000Y-98425000D03*
D14*
X199390000Y-95885000D03*
X205740000Y-93345000D03*
D13*
X176688750Y-98425000D03*
X186848750Y-98425000D03*
D12*
X181768750Y-98425000D03*
D14*
X177958750Y-95885000D03*
X184308750Y-93345000D03*
D13*
X145732500Y-98425000D03*
X155892500Y-98425000D03*
D12*
X150812500Y-98425000D03*
D14*
X147002500Y-95885000D03*
X153352500Y-93345000D03*
D13*
X114776250Y-98425000D03*
X124936250Y-98425000D03*
D12*
X119856250Y-98425000D03*
D14*
X116046250Y-95885000D03*
X122396250Y-93345000D03*
D13*
X93345000Y-98425000D03*
X103505000Y-98425000D03*
D12*
X98425000Y-98425000D03*
D14*
X94615000Y-95885000D03*
X100965000Y-93345000D03*
D13*
X74295000Y-98425000D03*
X84455000Y-98425000D03*
D12*
X79375000Y-98425000D03*
D14*
X75565000Y-95885000D03*
X81915000Y-93345000D03*
D13*
X55245000Y-98425000D03*
X65405000Y-98425000D03*
D12*
X60325000Y-98425000D03*
D14*
X56515000Y-95885000D03*
X62865000Y-93345000D03*
D13*
X36195000Y-98425000D03*
X46355000Y-98425000D03*
D12*
X41275000Y-98425000D03*
D14*
X37465000Y-95885000D03*
X43815000Y-93345000D03*
D13*
X255270000Y-79375000D03*
X265430000Y-79375000D03*
D12*
X260350000Y-79375000D03*
D14*
X256540000Y-76835000D03*
X262890000Y-74295000D03*
D13*
X236220000Y-79375000D03*
X246380000Y-79375000D03*
D12*
X241300000Y-79375000D03*
D14*
X237490000Y-76835000D03*
X243840000Y-74295000D03*
D13*
X217170000Y-79375000D03*
X227330000Y-79375000D03*
D12*
X222250000Y-79375000D03*
D14*
X218440000Y-76835000D03*
X224790000Y-74295000D03*
D13*
X198120000Y-79375000D03*
X208280000Y-79375000D03*
D12*
X203200000Y-79375000D03*
D14*
X199390000Y-76835000D03*
X205740000Y-74295000D03*
D13*
X179070000Y-79375000D03*
X189230000Y-79375000D03*
D12*
X184150000Y-79375000D03*
D14*
X180340000Y-76835000D03*
X186690000Y-74295000D03*
D13*
X160020000Y-79375000D03*
X170180000Y-79375000D03*
D12*
X165100000Y-79375000D03*
D14*
X161290000Y-76835000D03*
X167640000Y-74295000D03*
D13*
X140970000Y-79375000D03*
X151130000Y-79375000D03*
D12*
X146050000Y-79375000D03*
D14*
X142240000Y-76835000D03*
X148590000Y-74295000D03*
D13*
X121920000Y-79375000D03*
X132080000Y-79375000D03*
D12*
X127000000Y-79375000D03*
D14*
X123190000Y-76835000D03*
X129540000Y-74295000D03*
D13*
X102870000Y-79375000D03*
X113030000Y-79375000D03*
D12*
X107950000Y-79375000D03*
D14*
X104140000Y-76835000D03*
X110490000Y-74295000D03*
D13*
X83820000Y-79375000D03*
X93980000Y-79375000D03*
D12*
X88900000Y-79375000D03*
D14*
X85090000Y-76835000D03*
X91440000Y-74295000D03*
D13*
X64770000Y-79375000D03*
X74930000Y-79375000D03*
D12*
X69850000Y-79375000D03*
D14*
X66040000Y-76835000D03*
X72390000Y-74295000D03*
D13*
X40957500Y-79375000D03*
X51117500Y-79375000D03*
D12*
X46037500Y-79375000D03*
D14*
X42227500Y-76835000D03*
X48577500Y-74295000D03*
D13*
X250507500Y-60325000D03*
X260667500Y-60325000D03*
D12*
X255587500Y-60325000D03*
D14*
X251777500Y-57785000D03*
X258127500Y-55245000D03*
D13*
X212407500Y-60325000D03*
X222567500Y-60325000D03*
D12*
X217487500Y-60325000D03*
D14*
X213677500Y-57785000D03*
X220027500Y-55245000D03*
D13*
X193357500Y-60325000D03*
X203517500Y-60325000D03*
D12*
X198437500Y-60325000D03*
D14*
X194627500Y-57785000D03*
X200977500Y-55245000D03*
D13*
X174307500Y-60325000D03*
X184467500Y-60325000D03*
D12*
X179387500Y-60325000D03*
D14*
X175577500Y-57785000D03*
X181927500Y-55245000D03*
D13*
X155257500Y-60325000D03*
X165417500Y-60325000D03*
D12*
X160337500Y-60325000D03*
D14*
X156527500Y-57785000D03*
X162877500Y-55245000D03*
D13*
X136207500Y-60325000D03*
X146367500Y-60325000D03*
D12*
X141287500Y-60325000D03*
D14*
X137477500Y-57785000D03*
X143827500Y-55245000D03*
D13*
X117157500Y-60325000D03*
X127317500Y-60325000D03*
D12*
X122237500Y-60325000D03*
D14*
X118427500Y-57785000D03*
X124777500Y-55245000D03*
D13*
X98107500Y-60325000D03*
X108267500Y-60325000D03*
D12*
X103187500Y-60325000D03*
D14*
X99377500Y-57785000D03*
X105727500Y-55245000D03*
D13*
X79057500Y-60325000D03*
X89217500Y-60325000D03*
D12*
X84137500Y-60325000D03*
D14*
X80327500Y-57785000D03*
X86677500Y-55245000D03*
D13*
X226695000Y-41275000D03*
X236855000Y-41275000D03*
D12*
X231775000Y-41275000D03*
D14*
X227965000Y-38735000D03*
X234315000Y-36195000D03*
D13*
X207645000Y-41275000D03*
X217805000Y-41275000D03*
D12*
X212725000Y-41275000D03*
D14*
X208915000Y-38735000D03*
X215265000Y-36195000D03*
D13*
X188595000Y-41275000D03*
X198755000Y-41275000D03*
D12*
X193675000Y-41275000D03*
D14*
X189865000Y-38735000D03*
X196215000Y-36195000D03*
D13*
X169545000Y-41275000D03*
X179705000Y-41275000D03*
D12*
X174625000Y-41275000D03*
D14*
X170815000Y-38735000D03*
X177165000Y-36195000D03*
D13*
X150495000Y-41275000D03*
X160655000Y-41275000D03*
D12*
X155575000Y-41275000D03*
D14*
X151765000Y-38735000D03*
X158115000Y-36195000D03*
D13*
X131445000Y-41275000D03*
X141605000Y-41275000D03*
D12*
X136525000Y-41275000D03*
D14*
X132715000Y-38735000D03*
X139065000Y-36195000D03*
D13*
X112395000Y-41275000D03*
X122555000Y-41275000D03*
D12*
X117475000Y-41275000D03*
D14*
X113665000Y-38735000D03*
X120015000Y-36195000D03*
D13*
X93345000Y-41275000D03*
X103505000Y-41275000D03*
D12*
X98425000Y-41275000D03*
D14*
X94615000Y-38735000D03*
X100965000Y-36195000D03*
D13*
X74295000Y-41275000D03*
X84455000Y-41275000D03*
D12*
X79375000Y-41275000D03*
D14*
X75565000Y-38735000D03*
X81915000Y-36195000D03*
M02*
