%TF.GenerationSoftware,KiCad,Pcbnew,(5.1.5)-3*%
%TF.CreationDate,2020-03-30T21:53:17+02:00*%
%TF.ProjectId,UT51,55543531-2e6b-4696-9361-645f70636258,rev?*%
%TF.SameCoordinates,Original*%
%TF.FileFunction,Soldermask,Bot*%
%TF.FilePolarity,Negative*%
%FSLAX46Y46*%
G04 Gerber Fmt 4.6, Leading zero omitted, Abs format (unit mm)*
G04 Created by KiCad (PCBNEW (5.1.5)-3) date 2020-03-30 21:53:17*
%MOMM*%
%LPD*%
G04 APERTURE LIST*
%ADD10C,0.300000*%
%ADD11C,3.448000*%
%ADD12C,4.387800*%
%ADD13C,0.100000*%
%ADD14R,2.200000X2.500000*%
%ADD15R,0.800000X0.700000*%
%ADD16R,0.800000X1.100000*%
%ADD17R,1.900000X1.900000*%
%ADD18R,1.300000X1.600000*%
%ADD19R,2.950000X2.900000*%
%ADD20C,2.101800*%
%ADD21C,3.400000*%
%ADD22R,1.600000X1.300000*%
%ADD23R,1.000000X1.850000*%
%ADD24R,0.700000X1.850000*%
%ADD25O,1.400000X2.500000*%
%ADD26C,1.050000*%
%ADD27O,1.400000X2.000000*%
%ADD28R,1.900000X1.400000*%
G04 APERTURE END LIST*
D10*
X283125892Y-106247321D02*
X283125892Y-105247321D01*
X283125892Y-105390178D02*
X283054464Y-105318750D01*
X282911607Y-105247321D01*
X282697321Y-105247321D01*
X282554464Y-105318750D01*
X282483035Y-105461607D01*
X282483035Y-106247321D01*
X282483035Y-105461607D02*
X282411607Y-105318750D01*
X282268750Y-105247321D01*
X282054464Y-105247321D01*
X281911607Y-105318750D01*
X281840178Y-105461607D01*
X281840178Y-106247321D01*
X281125892Y-106247321D02*
X281125892Y-105247321D01*
X281125892Y-104747321D02*
X281197321Y-104818750D01*
X281125892Y-104890178D01*
X281054464Y-104818750D01*
X281125892Y-104747321D01*
X281125892Y-104890178D01*
X280411607Y-105247321D02*
X280411607Y-106247321D01*
X280411607Y-105390178D02*
X280340178Y-105318750D01*
X280197321Y-105247321D01*
X279983035Y-105247321D01*
X279840178Y-105318750D01*
X279768750Y-105461607D01*
X279768750Y-106247321D01*
X279054464Y-106247321D02*
X279054464Y-105247321D01*
X279054464Y-104747321D02*
X279125892Y-104818750D01*
X279054464Y-104890178D01*
X278983035Y-104818750D01*
X279054464Y-104747321D01*
X279054464Y-104890178D01*
X278340178Y-106247321D02*
X278340178Y-105247321D01*
X278340178Y-105390178D02*
X278268750Y-105318750D01*
X278125892Y-105247321D01*
X277911607Y-105247321D01*
X277768750Y-105318750D01*
X277697321Y-105461607D01*
X277697321Y-106247321D01*
X277697321Y-105461607D02*
X277625892Y-105318750D01*
X277483035Y-105247321D01*
X277268750Y-105247321D01*
X277125892Y-105318750D01*
X277054464Y-105461607D01*
X277054464Y-106247321D01*
X276125892Y-106247321D02*
X276268750Y-106175892D01*
X276340178Y-106104464D01*
X276411607Y-105961607D01*
X276411607Y-105533035D01*
X276340178Y-105390178D01*
X276268750Y-105318750D01*
X276125892Y-105247321D01*
X275911607Y-105247321D01*
X275768750Y-105318750D01*
X275697321Y-105390178D01*
X275625892Y-105533035D01*
X275625892Y-105961607D01*
X275697321Y-106104464D01*
X275768750Y-106175892D01*
X275911607Y-106247321D01*
X276125892Y-106247321D01*
X274983035Y-105247321D02*
X274983035Y-106247321D01*
X274983035Y-105390178D02*
X274911607Y-105318750D01*
X274768750Y-105247321D01*
X274554464Y-105247321D01*
X274411607Y-105318750D01*
X274340178Y-105461607D01*
X274340178Y-106247321D01*
X273625892Y-106104464D02*
X273554464Y-106175892D01*
X273625892Y-106247321D01*
X273697321Y-106175892D01*
X273625892Y-106104464D01*
X273625892Y-106247321D01*
X272911607Y-105247321D02*
X272911607Y-106247321D01*
X272911607Y-105390178D02*
X272840178Y-105318750D01*
X272697321Y-105247321D01*
X272483035Y-105247321D01*
X272340178Y-105318750D01*
X272268750Y-105461607D01*
X272268750Y-106247321D01*
X271340178Y-106247321D02*
X271483035Y-106175892D01*
X271554464Y-106104464D01*
X271625892Y-105961607D01*
X271625892Y-105533035D01*
X271554464Y-105390178D01*
X271483035Y-105318750D01*
X271340178Y-105247321D01*
X271125892Y-105247321D01*
X270983035Y-105318750D01*
X270911607Y-105390178D01*
X270840178Y-105533035D01*
X270840178Y-105961607D01*
X270911607Y-106104464D01*
X270983035Y-106175892D01*
X271125892Y-106247321D01*
X271340178Y-106247321D01*
X76090178Y-104890178D02*
X76018750Y-104818750D01*
X75875892Y-104747321D01*
X75518750Y-104747321D01*
X75375892Y-104818750D01*
X75304464Y-104890178D01*
X75233035Y-105033035D01*
X75233035Y-105175892D01*
X75304464Y-105390178D01*
X76161607Y-106247321D01*
X75233035Y-106247321D01*
X74304464Y-104747321D02*
X74161607Y-104747321D01*
X74018750Y-104818750D01*
X73947321Y-104890178D01*
X73875892Y-105033035D01*
X73804464Y-105318750D01*
X73804464Y-105675892D01*
X73875892Y-105961607D01*
X73947321Y-106104464D01*
X74018750Y-106175892D01*
X74161607Y-106247321D01*
X74304464Y-106247321D01*
X74447321Y-106175892D01*
X74518750Y-106104464D01*
X74590178Y-105961607D01*
X74661607Y-105675892D01*
X74661607Y-105318750D01*
X74590178Y-105033035D01*
X74518750Y-104890178D01*
X74447321Y-104818750D01*
X74304464Y-104747321D01*
X73233035Y-104890178D02*
X73161607Y-104818750D01*
X73018750Y-104747321D01*
X72661607Y-104747321D01*
X72518750Y-104818750D01*
X72447321Y-104890178D01*
X72375892Y-105033035D01*
X72375892Y-105175892D01*
X72447321Y-105390178D01*
X73304464Y-106247321D01*
X72375892Y-106247321D01*
X71447321Y-104747321D02*
X71304464Y-104747321D01*
X71161607Y-104818750D01*
X71090178Y-104890178D01*
X71018750Y-105033035D01*
X70947321Y-105318750D01*
X70947321Y-105675892D01*
X71018750Y-105961607D01*
X71090178Y-106104464D01*
X71161607Y-106175892D01*
X71304464Y-106247321D01*
X71447321Y-106247321D01*
X71590178Y-106175892D01*
X71661607Y-106104464D01*
X71733035Y-105961607D01*
X71804464Y-105675892D01*
X71804464Y-105318750D01*
X71733035Y-105033035D01*
X71661607Y-104890178D01*
X71590178Y-104818750D01*
X71447321Y-104747321D01*
X70018750Y-104747321D02*
X69875892Y-104747321D01*
X69733035Y-104818750D01*
X69661607Y-104890178D01*
X69590178Y-105033035D01*
X69518750Y-105318750D01*
X69518750Y-105675892D01*
X69590178Y-105961607D01*
X69661607Y-106104464D01*
X69733035Y-106175892D01*
X69875892Y-106247321D01*
X70018750Y-106247321D01*
X70161607Y-106175892D01*
X70233035Y-106104464D01*
X70304464Y-105961607D01*
X70375892Y-105675892D01*
X70375892Y-105318750D01*
X70304464Y-105033035D01*
X70233035Y-104890178D01*
X70161607Y-104818750D01*
X70018750Y-104747321D01*
X69018750Y-104747321D02*
X68090178Y-104747321D01*
X68590178Y-105318750D01*
X68375892Y-105318750D01*
X68233035Y-105390178D01*
X68161607Y-105461607D01*
X68090178Y-105604464D01*
X68090178Y-105961607D01*
X68161607Y-106104464D01*
X68233035Y-106175892D01*
X68375892Y-106247321D01*
X68804464Y-106247321D01*
X68947321Y-106175892D01*
X69018750Y-106104464D01*
X67518750Y-104890178D02*
X67447321Y-104818750D01*
X67304464Y-104747321D01*
X66947321Y-104747321D01*
X66804464Y-104818750D01*
X66733035Y-104890178D01*
X66661607Y-105033035D01*
X66661607Y-105175892D01*
X66733035Y-105390178D01*
X67590178Y-106247321D01*
X66661607Y-106247321D01*
X65947321Y-106247321D02*
X65661607Y-106247321D01*
X65518750Y-106175892D01*
X65447321Y-106104464D01*
X65304464Y-105890178D01*
X65233035Y-105604464D01*
X65233035Y-105033035D01*
X65304464Y-104890178D01*
X65375892Y-104818750D01*
X65518750Y-104747321D01*
X65804464Y-104747321D01*
X65947321Y-104818750D01*
X66018750Y-104890178D01*
X66090178Y-105033035D01*
X66090178Y-105390178D01*
X66018750Y-105533035D01*
X65947321Y-105604464D01*
X65804464Y-105675892D01*
X65518750Y-105675892D01*
X65375892Y-105604464D01*
X65304464Y-105533035D01*
X65233035Y-105390178D01*
X63090178Y-106747321D02*
X63090178Y-104604464D01*
X60018750Y-106104464D02*
X60090178Y-106175892D01*
X60304464Y-106247321D01*
X60447321Y-106247321D01*
X60661607Y-106175892D01*
X60804464Y-106033035D01*
X60875892Y-105890178D01*
X60947321Y-105604464D01*
X60947321Y-105390178D01*
X60875892Y-105104464D01*
X60804464Y-104961607D01*
X60661607Y-104818750D01*
X60447321Y-104747321D01*
X60304464Y-104747321D01*
X60090178Y-104818750D01*
X60018750Y-104890178D01*
X59375892Y-106247321D02*
X59375892Y-105247321D01*
X59375892Y-105533035D02*
X59304464Y-105390178D01*
X59233035Y-105318750D01*
X59090178Y-105247321D01*
X58947321Y-105247321D01*
X57875892Y-106175892D02*
X58018750Y-106247321D01*
X58304464Y-106247321D01*
X58447321Y-106175892D01*
X58518750Y-106033035D01*
X58518750Y-105461607D01*
X58447321Y-105318750D01*
X58304464Y-105247321D01*
X58018750Y-105247321D01*
X57875892Y-105318750D01*
X57804464Y-105461607D01*
X57804464Y-105604464D01*
X58518750Y-105747321D01*
X56518750Y-106247321D02*
X56518750Y-104747321D01*
X56518750Y-106175892D02*
X56661607Y-106247321D01*
X56947321Y-106247321D01*
X57090178Y-106175892D01*
X57161607Y-106104464D01*
X57233035Y-105961607D01*
X57233035Y-105533035D01*
X57161607Y-105390178D01*
X57090178Y-105318750D01*
X56947321Y-105247321D01*
X56661607Y-105247321D01*
X56518750Y-105318750D01*
X55804464Y-106247321D02*
X55804464Y-105247321D01*
X55804464Y-104747321D02*
X55875892Y-104818750D01*
X55804464Y-104890178D01*
X55733035Y-104818750D01*
X55804464Y-104747321D01*
X55804464Y-104890178D01*
X55304464Y-105247321D02*
X54733035Y-105247321D01*
X55090178Y-104747321D02*
X55090178Y-106033035D01*
X55018750Y-106175892D01*
X54875892Y-106247321D01*
X54733035Y-106247321D01*
X54304464Y-106175892D02*
X54161607Y-106247321D01*
X53875892Y-106247321D01*
X53733035Y-106175892D01*
X53661607Y-106033035D01*
X53661607Y-105961607D01*
X53733035Y-105818750D01*
X53875892Y-105747321D01*
X54090178Y-105747321D01*
X54233035Y-105675892D01*
X54304464Y-105533035D01*
X54304464Y-105461607D01*
X54233035Y-105318750D01*
X54090178Y-105247321D01*
X53875892Y-105247321D01*
X53733035Y-105318750D01*
X52090178Y-105247321D02*
X51518750Y-105247321D01*
X51875892Y-104747321D02*
X51875892Y-106033035D01*
X51804464Y-106175892D01*
X51661607Y-106247321D01*
X51518750Y-106247321D01*
X50804464Y-106247321D02*
X50947321Y-106175892D01*
X51018750Y-106104464D01*
X51090178Y-105961607D01*
X51090178Y-105533035D01*
X51018750Y-105390178D01*
X50947321Y-105318750D01*
X50804464Y-105247321D01*
X50590178Y-105247321D01*
X50447321Y-105318750D01*
X50375892Y-105390178D01*
X50304464Y-105533035D01*
X50304464Y-105961607D01*
X50375892Y-106104464D01*
X50447321Y-106175892D01*
X50590178Y-106247321D01*
X50804464Y-106247321D01*
X47875892Y-106247321D02*
X47875892Y-105461607D01*
X47947321Y-105318750D01*
X48090178Y-105247321D01*
X48375892Y-105247321D01*
X48518750Y-105318750D01*
X47875892Y-106175892D02*
X48018750Y-106247321D01*
X48375892Y-106247321D01*
X48518750Y-106175892D01*
X48590178Y-106033035D01*
X48590178Y-105890178D01*
X48518750Y-105747321D01*
X48375892Y-105675892D01*
X48018750Y-105675892D01*
X47875892Y-105604464D01*
X47161607Y-106247321D02*
X47161607Y-105247321D01*
X47161607Y-104747321D02*
X47233035Y-104818750D01*
X47161607Y-104890178D01*
X47090178Y-104818750D01*
X47161607Y-104747321D01*
X47161607Y-104890178D01*
X46161607Y-104747321D02*
X46018750Y-104747321D01*
X45875892Y-104818750D01*
X45804464Y-104890178D01*
X45733035Y-105033035D01*
X45661607Y-105318750D01*
X45661607Y-105675892D01*
X45733035Y-105961607D01*
X45804464Y-106104464D01*
X45875892Y-106175892D01*
X46018750Y-106247321D01*
X46161607Y-106247321D01*
X46304464Y-106175892D01*
X46375892Y-106104464D01*
X46447321Y-105961607D01*
X46518750Y-105675892D01*
X46518750Y-105318750D01*
X46447321Y-105033035D01*
X46375892Y-104890178D01*
X46304464Y-104818750D01*
X46161607Y-104747321D01*
X45161607Y-104747321D02*
X44233035Y-104747321D01*
X44733035Y-105318750D01*
X44518750Y-105318750D01*
X44375892Y-105390178D01*
X44304464Y-105461607D01*
X44233035Y-105604464D01*
X44233035Y-105961607D01*
X44304464Y-106104464D01*
X44375892Y-106175892D01*
X44518750Y-106247321D01*
X44947321Y-106247321D01*
X45090178Y-106175892D01*
X45161607Y-106104464D01*
X43518750Y-104747321D02*
X43661607Y-105033035D01*
X42947321Y-106175892D02*
X42804464Y-106247321D01*
X42518750Y-106247321D01*
X42375892Y-106175892D01*
X42304464Y-106033035D01*
X42304464Y-105961607D01*
X42375892Y-105818750D01*
X42518750Y-105747321D01*
X42733035Y-105747321D01*
X42875892Y-105675892D01*
X42947321Y-105533035D01*
X42947321Y-105461607D01*
X42875892Y-105318750D01*
X42733035Y-105247321D01*
X42518750Y-105247321D01*
X42375892Y-105318750D01*
X40518750Y-104747321D02*
X40518750Y-105961607D01*
X40447321Y-106104464D01*
X40375892Y-106175892D01*
X40233035Y-106247321D01*
X39947321Y-106247321D01*
X39804464Y-106175892D01*
X39733035Y-106104464D01*
X39661607Y-105961607D01*
X39661607Y-104747321D01*
X39161607Y-104747321D02*
X38304464Y-104747321D01*
X38733035Y-106247321D02*
X38733035Y-104747321D01*
X37161607Y-105247321D02*
X37161607Y-106247321D01*
X37518750Y-104675892D02*
X37875892Y-105747321D01*
X36947321Y-105747321D01*
X36518750Y-104747321D02*
X35518750Y-104747321D01*
X36161607Y-106247321D01*
X34947321Y-106104464D02*
X34875892Y-106175892D01*
X34947321Y-106247321D01*
X35018750Y-106175892D01*
X34947321Y-106104464D01*
X34947321Y-106247321D01*
X34304464Y-104890178D02*
X34233035Y-104818750D01*
X34090178Y-104747321D01*
X33733035Y-104747321D01*
X33590178Y-104818750D01*
X33518750Y-104890178D01*
X33447321Y-105033035D01*
X33447321Y-105175892D01*
X33518750Y-105390178D01*
X34375892Y-106247321D01*
X33447321Y-106247321D01*
D11*
X162600000Y-104540050D03*
X138800000Y-104540050D03*
D12*
X162600000Y-89300050D03*
X138800000Y-89300050D03*
D13*
G36*
X270974994Y-70126535D02*
G01*
X271005936Y-70131125D01*
X271036279Y-70138725D01*
X271065731Y-70149263D01*
X271094009Y-70162638D01*
X271120839Y-70178719D01*
X271145964Y-70197353D01*
X271169141Y-70218360D01*
X271190148Y-70241537D01*
X271208782Y-70266662D01*
X271224863Y-70293492D01*
X271238238Y-70321770D01*
X271248776Y-70351222D01*
X271256376Y-70381565D01*
X271260966Y-70412507D01*
X271262501Y-70443750D01*
X271262501Y-71156250D01*
X271260966Y-71187493D01*
X271256376Y-71218435D01*
X271248776Y-71248778D01*
X271238238Y-71278230D01*
X271224863Y-71306508D01*
X271208782Y-71333338D01*
X271190148Y-71358463D01*
X271169141Y-71381640D01*
X271145964Y-71402647D01*
X271120839Y-71421281D01*
X271094009Y-71437362D01*
X271065731Y-71450737D01*
X271036279Y-71461275D01*
X271005936Y-71468875D01*
X270974994Y-71473465D01*
X270943751Y-71475000D01*
X270306251Y-71475000D01*
X270275008Y-71473465D01*
X270244066Y-71468875D01*
X270213723Y-71461275D01*
X270184271Y-71450737D01*
X270155993Y-71437362D01*
X270129163Y-71421281D01*
X270104038Y-71402647D01*
X270080861Y-71381640D01*
X270059854Y-71358463D01*
X270041220Y-71333338D01*
X270025139Y-71306508D01*
X270011764Y-71278230D01*
X270001226Y-71248778D01*
X269993626Y-71218435D01*
X269989036Y-71187493D01*
X269987501Y-71156250D01*
X269987501Y-70443750D01*
X269989036Y-70412507D01*
X269993626Y-70381565D01*
X270001226Y-70351222D01*
X270011764Y-70321770D01*
X270025139Y-70293492D01*
X270041220Y-70266662D01*
X270059854Y-70241537D01*
X270080861Y-70218360D01*
X270104038Y-70197353D01*
X270129163Y-70178719D01*
X270155993Y-70162638D01*
X270184271Y-70149263D01*
X270213723Y-70138725D01*
X270244066Y-70131125D01*
X270275008Y-70126535D01*
X270306251Y-70125000D01*
X270943751Y-70125000D01*
X270974994Y-70126535D01*
G37*
G36*
X269399994Y-70126535D02*
G01*
X269430936Y-70131125D01*
X269461279Y-70138725D01*
X269490731Y-70149263D01*
X269519009Y-70162638D01*
X269545839Y-70178719D01*
X269570964Y-70197353D01*
X269594141Y-70218360D01*
X269615148Y-70241537D01*
X269633782Y-70266662D01*
X269649863Y-70293492D01*
X269663238Y-70321770D01*
X269673776Y-70351222D01*
X269681376Y-70381565D01*
X269685966Y-70412507D01*
X269687501Y-70443750D01*
X269687501Y-71156250D01*
X269685966Y-71187493D01*
X269681376Y-71218435D01*
X269673776Y-71248778D01*
X269663238Y-71278230D01*
X269649863Y-71306508D01*
X269633782Y-71333338D01*
X269615148Y-71358463D01*
X269594141Y-71381640D01*
X269570964Y-71402647D01*
X269545839Y-71421281D01*
X269519009Y-71437362D01*
X269490731Y-71450737D01*
X269461279Y-71461275D01*
X269430936Y-71468875D01*
X269399994Y-71473465D01*
X269368751Y-71475000D01*
X268731251Y-71475000D01*
X268700008Y-71473465D01*
X268669066Y-71468875D01*
X268638723Y-71461275D01*
X268609271Y-71450737D01*
X268580993Y-71437362D01*
X268554163Y-71421281D01*
X268529038Y-71402647D01*
X268505861Y-71381640D01*
X268484854Y-71358463D01*
X268466220Y-71333338D01*
X268450139Y-71306508D01*
X268436764Y-71278230D01*
X268426226Y-71248778D01*
X268418626Y-71218435D01*
X268414036Y-71187493D01*
X268412501Y-71156250D01*
X268412501Y-70443750D01*
X268414036Y-70412507D01*
X268418626Y-70381565D01*
X268426226Y-70351222D01*
X268436764Y-70321770D01*
X268450139Y-70293492D01*
X268466220Y-70266662D01*
X268484854Y-70241537D01*
X268505861Y-70218360D01*
X268529038Y-70197353D01*
X268554163Y-70178719D01*
X268580993Y-70162638D01*
X268609271Y-70149263D01*
X268638723Y-70138725D01*
X268669066Y-70131125D01*
X268700008Y-70126535D01*
X268731251Y-70125000D01*
X269368751Y-70125000D01*
X269399994Y-70126535D01*
G37*
D14*
X269540000Y-64540000D03*
X269540000Y-67440000D03*
X271840000Y-67440000D03*
X271840000Y-64540000D03*
D15*
X264513399Y-41149101D03*
X264513399Y-43049101D03*
X266513399Y-43049101D03*
D16*
X266513399Y-41349101D03*
D13*
G36*
X264890029Y-63235782D02*
G01*
X264905803Y-63238122D01*
X264921272Y-63241997D01*
X264936287Y-63247370D01*
X264950703Y-63254188D01*
X264964381Y-63262386D01*
X264977190Y-63271886D01*
X264989006Y-63282595D01*
X264999715Y-63294411D01*
X265009215Y-63307220D01*
X265017413Y-63320898D01*
X265024231Y-63335314D01*
X265029604Y-63350329D01*
X265033479Y-63365798D01*
X265035819Y-63381572D01*
X265036601Y-63397500D01*
X265036601Y-64347500D01*
X265035819Y-64363428D01*
X265033479Y-64379202D01*
X265029604Y-64394671D01*
X265024231Y-64409686D01*
X265017413Y-64424102D01*
X265009215Y-64437780D01*
X264999715Y-64450589D01*
X264989006Y-64462405D01*
X264977190Y-64473114D01*
X264964381Y-64482614D01*
X264950703Y-64490812D01*
X264936287Y-64497630D01*
X264921272Y-64503003D01*
X264905803Y-64506878D01*
X264890029Y-64509218D01*
X264874101Y-64510000D01*
X264549101Y-64510000D01*
X264533173Y-64509218D01*
X264517399Y-64506878D01*
X264501930Y-64503003D01*
X264486915Y-64497630D01*
X264472499Y-64490812D01*
X264458821Y-64482614D01*
X264446012Y-64473114D01*
X264434196Y-64462405D01*
X264423487Y-64450589D01*
X264413987Y-64437780D01*
X264405789Y-64424102D01*
X264398971Y-64409686D01*
X264393598Y-64394671D01*
X264389723Y-64379202D01*
X264387383Y-64363428D01*
X264386601Y-64347500D01*
X264386601Y-63397500D01*
X264387383Y-63381572D01*
X264389723Y-63365798D01*
X264393598Y-63350329D01*
X264398971Y-63335314D01*
X264405789Y-63320898D01*
X264413987Y-63307220D01*
X264423487Y-63294411D01*
X264434196Y-63282595D01*
X264446012Y-63271886D01*
X264458821Y-63262386D01*
X264472499Y-63254188D01*
X264486915Y-63247370D01*
X264501930Y-63241997D01*
X264517399Y-63238122D01*
X264533173Y-63235782D01*
X264549101Y-63235000D01*
X264874101Y-63235000D01*
X264890029Y-63235782D01*
G37*
G36*
X264390029Y-63235782D02*
G01*
X264405803Y-63238122D01*
X264421272Y-63241997D01*
X264436287Y-63247370D01*
X264450703Y-63254188D01*
X264464381Y-63262386D01*
X264477190Y-63271886D01*
X264489006Y-63282595D01*
X264499715Y-63294411D01*
X264509215Y-63307220D01*
X264517413Y-63320898D01*
X264524231Y-63335314D01*
X264529604Y-63350329D01*
X264533479Y-63365798D01*
X264535819Y-63381572D01*
X264536601Y-63397500D01*
X264536601Y-64347500D01*
X264535819Y-64363428D01*
X264533479Y-64379202D01*
X264529604Y-64394671D01*
X264524231Y-64409686D01*
X264517413Y-64424102D01*
X264509215Y-64437780D01*
X264499715Y-64450589D01*
X264489006Y-64462405D01*
X264477190Y-64473114D01*
X264464381Y-64482614D01*
X264450703Y-64490812D01*
X264436287Y-64497630D01*
X264421272Y-64503003D01*
X264405803Y-64506878D01*
X264390029Y-64509218D01*
X264374101Y-64510000D01*
X264049101Y-64510000D01*
X264033173Y-64509218D01*
X264017399Y-64506878D01*
X264001930Y-64503003D01*
X263986915Y-64497630D01*
X263972499Y-64490812D01*
X263958821Y-64482614D01*
X263946012Y-64473114D01*
X263934196Y-64462405D01*
X263923487Y-64450589D01*
X263913987Y-64437780D01*
X263905789Y-64424102D01*
X263898971Y-64409686D01*
X263893598Y-64394671D01*
X263889723Y-64379202D01*
X263887383Y-64363428D01*
X263886601Y-64347500D01*
X263886601Y-63397500D01*
X263887383Y-63381572D01*
X263889723Y-63365798D01*
X263893598Y-63350329D01*
X263898971Y-63335314D01*
X263905789Y-63320898D01*
X263913987Y-63307220D01*
X263923487Y-63294411D01*
X263934196Y-63282595D01*
X263946012Y-63271886D01*
X263958821Y-63262386D01*
X263972499Y-63254188D01*
X263986915Y-63247370D01*
X264001930Y-63241997D01*
X264017399Y-63238122D01*
X264033173Y-63235782D01*
X264049101Y-63235000D01*
X264374101Y-63235000D01*
X264390029Y-63235782D01*
G37*
G36*
X263890029Y-63235782D02*
G01*
X263905803Y-63238122D01*
X263921272Y-63241997D01*
X263936287Y-63247370D01*
X263950703Y-63254188D01*
X263964381Y-63262386D01*
X263977190Y-63271886D01*
X263989006Y-63282595D01*
X263999715Y-63294411D01*
X264009215Y-63307220D01*
X264017413Y-63320898D01*
X264024231Y-63335314D01*
X264029604Y-63350329D01*
X264033479Y-63365798D01*
X264035819Y-63381572D01*
X264036601Y-63397500D01*
X264036601Y-64347500D01*
X264035819Y-64363428D01*
X264033479Y-64379202D01*
X264029604Y-64394671D01*
X264024231Y-64409686D01*
X264017413Y-64424102D01*
X264009215Y-64437780D01*
X263999715Y-64450589D01*
X263989006Y-64462405D01*
X263977190Y-64473114D01*
X263964381Y-64482614D01*
X263950703Y-64490812D01*
X263936287Y-64497630D01*
X263921272Y-64503003D01*
X263905803Y-64506878D01*
X263890029Y-64509218D01*
X263874101Y-64510000D01*
X263549101Y-64510000D01*
X263533173Y-64509218D01*
X263517399Y-64506878D01*
X263501930Y-64503003D01*
X263486915Y-64497630D01*
X263472499Y-64490812D01*
X263458821Y-64482614D01*
X263446012Y-64473114D01*
X263434196Y-64462405D01*
X263423487Y-64450589D01*
X263413987Y-64437780D01*
X263405789Y-64424102D01*
X263398971Y-64409686D01*
X263393598Y-64394671D01*
X263389723Y-64379202D01*
X263387383Y-64363428D01*
X263386601Y-64347500D01*
X263386601Y-63397500D01*
X263387383Y-63381572D01*
X263389723Y-63365798D01*
X263393598Y-63350329D01*
X263398971Y-63335314D01*
X263405789Y-63320898D01*
X263413987Y-63307220D01*
X263423487Y-63294411D01*
X263434196Y-63282595D01*
X263446012Y-63271886D01*
X263458821Y-63262386D01*
X263472499Y-63254188D01*
X263486915Y-63247370D01*
X263501930Y-63241997D01*
X263517399Y-63238122D01*
X263533173Y-63235782D01*
X263549101Y-63235000D01*
X263874101Y-63235000D01*
X263890029Y-63235782D01*
G37*
G36*
X263390029Y-63235782D02*
G01*
X263405803Y-63238122D01*
X263421272Y-63241997D01*
X263436287Y-63247370D01*
X263450703Y-63254188D01*
X263464381Y-63262386D01*
X263477190Y-63271886D01*
X263489006Y-63282595D01*
X263499715Y-63294411D01*
X263509215Y-63307220D01*
X263517413Y-63320898D01*
X263524231Y-63335314D01*
X263529604Y-63350329D01*
X263533479Y-63365798D01*
X263535819Y-63381572D01*
X263536601Y-63397500D01*
X263536601Y-64347500D01*
X263535819Y-64363428D01*
X263533479Y-64379202D01*
X263529604Y-64394671D01*
X263524231Y-64409686D01*
X263517413Y-64424102D01*
X263509215Y-64437780D01*
X263499715Y-64450589D01*
X263489006Y-64462405D01*
X263477190Y-64473114D01*
X263464381Y-64482614D01*
X263450703Y-64490812D01*
X263436287Y-64497630D01*
X263421272Y-64503003D01*
X263405803Y-64506878D01*
X263390029Y-64509218D01*
X263374101Y-64510000D01*
X263049101Y-64510000D01*
X263033173Y-64509218D01*
X263017399Y-64506878D01*
X263001930Y-64503003D01*
X262986915Y-64497630D01*
X262972499Y-64490812D01*
X262958821Y-64482614D01*
X262946012Y-64473114D01*
X262934196Y-64462405D01*
X262923487Y-64450589D01*
X262913987Y-64437780D01*
X262905789Y-64424102D01*
X262898971Y-64409686D01*
X262893598Y-64394671D01*
X262889723Y-64379202D01*
X262887383Y-64363428D01*
X262886601Y-64347500D01*
X262886601Y-63397500D01*
X262887383Y-63381572D01*
X262889723Y-63365798D01*
X262893598Y-63350329D01*
X262898971Y-63335314D01*
X262905789Y-63320898D01*
X262913987Y-63307220D01*
X262923487Y-63294411D01*
X262934196Y-63282595D01*
X262946012Y-63271886D01*
X262958821Y-63262386D01*
X262972499Y-63254188D01*
X262986915Y-63247370D01*
X263001930Y-63241997D01*
X263017399Y-63238122D01*
X263033173Y-63235782D01*
X263049101Y-63235000D01*
X263374101Y-63235000D01*
X263390029Y-63235782D01*
G37*
G36*
X262890029Y-63235782D02*
G01*
X262905803Y-63238122D01*
X262921272Y-63241997D01*
X262936287Y-63247370D01*
X262950703Y-63254188D01*
X262964381Y-63262386D01*
X262977190Y-63271886D01*
X262989006Y-63282595D01*
X262999715Y-63294411D01*
X263009215Y-63307220D01*
X263017413Y-63320898D01*
X263024231Y-63335314D01*
X263029604Y-63350329D01*
X263033479Y-63365798D01*
X263035819Y-63381572D01*
X263036601Y-63397500D01*
X263036601Y-64347500D01*
X263035819Y-64363428D01*
X263033479Y-64379202D01*
X263029604Y-64394671D01*
X263024231Y-64409686D01*
X263017413Y-64424102D01*
X263009215Y-64437780D01*
X262999715Y-64450589D01*
X262989006Y-64462405D01*
X262977190Y-64473114D01*
X262964381Y-64482614D01*
X262950703Y-64490812D01*
X262936287Y-64497630D01*
X262921272Y-64503003D01*
X262905803Y-64506878D01*
X262890029Y-64509218D01*
X262874101Y-64510000D01*
X262549101Y-64510000D01*
X262533173Y-64509218D01*
X262517399Y-64506878D01*
X262501930Y-64503003D01*
X262486915Y-64497630D01*
X262472499Y-64490812D01*
X262458821Y-64482614D01*
X262446012Y-64473114D01*
X262434196Y-64462405D01*
X262423487Y-64450589D01*
X262413987Y-64437780D01*
X262405789Y-64424102D01*
X262398971Y-64409686D01*
X262393598Y-64394671D01*
X262389723Y-64379202D01*
X262387383Y-64363428D01*
X262386601Y-64347500D01*
X262386601Y-63397500D01*
X262387383Y-63381572D01*
X262389723Y-63365798D01*
X262393598Y-63350329D01*
X262398971Y-63335314D01*
X262405789Y-63320898D01*
X262413987Y-63307220D01*
X262423487Y-63294411D01*
X262434196Y-63282595D01*
X262446012Y-63271886D01*
X262458821Y-63262386D01*
X262472499Y-63254188D01*
X262486915Y-63247370D01*
X262501930Y-63241997D01*
X262517399Y-63238122D01*
X262533173Y-63235782D01*
X262549101Y-63235000D01*
X262874101Y-63235000D01*
X262890029Y-63235782D01*
G37*
G36*
X262390029Y-63235782D02*
G01*
X262405803Y-63238122D01*
X262421272Y-63241997D01*
X262436287Y-63247370D01*
X262450703Y-63254188D01*
X262464381Y-63262386D01*
X262477190Y-63271886D01*
X262489006Y-63282595D01*
X262499715Y-63294411D01*
X262509215Y-63307220D01*
X262517413Y-63320898D01*
X262524231Y-63335314D01*
X262529604Y-63350329D01*
X262533479Y-63365798D01*
X262535819Y-63381572D01*
X262536601Y-63397500D01*
X262536601Y-64347500D01*
X262535819Y-64363428D01*
X262533479Y-64379202D01*
X262529604Y-64394671D01*
X262524231Y-64409686D01*
X262517413Y-64424102D01*
X262509215Y-64437780D01*
X262499715Y-64450589D01*
X262489006Y-64462405D01*
X262477190Y-64473114D01*
X262464381Y-64482614D01*
X262450703Y-64490812D01*
X262436287Y-64497630D01*
X262421272Y-64503003D01*
X262405803Y-64506878D01*
X262390029Y-64509218D01*
X262374101Y-64510000D01*
X262049101Y-64510000D01*
X262033173Y-64509218D01*
X262017399Y-64506878D01*
X262001930Y-64503003D01*
X261986915Y-64497630D01*
X261972499Y-64490812D01*
X261958821Y-64482614D01*
X261946012Y-64473114D01*
X261934196Y-64462405D01*
X261923487Y-64450589D01*
X261913987Y-64437780D01*
X261905789Y-64424102D01*
X261898971Y-64409686D01*
X261893598Y-64394671D01*
X261889723Y-64379202D01*
X261887383Y-64363428D01*
X261886601Y-64347500D01*
X261886601Y-63397500D01*
X261887383Y-63381572D01*
X261889723Y-63365798D01*
X261893598Y-63350329D01*
X261898971Y-63335314D01*
X261905789Y-63320898D01*
X261913987Y-63307220D01*
X261923487Y-63294411D01*
X261934196Y-63282595D01*
X261946012Y-63271886D01*
X261958821Y-63262386D01*
X261972499Y-63254188D01*
X261986915Y-63247370D01*
X262001930Y-63241997D01*
X262017399Y-63238122D01*
X262033173Y-63235782D01*
X262049101Y-63235000D01*
X262374101Y-63235000D01*
X262390029Y-63235782D01*
G37*
G36*
X261890029Y-63235782D02*
G01*
X261905803Y-63238122D01*
X261921272Y-63241997D01*
X261936287Y-63247370D01*
X261950703Y-63254188D01*
X261964381Y-63262386D01*
X261977190Y-63271886D01*
X261989006Y-63282595D01*
X261999715Y-63294411D01*
X262009215Y-63307220D01*
X262017413Y-63320898D01*
X262024231Y-63335314D01*
X262029604Y-63350329D01*
X262033479Y-63365798D01*
X262035819Y-63381572D01*
X262036601Y-63397500D01*
X262036601Y-64347500D01*
X262035819Y-64363428D01*
X262033479Y-64379202D01*
X262029604Y-64394671D01*
X262024231Y-64409686D01*
X262017413Y-64424102D01*
X262009215Y-64437780D01*
X261999715Y-64450589D01*
X261989006Y-64462405D01*
X261977190Y-64473114D01*
X261964381Y-64482614D01*
X261950703Y-64490812D01*
X261936287Y-64497630D01*
X261921272Y-64503003D01*
X261905803Y-64506878D01*
X261890029Y-64509218D01*
X261874101Y-64510000D01*
X261549101Y-64510000D01*
X261533173Y-64509218D01*
X261517399Y-64506878D01*
X261501930Y-64503003D01*
X261486915Y-64497630D01*
X261472499Y-64490812D01*
X261458821Y-64482614D01*
X261446012Y-64473114D01*
X261434196Y-64462405D01*
X261423487Y-64450589D01*
X261413987Y-64437780D01*
X261405789Y-64424102D01*
X261398971Y-64409686D01*
X261393598Y-64394671D01*
X261389723Y-64379202D01*
X261387383Y-64363428D01*
X261386601Y-64347500D01*
X261386601Y-63397500D01*
X261387383Y-63381572D01*
X261389723Y-63365798D01*
X261393598Y-63350329D01*
X261398971Y-63335314D01*
X261405789Y-63320898D01*
X261413987Y-63307220D01*
X261423487Y-63294411D01*
X261434196Y-63282595D01*
X261446012Y-63271886D01*
X261458821Y-63262386D01*
X261472499Y-63254188D01*
X261486915Y-63247370D01*
X261501930Y-63241997D01*
X261517399Y-63238122D01*
X261533173Y-63235782D01*
X261549101Y-63235000D01*
X261874101Y-63235000D01*
X261890029Y-63235782D01*
G37*
G36*
X261390029Y-63235782D02*
G01*
X261405803Y-63238122D01*
X261421272Y-63241997D01*
X261436287Y-63247370D01*
X261450703Y-63254188D01*
X261464381Y-63262386D01*
X261477190Y-63271886D01*
X261489006Y-63282595D01*
X261499715Y-63294411D01*
X261509215Y-63307220D01*
X261517413Y-63320898D01*
X261524231Y-63335314D01*
X261529604Y-63350329D01*
X261533479Y-63365798D01*
X261535819Y-63381572D01*
X261536601Y-63397500D01*
X261536601Y-64347500D01*
X261535819Y-64363428D01*
X261533479Y-64379202D01*
X261529604Y-64394671D01*
X261524231Y-64409686D01*
X261517413Y-64424102D01*
X261509215Y-64437780D01*
X261499715Y-64450589D01*
X261489006Y-64462405D01*
X261477190Y-64473114D01*
X261464381Y-64482614D01*
X261450703Y-64490812D01*
X261436287Y-64497630D01*
X261421272Y-64503003D01*
X261405803Y-64506878D01*
X261390029Y-64509218D01*
X261374101Y-64510000D01*
X261049101Y-64510000D01*
X261033173Y-64509218D01*
X261017399Y-64506878D01*
X261001930Y-64503003D01*
X260986915Y-64497630D01*
X260972499Y-64490812D01*
X260958821Y-64482614D01*
X260946012Y-64473114D01*
X260934196Y-64462405D01*
X260923487Y-64450589D01*
X260913987Y-64437780D01*
X260905789Y-64424102D01*
X260898971Y-64409686D01*
X260893598Y-64394671D01*
X260889723Y-64379202D01*
X260887383Y-64363428D01*
X260886601Y-64347500D01*
X260886601Y-63397500D01*
X260887383Y-63381572D01*
X260889723Y-63365798D01*
X260893598Y-63350329D01*
X260898971Y-63335314D01*
X260905789Y-63320898D01*
X260913987Y-63307220D01*
X260923487Y-63294411D01*
X260934196Y-63282595D01*
X260946012Y-63271886D01*
X260958821Y-63262386D01*
X260972499Y-63254188D01*
X260986915Y-63247370D01*
X261001930Y-63241997D01*
X261017399Y-63238122D01*
X261033173Y-63235782D01*
X261049101Y-63235000D01*
X261374101Y-63235000D01*
X261390029Y-63235782D01*
G37*
G36*
X261015029Y-64235782D02*
G01*
X261030803Y-64238122D01*
X261046272Y-64241997D01*
X261061287Y-64247370D01*
X261075703Y-64254188D01*
X261089381Y-64262386D01*
X261102190Y-64271886D01*
X261114006Y-64282595D01*
X261124715Y-64294411D01*
X261134215Y-64307220D01*
X261142413Y-64320898D01*
X261149231Y-64335314D01*
X261154604Y-64350329D01*
X261158479Y-64365798D01*
X261160819Y-64381572D01*
X261161601Y-64397500D01*
X261161601Y-64722500D01*
X261160819Y-64738428D01*
X261158479Y-64754202D01*
X261154604Y-64769671D01*
X261149231Y-64784686D01*
X261142413Y-64799102D01*
X261134215Y-64812780D01*
X261124715Y-64825589D01*
X261114006Y-64837405D01*
X261102190Y-64848114D01*
X261089381Y-64857614D01*
X261075703Y-64865812D01*
X261061287Y-64872630D01*
X261046272Y-64878003D01*
X261030803Y-64881878D01*
X261015029Y-64884218D01*
X260999101Y-64885000D01*
X260049101Y-64885000D01*
X260033173Y-64884218D01*
X260017399Y-64881878D01*
X260001930Y-64878003D01*
X259986915Y-64872630D01*
X259972499Y-64865812D01*
X259958821Y-64857614D01*
X259946012Y-64848114D01*
X259934196Y-64837405D01*
X259923487Y-64825589D01*
X259913987Y-64812780D01*
X259905789Y-64799102D01*
X259898971Y-64784686D01*
X259893598Y-64769671D01*
X259889723Y-64754202D01*
X259887383Y-64738428D01*
X259886601Y-64722500D01*
X259886601Y-64397500D01*
X259887383Y-64381572D01*
X259889723Y-64365798D01*
X259893598Y-64350329D01*
X259898971Y-64335314D01*
X259905789Y-64320898D01*
X259913987Y-64307220D01*
X259923487Y-64294411D01*
X259934196Y-64282595D01*
X259946012Y-64271886D01*
X259958821Y-64262386D01*
X259972499Y-64254188D01*
X259986915Y-64247370D01*
X260001930Y-64241997D01*
X260017399Y-64238122D01*
X260033173Y-64235782D01*
X260049101Y-64235000D01*
X260999101Y-64235000D01*
X261015029Y-64235782D01*
G37*
G36*
X261015029Y-64735782D02*
G01*
X261030803Y-64738122D01*
X261046272Y-64741997D01*
X261061287Y-64747370D01*
X261075703Y-64754188D01*
X261089381Y-64762386D01*
X261102190Y-64771886D01*
X261114006Y-64782595D01*
X261124715Y-64794411D01*
X261134215Y-64807220D01*
X261142413Y-64820898D01*
X261149231Y-64835314D01*
X261154604Y-64850329D01*
X261158479Y-64865798D01*
X261160819Y-64881572D01*
X261161601Y-64897500D01*
X261161601Y-65222500D01*
X261160819Y-65238428D01*
X261158479Y-65254202D01*
X261154604Y-65269671D01*
X261149231Y-65284686D01*
X261142413Y-65299102D01*
X261134215Y-65312780D01*
X261124715Y-65325589D01*
X261114006Y-65337405D01*
X261102190Y-65348114D01*
X261089381Y-65357614D01*
X261075703Y-65365812D01*
X261061287Y-65372630D01*
X261046272Y-65378003D01*
X261030803Y-65381878D01*
X261015029Y-65384218D01*
X260999101Y-65385000D01*
X260049101Y-65385000D01*
X260033173Y-65384218D01*
X260017399Y-65381878D01*
X260001930Y-65378003D01*
X259986915Y-65372630D01*
X259972499Y-65365812D01*
X259958821Y-65357614D01*
X259946012Y-65348114D01*
X259934196Y-65337405D01*
X259923487Y-65325589D01*
X259913987Y-65312780D01*
X259905789Y-65299102D01*
X259898971Y-65284686D01*
X259893598Y-65269671D01*
X259889723Y-65254202D01*
X259887383Y-65238428D01*
X259886601Y-65222500D01*
X259886601Y-64897500D01*
X259887383Y-64881572D01*
X259889723Y-64865798D01*
X259893598Y-64850329D01*
X259898971Y-64835314D01*
X259905789Y-64820898D01*
X259913987Y-64807220D01*
X259923487Y-64794411D01*
X259934196Y-64782595D01*
X259946012Y-64771886D01*
X259958821Y-64762386D01*
X259972499Y-64754188D01*
X259986915Y-64747370D01*
X260001930Y-64741997D01*
X260017399Y-64738122D01*
X260033173Y-64735782D01*
X260049101Y-64735000D01*
X260999101Y-64735000D01*
X261015029Y-64735782D01*
G37*
G36*
X261015029Y-65235782D02*
G01*
X261030803Y-65238122D01*
X261046272Y-65241997D01*
X261061287Y-65247370D01*
X261075703Y-65254188D01*
X261089381Y-65262386D01*
X261102190Y-65271886D01*
X261114006Y-65282595D01*
X261124715Y-65294411D01*
X261134215Y-65307220D01*
X261142413Y-65320898D01*
X261149231Y-65335314D01*
X261154604Y-65350329D01*
X261158479Y-65365798D01*
X261160819Y-65381572D01*
X261161601Y-65397500D01*
X261161601Y-65722500D01*
X261160819Y-65738428D01*
X261158479Y-65754202D01*
X261154604Y-65769671D01*
X261149231Y-65784686D01*
X261142413Y-65799102D01*
X261134215Y-65812780D01*
X261124715Y-65825589D01*
X261114006Y-65837405D01*
X261102190Y-65848114D01*
X261089381Y-65857614D01*
X261075703Y-65865812D01*
X261061287Y-65872630D01*
X261046272Y-65878003D01*
X261030803Y-65881878D01*
X261015029Y-65884218D01*
X260999101Y-65885000D01*
X260049101Y-65885000D01*
X260033173Y-65884218D01*
X260017399Y-65881878D01*
X260001930Y-65878003D01*
X259986915Y-65872630D01*
X259972499Y-65865812D01*
X259958821Y-65857614D01*
X259946012Y-65848114D01*
X259934196Y-65837405D01*
X259923487Y-65825589D01*
X259913987Y-65812780D01*
X259905789Y-65799102D01*
X259898971Y-65784686D01*
X259893598Y-65769671D01*
X259889723Y-65754202D01*
X259887383Y-65738428D01*
X259886601Y-65722500D01*
X259886601Y-65397500D01*
X259887383Y-65381572D01*
X259889723Y-65365798D01*
X259893598Y-65350329D01*
X259898971Y-65335314D01*
X259905789Y-65320898D01*
X259913987Y-65307220D01*
X259923487Y-65294411D01*
X259934196Y-65282595D01*
X259946012Y-65271886D01*
X259958821Y-65262386D01*
X259972499Y-65254188D01*
X259986915Y-65247370D01*
X260001930Y-65241997D01*
X260017399Y-65238122D01*
X260033173Y-65235782D01*
X260049101Y-65235000D01*
X260999101Y-65235000D01*
X261015029Y-65235782D01*
G37*
G36*
X261015029Y-65735782D02*
G01*
X261030803Y-65738122D01*
X261046272Y-65741997D01*
X261061287Y-65747370D01*
X261075703Y-65754188D01*
X261089381Y-65762386D01*
X261102190Y-65771886D01*
X261114006Y-65782595D01*
X261124715Y-65794411D01*
X261134215Y-65807220D01*
X261142413Y-65820898D01*
X261149231Y-65835314D01*
X261154604Y-65850329D01*
X261158479Y-65865798D01*
X261160819Y-65881572D01*
X261161601Y-65897500D01*
X261161601Y-66222500D01*
X261160819Y-66238428D01*
X261158479Y-66254202D01*
X261154604Y-66269671D01*
X261149231Y-66284686D01*
X261142413Y-66299102D01*
X261134215Y-66312780D01*
X261124715Y-66325589D01*
X261114006Y-66337405D01*
X261102190Y-66348114D01*
X261089381Y-66357614D01*
X261075703Y-66365812D01*
X261061287Y-66372630D01*
X261046272Y-66378003D01*
X261030803Y-66381878D01*
X261015029Y-66384218D01*
X260999101Y-66385000D01*
X260049101Y-66385000D01*
X260033173Y-66384218D01*
X260017399Y-66381878D01*
X260001930Y-66378003D01*
X259986915Y-66372630D01*
X259972499Y-66365812D01*
X259958821Y-66357614D01*
X259946012Y-66348114D01*
X259934196Y-66337405D01*
X259923487Y-66325589D01*
X259913987Y-66312780D01*
X259905789Y-66299102D01*
X259898971Y-66284686D01*
X259893598Y-66269671D01*
X259889723Y-66254202D01*
X259887383Y-66238428D01*
X259886601Y-66222500D01*
X259886601Y-65897500D01*
X259887383Y-65881572D01*
X259889723Y-65865798D01*
X259893598Y-65850329D01*
X259898971Y-65835314D01*
X259905789Y-65820898D01*
X259913987Y-65807220D01*
X259923487Y-65794411D01*
X259934196Y-65782595D01*
X259946012Y-65771886D01*
X259958821Y-65762386D01*
X259972499Y-65754188D01*
X259986915Y-65747370D01*
X260001930Y-65741997D01*
X260017399Y-65738122D01*
X260033173Y-65735782D01*
X260049101Y-65735000D01*
X260999101Y-65735000D01*
X261015029Y-65735782D01*
G37*
G36*
X261015029Y-66235782D02*
G01*
X261030803Y-66238122D01*
X261046272Y-66241997D01*
X261061287Y-66247370D01*
X261075703Y-66254188D01*
X261089381Y-66262386D01*
X261102190Y-66271886D01*
X261114006Y-66282595D01*
X261124715Y-66294411D01*
X261134215Y-66307220D01*
X261142413Y-66320898D01*
X261149231Y-66335314D01*
X261154604Y-66350329D01*
X261158479Y-66365798D01*
X261160819Y-66381572D01*
X261161601Y-66397500D01*
X261161601Y-66722500D01*
X261160819Y-66738428D01*
X261158479Y-66754202D01*
X261154604Y-66769671D01*
X261149231Y-66784686D01*
X261142413Y-66799102D01*
X261134215Y-66812780D01*
X261124715Y-66825589D01*
X261114006Y-66837405D01*
X261102190Y-66848114D01*
X261089381Y-66857614D01*
X261075703Y-66865812D01*
X261061287Y-66872630D01*
X261046272Y-66878003D01*
X261030803Y-66881878D01*
X261015029Y-66884218D01*
X260999101Y-66885000D01*
X260049101Y-66885000D01*
X260033173Y-66884218D01*
X260017399Y-66881878D01*
X260001930Y-66878003D01*
X259986915Y-66872630D01*
X259972499Y-66865812D01*
X259958821Y-66857614D01*
X259946012Y-66848114D01*
X259934196Y-66837405D01*
X259923487Y-66825589D01*
X259913987Y-66812780D01*
X259905789Y-66799102D01*
X259898971Y-66784686D01*
X259893598Y-66769671D01*
X259889723Y-66754202D01*
X259887383Y-66738428D01*
X259886601Y-66722500D01*
X259886601Y-66397500D01*
X259887383Y-66381572D01*
X259889723Y-66365798D01*
X259893598Y-66350329D01*
X259898971Y-66335314D01*
X259905789Y-66320898D01*
X259913987Y-66307220D01*
X259923487Y-66294411D01*
X259934196Y-66282595D01*
X259946012Y-66271886D01*
X259958821Y-66262386D01*
X259972499Y-66254188D01*
X259986915Y-66247370D01*
X260001930Y-66241997D01*
X260017399Y-66238122D01*
X260033173Y-66235782D01*
X260049101Y-66235000D01*
X260999101Y-66235000D01*
X261015029Y-66235782D01*
G37*
G36*
X261015029Y-66735782D02*
G01*
X261030803Y-66738122D01*
X261046272Y-66741997D01*
X261061287Y-66747370D01*
X261075703Y-66754188D01*
X261089381Y-66762386D01*
X261102190Y-66771886D01*
X261114006Y-66782595D01*
X261124715Y-66794411D01*
X261134215Y-66807220D01*
X261142413Y-66820898D01*
X261149231Y-66835314D01*
X261154604Y-66850329D01*
X261158479Y-66865798D01*
X261160819Y-66881572D01*
X261161601Y-66897500D01*
X261161601Y-67222500D01*
X261160819Y-67238428D01*
X261158479Y-67254202D01*
X261154604Y-67269671D01*
X261149231Y-67284686D01*
X261142413Y-67299102D01*
X261134215Y-67312780D01*
X261124715Y-67325589D01*
X261114006Y-67337405D01*
X261102190Y-67348114D01*
X261089381Y-67357614D01*
X261075703Y-67365812D01*
X261061287Y-67372630D01*
X261046272Y-67378003D01*
X261030803Y-67381878D01*
X261015029Y-67384218D01*
X260999101Y-67385000D01*
X260049101Y-67385000D01*
X260033173Y-67384218D01*
X260017399Y-67381878D01*
X260001930Y-67378003D01*
X259986915Y-67372630D01*
X259972499Y-67365812D01*
X259958821Y-67357614D01*
X259946012Y-67348114D01*
X259934196Y-67337405D01*
X259923487Y-67325589D01*
X259913987Y-67312780D01*
X259905789Y-67299102D01*
X259898971Y-67284686D01*
X259893598Y-67269671D01*
X259889723Y-67254202D01*
X259887383Y-67238428D01*
X259886601Y-67222500D01*
X259886601Y-66897500D01*
X259887383Y-66881572D01*
X259889723Y-66865798D01*
X259893598Y-66850329D01*
X259898971Y-66835314D01*
X259905789Y-66820898D01*
X259913987Y-66807220D01*
X259923487Y-66794411D01*
X259934196Y-66782595D01*
X259946012Y-66771886D01*
X259958821Y-66762386D01*
X259972499Y-66754188D01*
X259986915Y-66747370D01*
X260001930Y-66741997D01*
X260017399Y-66738122D01*
X260033173Y-66735782D01*
X260049101Y-66735000D01*
X260999101Y-66735000D01*
X261015029Y-66735782D01*
G37*
G36*
X261015029Y-67235782D02*
G01*
X261030803Y-67238122D01*
X261046272Y-67241997D01*
X261061287Y-67247370D01*
X261075703Y-67254188D01*
X261089381Y-67262386D01*
X261102190Y-67271886D01*
X261114006Y-67282595D01*
X261124715Y-67294411D01*
X261134215Y-67307220D01*
X261142413Y-67320898D01*
X261149231Y-67335314D01*
X261154604Y-67350329D01*
X261158479Y-67365798D01*
X261160819Y-67381572D01*
X261161601Y-67397500D01*
X261161601Y-67722500D01*
X261160819Y-67738428D01*
X261158479Y-67754202D01*
X261154604Y-67769671D01*
X261149231Y-67784686D01*
X261142413Y-67799102D01*
X261134215Y-67812780D01*
X261124715Y-67825589D01*
X261114006Y-67837405D01*
X261102190Y-67848114D01*
X261089381Y-67857614D01*
X261075703Y-67865812D01*
X261061287Y-67872630D01*
X261046272Y-67878003D01*
X261030803Y-67881878D01*
X261015029Y-67884218D01*
X260999101Y-67885000D01*
X260049101Y-67885000D01*
X260033173Y-67884218D01*
X260017399Y-67881878D01*
X260001930Y-67878003D01*
X259986915Y-67872630D01*
X259972499Y-67865812D01*
X259958821Y-67857614D01*
X259946012Y-67848114D01*
X259934196Y-67837405D01*
X259923487Y-67825589D01*
X259913987Y-67812780D01*
X259905789Y-67799102D01*
X259898971Y-67784686D01*
X259893598Y-67769671D01*
X259889723Y-67754202D01*
X259887383Y-67738428D01*
X259886601Y-67722500D01*
X259886601Y-67397500D01*
X259887383Y-67381572D01*
X259889723Y-67365798D01*
X259893598Y-67350329D01*
X259898971Y-67335314D01*
X259905789Y-67320898D01*
X259913987Y-67307220D01*
X259923487Y-67294411D01*
X259934196Y-67282595D01*
X259946012Y-67271886D01*
X259958821Y-67262386D01*
X259972499Y-67254188D01*
X259986915Y-67247370D01*
X260001930Y-67241997D01*
X260017399Y-67238122D01*
X260033173Y-67235782D01*
X260049101Y-67235000D01*
X260999101Y-67235000D01*
X261015029Y-67235782D01*
G37*
G36*
X261015029Y-67735782D02*
G01*
X261030803Y-67738122D01*
X261046272Y-67741997D01*
X261061287Y-67747370D01*
X261075703Y-67754188D01*
X261089381Y-67762386D01*
X261102190Y-67771886D01*
X261114006Y-67782595D01*
X261124715Y-67794411D01*
X261134215Y-67807220D01*
X261142413Y-67820898D01*
X261149231Y-67835314D01*
X261154604Y-67850329D01*
X261158479Y-67865798D01*
X261160819Y-67881572D01*
X261161601Y-67897500D01*
X261161601Y-68222500D01*
X261160819Y-68238428D01*
X261158479Y-68254202D01*
X261154604Y-68269671D01*
X261149231Y-68284686D01*
X261142413Y-68299102D01*
X261134215Y-68312780D01*
X261124715Y-68325589D01*
X261114006Y-68337405D01*
X261102190Y-68348114D01*
X261089381Y-68357614D01*
X261075703Y-68365812D01*
X261061287Y-68372630D01*
X261046272Y-68378003D01*
X261030803Y-68381878D01*
X261015029Y-68384218D01*
X260999101Y-68385000D01*
X260049101Y-68385000D01*
X260033173Y-68384218D01*
X260017399Y-68381878D01*
X260001930Y-68378003D01*
X259986915Y-68372630D01*
X259972499Y-68365812D01*
X259958821Y-68357614D01*
X259946012Y-68348114D01*
X259934196Y-68337405D01*
X259923487Y-68325589D01*
X259913987Y-68312780D01*
X259905789Y-68299102D01*
X259898971Y-68284686D01*
X259893598Y-68269671D01*
X259889723Y-68254202D01*
X259887383Y-68238428D01*
X259886601Y-68222500D01*
X259886601Y-67897500D01*
X259887383Y-67881572D01*
X259889723Y-67865798D01*
X259893598Y-67850329D01*
X259898971Y-67835314D01*
X259905789Y-67820898D01*
X259913987Y-67807220D01*
X259923487Y-67794411D01*
X259934196Y-67782595D01*
X259946012Y-67771886D01*
X259958821Y-67762386D01*
X259972499Y-67754188D01*
X259986915Y-67747370D01*
X260001930Y-67741997D01*
X260017399Y-67738122D01*
X260033173Y-67735782D01*
X260049101Y-67735000D01*
X260999101Y-67735000D01*
X261015029Y-67735782D01*
G37*
G36*
X261390029Y-68110782D02*
G01*
X261405803Y-68113122D01*
X261421272Y-68116997D01*
X261436287Y-68122370D01*
X261450703Y-68129188D01*
X261464381Y-68137386D01*
X261477190Y-68146886D01*
X261489006Y-68157595D01*
X261499715Y-68169411D01*
X261509215Y-68182220D01*
X261517413Y-68195898D01*
X261524231Y-68210314D01*
X261529604Y-68225329D01*
X261533479Y-68240798D01*
X261535819Y-68256572D01*
X261536601Y-68272500D01*
X261536601Y-69222500D01*
X261535819Y-69238428D01*
X261533479Y-69254202D01*
X261529604Y-69269671D01*
X261524231Y-69284686D01*
X261517413Y-69299102D01*
X261509215Y-69312780D01*
X261499715Y-69325589D01*
X261489006Y-69337405D01*
X261477190Y-69348114D01*
X261464381Y-69357614D01*
X261450703Y-69365812D01*
X261436287Y-69372630D01*
X261421272Y-69378003D01*
X261405803Y-69381878D01*
X261390029Y-69384218D01*
X261374101Y-69385000D01*
X261049101Y-69385000D01*
X261033173Y-69384218D01*
X261017399Y-69381878D01*
X261001930Y-69378003D01*
X260986915Y-69372630D01*
X260972499Y-69365812D01*
X260958821Y-69357614D01*
X260946012Y-69348114D01*
X260934196Y-69337405D01*
X260923487Y-69325589D01*
X260913987Y-69312780D01*
X260905789Y-69299102D01*
X260898971Y-69284686D01*
X260893598Y-69269671D01*
X260889723Y-69254202D01*
X260887383Y-69238428D01*
X260886601Y-69222500D01*
X260886601Y-68272500D01*
X260887383Y-68256572D01*
X260889723Y-68240798D01*
X260893598Y-68225329D01*
X260898971Y-68210314D01*
X260905789Y-68195898D01*
X260913987Y-68182220D01*
X260923487Y-68169411D01*
X260934196Y-68157595D01*
X260946012Y-68146886D01*
X260958821Y-68137386D01*
X260972499Y-68129188D01*
X260986915Y-68122370D01*
X261001930Y-68116997D01*
X261017399Y-68113122D01*
X261033173Y-68110782D01*
X261049101Y-68110000D01*
X261374101Y-68110000D01*
X261390029Y-68110782D01*
G37*
G36*
X261890029Y-68110782D02*
G01*
X261905803Y-68113122D01*
X261921272Y-68116997D01*
X261936287Y-68122370D01*
X261950703Y-68129188D01*
X261964381Y-68137386D01*
X261977190Y-68146886D01*
X261989006Y-68157595D01*
X261999715Y-68169411D01*
X262009215Y-68182220D01*
X262017413Y-68195898D01*
X262024231Y-68210314D01*
X262029604Y-68225329D01*
X262033479Y-68240798D01*
X262035819Y-68256572D01*
X262036601Y-68272500D01*
X262036601Y-69222500D01*
X262035819Y-69238428D01*
X262033479Y-69254202D01*
X262029604Y-69269671D01*
X262024231Y-69284686D01*
X262017413Y-69299102D01*
X262009215Y-69312780D01*
X261999715Y-69325589D01*
X261989006Y-69337405D01*
X261977190Y-69348114D01*
X261964381Y-69357614D01*
X261950703Y-69365812D01*
X261936287Y-69372630D01*
X261921272Y-69378003D01*
X261905803Y-69381878D01*
X261890029Y-69384218D01*
X261874101Y-69385000D01*
X261549101Y-69385000D01*
X261533173Y-69384218D01*
X261517399Y-69381878D01*
X261501930Y-69378003D01*
X261486915Y-69372630D01*
X261472499Y-69365812D01*
X261458821Y-69357614D01*
X261446012Y-69348114D01*
X261434196Y-69337405D01*
X261423487Y-69325589D01*
X261413987Y-69312780D01*
X261405789Y-69299102D01*
X261398971Y-69284686D01*
X261393598Y-69269671D01*
X261389723Y-69254202D01*
X261387383Y-69238428D01*
X261386601Y-69222500D01*
X261386601Y-68272500D01*
X261387383Y-68256572D01*
X261389723Y-68240798D01*
X261393598Y-68225329D01*
X261398971Y-68210314D01*
X261405789Y-68195898D01*
X261413987Y-68182220D01*
X261423487Y-68169411D01*
X261434196Y-68157595D01*
X261446012Y-68146886D01*
X261458821Y-68137386D01*
X261472499Y-68129188D01*
X261486915Y-68122370D01*
X261501930Y-68116997D01*
X261517399Y-68113122D01*
X261533173Y-68110782D01*
X261549101Y-68110000D01*
X261874101Y-68110000D01*
X261890029Y-68110782D01*
G37*
G36*
X262390029Y-68110782D02*
G01*
X262405803Y-68113122D01*
X262421272Y-68116997D01*
X262436287Y-68122370D01*
X262450703Y-68129188D01*
X262464381Y-68137386D01*
X262477190Y-68146886D01*
X262489006Y-68157595D01*
X262499715Y-68169411D01*
X262509215Y-68182220D01*
X262517413Y-68195898D01*
X262524231Y-68210314D01*
X262529604Y-68225329D01*
X262533479Y-68240798D01*
X262535819Y-68256572D01*
X262536601Y-68272500D01*
X262536601Y-69222500D01*
X262535819Y-69238428D01*
X262533479Y-69254202D01*
X262529604Y-69269671D01*
X262524231Y-69284686D01*
X262517413Y-69299102D01*
X262509215Y-69312780D01*
X262499715Y-69325589D01*
X262489006Y-69337405D01*
X262477190Y-69348114D01*
X262464381Y-69357614D01*
X262450703Y-69365812D01*
X262436287Y-69372630D01*
X262421272Y-69378003D01*
X262405803Y-69381878D01*
X262390029Y-69384218D01*
X262374101Y-69385000D01*
X262049101Y-69385000D01*
X262033173Y-69384218D01*
X262017399Y-69381878D01*
X262001930Y-69378003D01*
X261986915Y-69372630D01*
X261972499Y-69365812D01*
X261958821Y-69357614D01*
X261946012Y-69348114D01*
X261934196Y-69337405D01*
X261923487Y-69325589D01*
X261913987Y-69312780D01*
X261905789Y-69299102D01*
X261898971Y-69284686D01*
X261893598Y-69269671D01*
X261889723Y-69254202D01*
X261887383Y-69238428D01*
X261886601Y-69222500D01*
X261886601Y-68272500D01*
X261887383Y-68256572D01*
X261889723Y-68240798D01*
X261893598Y-68225329D01*
X261898971Y-68210314D01*
X261905789Y-68195898D01*
X261913987Y-68182220D01*
X261923487Y-68169411D01*
X261934196Y-68157595D01*
X261946012Y-68146886D01*
X261958821Y-68137386D01*
X261972499Y-68129188D01*
X261986915Y-68122370D01*
X262001930Y-68116997D01*
X262017399Y-68113122D01*
X262033173Y-68110782D01*
X262049101Y-68110000D01*
X262374101Y-68110000D01*
X262390029Y-68110782D01*
G37*
G36*
X262890029Y-68110782D02*
G01*
X262905803Y-68113122D01*
X262921272Y-68116997D01*
X262936287Y-68122370D01*
X262950703Y-68129188D01*
X262964381Y-68137386D01*
X262977190Y-68146886D01*
X262989006Y-68157595D01*
X262999715Y-68169411D01*
X263009215Y-68182220D01*
X263017413Y-68195898D01*
X263024231Y-68210314D01*
X263029604Y-68225329D01*
X263033479Y-68240798D01*
X263035819Y-68256572D01*
X263036601Y-68272500D01*
X263036601Y-69222500D01*
X263035819Y-69238428D01*
X263033479Y-69254202D01*
X263029604Y-69269671D01*
X263024231Y-69284686D01*
X263017413Y-69299102D01*
X263009215Y-69312780D01*
X262999715Y-69325589D01*
X262989006Y-69337405D01*
X262977190Y-69348114D01*
X262964381Y-69357614D01*
X262950703Y-69365812D01*
X262936287Y-69372630D01*
X262921272Y-69378003D01*
X262905803Y-69381878D01*
X262890029Y-69384218D01*
X262874101Y-69385000D01*
X262549101Y-69385000D01*
X262533173Y-69384218D01*
X262517399Y-69381878D01*
X262501930Y-69378003D01*
X262486915Y-69372630D01*
X262472499Y-69365812D01*
X262458821Y-69357614D01*
X262446012Y-69348114D01*
X262434196Y-69337405D01*
X262423487Y-69325589D01*
X262413987Y-69312780D01*
X262405789Y-69299102D01*
X262398971Y-69284686D01*
X262393598Y-69269671D01*
X262389723Y-69254202D01*
X262387383Y-69238428D01*
X262386601Y-69222500D01*
X262386601Y-68272500D01*
X262387383Y-68256572D01*
X262389723Y-68240798D01*
X262393598Y-68225329D01*
X262398971Y-68210314D01*
X262405789Y-68195898D01*
X262413987Y-68182220D01*
X262423487Y-68169411D01*
X262434196Y-68157595D01*
X262446012Y-68146886D01*
X262458821Y-68137386D01*
X262472499Y-68129188D01*
X262486915Y-68122370D01*
X262501930Y-68116997D01*
X262517399Y-68113122D01*
X262533173Y-68110782D01*
X262549101Y-68110000D01*
X262874101Y-68110000D01*
X262890029Y-68110782D01*
G37*
G36*
X263390029Y-68110782D02*
G01*
X263405803Y-68113122D01*
X263421272Y-68116997D01*
X263436287Y-68122370D01*
X263450703Y-68129188D01*
X263464381Y-68137386D01*
X263477190Y-68146886D01*
X263489006Y-68157595D01*
X263499715Y-68169411D01*
X263509215Y-68182220D01*
X263517413Y-68195898D01*
X263524231Y-68210314D01*
X263529604Y-68225329D01*
X263533479Y-68240798D01*
X263535819Y-68256572D01*
X263536601Y-68272500D01*
X263536601Y-69222500D01*
X263535819Y-69238428D01*
X263533479Y-69254202D01*
X263529604Y-69269671D01*
X263524231Y-69284686D01*
X263517413Y-69299102D01*
X263509215Y-69312780D01*
X263499715Y-69325589D01*
X263489006Y-69337405D01*
X263477190Y-69348114D01*
X263464381Y-69357614D01*
X263450703Y-69365812D01*
X263436287Y-69372630D01*
X263421272Y-69378003D01*
X263405803Y-69381878D01*
X263390029Y-69384218D01*
X263374101Y-69385000D01*
X263049101Y-69385000D01*
X263033173Y-69384218D01*
X263017399Y-69381878D01*
X263001930Y-69378003D01*
X262986915Y-69372630D01*
X262972499Y-69365812D01*
X262958821Y-69357614D01*
X262946012Y-69348114D01*
X262934196Y-69337405D01*
X262923487Y-69325589D01*
X262913987Y-69312780D01*
X262905789Y-69299102D01*
X262898971Y-69284686D01*
X262893598Y-69269671D01*
X262889723Y-69254202D01*
X262887383Y-69238428D01*
X262886601Y-69222500D01*
X262886601Y-68272500D01*
X262887383Y-68256572D01*
X262889723Y-68240798D01*
X262893598Y-68225329D01*
X262898971Y-68210314D01*
X262905789Y-68195898D01*
X262913987Y-68182220D01*
X262923487Y-68169411D01*
X262934196Y-68157595D01*
X262946012Y-68146886D01*
X262958821Y-68137386D01*
X262972499Y-68129188D01*
X262986915Y-68122370D01*
X263001930Y-68116997D01*
X263017399Y-68113122D01*
X263033173Y-68110782D01*
X263049101Y-68110000D01*
X263374101Y-68110000D01*
X263390029Y-68110782D01*
G37*
G36*
X263890029Y-68110782D02*
G01*
X263905803Y-68113122D01*
X263921272Y-68116997D01*
X263936287Y-68122370D01*
X263950703Y-68129188D01*
X263964381Y-68137386D01*
X263977190Y-68146886D01*
X263989006Y-68157595D01*
X263999715Y-68169411D01*
X264009215Y-68182220D01*
X264017413Y-68195898D01*
X264024231Y-68210314D01*
X264029604Y-68225329D01*
X264033479Y-68240798D01*
X264035819Y-68256572D01*
X264036601Y-68272500D01*
X264036601Y-69222500D01*
X264035819Y-69238428D01*
X264033479Y-69254202D01*
X264029604Y-69269671D01*
X264024231Y-69284686D01*
X264017413Y-69299102D01*
X264009215Y-69312780D01*
X263999715Y-69325589D01*
X263989006Y-69337405D01*
X263977190Y-69348114D01*
X263964381Y-69357614D01*
X263950703Y-69365812D01*
X263936287Y-69372630D01*
X263921272Y-69378003D01*
X263905803Y-69381878D01*
X263890029Y-69384218D01*
X263874101Y-69385000D01*
X263549101Y-69385000D01*
X263533173Y-69384218D01*
X263517399Y-69381878D01*
X263501930Y-69378003D01*
X263486915Y-69372630D01*
X263472499Y-69365812D01*
X263458821Y-69357614D01*
X263446012Y-69348114D01*
X263434196Y-69337405D01*
X263423487Y-69325589D01*
X263413987Y-69312780D01*
X263405789Y-69299102D01*
X263398971Y-69284686D01*
X263393598Y-69269671D01*
X263389723Y-69254202D01*
X263387383Y-69238428D01*
X263386601Y-69222500D01*
X263386601Y-68272500D01*
X263387383Y-68256572D01*
X263389723Y-68240798D01*
X263393598Y-68225329D01*
X263398971Y-68210314D01*
X263405789Y-68195898D01*
X263413987Y-68182220D01*
X263423487Y-68169411D01*
X263434196Y-68157595D01*
X263446012Y-68146886D01*
X263458821Y-68137386D01*
X263472499Y-68129188D01*
X263486915Y-68122370D01*
X263501930Y-68116997D01*
X263517399Y-68113122D01*
X263533173Y-68110782D01*
X263549101Y-68110000D01*
X263874101Y-68110000D01*
X263890029Y-68110782D01*
G37*
G36*
X264390029Y-68110782D02*
G01*
X264405803Y-68113122D01*
X264421272Y-68116997D01*
X264436287Y-68122370D01*
X264450703Y-68129188D01*
X264464381Y-68137386D01*
X264477190Y-68146886D01*
X264489006Y-68157595D01*
X264499715Y-68169411D01*
X264509215Y-68182220D01*
X264517413Y-68195898D01*
X264524231Y-68210314D01*
X264529604Y-68225329D01*
X264533479Y-68240798D01*
X264535819Y-68256572D01*
X264536601Y-68272500D01*
X264536601Y-69222500D01*
X264535819Y-69238428D01*
X264533479Y-69254202D01*
X264529604Y-69269671D01*
X264524231Y-69284686D01*
X264517413Y-69299102D01*
X264509215Y-69312780D01*
X264499715Y-69325589D01*
X264489006Y-69337405D01*
X264477190Y-69348114D01*
X264464381Y-69357614D01*
X264450703Y-69365812D01*
X264436287Y-69372630D01*
X264421272Y-69378003D01*
X264405803Y-69381878D01*
X264390029Y-69384218D01*
X264374101Y-69385000D01*
X264049101Y-69385000D01*
X264033173Y-69384218D01*
X264017399Y-69381878D01*
X264001930Y-69378003D01*
X263986915Y-69372630D01*
X263972499Y-69365812D01*
X263958821Y-69357614D01*
X263946012Y-69348114D01*
X263934196Y-69337405D01*
X263923487Y-69325589D01*
X263913987Y-69312780D01*
X263905789Y-69299102D01*
X263898971Y-69284686D01*
X263893598Y-69269671D01*
X263889723Y-69254202D01*
X263887383Y-69238428D01*
X263886601Y-69222500D01*
X263886601Y-68272500D01*
X263887383Y-68256572D01*
X263889723Y-68240798D01*
X263893598Y-68225329D01*
X263898971Y-68210314D01*
X263905789Y-68195898D01*
X263913987Y-68182220D01*
X263923487Y-68169411D01*
X263934196Y-68157595D01*
X263946012Y-68146886D01*
X263958821Y-68137386D01*
X263972499Y-68129188D01*
X263986915Y-68122370D01*
X264001930Y-68116997D01*
X264017399Y-68113122D01*
X264033173Y-68110782D01*
X264049101Y-68110000D01*
X264374101Y-68110000D01*
X264390029Y-68110782D01*
G37*
G36*
X264890029Y-68110782D02*
G01*
X264905803Y-68113122D01*
X264921272Y-68116997D01*
X264936287Y-68122370D01*
X264950703Y-68129188D01*
X264964381Y-68137386D01*
X264977190Y-68146886D01*
X264989006Y-68157595D01*
X264999715Y-68169411D01*
X265009215Y-68182220D01*
X265017413Y-68195898D01*
X265024231Y-68210314D01*
X265029604Y-68225329D01*
X265033479Y-68240798D01*
X265035819Y-68256572D01*
X265036601Y-68272500D01*
X265036601Y-69222500D01*
X265035819Y-69238428D01*
X265033479Y-69254202D01*
X265029604Y-69269671D01*
X265024231Y-69284686D01*
X265017413Y-69299102D01*
X265009215Y-69312780D01*
X264999715Y-69325589D01*
X264989006Y-69337405D01*
X264977190Y-69348114D01*
X264964381Y-69357614D01*
X264950703Y-69365812D01*
X264936287Y-69372630D01*
X264921272Y-69378003D01*
X264905803Y-69381878D01*
X264890029Y-69384218D01*
X264874101Y-69385000D01*
X264549101Y-69385000D01*
X264533173Y-69384218D01*
X264517399Y-69381878D01*
X264501930Y-69378003D01*
X264486915Y-69372630D01*
X264472499Y-69365812D01*
X264458821Y-69357614D01*
X264446012Y-69348114D01*
X264434196Y-69337405D01*
X264423487Y-69325589D01*
X264413987Y-69312780D01*
X264405789Y-69299102D01*
X264398971Y-69284686D01*
X264393598Y-69269671D01*
X264389723Y-69254202D01*
X264387383Y-69238428D01*
X264386601Y-69222500D01*
X264386601Y-68272500D01*
X264387383Y-68256572D01*
X264389723Y-68240798D01*
X264393598Y-68225329D01*
X264398971Y-68210314D01*
X264405789Y-68195898D01*
X264413987Y-68182220D01*
X264423487Y-68169411D01*
X264434196Y-68157595D01*
X264446012Y-68146886D01*
X264458821Y-68137386D01*
X264472499Y-68129188D01*
X264486915Y-68122370D01*
X264501930Y-68116997D01*
X264517399Y-68113122D01*
X264533173Y-68110782D01*
X264549101Y-68110000D01*
X264874101Y-68110000D01*
X264890029Y-68110782D01*
G37*
G36*
X265890029Y-67735782D02*
G01*
X265905803Y-67738122D01*
X265921272Y-67741997D01*
X265936287Y-67747370D01*
X265950703Y-67754188D01*
X265964381Y-67762386D01*
X265977190Y-67771886D01*
X265989006Y-67782595D01*
X265999715Y-67794411D01*
X266009215Y-67807220D01*
X266017413Y-67820898D01*
X266024231Y-67835314D01*
X266029604Y-67850329D01*
X266033479Y-67865798D01*
X266035819Y-67881572D01*
X266036601Y-67897500D01*
X266036601Y-68222500D01*
X266035819Y-68238428D01*
X266033479Y-68254202D01*
X266029604Y-68269671D01*
X266024231Y-68284686D01*
X266017413Y-68299102D01*
X266009215Y-68312780D01*
X265999715Y-68325589D01*
X265989006Y-68337405D01*
X265977190Y-68348114D01*
X265964381Y-68357614D01*
X265950703Y-68365812D01*
X265936287Y-68372630D01*
X265921272Y-68378003D01*
X265905803Y-68381878D01*
X265890029Y-68384218D01*
X265874101Y-68385000D01*
X264924101Y-68385000D01*
X264908173Y-68384218D01*
X264892399Y-68381878D01*
X264876930Y-68378003D01*
X264861915Y-68372630D01*
X264847499Y-68365812D01*
X264833821Y-68357614D01*
X264821012Y-68348114D01*
X264809196Y-68337405D01*
X264798487Y-68325589D01*
X264788987Y-68312780D01*
X264780789Y-68299102D01*
X264773971Y-68284686D01*
X264768598Y-68269671D01*
X264764723Y-68254202D01*
X264762383Y-68238428D01*
X264761601Y-68222500D01*
X264761601Y-67897500D01*
X264762383Y-67881572D01*
X264764723Y-67865798D01*
X264768598Y-67850329D01*
X264773971Y-67835314D01*
X264780789Y-67820898D01*
X264788987Y-67807220D01*
X264798487Y-67794411D01*
X264809196Y-67782595D01*
X264821012Y-67771886D01*
X264833821Y-67762386D01*
X264847499Y-67754188D01*
X264861915Y-67747370D01*
X264876930Y-67741997D01*
X264892399Y-67738122D01*
X264908173Y-67735782D01*
X264924101Y-67735000D01*
X265874101Y-67735000D01*
X265890029Y-67735782D01*
G37*
G36*
X265890029Y-67235782D02*
G01*
X265905803Y-67238122D01*
X265921272Y-67241997D01*
X265936287Y-67247370D01*
X265950703Y-67254188D01*
X265964381Y-67262386D01*
X265977190Y-67271886D01*
X265989006Y-67282595D01*
X265999715Y-67294411D01*
X266009215Y-67307220D01*
X266017413Y-67320898D01*
X266024231Y-67335314D01*
X266029604Y-67350329D01*
X266033479Y-67365798D01*
X266035819Y-67381572D01*
X266036601Y-67397500D01*
X266036601Y-67722500D01*
X266035819Y-67738428D01*
X266033479Y-67754202D01*
X266029604Y-67769671D01*
X266024231Y-67784686D01*
X266017413Y-67799102D01*
X266009215Y-67812780D01*
X265999715Y-67825589D01*
X265989006Y-67837405D01*
X265977190Y-67848114D01*
X265964381Y-67857614D01*
X265950703Y-67865812D01*
X265936287Y-67872630D01*
X265921272Y-67878003D01*
X265905803Y-67881878D01*
X265890029Y-67884218D01*
X265874101Y-67885000D01*
X264924101Y-67885000D01*
X264908173Y-67884218D01*
X264892399Y-67881878D01*
X264876930Y-67878003D01*
X264861915Y-67872630D01*
X264847499Y-67865812D01*
X264833821Y-67857614D01*
X264821012Y-67848114D01*
X264809196Y-67837405D01*
X264798487Y-67825589D01*
X264788987Y-67812780D01*
X264780789Y-67799102D01*
X264773971Y-67784686D01*
X264768598Y-67769671D01*
X264764723Y-67754202D01*
X264762383Y-67738428D01*
X264761601Y-67722500D01*
X264761601Y-67397500D01*
X264762383Y-67381572D01*
X264764723Y-67365798D01*
X264768598Y-67350329D01*
X264773971Y-67335314D01*
X264780789Y-67320898D01*
X264788987Y-67307220D01*
X264798487Y-67294411D01*
X264809196Y-67282595D01*
X264821012Y-67271886D01*
X264833821Y-67262386D01*
X264847499Y-67254188D01*
X264861915Y-67247370D01*
X264876930Y-67241997D01*
X264892399Y-67238122D01*
X264908173Y-67235782D01*
X264924101Y-67235000D01*
X265874101Y-67235000D01*
X265890029Y-67235782D01*
G37*
G36*
X265890029Y-66735782D02*
G01*
X265905803Y-66738122D01*
X265921272Y-66741997D01*
X265936287Y-66747370D01*
X265950703Y-66754188D01*
X265964381Y-66762386D01*
X265977190Y-66771886D01*
X265989006Y-66782595D01*
X265999715Y-66794411D01*
X266009215Y-66807220D01*
X266017413Y-66820898D01*
X266024231Y-66835314D01*
X266029604Y-66850329D01*
X266033479Y-66865798D01*
X266035819Y-66881572D01*
X266036601Y-66897500D01*
X266036601Y-67222500D01*
X266035819Y-67238428D01*
X266033479Y-67254202D01*
X266029604Y-67269671D01*
X266024231Y-67284686D01*
X266017413Y-67299102D01*
X266009215Y-67312780D01*
X265999715Y-67325589D01*
X265989006Y-67337405D01*
X265977190Y-67348114D01*
X265964381Y-67357614D01*
X265950703Y-67365812D01*
X265936287Y-67372630D01*
X265921272Y-67378003D01*
X265905803Y-67381878D01*
X265890029Y-67384218D01*
X265874101Y-67385000D01*
X264924101Y-67385000D01*
X264908173Y-67384218D01*
X264892399Y-67381878D01*
X264876930Y-67378003D01*
X264861915Y-67372630D01*
X264847499Y-67365812D01*
X264833821Y-67357614D01*
X264821012Y-67348114D01*
X264809196Y-67337405D01*
X264798487Y-67325589D01*
X264788987Y-67312780D01*
X264780789Y-67299102D01*
X264773971Y-67284686D01*
X264768598Y-67269671D01*
X264764723Y-67254202D01*
X264762383Y-67238428D01*
X264761601Y-67222500D01*
X264761601Y-66897500D01*
X264762383Y-66881572D01*
X264764723Y-66865798D01*
X264768598Y-66850329D01*
X264773971Y-66835314D01*
X264780789Y-66820898D01*
X264788987Y-66807220D01*
X264798487Y-66794411D01*
X264809196Y-66782595D01*
X264821012Y-66771886D01*
X264833821Y-66762386D01*
X264847499Y-66754188D01*
X264861915Y-66747370D01*
X264876930Y-66741997D01*
X264892399Y-66738122D01*
X264908173Y-66735782D01*
X264924101Y-66735000D01*
X265874101Y-66735000D01*
X265890029Y-66735782D01*
G37*
G36*
X265890029Y-66235782D02*
G01*
X265905803Y-66238122D01*
X265921272Y-66241997D01*
X265936287Y-66247370D01*
X265950703Y-66254188D01*
X265964381Y-66262386D01*
X265977190Y-66271886D01*
X265989006Y-66282595D01*
X265999715Y-66294411D01*
X266009215Y-66307220D01*
X266017413Y-66320898D01*
X266024231Y-66335314D01*
X266029604Y-66350329D01*
X266033479Y-66365798D01*
X266035819Y-66381572D01*
X266036601Y-66397500D01*
X266036601Y-66722500D01*
X266035819Y-66738428D01*
X266033479Y-66754202D01*
X266029604Y-66769671D01*
X266024231Y-66784686D01*
X266017413Y-66799102D01*
X266009215Y-66812780D01*
X265999715Y-66825589D01*
X265989006Y-66837405D01*
X265977190Y-66848114D01*
X265964381Y-66857614D01*
X265950703Y-66865812D01*
X265936287Y-66872630D01*
X265921272Y-66878003D01*
X265905803Y-66881878D01*
X265890029Y-66884218D01*
X265874101Y-66885000D01*
X264924101Y-66885000D01*
X264908173Y-66884218D01*
X264892399Y-66881878D01*
X264876930Y-66878003D01*
X264861915Y-66872630D01*
X264847499Y-66865812D01*
X264833821Y-66857614D01*
X264821012Y-66848114D01*
X264809196Y-66837405D01*
X264798487Y-66825589D01*
X264788987Y-66812780D01*
X264780789Y-66799102D01*
X264773971Y-66784686D01*
X264768598Y-66769671D01*
X264764723Y-66754202D01*
X264762383Y-66738428D01*
X264761601Y-66722500D01*
X264761601Y-66397500D01*
X264762383Y-66381572D01*
X264764723Y-66365798D01*
X264768598Y-66350329D01*
X264773971Y-66335314D01*
X264780789Y-66320898D01*
X264788987Y-66307220D01*
X264798487Y-66294411D01*
X264809196Y-66282595D01*
X264821012Y-66271886D01*
X264833821Y-66262386D01*
X264847499Y-66254188D01*
X264861915Y-66247370D01*
X264876930Y-66241997D01*
X264892399Y-66238122D01*
X264908173Y-66235782D01*
X264924101Y-66235000D01*
X265874101Y-66235000D01*
X265890029Y-66235782D01*
G37*
G36*
X265890029Y-65735782D02*
G01*
X265905803Y-65738122D01*
X265921272Y-65741997D01*
X265936287Y-65747370D01*
X265950703Y-65754188D01*
X265964381Y-65762386D01*
X265977190Y-65771886D01*
X265989006Y-65782595D01*
X265999715Y-65794411D01*
X266009215Y-65807220D01*
X266017413Y-65820898D01*
X266024231Y-65835314D01*
X266029604Y-65850329D01*
X266033479Y-65865798D01*
X266035819Y-65881572D01*
X266036601Y-65897500D01*
X266036601Y-66222500D01*
X266035819Y-66238428D01*
X266033479Y-66254202D01*
X266029604Y-66269671D01*
X266024231Y-66284686D01*
X266017413Y-66299102D01*
X266009215Y-66312780D01*
X265999715Y-66325589D01*
X265989006Y-66337405D01*
X265977190Y-66348114D01*
X265964381Y-66357614D01*
X265950703Y-66365812D01*
X265936287Y-66372630D01*
X265921272Y-66378003D01*
X265905803Y-66381878D01*
X265890029Y-66384218D01*
X265874101Y-66385000D01*
X264924101Y-66385000D01*
X264908173Y-66384218D01*
X264892399Y-66381878D01*
X264876930Y-66378003D01*
X264861915Y-66372630D01*
X264847499Y-66365812D01*
X264833821Y-66357614D01*
X264821012Y-66348114D01*
X264809196Y-66337405D01*
X264798487Y-66325589D01*
X264788987Y-66312780D01*
X264780789Y-66299102D01*
X264773971Y-66284686D01*
X264768598Y-66269671D01*
X264764723Y-66254202D01*
X264762383Y-66238428D01*
X264761601Y-66222500D01*
X264761601Y-65897500D01*
X264762383Y-65881572D01*
X264764723Y-65865798D01*
X264768598Y-65850329D01*
X264773971Y-65835314D01*
X264780789Y-65820898D01*
X264788987Y-65807220D01*
X264798487Y-65794411D01*
X264809196Y-65782595D01*
X264821012Y-65771886D01*
X264833821Y-65762386D01*
X264847499Y-65754188D01*
X264861915Y-65747370D01*
X264876930Y-65741997D01*
X264892399Y-65738122D01*
X264908173Y-65735782D01*
X264924101Y-65735000D01*
X265874101Y-65735000D01*
X265890029Y-65735782D01*
G37*
G36*
X265890029Y-65235782D02*
G01*
X265905803Y-65238122D01*
X265921272Y-65241997D01*
X265936287Y-65247370D01*
X265950703Y-65254188D01*
X265964381Y-65262386D01*
X265977190Y-65271886D01*
X265989006Y-65282595D01*
X265999715Y-65294411D01*
X266009215Y-65307220D01*
X266017413Y-65320898D01*
X266024231Y-65335314D01*
X266029604Y-65350329D01*
X266033479Y-65365798D01*
X266035819Y-65381572D01*
X266036601Y-65397500D01*
X266036601Y-65722500D01*
X266035819Y-65738428D01*
X266033479Y-65754202D01*
X266029604Y-65769671D01*
X266024231Y-65784686D01*
X266017413Y-65799102D01*
X266009215Y-65812780D01*
X265999715Y-65825589D01*
X265989006Y-65837405D01*
X265977190Y-65848114D01*
X265964381Y-65857614D01*
X265950703Y-65865812D01*
X265936287Y-65872630D01*
X265921272Y-65878003D01*
X265905803Y-65881878D01*
X265890029Y-65884218D01*
X265874101Y-65885000D01*
X264924101Y-65885000D01*
X264908173Y-65884218D01*
X264892399Y-65881878D01*
X264876930Y-65878003D01*
X264861915Y-65872630D01*
X264847499Y-65865812D01*
X264833821Y-65857614D01*
X264821012Y-65848114D01*
X264809196Y-65837405D01*
X264798487Y-65825589D01*
X264788987Y-65812780D01*
X264780789Y-65799102D01*
X264773971Y-65784686D01*
X264768598Y-65769671D01*
X264764723Y-65754202D01*
X264762383Y-65738428D01*
X264761601Y-65722500D01*
X264761601Y-65397500D01*
X264762383Y-65381572D01*
X264764723Y-65365798D01*
X264768598Y-65350329D01*
X264773971Y-65335314D01*
X264780789Y-65320898D01*
X264788987Y-65307220D01*
X264798487Y-65294411D01*
X264809196Y-65282595D01*
X264821012Y-65271886D01*
X264833821Y-65262386D01*
X264847499Y-65254188D01*
X264861915Y-65247370D01*
X264876930Y-65241997D01*
X264892399Y-65238122D01*
X264908173Y-65235782D01*
X264924101Y-65235000D01*
X265874101Y-65235000D01*
X265890029Y-65235782D01*
G37*
G36*
X265890029Y-64735782D02*
G01*
X265905803Y-64738122D01*
X265921272Y-64741997D01*
X265936287Y-64747370D01*
X265950703Y-64754188D01*
X265964381Y-64762386D01*
X265977190Y-64771886D01*
X265989006Y-64782595D01*
X265999715Y-64794411D01*
X266009215Y-64807220D01*
X266017413Y-64820898D01*
X266024231Y-64835314D01*
X266029604Y-64850329D01*
X266033479Y-64865798D01*
X266035819Y-64881572D01*
X266036601Y-64897500D01*
X266036601Y-65222500D01*
X266035819Y-65238428D01*
X266033479Y-65254202D01*
X266029604Y-65269671D01*
X266024231Y-65284686D01*
X266017413Y-65299102D01*
X266009215Y-65312780D01*
X265999715Y-65325589D01*
X265989006Y-65337405D01*
X265977190Y-65348114D01*
X265964381Y-65357614D01*
X265950703Y-65365812D01*
X265936287Y-65372630D01*
X265921272Y-65378003D01*
X265905803Y-65381878D01*
X265890029Y-65384218D01*
X265874101Y-65385000D01*
X264924101Y-65385000D01*
X264908173Y-65384218D01*
X264892399Y-65381878D01*
X264876930Y-65378003D01*
X264861915Y-65372630D01*
X264847499Y-65365812D01*
X264833821Y-65357614D01*
X264821012Y-65348114D01*
X264809196Y-65337405D01*
X264798487Y-65325589D01*
X264788987Y-65312780D01*
X264780789Y-65299102D01*
X264773971Y-65284686D01*
X264768598Y-65269671D01*
X264764723Y-65254202D01*
X264762383Y-65238428D01*
X264761601Y-65222500D01*
X264761601Y-64897500D01*
X264762383Y-64881572D01*
X264764723Y-64865798D01*
X264768598Y-64850329D01*
X264773971Y-64835314D01*
X264780789Y-64820898D01*
X264788987Y-64807220D01*
X264798487Y-64794411D01*
X264809196Y-64782595D01*
X264821012Y-64771886D01*
X264833821Y-64762386D01*
X264847499Y-64754188D01*
X264861915Y-64747370D01*
X264876930Y-64741997D01*
X264892399Y-64738122D01*
X264908173Y-64735782D01*
X264924101Y-64735000D01*
X265874101Y-64735000D01*
X265890029Y-64735782D01*
G37*
G36*
X265890029Y-64235782D02*
G01*
X265905803Y-64238122D01*
X265921272Y-64241997D01*
X265936287Y-64247370D01*
X265950703Y-64254188D01*
X265964381Y-64262386D01*
X265977190Y-64271886D01*
X265989006Y-64282595D01*
X265999715Y-64294411D01*
X266009215Y-64307220D01*
X266017413Y-64320898D01*
X266024231Y-64335314D01*
X266029604Y-64350329D01*
X266033479Y-64365798D01*
X266035819Y-64381572D01*
X266036601Y-64397500D01*
X266036601Y-64722500D01*
X266035819Y-64738428D01*
X266033479Y-64754202D01*
X266029604Y-64769671D01*
X266024231Y-64784686D01*
X266017413Y-64799102D01*
X266009215Y-64812780D01*
X265999715Y-64825589D01*
X265989006Y-64837405D01*
X265977190Y-64848114D01*
X265964381Y-64857614D01*
X265950703Y-64865812D01*
X265936287Y-64872630D01*
X265921272Y-64878003D01*
X265905803Y-64881878D01*
X265890029Y-64884218D01*
X265874101Y-64885000D01*
X264924101Y-64885000D01*
X264908173Y-64884218D01*
X264892399Y-64881878D01*
X264876930Y-64878003D01*
X264861915Y-64872630D01*
X264847499Y-64865812D01*
X264833821Y-64857614D01*
X264821012Y-64848114D01*
X264809196Y-64837405D01*
X264798487Y-64825589D01*
X264788987Y-64812780D01*
X264780789Y-64799102D01*
X264773971Y-64784686D01*
X264768598Y-64769671D01*
X264764723Y-64754202D01*
X264762383Y-64738428D01*
X264761601Y-64722500D01*
X264761601Y-64397500D01*
X264762383Y-64381572D01*
X264764723Y-64365798D01*
X264768598Y-64350329D01*
X264773971Y-64335314D01*
X264780789Y-64320898D01*
X264788987Y-64307220D01*
X264798487Y-64294411D01*
X264809196Y-64282595D01*
X264821012Y-64271886D01*
X264833821Y-64262386D01*
X264847499Y-64254188D01*
X264861915Y-64247370D01*
X264876930Y-64241997D01*
X264892399Y-64238122D01*
X264908173Y-64235782D01*
X264924101Y-64235000D01*
X265874101Y-64235000D01*
X265890029Y-64235782D01*
G37*
G36*
X264457010Y-64561359D02*
G01*
X264484410Y-64565423D01*
X264511279Y-64572154D01*
X264537359Y-64581486D01*
X264562399Y-64593329D01*
X264586158Y-64607569D01*
X264608406Y-64624069D01*
X264628930Y-64642671D01*
X264647532Y-64663195D01*
X264664032Y-64685443D01*
X264678272Y-64709202D01*
X264690115Y-64734242D01*
X264699447Y-64760322D01*
X264706178Y-64787191D01*
X264710242Y-64814591D01*
X264711601Y-64842257D01*
X264711601Y-67777743D01*
X264710242Y-67805409D01*
X264706178Y-67832809D01*
X264699447Y-67859678D01*
X264690115Y-67885758D01*
X264678272Y-67910798D01*
X264664032Y-67934557D01*
X264647532Y-67956805D01*
X264628930Y-67977329D01*
X264608406Y-67995931D01*
X264586158Y-68012431D01*
X264562399Y-68026671D01*
X264537359Y-68038514D01*
X264511279Y-68047846D01*
X264484410Y-68054577D01*
X264457010Y-68058641D01*
X264429344Y-68060000D01*
X261493858Y-68060000D01*
X261466192Y-68058641D01*
X261438792Y-68054577D01*
X261411923Y-68047846D01*
X261385843Y-68038514D01*
X261360803Y-68026671D01*
X261337044Y-68012431D01*
X261314796Y-67995931D01*
X261294272Y-67977329D01*
X261275670Y-67956805D01*
X261259170Y-67934557D01*
X261244930Y-67910798D01*
X261233087Y-67885758D01*
X261223755Y-67859678D01*
X261217024Y-67832809D01*
X261212960Y-67805409D01*
X261211601Y-67777743D01*
X261211601Y-64842257D01*
X261212960Y-64814591D01*
X261217024Y-64787191D01*
X261223755Y-64760322D01*
X261233087Y-64734242D01*
X261244930Y-64709202D01*
X261259170Y-64685443D01*
X261275670Y-64663195D01*
X261294272Y-64642671D01*
X261314796Y-64624069D01*
X261337044Y-64607569D01*
X261360803Y-64593329D01*
X261385843Y-64581486D01*
X261411923Y-64572154D01*
X261438792Y-64565423D01*
X261466192Y-64561359D01*
X261493858Y-64560000D01*
X264429344Y-64560000D01*
X264457010Y-64561359D01*
G37*
D17*
X277812500Y-35718750D03*
X285612500Y-35718750D03*
D13*
G36*
X265742493Y-54496535D02*
G01*
X265773435Y-54501125D01*
X265803778Y-54508725D01*
X265833230Y-54519263D01*
X265861508Y-54532638D01*
X265888338Y-54548719D01*
X265913463Y-54567353D01*
X265936640Y-54588360D01*
X265957647Y-54611537D01*
X265976281Y-54636662D01*
X265992362Y-54663492D01*
X266005737Y-54691770D01*
X266016275Y-54721222D01*
X266023875Y-54751565D01*
X266028465Y-54782507D01*
X266030000Y-54813750D01*
X266030000Y-55526250D01*
X266028465Y-55557493D01*
X266023875Y-55588435D01*
X266016275Y-55618778D01*
X266005737Y-55648230D01*
X265992362Y-55676508D01*
X265976281Y-55703338D01*
X265957647Y-55728463D01*
X265936640Y-55751640D01*
X265913463Y-55772647D01*
X265888338Y-55791281D01*
X265861508Y-55807362D01*
X265833230Y-55820737D01*
X265803778Y-55831275D01*
X265773435Y-55838875D01*
X265742493Y-55843465D01*
X265711250Y-55845000D01*
X265073750Y-55845000D01*
X265042507Y-55843465D01*
X265011565Y-55838875D01*
X264981222Y-55831275D01*
X264951770Y-55820737D01*
X264923492Y-55807362D01*
X264896662Y-55791281D01*
X264871537Y-55772647D01*
X264848360Y-55751640D01*
X264827353Y-55728463D01*
X264808719Y-55703338D01*
X264792638Y-55676508D01*
X264779263Y-55648230D01*
X264768725Y-55618778D01*
X264761125Y-55588435D01*
X264756535Y-55557493D01*
X264755000Y-55526250D01*
X264755000Y-54813750D01*
X264756535Y-54782507D01*
X264761125Y-54751565D01*
X264768725Y-54721222D01*
X264779263Y-54691770D01*
X264792638Y-54663492D01*
X264808719Y-54636662D01*
X264827353Y-54611537D01*
X264848360Y-54588360D01*
X264871537Y-54567353D01*
X264896662Y-54548719D01*
X264923492Y-54532638D01*
X264951770Y-54519263D01*
X264981222Y-54508725D01*
X265011565Y-54501125D01*
X265042507Y-54496535D01*
X265073750Y-54495000D01*
X265711250Y-54495000D01*
X265742493Y-54496535D01*
G37*
G36*
X267317493Y-54496535D02*
G01*
X267348435Y-54501125D01*
X267378778Y-54508725D01*
X267408230Y-54519263D01*
X267436508Y-54532638D01*
X267463338Y-54548719D01*
X267488463Y-54567353D01*
X267511640Y-54588360D01*
X267532647Y-54611537D01*
X267551281Y-54636662D01*
X267567362Y-54663492D01*
X267580737Y-54691770D01*
X267591275Y-54721222D01*
X267598875Y-54751565D01*
X267603465Y-54782507D01*
X267605000Y-54813750D01*
X267605000Y-55526250D01*
X267603465Y-55557493D01*
X267598875Y-55588435D01*
X267591275Y-55618778D01*
X267580737Y-55648230D01*
X267567362Y-55676508D01*
X267551281Y-55703338D01*
X267532647Y-55728463D01*
X267511640Y-55751640D01*
X267488463Y-55772647D01*
X267463338Y-55791281D01*
X267436508Y-55807362D01*
X267408230Y-55820737D01*
X267378778Y-55831275D01*
X267348435Y-55838875D01*
X267317493Y-55843465D01*
X267286250Y-55845000D01*
X266648750Y-55845000D01*
X266617507Y-55843465D01*
X266586565Y-55838875D01*
X266556222Y-55831275D01*
X266526770Y-55820737D01*
X266498492Y-55807362D01*
X266471662Y-55791281D01*
X266446537Y-55772647D01*
X266423360Y-55751640D01*
X266402353Y-55728463D01*
X266383719Y-55703338D01*
X266367638Y-55676508D01*
X266354263Y-55648230D01*
X266343725Y-55618778D01*
X266336125Y-55588435D01*
X266331535Y-55557493D01*
X266330000Y-55526250D01*
X266330000Y-54813750D01*
X266331535Y-54782507D01*
X266336125Y-54751565D01*
X266343725Y-54721222D01*
X266354263Y-54691770D01*
X266367638Y-54663492D01*
X266383719Y-54636662D01*
X266402353Y-54611537D01*
X266423360Y-54588360D01*
X266446537Y-54567353D01*
X266471662Y-54548719D01*
X266498492Y-54532638D01*
X266526770Y-54519263D01*
X266556222Y-54508725D01*
X266586565Y-54501125D01*
X266617507Y-54496535D01*
X266648750Y-54495000D01*
X267286250Y-54495000D01*
X267317493Y-54496535D01*
G37*
G36*
X267317493Y-52956535D02*
G01*
X267348435Y-52961125D01*
X267378778Y-52968725D01*
X267408230Y-52979263D01*
X267436508Y-52992638D01*
X267463338Y-53008719D01*
X267488463Y-53027353D01*
X267511640Y-53048360D01*
X267532647Y-53071537D01*
X267551281Y-53096662D01*
X267567362Y-53123492D01*
X267580737Y-53151770D01*
X267591275Y-53181222D01*
X267598875Y-53211565D01*
X267603465Y-53242507D01*
X267605000Y-53273750D01*
X267605000Y-53986250D01*
X267603465Y-54017493D01*
X267598875Y-54048435D01*
X267591275Y-54078778D01*
X267580737Y-54108230D01*
X267567362Y-54136508D01*
X267551281Y-54163338D01*
X267532647Y-54188463D01*
X267511640Y-54211640D01*
X267488463Y-54232647D01*
X267463338Y-54251281D01*
X267436508Y-54267362D01*
X267408230Y-54280737D01*
X267378778Y-54291275D01*
X267348435Y-54298875D01*
X267317493Y-54303465D01*
X267286250Y-54305000D01*
X266648750Y-54305000D01*
X266617507Y-54303465D01*
X266586565Y-54298875D01*
X266556222Y-54291275D01*
X266526770Y-54280737D01*
X266498492Y-54267362D01*
X266471662Y-54251281D01*
X266446537Y-54232647D01*
X266423360Y-54211640D01*
X266402353Y-54188463D01*
X266383719Y-54163338D01*
X266367638Y-54136508D01*
X266354263Y-54108230D01*
X266343725Y-54078778D01*
X266336125Y-54048435D01*
X266331535Y-54017493D01*
X266330000Y-53986250D01*
X266330000Y-53273750D01*
X266331535Y-53242507D01*
X266336125Y-53211565D01*
X266343725Y-53181222D01*
X266354263Y-53151770D01*
X266367638Y-53123492D01*
X266383719Y-53096662D01*
X266402353Y-53071537D01*
X266423360Y-53048360D01*
X266446537Y-53027353D01*
X266471662Y-53008719D01*
X266498492Y-52992638D01*
X266526770Y-52979263D01*
X266556222Y-52968725D01*
X266586565Y-52961125D01*
X266617507Y-52956535D01*
X266648750Y-52955000D01*
X267286250Y-52955000D01*
X267317493Y-52956535D01*
G37*
G36*
X265742493Y-52956535D02*
G01*
X265773435Y-52961125D01*
X265803778Y-52968725D01*
X265833230Y-52979263D01*
X265861508Y-52992638D01*
X265888338Y-53008719D01*
X265913463Y-53027353D01*
X265936640Y-53048360D01*
X265957647Y-53071537D01*
X265976281Y-53096662D01*
X265992362Y-53123492D01*
X266005737Y-53151770D01*
X266016275Y-53181222D01*
X266023875Y-53211565D01*
X266028465Y-53242507D01*
X266030000Y-53273750D01*
X266030000Y-53986250D01*
X266028465Y-54017493D01*
X266023875Y-54048435D01*
X266016275Y-54078778D01*
X266005737Y-54108230D01*
X265992362Y-54136508D01*
X265976281Y-54163338D01*
X265957647Y-54188463D01*
X265936640Y-54211640D01*
X265913463Y-54232647D01*
X265888338Y-54251281D01*
X265861508Y-54267362D01*
X265833230Y-54280737D01*
X265803778Y-54291275D01*
X265773435Y-54298875D01*
X265742493Y-54303465D01*
X265711250Y-54305000D01*
X265073750Y-54305000D01*
X265042507Y-54303465D01*
X265011565Y-54298875D01*
X264981222Y-54291275D01*
X264951770Y-54280737D01*
X264923492Y-54267362D01*
X264896662Y-54251281D01*
X264871537Y-54232647D01*
X264848360Y-54211640D01*
X264827353Y-54188463D01*
X264808719Y-54163338D01*
X264792638Y-54136508D01*
X264779263Y-54108230D01*
X264768725Y-54078778D01*
X264761125Y-54048435D01*
X264756535Y-54017493D01*
X264755000Y-53986250D01*
X264755000Y-53273750D01*
X264756535Y-53242507D01*
X264761125Y-53211565D01*
X264768725Y-53181222D01*
X264779263Y-53151770D01*
X264792638Y-53123492D01*
X264808719Y-53096662D01*
X264827353Y-53071537D01*
X264848360Y-53048360D01*
X264871537Y-53027353D01*
X264896662Y-53008719D01*
X264923492Y-52992638D01*
X264951770Y-52979263D01*
X264981222Y-52968725D01*
X265011565Y-52961125D01*
X265042507Y-52956535D01*
X265073750Y-52955000D01*
X265711250Y-52955000D01*
X265742493Y-52956535D01*
G37*
G36*
X274474993Y-35476535D02*
G01*
X274505935Y-35481125D01*
X274536278Y-35488725D01*
X274565730Y-35499263D01*
X274594008Y-35512638D01*
X274620838Y-35528719D01*
X274645963Y-35547353D01*
X274669140Y-35568360D01*
X274690147Y-35591537D01*
X274708781Y-35616662D01*
X274724862Y-35643492D01*
X274738237Y-35671770D01*
X274748775Y-35701222D01*
X274756375Y-35731565D01*
X274760965Y-35762507D01*
X274762500Y-35793750D01*
X274762500Y-36506250D01*
X274760965Y-36537493D01*
X274756375Y-36568435D01*
X274748775Y-36598778D01*
X274738237Y-36628230D01*
X274724862Y-36656508D01*
X274708781Y-36683338D01*
X274690147Y-36708463D01*
X274669140Y-36731640D01*
X274645963Y-36752647D01*
X274620838Y-36771281D01*
X274594008Y-36787362D01*
X274565730Y-36800737D01*
X274536278Y-36811275D01*
X274505935Y-36818875D01*
X274474993Y-36823465D01*
X274443750Y-36825000D01*
X273806250Y-36825000D01*
X273775007Y-36823465D01*
X273744065Y-36818875D01*
X273713722Y-36811275D01*
X273684270Y-36800737D01*
X273655992Y-36787362D01*
X273629162Y-36771281D01*
X273604037Y-36752647D01*
X273580860Y-36731640D01*
X273559853Y-36708463D01*
X273541219Y-36683338D01*
X273525138Y-36656508D01*
X273511763Y-36628230D01*
X273501225Y-36598778D01*
X273493625Y-36568435D01*
X273489035Y-36537493D01*
X273487500Y-36506250D01*
X273487500Y-35793750D01*
X273489035Y-35762507D01*
X273493625Y-35731565D01*
X273501225Y-35701222D01*
X273511763Y-35671770D01*
X273525138Y-35643492D01*
X273541219Y-35616662D01*
X273559853Y-35591537D01*
X273580860Y-35568360D01*
X273604037Y-35547353D01*
X273629162Y-35528719D01*
X273655992Y-35512638D01*
X273684270Y-35499263D01*
X273713722Y-35488725D01*
X273744065Y-35481125D01*
X273775007Y-35476535D01*
X273806250Y-35475000D01*
X274443750Y-35475000D01*
X274474993Y-35476535D01*
G37*
G36*
X272899993Y-35476535D02*
G01*
X272930935Y-35481125D01*
X272961278Y-35488725D01*
X272990730Y-35499263D01*
X273019008Y-35512638D01*
X273045838Y-35528719D01*
X273070963Y-35547353D01*
X273094140Y-35568360D01*
X273115147Y-35591537D01*
X273133781Y-35616662D01*
X273149862Y-35643492D01*
X273163237Y-35671770D01*
X273173775Y-35701222D01*
X273181375Y-35731565D01*
X273185965Y-35762507D01*
X273187500Y-35793750D01*
X273187500Y-36506250D01*
X273185965Y-36537493D01*
X273181375Y-36568435D01*
X273173775Y-36598778D01*
X273163237Y-36628230D01*
X273149862Y-36656508D01*
X273133781Y-36683338D01*
X273115147Y-36708463D01*
X273094140Y-36731640D01*
X273070963Y-36752647D01*
X273045838Y-36771281D01*
X273019008Y-36787362D01*
X272990730Y-36800737D01*
X272961278Y-36811275D01*
X272930935Y-36818875D01*
X272899993Y-36823465D01*
X272868750Y-36825000D01*
X272231250Y-36825000D01*
X272200007Y-36823465D01*
X272169065Y-36818875D01*
X272138722Y-36811275D01*
X272109270Y-36800737D01*
X272080992Y-36787362D01*
X272054162Y-36771281D01*
X272029037Y-36752647D01*
X272005860Y-36731640D01*
X271984853Y-36708463D01*
X271966219Y-36683338D01*
X271950138Y-36656508D01*
X271936763Y-36628230D01*
X271926225Y-36598778D01*
X271918625Y-36568435D01*
X271914035Y-36537493D01*
X271912500Y-36506250D01*
X271912500Y-35793750D01*
X271914035Y-35762507D01*
X271918625Y-35731565D01*
X271926225Y-35701222D01*
X271936763Y-35671770D01*
X271950138Y-35643492D01*
X271966219Y-35616662D01*
X271984853Y-35591537D01*
X272005860Y-35568360D01*
X272029037Y-35547353D01*
X272054162Y-35528719D01*
X272080992Y-35512638D01*
X272109270Y-35499263D01*
X272138722Y-35488725D01*
X272169065Y-35481125D01*
X272200007Y-35476535D01*
X272231250Y-35475000D01*
X272868750Y-35475000D01*
X272899993Y-35476535D01*
G37*
G36*
X272899993Y-33826535D02*
G01*
X272930935Y-33831125D01*
X272961278Y-33838725D01*
X272990730Y-33849263D01*
X273019008Y-33862638D01*
X273045838Y-33878719D01*
X273070963Y-33897353D01*
X273094140Y-33918360D01*
X273115147Y-33941537D01*
X273133781Y-33966662D01*
X273149862Y-33993492D01*
X273163237Y-34021770D01*
X273173775Y-34051222D01*
X273181375Y-34081565D01*
X273185965Y-34112507D01*
X273187500Y-34143750D01*
X273187500Y-34856250D01*
X273185965Y-34887493D01*
X273181375Y-34918435D01*
X273173775Y-34948778D01*
X273163237Y-34978230D01*
X273149862Y-35006508D01*
X273133781Y-35033338D01*
X273115147Y-35058463D01*
X273094140Y-35081640D01*
X273070963Y-35102647D01*
X273045838Y-35121281D01*
X273019008Y-35137362D01*
X272990730Y-35150737D01*
X272961278Y-35161275D01*
X272930935Y-35168875D01*
X272899993Y-35173465D01*
X272868750Y-35175000D01*
X272231250Y-35175000D01*
X272200007Y-35173465D01*
X272169065Y-35168875D01*
X272138722Y-35161275D01*
X272109270Y-35150737D01*
X272080992Y-35137362D01*
X272054162Y-35121281D01*
X272029037Y-35102647D01*
X272005860Y-35081640D01*
X271984853Y-35058463D01*
X271966219Y-35033338D01*
X271950138Y-35006508D01*
X271936763Y-34978230D01*
X271926225Y-34948778D01*
X271918625Y-34918435D01*
X271914035Y-34887493D01*
X271912500Y-34856250D01*
X271912500Y-34143750D01*
X271914035Y-34112507D01*
X271918625Y-34081565D01*
X271926225Y-34051222D01*
X271936763Y-34021770D01*
X271950138Y-33993492D01*
X271966219Y-33966662D01*
X271984853Y-33941537D01*
X272005860Y-33918360D01*
X272029037Y-33897353D01*
X272054162Y-33878719D01*
X272080992Y-33862638D01*
X272109270Y-33849263D01*
X272138722Y-33838725D01*
X272169065Y-33831125D01*
X272200007Y-33826535D01*
X272231250Y-33825000D01*
X272868750Y-33825000D01*
X272899993Y-33826535D01*
G37*
G36*
X274474993Y-33826535D02*
G01*
X274505935Y-33831125D01*
X274536278Y-33838725D01*
X274565730Y-33849263D01*
X274594008Y-33862638D01*
X274620838Y-33878719D01*
X274645963Y-33897353D01*
X274669140Y-33918360D01*
X274690147Y-33941537D01*
X274708781Y-33966662D01*
X274724862Y-33993492D01*
X274738237Y-34021770D01*
X274748775Y-34051222D01*
X274756375Y-34081565D01*
X274760965Y-34112507D01*
X274762500Y-34143750D01*
X274762500Y-34856250D01*
X274760965Y-34887493D01*
X274756375Y-34918435D01*
X274748775Y-34948778D01*
X274738237Y-34978230D01*
X274724862Y-35006508D01*
X274708781Y-35033338D01*
X274690147Y-35058463D01*
X274669140Y-35081640D01*
X274645963Y-35102647D01*
X274620838Y-35121281D01*
X274594008Y-35137362D01*
X274565730Y-35150737D01*
X274536278Y-35161275D01*
X274505935Y-35168875D01*
X274474993Y-35173465D01*
X274443750Y-35175000D01*
X273806250Y-35175000D01*
X273775007Y-35173465D01*
X273744065Y-35168875D01*
X273713722Y-35161275D01*
X273684270Y-35150737D01*
X273655992Y-35137362D01*
X273629162Y-35121281D01*
X273604037Y-35102647D01*
X273580860Y-35081640D01*
X273559853Y-35058463D01*
X273541219Y-35033338D01*
X273525138Y-35006508D01*
X273511763Y-34978230D01*
X273501225Y-34948778D01*
X273493625Y-34918435D01*
X273489035Y-34887493D01*
X273487500Y-34856250D01*
X273487500Y-34143750D01*
X273489035Y-34112507D01*
X273493625Y-34081565D01*
X273501225Y-34051222D01*
X273511763Y-34021770D01*
X273525138Y-33993492D01*
X273541219Y-33966662D01*
X273559853Y-33941537D01*
X273580860Y-33918360D01*
X273604037Y-33897353D01*
X273629162Y-33878719D01*
X273655992Y-33862638D01*
X273684270Y-33849263D01*
X273713722Y-33838725D01*
X273744065Y-33831125D01*
X273775007Y-33826535D01*
X273806250Y-33825000D01*
X274443750Y-33825000D01*
X274474993Y-33826535D01*
G37*
G36*
X257829993Y-70476535D02*
G01*
X257860935Y-70481125D01*
X257891278Y-70488725D01*
X257920730Y-70499263D01*
X257949008Y-70512638D01*
X257975838Y-70528719D01*
X258000963Y-70547353D01*
X258024140Y-70568360D01*
X258045147Y-70591537D01*
X258063781Y-70616662D01*
X258079862Y-70643492D01*
X258093237Y-70671770D01*
X258103775Y-70701222D01*
X258111375Y-70731565D01*
X258115965Y-70762507D01*
X258117500Y-70793750D01*
X258117500Y-71506250D01*
X258115965Y-71537493D01*
X258111375Y-71568435D01*
X258103775Y-71598778D01*
X258093237Y-71628230D01*
X258079862Y-71656508D01*
X258063781Y-71683338D01*
X258045147Y-71708463D01*
X258024140Y-71731640D01*
X258000963Y-71752647D01*
X257975838Y-71771281D01*
X257949008Y-71787362D01*
X257920730Y-71800737D01*
X257891278Y-71811275D01*
X257860935Y-71818875D01*
X257829993Y-71823465D01*
X257798750Y-71825000D01*
X257161250Y-71825000D01*
X257130007Y-71823465D01*
X257099065Y-71818875D01*
X257068722Y-71811275D01*
X257039270Y-71800737D01*
X257010992Y-71787362D01*
X256984162Y-71771281D01*
X256959037Y-71752647D01*
X256935860Y-71731640D01*
X256914853Y-71708463D01*
X256896219Y-71683338D01*
X256880138Y-71656508D01*
X256866763Y-71628230D01*
X256856225Y-71598778D01*
X256848625Y-71568435D01*
X256844035Y-71537493D01*
X256842500Y-71506250D01*
X256842500Y-70793750D01*
X256844035Y-70762507D01*
X256848625Y-70731565D01*
X256856225Y-70701222D01*
X256866763Y-70671770D01*
X256880138Y-70643492D01*
X256896219Y-70616662D01*
X256914853Y-70591537D01*
X256935860Y-70568360D01*
X256959037Y-70547353D01*
X256984162Y-70528719D01*
X257010992Y-70512638D01*
X257039270Y-70499263D01*
X257068722Y-70488725D01*
X257099065Y-70481125D01*
X257130007Y-70476535D01*
X257161250Y-70475000D01*
X257798750Y-70475000D01*
X257829993Y-70476535D01*
G37*
G36*
X256254993Y-70476535D02*
G01*
X256285935Y-70481125D01*
X256316278Y-70488725D01*
X256345730Y-70499263D01*
X256374008Y-70512638D01*
X256400838Y-70528719D01*
X256425963Y-70547353D01*
X256449140Y-70568360D01*
X256470147Y-70591537D01*
X256488781Y-70616662D01*
X256504862Y-70643492D01*
X256518237Y-70671770D01*
X256528775Y-70701222D01*
X256536375Y-70731565D01*
X256540965Y-70762507D01*
X256542500Y-70793750D01*
X256542500Y-71506250D01*
X256540965Y-71537493D01*
X256536375Y-71568435D01*
X256528775Y-71598778D01*
X256518237Y-71628230D01*
X256504862Y-71656508D01*
X256488781Y-71683338D01*
X256470147Y-71708463D01*
X256449140Y-71731640D01*
X256425963Y-71752647D01*
X256400838Y-71771281D01*
X256374008Y-71787362D01*
X256345730Y-71800737D01*
X256316278Y-71811275D01*
X256285935Y-71818875D01*
X256254993Y-71823465D01*
X256223750Y-71825000D01*
X255586250Y-71825000D01*
X255555007Y-71823465D01*
X255524065Y-71818875D01*
X255493722Y-71811275D01*
X255464270Y-71800737D01*
X255435992Y-71787362D01*
X255409162Y-71771281D01*
X255384037Y-71752647D01*
X255360860Y-71731640D01*
X255339853Y-71708463D01*
X255321219Y-71683338D01*
X255305138Y-71656508D01*
X255291763Y-71628230D01*
X255281225Y-71598778D01*
X255273625Y-71568435D01*
X255269035Y-71537493D01*
X255267500Y-71506250D01*
X255267500Y-70793750D01*
X255269035Y-70762507D01*
X255273625Y-70731565D01*
X255281225Y-70701222D01*
X255291763Y-70671770D01*
X255305138Y-70643492D01*
X255321219Y-70616662D01*
X255339853Y-70591537D01*
X255360860Y-70568360D01*
X255384037Y-70547353D01*
X255409162Y-70528719D01*
X255435992Y-70512638D01*
X255464270Y-70499263D01*
X255493722Y-70488725D01*
X255524065Y-70481125D01*
X255555007Y-70476535D01*
X255586250Y-70475000D01*
X256223750Y-70475000D01*
X256254993Y-70476535D01*
G37*
G36*
X262374993Y-43301535D02*
G01*
X262405935Y-43306125D01*
X262436278Y-43313725D01*
X262465730Y-43324263D01*
X262494008Y-43337638D01*
X262520838Y-43353719D01*
X262545963Y-43372353D01*
X262569140Y-43393360D01*
X262590147Y-43416537D01*
X262608781Y-43441662D01*
X262624862Y-43468492D01*
X262638237Y-43496770D01*
X262648775Y-43526222D01*
X262656375Y-43556565D01*
X262660965Y-43587507D01*
X262662500Y-43618750D01*
X262662500Y-44331250D01*
X262660965Y-44362493D01*
X262656375Y-44393435D01*
X262648775Y-44423778D01*
X262638237Y-44453230D01*
X262624862Y-44481508D01*
X262608781Y-44508338D01*
X262590147Y-44533463D01*
X262569140Y-44556640D01*
X262545963Y-44577647D01*
X262520838Y-44596281D01*
X262494008Y-44612362D01*
X262465730Y-44625737D01*
X262436278Y-44636275D01*
X262405935Y-44643875D01*
X262374993Y-44648465D01*
X262343750Y-44650000D01*
X261706250Y-44650000D01*
X261675007Y-44648465D01*
X261644065Y-44643875D01*
X261613722Y-44636275D01*
X261584270Y-44625737D01*
X261555992Y-44612362D01*
X261529162Y-44596281D01*
X261504037Y-44577647D01*
X261480860Y-44556640D01*
X261459853Y-44533463D01*
X261441219Y-44508338D01*
X261425138Y-44481508D01*
X261411763Y-44453230D01*
X261401225Y-44423778D01*
X261393625Y-44393435D01*
X261389035Y-44362493D01*
X261387500Y-44331250D01*
X261387500Y-43618750D01*
X261389035Y-43587507D01*
X261393625Y-43556565D01*
X261401225Y-43526222D01*
X261411763Y-43496770D01*
X261425138Y-43468492D01*
X261441219Y-43441662D01*
X261459853Y-43416537D01*
X261480860Y-43393360D01*
X261504037Y-43372353D01*
X261529162Y-43353719D01*
X261555992Y-43337638D01*
X261584270Y-43324263D01*
X261613722Y-43313725D01*
X261644065Y-43306125D01*
X261675007Y-43301535D01*
X261706250Y-43300000D01*
X262343750Y-43300000D01*
X262374993Y-43301535D01*
G37*
G36*
X260799993Y-43301535D02*
G01*
X260830935Y-43306125D01*
X260861278Y-43313725D01*
X260890730Y-43324263D01*
X260919008Y-43337638D01*
X260945838Y-43353719D01*
X260970963Y-43372353D01*
X260994140Y-43393360D01*
X261015147Y-43416537D01*
X261033781Y-43441662D01*
X261049862Y-43468492D01*
X261063237Y-43496770D01*
X261073775Y-43526222D01*
X261081375Y-43556565D01*
X261085965Y-43587507D01*
X261087500Y-43618750D01*
X261087500Y-44331250D01*
X261085965Y-44362493D01*
X261081375Y-44393435D01*
X261073775Y-44423778D01*
X261063237Y-44453230D01*
X261049862Y-44481508D01*
X261033781Y-44508338D01*
X261015147Y-44533463D01*
X260994140Y-44556640D01*
X260970963Y-44577647D01*
X260945838Y-44596281D01*
X260919008Y-44612362D01*
X260890730Y-44625737D01*
X260861278Y-44636275D01*
X260830935Y-44643875D01*
X260799993Y-44648465D01*
X260768750Y-44650000D01*
X260131250Y-44650000D01*
X260100007Y-44648465D01*
X260069065Y-44643875D01*
X260038722Y-44636275D01*
X260009270Y-44625737D01*
X259980992Y-44612362D01*
X259954162Y-44596281D01*
X259929037Y-44577647D01*
X259905860Y-44556640D01*
X259884853Y-44533463D01*
X259866219Y-44508338D01*
X259850138Y-44481508D01*
X259836763Y-44453230D01*
X259826225Y-44423778D01*
X259818625Y-44393435D01*
X259814035Y-44362493D01*
X259812500Y-44331250D01*
X259812500Y-43618750D01*
X259814035Y-43587507D01*
X259818625Y-43556565D01*
X259826225Y-43526222D01*
X259836763Y-43496770D01*
X259850138Y-43468492D01*
X259866219Y-43441662D01*
X259884853Y-43416537D01*
X259905860Y-43393360D01*
X259929037Y-43372353D01*
X259954162Y-43353719D01*
X259980992Y-43337638D01*
X260009270Y-43324263D01*
X260038722Y-43313725D01*
X260069065Y-43306125D01*
X260100007Y-43301535D01*
X260131250Y-43300000D01*
X260768750Y-43300000D01*
X260799993Y-43301535D01*
G37*
D18*
X269010000Y-49910000D03*
X272310000Y-49910000D03*
D13*
G36*
X260819994Y-45016535D02*
G01*
X260850936Y-45021125D01*
X260881279Y-45028725D01*
X260910731Y-45039263D01*
X260939009Y-45052638D01*
X260965839Y-45068719D01*
X260990964Y-45087353D01*
X261014141Y-45108360D01*
X261035148Y-45131537D01*
X261053782Y-45156662D01*
X261069863Y-45183492D01*
X261083238Y-45211770D01*
X261093776Y-45241222D01*
X261101376Y-45271565D01*
X261105966Y-45302507D01*
X261107501Y-45333750D01*
X261107501Y-46046250D01*
X261105966Y-46077493D01*
X261101376Y-46108435D01*
X261093776Y-46138778D01*
X261083238Y-46168230D01*
X261069863Y-46196508D01*
X261053782Y-46223338D01*
X261035148Y-46248463D01*
X261014141Y-46271640D01*
X260990964Y-46292647D01*
X260965839Y-46311281D01*
X260939009Y-46327362D01*
X260910731Y-46340737D01*
X260881279Y-46351275D01*
X260850936Y-46358875D01*
X260819994Y-46363465D01*
X260788751Y-46365000D01*
X260151251Y-46365000D01*
X260120008Y-46363465D01*
X260089066Y-46358875D01*
X260058723Y-46351275D01*
X260029271Y-46340737D01*
X260000993Y-46327362D01*
X259974163Y-46311281D01*
X259949038Y-46292647D01*
X259925861Y-46271640D01*
X259904854Y-46248463D01*
X259886220Y-46223338D01*
X259870139Y-46196508D01*
X259856764Y-46168230D01*
X259846226Y-46138778D01*
X259838626Y-46108435D01*
X259834036Y-46077493D01*
X259832501Y-46046250D01*
X259832501Y-45333750D01*
X259834036Y-45302507D01*
X259838626Y-45271565D01*
X259846226Y-45241222D01*
X259856764Y-45211770D01*
X259870139Y-45183492D01*
X259886220Y-45156662D01*
X259904854Y-45131537D01*
X259925861Y-45108360D01*
X259949038Y-45087353D01*
X259974163Y-45068719D01*
X260000993Y-45052638D01*
X260029271Y-45039263D01*
X260058723Y-45028725D01*
X260089066Y-45021125D01*
X260120008Y-45016535D01*
X260151251Y-45015000D01*
X260788751Y-45015000D01*
X260819994Y-45016535D01*
G37*
G36*
X262394994Y-45016535D02*
G01*
X262425936Y-45021125D01*
X262456279Y-45028725D01*
X262485731Y-45039263D01*
X262514009Y-45052638D01*
X262540839Y-45068719D01*
X262565964Y-45087353D01*
X262589141Y-45108360D01*
X262610148Y-45131537D01*
X262628782Y-45156662D01*
X262644863Y-45183492D01*
X262658238Y-45211770D01*
X262668776Y-45241222D01*
X262676376Y-45271565D01*
X262680966Y-45302507D01*
X262682501Y-45333750D01*
X262682501Y-46046250D01*
X262680966Y-46077493D01*
X262676376Y-46108435D01*
X262668776Y-46138778D01*
X262658238Y-46168230D01*
X262644863Y-46196508D01*
X262628782Y-46223338D01*
X262610148Y-46248463D01*
X262589141Y-46271640D01*
X262565964Y-46292647D01*
X262540839Y-46311281D01*
X262514009Y-46327362D01*
X262485731Y-46340737D01*
X262456279Y-46351275D01*
X262425936Y-46358875D01*
X262394994Y-46363465D01*
X262363751Y-46365000D01*
X261726251Y-46365000D01*
X261695008Y-46363465D01*
X261664066Y-46358875D01*
X261633723Y-46351275D01*
X261604271Y-46340737D01*
X261575993Y-46327362D01*
X261549163Y-46311281D01*
X261524038Y-46292647D01*
X261500861Y-46271640D01*
X261479854Y-46248463D01*
X261461220Y-46223338D01*
X261445139Y-46196508D01*
X261431764Y-46168230D01*
X261421226Y-46138778D01*
X261413626Y-46108435D01*
X261409036Y-46077493D01*
X261407501Y-46046250D01*
X261407501Y-45333750D01*
X261409036Y-45302507D01*
X261413626Y-45271565D01*
X261421226Y-45241222D01*
X261431764Y-45211770D01*
X261445139Y-45183492D01*
X261461220Y-45156662D01*
X261479854Y-45131537D01*
X261500861Y-45108360D01*
X261524038Y-45087353D01*
X261549163Y-45068719D01*
X261575993Y-45052638D01*
X261604271Y-45039263D01*
X261633723Y-45028725D01*
X261664066Y-45021125D01*
X261695008Y-45016535D01*
X261726251Y-45015000D01*
X262363751Y-45015000D01*
X262394994Y-45016535D01*
G37*
G36*
X267304993Y-56096535D02*
G01*
X267335935Y-56101125D01*
X267366278Y-56108725D01*
X267395730Y-56119263D01*
X267424008Y-56132638D01*
X267450838Y-56148719D01*
X267475963Y-56167353D01*
X267499140Y-56188360D01*
X267520147Y-56211537D01*
X267538781Y-56236662D01*
X267554862Y-56263492D01*
X267568237Y-56291770D01*
X267578775Y-56321222D01*
X267586375Y-56351565D01*
X267590965Y-56382507D01*
X267592500Y-56413750D01*
X267592500Y-57126250D01*
X267590965Y-57157493D01*
X267586375Y-57188435D01*
X267578775Y-57218778D01*
X267568237Y-57248230D01*
X267554862Y-57276508D01*
X267538781Y-57303338D01*
X267520147Y-57328463D01*
X267499140Y-57351640D01*
X267475963Y-57372647D01*
X267450838Y-57391281D01*
X267424008Y-57407362D01*
X267395730Y-57420737D01*
X267366278Y-57431275D01*
X267335935Y-57438875D01*
X267304993Y-57443465D01*
X267273750Y-57445000D01*
X266636250Y-57445000D01*
X266605007Y-57443465D01*
X266574065Y-57438875D01*
X266543722Y-57431275D01*
X266514270Y-57420737D01*
X266485992Y-57407362D01*
X266459162Y-57391281D01*
X266434037Y-57372647D01*
X266410860Y-57351640D01*
X266389853Y-57328463D01*
X266371219Y-57303338D01*
X266355138Y-57276508D01*
X266341763Y-57248230D01*
X266331225Y-57218778D01*
X266323625Y-57188435D01*
X266319035Y-57157493D01*
X266317500Y-57126250D01*
X266317500Y-56413750D01*
X266319035Y-56382507D01*
X266323625Y-56351565D01*
X266331225Y-56321222D01*
X266341763Y-56291770D01*
X266355138Y-56263492D01*
X266371219Y-56236662D01*
X266389853Y-56211537D01*
X266410860Y-56188360D01*
X266434037Y-56167353D01*
X266459162Y-56148719D01*
X266485992Y-56132638D01*
X266514270Y-56119263D01*
X266543722Y-56108725D01*
X266574065Y-56101125D01*
X266605007Y-56096535D01*
X266636250Y-56095000D01*
X267273750Y-56095000D01*
X267304993Y-56096535D01*
G37*
G36*
X265729993Y-56096535D02*
G01*
X265760935Y-56101125D01*
X265791278Y-56108725D01*
X265820730Y-56119263D01*
X265849008Y-56132638D01*
X265875838Y-56148719D01*
X265900963Y-56167353D01*
X265924140Y-56188360D01*
X265945147Y-56211537D01*
X265963781Y-56236662D01*
X265979862Y-56263492D01*
X265993237Y-56291770D01*
X266003775Y-56321222D01*
X266011375Y-56351565D01*
X266015965Y-56382507D01*
X266017500Y-56413750D01*
X266017500Y-57126250D01*
X266015965Y-57157493D01*
X266011375Y-57188435D01*
X266003775Y-57218778D01*
X265993237Y-57248230D01*
X265979862Y-57276508D01*
X265963781Y-57303338D01*
X265945147Y-57328463D01*
X265924140Y-57351640D01*
X265900963Y-57372647D01*
X265875838Y-57391281D01*
X265849008Y-57407362D01*
X265820730Y-57420737D01*
X265791278Y-57431275D01*
X265760935Y-57438875D01*
X265729993Y-57443465D01*
X265698750Y-57445000D01*
X265061250Y-57445000D01*
X265030007Y-57443465D01*
X264999065Y-57438875D01*
X264968722Y-57431275D01*
X264939270Y-57420737D01*
X264910992Y-57407362D01*
X264884162Y-57391281D01*
X264859037Y-57372647D01*
X264835860Y-57351640D01*
X264814853Y-57328463D01*
X264796219Y-57303338D01*
X264780138Y-57276508D01*
X264766763Y-57248230D01*
X264756225Y-57218778D01*
X264748625Y-57188435D01*
X264744035Y-57157493D01*
X264742500Y-57126250D01*
X264742500Y-56413750D01*
X264744035Y-56382507D01*
X264748625Y-56351565D01*
X264756225Y-56321222D01*
X264766763Y-56291770D01*
X264780138Y-56263492D01*
X264796219Y-56236662D01*
X264814853Y-56211537D01*
X264835860Y-56188360D01*
X264859037Y-56167353D01*
X264884162Y-56148719D01*
X264910992Y-56132638D01*
X264939270Y-56119263D01*
X264968722Y-56108725D01*
X264999065Y-56101125D01*
X265030007Y-56096535D01*
X265061250Y-56095000D01*
X265698750Y-56095000D01*
X265729993Y-56096535D01*
G37*
G36*
X276814993Y-67386535D02*
G01*
X276845935Y-67391125D01*
X276876278Y-67398725D01*
X276905730Y-67409263D01*
X276934008Y-67422638D01*
X276960838Y-67438719D01*
X276985963Y-67457353D01*
X277009140Y-67478360D01*
X277030147Y-67501537D01*
X277048781Y-67526662D01*
X277064862Y-67553492D01*
X277078237Y-67581770D01*
X277088775Y-67611222D01*
X277096375Y-67641565D01*
X277100965Y-67672507D01*
X277102500Y-67703750D01*
X277102500Y-68416250D01*
X277100965Y-68447493D01*
X277096375Y-68478435D01*
X277088775Y-68508778D01*
X277078237Y-68538230D01*
X277064862Y-68566508D01*
X277048781Y-68593338D01*
X277030147Y-68618463D01*
X277009140Y-68641640D01*
X276985963Y-68662647D01*
X276960838Y-68681281D01*
X276934008Y-68697362D01*
X276905730Y-68710737D01*
X276876278Y-68721275D01*
X276845935Y-68728875D01*
X276814993Y-68733465D01*
X276783750Y-68735000D01*
X276146250Y-68735000D01*
X276115007Y-68733465D01*
X276084065Y-68728875D01*
X276053722Y-68721275D01*
X276024270Y-68710737D01*
X275995992Y-68697362D01*
X275969162Y-68681281D01*
X275944037Y-68662647D01*
X275920860Y-68641640D01*
X275899853Y-68618463D01*
X275881219Y-68593338D01*
X275865138Y-68566508D01*
X275851763Y-68538230D01*
X275841225Y-68508778D01*
X275833625Y-68478435D01*
X275829035Y-68447493D01*
X275827500Y-68416250D01*
X275827500Y-67703750D01*
X275829035Y-67672507D01*
X275833625Y-67641565D01*
X275841225Y-67611222D01*
X275851763Y-67581770D01*
X275865138Y-67553492D01*
X275881219Y-67526662D01*
X275899853Y-67501537D01*
X275920860Y-67478360D01*
X275944037Y-67457353D01*
X275969162Y-67438719D01*
X275995992Y-67422638D01*
X276024270Y-67409263D01*
X276053722Y-67398725D01*
X276084065Y-67391125D01*
X276115007Y-67386535D01*
X276146250Y-67385000D01*
X276783750Y-67385000D01*
X276814993Y-67386535D01*
G37*
G36*
X275239993Y-67386535D02*
G01*
X275270935Y-67391125D01*
X275301278Y-67398725D01*
X275330730Y-67409263D01*
X275359008Y-67422638D01*
X275385838Y-67438719D01*
X275410963Y-67457353D01*
X275434140Y-67478360D01*
X275455147Y-67501537D01*
X275473781Y-67526662D01*
X275489862Y-67553492D01*
X275503237Y-67581770D01*
X275513775Y-67611222D01*
X275521375Y-67641565D01*
X275525965Y-67672507D01*
X275527500Y-67703750D01*
X275527500Y-68416250D01*
X275525965Y-68447493D01*
X275521375Y-68478435D01*
X275513775Y-68508778D01*
X275503237Y-68538230D01*
X275489862Y-68566508D01*
X275473781Y-68593338D01*
X275455147Y-68618463D01*
X275434140Y-68641640D01*
X275410963Y-68662647D01*
X275385838Y-68681281D01*
X275359008Y-68697362D01*
X275330730Y-68710737D01*
X275301278Y-68721275D01*
X275270935Y-68728875D01*
X275239993Y-68733465D01*
X275208750Y-68735000D01*
X274571250Y-68735000D01*
X274540007Y-68733465D01*
X274509065Y-68728875D01*
X274478722Y-68721275D01*
X274449270Y-68710737D01*
X274420992Y-68697362D01*
X274394162Y-68681281D01*
X274369037Y-68662647D01*
X274345860Y-68641640D01*
X274324853Y-68618463D01*
X274306219Y-68593338D01*
X274290138Y-68566508D01*
X274276763Y-68538230D01*
X274266225Y-68508778D01*
X274258625Y-68478435D01*
X274254035Y-68447493D01*
X274252500Y-68416250D01*
X274252500Y-67703750D01*
X274254035Y-67672507D01*
X274258625Y-67641565D01*
X274266225Y-67611222D01*
X274276763Y-67581770D01*
X274290138Y-67553492D01*
X274306219Y-67526662D01*
X274324853Y-67501537D01*
X274345860Y-67478360D01*
X274369037Y-67457353D01*
X274394162Y-67438719D01*
X274420992Y-67422638D01*
X274449270Y-67409263D01*
X274478722Y-67398725D01*
X274509065Y-67391125D01*
X274540007Y-67386535D01*
X274571250Y-67385000D01*
X275208750Y-67385000D01*
X275239993Y-67386535D01*
G37*
G36*
X276814993Y-63246535D02*
G01*
X276845935Y-63251125D01*
X276876278Y-63258725D01*
X276905730Y-63269263D01*
X276934008Y-63282638D01*
X276960838Y-63298719D01*
X276985963Y-63317353D01*
X277009140Y-63338360D01*
X277030147Y-63361537D01*
X277048781Y-63386662D01*
X277064862Y-63413492D01*
X277078237Y-63441770D01*
X277088775Y-63471222D01*
X277096375Y-63501565D01*
X277100965Y-63532507D01*
X277102500Y-63563750D01*
X277102500Y-64276250D01*
X277100965Y-64307493D01*
X277096375Y-64338435D01*
X277088775Y-64368778D01*
X277078237Y-64398230D01*
X277064862Y-64426508D01*
X277048781Y-64453338D01*
X277030147Y-64478463D01*
X277009140Y-64501640D01*
X276985963Y-64522647D01*
X276960838Y-64541281D01*
X276934008Y-64557362D01*
X276905730Y-64570737D01*
X276876278Y-64581275D01*
X276845935Y-64588875D01*
X276814993Y-64593465D01*
X276783750Y-64595000D01*
X276146250Y-64595000D01*
X276115007Y-64593465D01*
X276084065Y-64588875D01*
X276053722Y-64581275D01*
X276024270Y-64570737D01*
X275995992Y-64557362D01*
X275969162Y-64541281D01*
X275944037Y-64522647D01*
X275920860Y-64501640D01*
X275899853Y-64478463D01*
X275881219Y-64453338D01*
X275865138Y-64426508D01*
X275851763Y-64398230D01*
X275841225Y-64368778D01*
X275833625Y-64338435D01*
X275829035Y-64307493D01*
X275827500Y-64276250D01*
X275827500Y-63563750D01*
X275829035Y-63532507D01*
X275833625Y-63501565D01*
X275841225Y-63471222D01*
X275851763Y-63441770D01*
X275865138Y-63413492D01*
X275881219Y-63386662D01*
X275899853Y-63361537D01*
X275920860Y-63338360D01*
X275944037Y-63317353D01*
X275969162Y-63298719D01*
X275995992Y-63282638D01*
X276024270Y-63269263D01*
X276053722Y-63258725D01*
X276084065Y-63251125D01*
X276115007Y-63246535D01*
X276146250Y-63245000D01*
X276783750Y-63245000D01*
X276814993Y-63246535D01*
G37*
G36*
X275239993Y-63246535D02*
G01*
X275270935Y-63251125D01*
X275301278Y-63258725D01*
X275330730Y-63269263D01*
X275359008Y-63282638D01*
X275385838Y-63298719D01*
X275410963Y-63317353D01*
X275434140Y-63338360D01*
X275455147Y-63361537D01*
X275473781Y-63386662D01*
X275489862Y-63413492D01*
X275503237Y-63441770D01*
X275513775Y-63471222D01*
X275521375Y-63501565D01*
X275525965Y-63532507D01*
X275527500Y-63563750D01*
X275527500Y-64276250D01*
X275525965Y-64307493D01*
X275521375Y-64338435D01*
X275513775Y-64368778D01*
X275503237Y-64398230D01*
X275489862Y-64426508D01*
X275473781Y-64453338D01*
X275455147Y-64478463D01*
X275434140Y-64501640D01*
X275410963Y-64522647D01*
X275385838Y-64541281D01*
X275359008Y-64557362D01*
X275330730Y-64570737D01*
X275301278Y-64581275D01*
X275270935Y-64588875D01*
X275239993Y-64593465D01*
X275208750Y-64595000D01*
X274571250Y-64595000D01*
X274540007Y-64593465D01*
X274509065Y-64588875D01*
X274478722Y-64581275D01*
X274449270Y-64570737D01*
X274420992Y-64557362D01*
X274394162Y-64541281D01*
X274369037Y-64522647D01*
X274345860Y-64501640D01*
X274324853Y-64478463D01*
X274306219Y-64453338D01*
X274290138Y-64426508D01*
X274276763Y-64398230D01*
X274266225Y-64368778D01*
X274258625Y-64338435D01*
X274254035Y-64307493D01*
X274252500Y-64276250D01*
X274252500Y-63563750D01*
X274254035Y-63532507D01*
X274258625Y-63501565D01*
X274266225Y-63471222D01*
X274276763Y-63441770D01*
X274290138Y-63413492D01*
X274306219Y-63386662D01*
X274324853Y-63361537D01*
X274345860Y-63338360D01*
X274369037Y-63317353D01*
X274394162Y-63298719D01*
X274420992Y-63282638D01*
X274449270Y-63269263D01*
X274478722Y-63258725D01*
X274509065Y-63251125D01*
X274540007Y-63246535D01*
X274571250Y-63245000D01*
X275208750Y-63245000D01*
X275239993Y-63246535D01*
G37*
G36*
X270129992Y-60576535D02*
G01*
X270160934Y-60581125D01*
X270191277Y-60588725D01*
X270220729Y-60599263D01*
X270249007Y-60612638D01*
X270275837Y-60628719D01*
X270300962Y-60647353D01*
X270324139Y-60668360D01*
X270345146Y-60691537D01*
X270363780Y-60716662D01*
X270379861Y-60743492D01*
X270393236Y-60771770D01*
X270403774Y-60801222D01*
X270411374Y-60831565D01*
X270415964Y-60862507D01*
X270417499Y-60893750D01*
X270417499Y-61606250D01*
X270415964Y-61637493D01*
X270411374Y-61668435D01*
X270403774Y-61698778D01*
X270393236Y-61728230D01*
X270379861Y-61756508D01*
X270363780Y-61783338D01*
X270345146Y-61808463D01*
X270324139Y-61831640D01*
X270300962Y-61852647D01*
X270275837Y-61871281D01*
X270249007Y-61887362D01*
X270220729Y-61900737D01*
X270191277Y-61911275D01*
X270160934Y-61918875D01*
X270129992Y-61923465D01*
X270098749Y-61925000D01*
X269461249Y-61925000D01*
X269430006Y-61923465D01*
X269399064Y-61918875D01*
X269368721Y-61911275D01*
X269339269Y-61900737D01*
X269310991Y-61887362D01*
X269284161Y-61871281D01*
X269259036Y-61852647D01*
X269235859Y-61831640D01*
X269214852Y-61808463D01*
X269196218Y-61783338D01*
X269180137Y-61756508D01*
X269166762Y-61728230D01*
X269156224Y-61698778D01*
X269148624Y-61668435D01*
X269144034Y-61637493D01*
X269142499Y-61606250D01*
X269142499Y-60893750D01*
X269144034Y-60862507D01*
X269148624Y-60831565D01*
X269156224Y-60801222D01*
X269166762Y-60771770D01*
X269180137Y-60743492D01*
X269196218Y-60716662D01*
X269214852Y-60691537D01*
X269235859Y-60668360D01*
X269259036Y-60647353D01*
X269284161Y-60628719D01*
X269310991Y-60612638D01*
X269339269Y-60599263D01*
X269368721Y-60588725D01*
X269399064Y-60581125D01*
X269430006Y-60576535D01*
X269461249Y-60575000D01*
X270098749Y-60575000D01*
X270129992Y-60576535D01*
G37*
G36*
X268554992Y-60576535D02*
G01*
X268585934Y-60581125D01*
X268616277Y-60588725D01*
X268645729Y-60599263D01*
X268674007Y-60612638D01*
X268700837Y-60628719D01*
X268725962Y-60647353D01*
X268749139Y-60668360D01*
X268770146Y-60691537D01*
X268788780Y-60716662D01*
X268804861Y-60743492D01*
X268818236Y-60771770D01*
X268828774Y-60801222D01*
X268836374Y-60831565D01*
X268840964Y-60862507D01*
X268842499Y-60893750D01*
X268842499Y-61606250D01*
X268840964Y-61637493D01*
X268836374Y-61668435D01*
X268828774Y-61698778D01*
X268818236Y-61728230D01*
X268804861Y-61756508D01*
X268788780Y-61783338D01*
X268770146Y-61808463D01*
X268749139Y-61831640D01*
X268725962Y-61852647D01*
X268700837Y-61871281D01*
X268674007Y-61887362D01*
X268645729Y-61900737D01*
X268616277Y-61911275D01*
X268585934Y-61918875D01*
X268554992Y-61923465D01*
X268523749Y-61925000D01*
X267886249Y-61925000D01*
X267855006Y-61923465D01*
X267824064Y-61918875D01*
X267793721Y-61911275D01*
X267764269Y-61900737D01*
X267735991Y-61887362D01*
X267709161Y-61871281D01*
X267684036Y-61852647D01*
X267660859Y-61831640D01*
X267639852Y-61808463D01*
X267621218Y-61783338D01*
X267605137Y-61756508D01*
X267591762Y-61728230D01*
X267581224Y-61698778D01*
X267573624Y-61668435D01*
X267569034Y-61637493D01*
X267567499Y-61606250D01*
X267567499Y-60893750D01*
X267569034Y-60862507D01*
X267573624Y-60831565D01*
X267581224Y-60801222D01*
X267591762Y-60771770D01*
X267605137Y-60743492D01*
X267621218Y-60716662D01*
X267639852Y-60691537D01*
X267660859Y-60668360D01*
X267684036Y-60647353D01*
X267709161Y-60628719D01*
X267735991Y-60612638D01*
X267764269Y-60599263D01*
X267793721Y-60588725D01*
X267824064Y-60581125D01*
X267855006Y-60576535D01*
X267886249Y-60575000D01*
X268523749Y-60575000D01*
X268554992Y-60576535D01*
G37*
G36*
X266337493Y-57779035D02*
G01*
X266368435Y-57783625D01*
X266398778Y-57791225D01*
X266428230Y-57801763D01*
X266456508Y-57815138D01*
X266483338Y-57831219D01*
X266508463Y-57849853D01*
X266531640Y-57870860D01*
X266552647Y-57894037D01*
X266571281Y-57919162D01*
X266587362Y-57945992D01*
X266600737Y-57974270D01*
X266611275Y-58003722D01*
X266618875Y-58034065D01*
X266623465Y-58065007D01*
X266625000Y-58096250D01*
X266625000Y-58733750D01*
X266623465Y-58764993D01*
X266618875Y-58795935D01*
X266611275Y-58826278D01*
X266600737Y-58855730D01*
X266587362Y-58884008D01*
X266571281Y-58910838D01*
X266552647Y-58935963D01*
X266531640Y-58959140D01*
X266508463Y-58980147D01*
X266483338Y-58998781D01*
X266456508Y-59014862D01*
X266428230Y-59028237D01*
X266398778Y-59038775D01*
X266368435Y-59046375D01*
X266337493Y-59050965D01*
X266306250Y-59052500D01*
X265593750Y-59052500D01*
X265562507Y-59050965D01*
X265531565Y-59046375D01*
X265501222Y-59038775D01*
X265471770Y-59028237D01*
X265443492Y-59014862D01*
X265416662Y-58998781D01*
X265391537Y-58980147D01*
X265368360Y-58959140D01*
X265347353Y-58935963D01*
X265328719Y-58910838D01*
X265312638Y-58884008D01*
X265299263Y-58855730D01*
X265288725Y-58826278D01*
X265281125Y-58795935D01*
X265276535Y-58764993D01*
X265275000Y-58733750D01*
X265275000Y-58096250D01*
X265276535Y-58065007D01*
X265281125Y-58034065D01*
X265288725Y-58003722D01*
X265299263Y-57974270D01*
X265312638Y-57945992D01*
X265328719Y-57919162D01*
X265347353Y-57894037D01*
X265368360Y-57870860D01*
X265391537Y-57849853D01*
X265416662Y-57831219D01*
X265443492Y-57815138D01*
X265471770Y-57801763D01*
X265501222Y-57791225D01*
X265531565Y-57783625D01*
X265562507Y-57779035D01*
X265593750Y-57777500D01*
X266306250Y-57777500D01*
X266337493Y-57779035D01*
G37*
G36*
X266337493Y-59354035D02*
G01*
X266368435Y-59358625D01*
X266398778Y-59366225D01*
X266428230Y-59376763D01*
X266456508Y-59390138D01*
X266483338Y-59406219D01*
X266508463Y-59424853D01*
X266531640Y-59445860D01*
X266552647Y-59469037D01*
X266571281Y-59494162D01*
X266587362Y-59520992D01*
X266600737Y-59549270D01*
X266611275Y-59578722D01*
X266618875Y-59609065D01*
X266623465Y-59640007D01*
X266625000Y-59671250D01*
X266625000Y-60308750D01*
X266623465Y-60339993D01*
X266618875Y-60370935D01*
X266611275Y-60401278D01*
X266600737Y-60430730D01*
X266587362Y-60459008D01*
X266571281Y-60485838D01*
X266552647Y-60510963D01*
X266531640Y-60534140D01*
X266508463Y-60555147D01*
X266483338Y-60573781D01*
X266456508Y-60589862D01*
X266428230Y-60603237D01*
X266398778Y-60613775D01*
X266368435Y-60621375D01*
X266337493Y-60625965D01*
X266306250Y-60627500D01*
X265593750Y-60627500D01*
X265562507Y-60625965D01*
X265531565Y-60621375D01*
X265501222Y-60613775D01*
X265471770Y-60603237D01*
X265443492Y-60589862D01*
X265416662Y-60573781D01*
X265391537Y-60555147D01*
X265368360Y-60534140D01*
X265347353Y-60510963D01*
X265328719Y-60485838D01*
X265312638Y-60459008D01*
X265299263Y-60430730D01*
X265288725Y-60401278D01*
X265281125Y-60370935D01*
X265276535Y-60339993D01*
X265275000Y-60308750D01*
X265275000Y-59671250D01*
X265276535Y-59640007D01*
X265281125Y-59609065D01*
X265288725Y-59578722D01*
X265299263Y-59549270D01*
X265312638Y-59520992D01*
X265328719Y-59494162D01*
X265347353Y-59469037D01*
X265368360Y-59445860D01*
X265391537Y-59424853D01*
X265416662Y-59406219D01*
X265443492Y-59390138D01*
X265471770Y-59376763D01*
X265501222Y-59366225D01*
X265531565Y-59358625D01*
X265562507Y-59354035D01*
X265593750Y-59352500D01*
X266306250Y-59352500D01*
X266337493Y-59354035D01*
G37*
D19*
X243265000Y-38735000D03*
D20*
X245745000Y-41275000D03*
X255905000Y-41275000D03*
D12*
X250825000Y-41275000D03*
D21*
X247015000Y-38735000D03*
X253365000Y-36195000D03*
D19*
X257115000Y-36195000D03*
X228977500Y-57785000D03*
D20*
X231457500Y-60325000D03*
X241617500Y-60325000D03*
D12*
X236537500Y-60325000D03*
D21*
X232727500Y-57785000D03*
X239077500Y-55245000D03*
D19*
X242827500Y-55245000D03*
X282197500Y-43815000D03*
D20*
X279717500Y-41275000D03*
X269557500Y-41275000D03*
D12*
X274637500Y-41275000D03*
D21*
X278447500Y-43815000D03*
X272097500Y-46355000D03*
D19*
X268347500Y-46355000D03*
X36096250Y-57785000D03*
D20*
X38576250Y-60325000D03*
X48736250Y-60325000D03*
D12*
X43656250Y-60325000D03*
D21*
X39846250Y-57785000D03*
X46196250Y-55245000D03*
D19*
X49946250Y-55245000D03*
X57527500Y-57785000D03*
D20*
X60007500Y-60325000D03*
X70167500Y-60325000D03*
D12*
X65087500Y-60325000D03*
D21*
X61277500Y-57785000D03*
X67627500Y-55245000D03*
D19*
X71377500Y-55245000D03*
X52765000Y-38735000D03*
D20*
X55245000Y-41275000D03*
X65405000Y-41275000D03*
D12*
X60325000Y-41275000D03*
D21*
X56515000Y-38735000D03*
X62865000Y-36195000D03*
D19*
X66615000Y-36195000D03*
X33715000Y-38735000D03*
D20*
X36195000Y-41275000D03*
X46355000Y-41275000D03*
D12*
X41275000Y-41275000D03*
D21*
X37465000Y-38735000D03*
X43815000Y-36195000D03*
D19*
X47565000Y-36195000D03*
D13*
G36*
X260894994Y-40044036D02*
G01*
X260925936Y-40048626D01*
X260956279Y-40056226D01*
X260985731Y-40066764D01*
X261014009Y-40080139D01*
X261040839Y-40096220D01*
X261065964Y-40114854D01*
X261089141Y-40135861D01*
X261110148Y-40159038D01*
X261128782Y-40184163D01*
X261144863Y-40210993D01*
X261158238Y-40239271D01*
X261168776Y-40268723D01*
X261176376Y-40299066D01*
X261180966Y-40330008D01*
X261182501Y-40361251D01*
X261182501Y-40998751D01*
X261180966Y-41029994D01*
X261176376Y-41060936D01*
X261168776Y-41091279D01*
X261158238Y-41120731D01*
X261144863Y-41149009D01*
X261128782Y-41175839D01*
X261110148Y-41200964D01*
X261089141Y-41224141D01*
X261065964Y-41245148D01*
X261040839Y-41263782D01*
X261014009Y-41279863D01*
X260985731Y-41293238D01*
X260956279Y-41303776D01*
X260925936Y-41311376D01*
X260894994Y-41315966D01*
X260863751Y-41317501D01*
X260151251Y-41317501D01*
X260120008Y-41315966D01*
X260089066Y-41311376D01*
X260058723Y-41303776D01*
X260029271Y-41293238D01*
X260000993Y-41279863D01*
X259974163Y-41263782D01*
X259949038Y-41245148D01*
X259925861Y-41224141D01*
X259904854Y-41200964D01*
X259886220Y-41175839D01*
X259870139Y-41149009D01*
X259856764Y-41120731D01*
X259846226Y-41091279D01*
X259838626Y-41060936D01*
X259834036Y-41029994D01*
X259832501Y-40998751D01*
X259832501Y-40361251D01*
X259834036Y-40330008D01*
X259838626Y-40299066D01*
X259846226Y-40268723D01*
X259856764Y-40239271D01*
X259870139Y-40210993D01*
X259886220Y-40184163D01*
X259904854Y-40159038D01*
X259925861Y-40135861D01*
X259949038Y-40114854D01*
X259974163Y-40096220D01*
X260000993Y-40080139D01*
X260029271Y-40066764D01*
X260058723Y-40056226D01*
X260089066Y-40048626D01*
X260120008Y-40044036D01*
X260151251Y-40042501D01*
X260863751Y-40042501D01*
X260894994Y-40044036D01*
G37*
G36*
X260894994Y-41619036D02*
G01*
X260925936Y-41623626D01*
X260956279Y-41631226D01*
X260985731Y-41641764D01*
X261014009Y-41655139D01*
X261040839Y-41671220D01*
X261065964Y-41689854D01*
X261089141Y-41710861D01*
X261110148Y-41734038D01*
X261128782Y-41759163D01*
X261144863Y-41785993D01*
X261158238Y-41814271D01*
X261168776Y-41843723D01*
X261176376Y-41874066D01*
X261180966Y-41905008D01*
X261182501Y-41936251D01*
X261182501Y-42573751D01*
X261180966Y-42604994D01*
X261176376Y-42635936D01*
X261168776Y-42666279D01*
X261158238Y-42695731D01*
X261144863Y-42724009D01*
X261128782Y-42750839D01*
X261110148Y-42775964D01*
X261089141Y-42799141D01*
X261065964Y-42820148D01*
X261040839Y-42838782D01*
X261014009Y-42854863D01*
X260985731Y-42868238D01*
X260956279Y-42878776D01*
X260925936Y-42886376D01*
X260894994Y-42890966D01*
X260863751Y-42892501D01*
X260151251Y-42892501D01*
X260120008Y-42890966D01*
X260089066Y-42886376D01*
X260058723Y-42878776D01*
X260029271Y-42868238D01*
X260000993Y-42854863D01*
X259974163Y-42838782D01*
X259949038Y-42820148D01*
X259925861Y-42799141D01*
X259904854Y-42775964D01*
X259886220Y-42750839D01*
X259870139Y-42724009D01*
X259856764Y-42695731D01*
X259846226Y-42666279D01*
X259838626Y-42635936D01*
X259834036Y-42604994D01*
X259832501Y-42573751D01*
X259832501Y-41936251D01*
X259834036Y-41905008D01*
X259838626Y-41874066D01*
X259846226Y-41843723D01*
X259856764Y-41814271D01*
X259870139Y-41785993D01*
X259886220Y-41759163D01*
X259904854Y-41734038D01*
X259925861Y-41710861D01*
X259949038Y-41689854D01*
X259974163Y-41671220D01*
X260000993Y-41655139D01*
X260029271Y-41641764D01*
X260058723Y-41631226D01*
X260089066Y-41623626D01*
X260120008Y-41619036D01*
X260151251Y-41617501D01*
X260863751Y-41617501D01*
X260894994Y-41619036D01*
G37*
D22*
X285200000Y-101375000D03*
X285200000Y-104675000D03*
X285200000Y-81575000D03*
X285200000Y-84875000D03*
X284730000Y-61400000D03*
X284730000Y-64700000D03*
X268300000Y-96775000D03*
X268300000Y-100075000D03*
X249237500Y-96775000D03*
X249237500Y-100075000D03*
X230187500Y-96775000D03*
X230187500Y-100075000D03*
X211137500Y-96775000D03*
X211137500Y-100075000D03*
X189706250Y-96775000D03*
X189706250Y-100075000D03*
X158750000Y-96775000D03*
X158750000Y-100075000D03*
X127793750Y-96775000D03*
X127793750Y-100075000D03*
X106362500Y-96775000D03*
X106362500Y-100075000D03*
X87312500Y-96775000D03*
X87312500Y-100075000D03*
X68262500Y-96775000D03*
X68262500Y-100075000D03*
X49212500Y-96775000D03*
X49212500Y-100075000D03*
X265906250Y-81693750D03*
X265906250Y-84993750D03*
X249237500Y-77725000D03*
X249237500Y-81025000D03*
X230187500Y-77725000D03*
X230187500Y-81025000D03*
X211137500Y-77725000D03*
X211137500Y-81025000D03*
X192087500Y-77725000D03*
X192087500Y-81025000D03*
X173037500Y-77725000D03*
X173037500Y-81025000D03*
X153987500Y-77725000D03*
X153987500Y-81025000D03*
X134937500Y-77725000D03*
X134937500Y-81025000D03*
X115887500Y-77725000D03*
X115887500Y-81025000D03*
X96837500Y-77725000D03*
X96837500Y-81025000D03*
X77787500Y-77725000D03*
X77787500Y-81025000D03*
X53975000Y-77725000D03*
X53975000Y-81025000D03*
X247950000Y-61290000D03*
X247950000Y-64590000D03*
X244470000Y-58940000D03*
X244470000Y-62240000D03*
X225425000Y-58675000D03*
X225425000Y-61975000D03*
X206375000Y-58675000D03*
X206375000Y-61975000D03*
X187325000Y-58675000D03*
X187325000Y-61975000D03*
X168275000Y-58675000D03*
X168275000Y-61975000D03*
X149225000Y-58675000D03*
X149225000Y-61975000D03*
X130175000Y-58675000D03*
X130175000Y-61975000D03*
X111125000Y-58675000D03*
X111125000Y-61975000D03*
X92075000Y-58675000D03*
X92075000Y-61975000D03*
X73025000Y-58675000D03*
X73025000Y-61975000D03*
X51593750Y-58675000D03*
X51593750Y-61975000D03*
X242920000Y-42270000D03*
X242920000Y-45570000D03*
X223837500Y-42006250D03*
X223837500Y-45306250D03*
X220662500Y-39625000D03*
X220662500Y-42925000D03*
X201612500Y-39625000D03*
X201612500Y-42925000D03*
X182562500Y-39625000D03*
X182562500Y-42925000D03*
X163512500Y-39625000D03*
X163512500Y-42925000D03*
X144462500Y-39625000D03*
X144462500Y-42925000D03*
X125412500Y-39625000D03*
X125412500Y-42925000D03*
X106362500Y-39625000D03*
X106362500Y-42925000D03*
X87312500Y-39625000D03*
X87312500Y-42925000D03*
X68262500Y-39625000D03*
X68262500Y-42925000D03*
X49212500Y-39625000D03*
X49212500Y-42925000D03*
D13*
G36*
X271087493Y-82650285D02*
G01*
X271118435Y-82654875D01*
X271148778Y-82662475D01*
X271178230Y-82673013D01*
X271206508Y-82686388D01*
X271233338Y-82702469D01*
X271258463Y-82721103D01*
X271281640Y-82742110D01*
X271302647Y-82765287D01*
X271321281Y-82790412D01*
X271337362Y-82817242D01*
X271350737Y-82845520D01*
X271361275Y-82874972D01*
X271368875Y-82905315D01*
X271373465Y-82936257D01*
X271375000Y-82967500D01*
X271375000Y-83680000D01*
X271373465Y-83711243D01*
X271368875Y-83742185D01*
X271361275Y-83772528D01*
X271350737Y-83801980D01*
X271337362Y-83830258D01*
X271321281Y-83857088D01*
X271302647Y-83882213D01*
X271281640Y-83905390D01*
X271258463Y-83926397D01*
X271233338Y-83945031D01*
X271206508Y-83961112D01*
X271178230Y-83974487D01*
X271148778Y-83985025D01*
X271118435Y-83992625D01*
X271087493Y-83997215D01*
X271056250Y-83998750D01*
X270418750Y-83998750D01*
X270387507Y-83997215D01*
X270356565Y-83992625D01*
X270326222Y-83985025D01*
X270296770Y-83974487D01*
X270268492Y-83961112D01*
X270241662Y-83945031D01*
X270216537Y-83926397D01*
X270193360Y-83905390D01*
X270172353Y-83882213D01*
X270153719Y-83857088D01*
X270137638Y-83830258D01*
X270124263Y-83801980D01*
X270113725Y-83772528D01*
X270106125Y-83742185D01*
X270101535Y-83711243D01*
X270100000Y-83680000D01*
X270100000Y-82967500D01*
X270101535Y-82936257D01*
X270106125Y-82905315D01*
X270113725Y-82874972D01*
X270124263Y-82845520D01*
X270137638Y-82817242D01*
X270153719Y-82790412D01*
X270172353Y-82765287D01*
X270193360Y-82742110D01*
X270216537Y-82721103D01*
X270241662Y-82702469D01*
X270268492Y-82686388D01*
X270296770Y-82673013D01*
X270326222Y-82662475D01*
X270356565Y-82654875D01*
X270387507Y-82650285D01*
X270418750Y-82648750D01*
X271056250Y-82648750D01*
X271087493Y-82650285D01*
G37*
G36*
X272662493Y-82650285D02*
G01*
X272693435Y-82654875D01*
X272723778Y-82662475D01*
X272753230Y-82673013D01*
X272781508Y-82686388D01*
X272808338Y-82702469D01*
X272833463Y-82721103D01*
X272856640Y-82742110D01*
X272877647Y-82765287D01*
X272896281Y-82790412D01*
X272912362Y-82817242D01*
X272925737Y-82845520D01*
X272936275Y-82874972D01*
X272943875Y-82905315D01*
X272948465Y-82936257D01*
X272950000Y-82967500D01*
X272950000Y-83680000D01*
X272948465Y-83711243D01*
X272943875Y-83742185D01*
X272936275Y-83772528D01*
X272925737Y-83801980D01*
X272912362Y-83830258D01*
X272896281Y-83857088D01*
X272877647Y-83882213D01*
X272856640Y-83905390D01*
X272833463Y-83926397D01*
X272808338Y-83945031D01*
X272781508Y-83961112D01*
X272753230Y-83974487D01*
X272723778Y-83985025D01*
X272693435Y-83992625D01*
X272662493Y-83997215D01*
X272631250Y-83998750D01*
X271993750Y-83998750D01*
X271962507Y-83997215D01*
X271931565Y-83992625D01*
X271901222Y-83985025D01*
X271871770Y-83974487D01*
X271843492Y-83961112D01*
X271816662Y-83945031D01*
X271791537Y-83926397D01*
X271768360Y-83905390D01*
X271747353Y-83882213D01*
X271728719Y-83857088D01*
X271712638Y-83830258D01*
X271699263Y-83801980D01*
X271688725Y-83772528D01*
X271681125Y-83742185D01*
X271676535Y-83711243D01*
X271675000Y-83680000D01*
X271675000Y-82967500D01*
X271676535Y-82936257D01*
X271681125Y-82905315D01*
X271688725Y-82874972D01*
X271699263Y-82845520D01*
X271712638Y-82817242D01*
X271728719Y-82790412D01*
X271747353Y-82765287D01*
X271768360Y-82742110D01*
X271791537Y-82721103D01*
X271816662Y-82702469D01*
X271843492Y-82686388D01*
X271871770Y-82673013D01*
X271901222Y-82662475D01*
X271931565Y-82654875D01*
X271962507Y-82650285D01*
X271993750Y-82648750D01*
X272631250Y-82648750D01*
X272662493Y-82650285D01*
G37*
G36*
X183712493Y-82670285D02*
G01*
X183743435Y-82674875D01*
X183773778Y-82682475D01*
X183803230Y-82693013D01*
X183831508Y-82706388D01*
X183858338Y-82722469D01*
X183883463Y-82741103D01*
X183906640Y-82762110D01*
X183927647Y-82785287D01*
X183946281Y-82810412D01*
X183962362Y-82837242D01*
X183975737Y-82865520D01*
X183986275Y-82894972D01*
X183993875Y-82925315D01*
X183998465Y-82956257D01*
X184000000Y-82987500D01*
X184000000Y-83700000D01*
X183998465Y-83731243D01*
X183993875Y-83762185D01*
X183986275Y-83792528D01*
X183975737Y-83821980D01*
X183962362Y-83850258D01*
X183946281Y-83877088D01*
X183927647Y-83902213D01*
X183906640Y-83925390D01*
X183883463Y-83946397D01*
X183858338Y-83965031D01*
X183831508Y-83981112D01*
X183803230Y-83994487D01*
X183773778Y-84005025D01*
X183743435Y-84012625D01*
X183712493Y-84017215D01*
X183681250Y-84018750D01*
X183043750Y-84018750D01*
X183012507Y-84017215D01*
X182981565Y-84012625D01*
X182951222Y-84005025D01*
X182921770Y-83994487D01*
X182893492Y-83981112D01*
X182866662Y-83965031D01*
X182841537Y-83946397D01*
X182818360Y-83925390D01*
X182797353Y-83902213D01*
X182778719Y-83877088D01*
X182762638Y-83850258D01*
X182749263Y-83821980D01*
X182738725Y-83792528D01*
X182731125Y-83762185D01*
X182726535Y-83731243D01*
X182725000Y-83700000D01*
X182725000Y-82987500D01*
X182726535Y-82956257D01*
X182731125Y-82925315D01*
X182738725Y-82894972D01*
X182749263Y-82865520D01*
X182762638Y-82837242D01*
X182778719Y-82810412D01*
X182797353Y-82785287D01*
X182818360Y-82762110D01*
X182841537Y-82741103D01*
X182866662Y-82722469D01*
X182893492Y-82706388D01*
X182921770Y-82693013D01*
X182951222Y-82682475D01*
X182981565Y-82674875D01*
X183012507Y-82670285D01*
X183043750Y-82668750D01*
X183681250Y-82668750D01*
X183712493Y-82670285D01*
G37*
G36*
X185287493Y-82670285D02*
G01*
X185318435Y-82674875D01*
X185348778Y-82682475D01*
X185378230Y-82693013D01*
X185406508Y-82706388D01*
X185433338Y-82722469D01*
X185458463Y-82741103D01*
X185481640Y-82762110D01*
X185502647Y-82785287D01*
X185521281Y-82810412D01*
X185537362Y-82837242D01*
X185550737Y-82865520D01*
X185561275Y-82894972D01*
X185568875Y-82925315D01*
X185573465Y-82956257D01*
X185575000Y-82987500D01*
X185575000Y-83700000D01*
X185573465Y-83731243D01*
X185568875Y-83762185D01*
X185561275Y-83792528D01*
X185550737Y-83821980D01*
X185537362Y-83850258D01*
X185521281Y-83877088D01*
X185502647Y-83902213D01*
X185481640Y-83925390D01*
X185458463Y-83946397D01*
X185433338Y-83965031D01*
X185406508Y-83981112D01*
X185378230Y-83994487D01*
X185348778Y-84005025D01*
X185318435Y-84012625D01*
X185287493Y-84017215D01*
X185256250Y-84018750D01*
X184618750Y-84018750D01*
X184587507Y-84017215D01*
X184556565Y-84012625D01*
X184526222Y-84005025D01*
X184496770Y-83994487D01*
X184468492Y-83981112D01*
X184441662Y-83965031D01*
X184416537Y-83946397D01*
X184393360Y-83925390D01*
X184372353Y-83902213D01*
X184353719Y-83877088D01*
X184337638Y-83850258D01*
X184324263Y-83821980D01*
X184313725Y-83792528D01*
X184306125Y-83762185D01*
X184301535Y-83731243D01*
X184300000Y-83700000D01*
X184300000Y-82987500D01*
X184301535Y-82956257D01*
X184306125Y-82925315D01*
X184313725Y-82894972D01*
X184324263Y-82865520D01*
X184337638Y-82837242D01*
X184353719Y-82810412D01*
X184372353Y-82785287D01*
X184393360Y-82762110D01*
X184416537Y-82741103D01*
X184441662Y-82722469D01*
X184468492Y-82706388D01*
X184496770Y-82693013D01*
X184526222Y-82682475D01*
X184556565Y-82674875D01*
X184587507Y-82670285D01*
X184618750Y-82668750D01*
X185256250Y-82668750D01*
X185287493Y-82670285D01*
G37*
G36*
X117037493Y-82670285D02*
G01*
X117068435Y-82674875D01*
X117098778Y-82682475D01*
X117128230Y-82693013D01*
X117156508Y-82706388D01*
X117183338Y-82722469D01*
X117208463Y-82741103D01*
X117231640Y-82762110D01*
X117252647Y-82785287D01*
X117271281Y-82810412D01*
X117287362Y-82837242D01*
X117300737Y-82865520D01*
X117311275Y-82894972D01*
X117318875Y-82925315D01*
X117323465Y-82956257D01*
X117325000Y-82987500D01*
X117325000Y-83700000D01*
X117323465Y-83731243D01*
X117318875Y-83762185D01*
X117311275Y-83792528D01*
X117300737Y-83821980D01*
X117287362Y-83850258D01*
X117271281Y-83877088D01*
X117252647Y-83902213D01*
X117231640Y-83925390D01*
X117208463Y-83946397D01*
X117183338Y-83965031D01*
X117156508Y-83981112D01*
X117128230Y-83994487D01*
X117098778Y-84005025D01*
X117068435Y-84012625D01*
X117037493Y-84017215D01*
X117006250Y-84018750D01*
X116368750Y-84018750D01*
X116337507Y-84017215D01*
X116306565Y-84012625D01*
X116276222Y-84005025D01*
X116246770Y-83994487D01*
X116218492Y-83981112D01*
X116191662Y-83965031D01*
X116166537Y-83946397D01*
X116143360Y-83925390D01*
X116122353Y-83902213D01*
X116103719Y-83877088D01*
X116087638Y-83850258D01*
X116074263Y-83821980D01*
X116063725Y-83792528D01*
X116056125Y-83762185D01*
X116051535Y-83731243D01*
X116050000Y-83700000D01*
X116050000Y-82987500D01*
X116051535Y-82956257D01*
X116056125Y-82925315D01*
X116063725Y-82894972D01*
X116074263Y-82865520D01*
X116087638Y-82837242D01*
X116103719Y-82810412D01*
X116122353Y-82785287D01*
X116143360Y-82762110D01*
X116166537Y-82741103D01*
X116191662Y-82722469D01*
X116218492Y-82706388D01*
X116246770Y-82693013D01*
X116276222Y-82682475D01*
X116306565Y-82674875D01*
X116337507Y-82670285D01*
X116368750Y-82668750D01*
X117006250Y-82668750D01*
X117037493Y-82670285D01*
G37*
G36*
X118612493Y-82670285D02*
G01*
X118643435Y-82674875D01*
X118673778Y-82682475D01*
X118703230Y-82693013D01*
X118731508Y-82706388D01*
X118758338Y-82722469D01*
X118783463Y-82741103D01*
X118806640Y-82762110D01*
X118827647Y-82785287D01*
X118846281Y-82810412D01*
X118862362Y-82837242D01*
X118875737Y-82865520D01*
X118886275Y-82894972D01*
X118893875Y-82925315D01*
X118898465Y-82956257D01*
X118900000Y-82987500D01*
X118900000Y-83700000D01*
X118898465Y-83731243D01*
X118893875Y-83762185D01*
X118886275Y-83792528D01*
X118875737Y-83821980D01*
X118862362Y-83850258D01*
X118846281Y-83877088D01*
X118827647Y-83902213D01*
X118806640Y-83925390D01*
X118783463Y-83946397D01*
X118758338Y-83965031D01*
X118731508Y-83981112D01*
X118703230Y-83994487D01*
X118673778Y-84005025D01*
X118643435Y-84012625D01*
X118612493Y-84017215D01*
X118581250Y-84018750D01*
X117943750Y-84018750D01*
X117912507Y-84017215D01*
X117881565Y-84012625D01*
X117851222Y-84005025D01*
X117821770Y-83994487D01*
X117793492Y-83981112D01*
X117766662Y-83965031D01*
X117741537Y-83946397D01*
X117718360Y-83925390D01*
X117697353Y-83902213D01*
X117678719Y-83877088D01*
X117662638Y-83850258D01*
X117649263Y-83821980D01*
X117638725Y-83792528D01*
X117631125Y-83762185D01*
X117626535Y-83731243D01*
X117625000Y-83700000D01*
X117625000Y-82987500D01*
X117626535Y-82956257D01*
X117631125Y-82925315D01*
X117638725Y-82894972D01*
X117649263Y-82865520D01*
X117662638Y-82837242D01*
X117678719Y-82810412D01*
X117697353Y-82785287D01*
X117718360Y-82762110D01*
X117741537Y-82741103D01*
X117766662Y-82722469D01*
X117793492Y-82706388D01*
X117821770Y-82693013D01*
X117851222Y-82682475D01*
X117881565Y-82674875D01*
X117912507Y-82670285D01*
X117943750Y-82668750D01*
X118581250Y-82668750D01*
X118612493Y-82670285D01*
G37*
G36*
X50362493Y-82670285D02*
G01*
X50393435Y-82674875D01*
X50423778Y-82682475D01*
X50453230Y-82693013D01*
X50481508Y-82706388D01*
X50508338Y-82722469D01*
X50533463Y-82741103D01*
X50556640Y-82762110D01*
X50577647Y-82785287D01*
X50596281Y-82810412D01*
X50612362Y-82837242D01*
X50625737Y-82865520D01*
X50636275Y-82894972D01*
X50643875Y-82925315D01*
X50648465Y-82956257D01*
X50650000Y-82987500D01*
X50650000Y-83700000D01*
X50648465Y-83731243D01*
X50643875Y-83762185D01*
X50636275Y-83792528D01*
X50625737Y-83821980D01*
X50612362Y-83850258D01*
X50596281Y-83877088D01*
X50577647Y-83902213D01*
X50556640Y-83925390D01*
X50533463Y-83946397D01*
X50508338Y-83965031D01*
X50481508Y-83981112D01*
X50453230Y-83994487D01*
X50423778Y-84005025D01*
X50393435Y-84012625D01*
X50362493Y-84017215D01*
X50331250Y-84018750D01*
X49693750Y-84018750D01*
X49662507Y-84017215D01*
X49631565Y-84012625D01*
X49601222Y-84005025D01*
X49571770Y-83994487D01*
X49543492Y-83981112D01*
X49516662Y-83965031D01*
X49491537Y-83946397D01*
X49468360Y-83925390D01*
X49447353Y-83902213D01*
X49428719Y-83877088D01*
X49412638Y-83850258D01*
X49399263Y-83821980D01*
X49388725Y-83792528D01*
X49381125Y-83762185D01*
X49376535Y-83731243D01*
X49375000Y-83700000D01*
X49375000Y-82987500D01*
X49376535Y-82956257D01*
X49381125Y-82925315D01*
X49388725Y-82894972D01*
X49399263Y-82865520D01*
X49412638Y-82837242D01*
X49428719Y-82810412D01*
X49447353Y-82785287D01*
X49468360Y-82762110D01*
X49491537Y-82741103D01*
X49516662Y-82722469D01*
X49543492Y-82706388D01*
X49571770Y-82693013D01*
X49601222Y-82682475D01*
X49631565Y-82674875D01*
X49662507Y-82670285D01*
X49693750Y-82668750D01*
X50331250Y-82668750D01*
X50362493Y-82670285D01*
G37*
G36*
X51937493Y-82670285D02*
G01*
X51968435Y-82674875D01*
X51998778Y-82682475D01*
X52028230Y-82693013D01*
X52056508Y-82706388D01*
X52083338Y-82722469D01*
X52108463Y-82741103D01*
X52131640Y-82762110D01*
X52152647Y-82785287D01*
X52171281Y-82810412D01*
X52187362Y-82837242D01*
X52200737Y-82865520D01*
X52211275Y-82894972D01*
X52218875Y-82925315D01*
X52223465Y-82956257D01*
X52225000Y-82987500D01*
X52225000Y-83700000D01*
X52223465Y-83731243D01*
X52218875Y-83762185D01*
X52211275Y-83792528D01*
X52200737Y-83821980D01*
X52187362Y-83850258D01*
X52171281Y-83877088D01*
X52152647Y-83902213D01*
X52131640Y-83925390D01*
X52108463Y-83946397D01*
X52083338Y-83965031D01*
X52056508Y-83981112D01*
X52028230Y-83994487D01*
X51998778Y-84005025D01*
X51968435Y-84012625D01*
X51937493Y-84017215D01*
X51906250Y-84018750D01*
X51268750Y-84018750D01*
X51237507Y-84017215D01*
X51206565Y-84012625D01*
X51176222Y-84005025D01*
X51146770Y-83994487D01*
X51118492Y-83981112D01*
X51091662Y-83965031D01*
X51066537Y-83946397D01*
X51043360Y-83925390D01*
X51022353Y-83902213D01*
X51003719Y-83877088D01*
X50987638Y-83850258D01*
X50974263Y-83821980D01*
X50963725Y-83792528D01*
X50956125Y-83762185D01*
X50951535Y-83731243D01*
X50950000Y-83700000D01*
X50950000Y-82987500D01*
X50951535Y-82956257D01*
X50956125Y-82925315D01*
X50963725Y-82894972D01*
X50974263Y-82865520D01*
X50987638Y-82837242D01*
X51003719Y-82810412D01*
X51022353Y-82785287D01*
X51043360Y-82762110D01*
X51066537Y-82741103D01*
X51091662Y-82722469D01*
X51118492Y-82706388D01*
X51146770Y-82693013D01*
X51176222Y-82682475D01*
X51206565Y-82674875D01*
X51237507Y-82670285D01*
X51268750Y-82668750D01*
X51906250Y-82668750D01*
X51937493Y-82670285D01*
G37*
G36*
X50362493Y-44570285D02*
G01*
X50393435Y-44574875D01*
X50423778Y-44582475D01*
X50453230Y-44593013D01*
X50481508Y-44606388D01*
X50508338Y-44622469D01*
X50533463Y-44641103D01*
X50556640Y-44662110D01*
X50577647Y-44685287D01*
X50596281Y-44710412D01*
X50612362Y-44737242D01*
X50625737Y-44765520D01*
X50636275Y-44794972D01*
X50643875Y-44825315D01*
X50648465Y-44856257D01*
X50650000Y-44887500D01*
X50650000Y-45600000D01*
X50648465Y-45631243D01*
X50643875Y-45662185D01*
X50636275Y-45692528D01*
X50625737Y-45721980D01*
X50612362Y-45750258D01*
X50596281Y-45777088D01*
X50577647Y-45802213D01*
X50556640Y-45825390D01*
X50533463Y-45846397D01*
X50508338Y-45865031D01*
X50481508Y-45881112D01*
X50453230Y-45894487D01*
X50423778Y-45905025D01*
X50393435Y-45912625D01*
X50362493Y-45917215D01*
X50331250Y-45918750D01*
X49693750Y-45918750D01*
X49662507Y-45917215D01*
X49631565Y-45912625D01*
X49601222Y-45905025D01*
X49571770Y-45894487D01*
X49543492Y-45881112D01*
X49516662Y-45865031D01*
X49491537Y-45846397D01*
X49468360Y-45825390D01*
X49447353Y-45802213D01*
X49428719Y-45777088D01*
X49412638Y-45750258D01*
X49399263Y-45721980D01*
X49388725Y-45692528D01*
X49381125Y-45662185D01*
X49376535Y-45631243D01*
X49375000Y-45600000D01*
X49375000Y-44887500D01*
X49376535Y-44856257D01*
X49381125Y-44825315D01*
X49388725Y-44794972D01*
X49399263Y-44765520D01*
X49412638Y-44737242D01*
X49428719Y-44710412D01*
X49447353Y-44685287D01*
X49468360Y-44662110D01*
X49491537Y-44641103D01*
X49516662Y-44622469D01*
X49543492Y-44606388D01*
X49571770Y-44593013D01*
X49601222Y-44582475D01*
X49631565Y-44574875D01*
X49662507Y-44570285D01*
X49693750Y-44568750D01*
X50331250Y-44568750D01*
X50362493Y-44570285D01*
G37*
G36*
X51937493Y-44570285D02*
G01*
X51968435Y-44574875D01*
X51998778Y-44582475D01*
X52028230Y-44593013D01*
X52056508Y-44606388D01*
X52083338Y-44622469D01*
X52108463Y-44641103D01*
X52131640Y-44662110D01*
X52152647Y-44685287D01*
X52171281Y-44710412D01*
X52187362Y-44737242D01*
X52200737Y-44765520D01*
X52211275Y-44794972D01*
X52218875Y-44825315D01*
X52223465Y-44856257D01*
X52225000Y-44887500D01*
X52225000Y-45600000D01*
X52223465Y-45631243D01*
X52218875Y-45662185D01*
X52211275Y-45692528D01*
X52200737Y-45721980D01*
X52187362Y-45750258D01*
X52171281Y-45777088D01*
X52152647Y-45802213D01*
X52131640Y-45825390D01*
X52108463Y-45846397D01*
X52083338Y-45865031D01*
X52056508Y-45881112D01*
X52028230Y-45894487D01*
X51998778Y-45905025D01*
X51968435Y-45912625D01*
X51937493Y-45917215D01*
X51906250Y-45918750D01*
X51268750Y-45918750D01*
X51237507Y-45917215D01*
X51206565Y-45912625D01*
X51176222Y-45905025D01*
X51146770Y-45894487D01*
X51118492Y-45881112D01*
X51091662Y-45865031D01*
X51066537Y-45846397D01*
X51043360Y-45825390D01*
X51022353Y-45802213D01*
X51003719Y-45777088D01*
X50987638Y-45750258D01*
X50974263Y-45721980D01*
X50963725Y-45692528D01*
X50956125Y-45662185D01*
X50951535Y-45631243D01*
X50950000Y-45600000D01*
X50950000Y-44887500D01*
X50951535Y-44856257D01*
X50956125Y-44825315D01*
X50963725Y-44794972D01*
X50974263Y-44765520D01*
X50987638Y-44737242D01*
X51003719Y-44710412D01*
X51022353Y-44685287D01*
X51043360Y-44662110D01*
X51066537Y-44641103D01*
X51091662Y-44622469D01*
X51118492Y-44606388D01*
X51146770Y-44593013D01*
X51176222Y-44582475D01*
X51206565Y-44574875D01*
X51237507Y-44570285D01*
X51268750Y-44568750D01*
X51906250Y-44568750D01*
X51937493Y-44570285D01*
G37*
G36*
X117037493Y-44570285D02*
G01*
X117068435Y-44574875D01*
X117098778Y-44582475D01*
X117128230Y-44593013D01*
X117156508Y-44606388D01*
X117183338Y-44622469D01*
X117208463Y-44641103D01*
X117231640Y-44662110D01*
X117252647Y-44685287D01*
X117271281Y-44710412D01*
X117287362Y-44737242D01*
X117300737Y-44765520D01*
X117311275Y-44794972D01*
X117318875Y-44825315D01*
X117323465Y-44856257D01*
X117325000Y-44887500D01*
X117325000Y-45600000D01*
X117323465Y-45631243D01*
X117318875Y-45662185D01*
X117311275Y-45692528D01*
X117300737Y-45721980D01*
X117287362Y-45750258D01*
X117271281Y-45777088D01*
X117252647Y-45802213D01*
X117231640Y-45825390D01*
X117208463Y-45846397D01*
X117183338Y-45865031D01*
X117156508Y-45881112D01*
X117128230Y-45894487D01*
X117098778Y-45905025D01*
X117068435Y-45912625D01*
X117037493Y-45917215D01*
X117006250Y-45918750D01*
X116368750Y-45918750D01*
X116337507Y-45917215D01*
X116306565Y-45912625D01*
X116276222Y-45905025D01*
X116246770Y-45894487D01*
X116218492Y-45881112D01*
X116191662Y-45865031D01*
X116166537Y-45846397D01*
X116143360Y-45825390D01*
X116122353Y-45802213D01*
X116103719Y-45777088D01*
X116087638Y-45750258D01*
X116074263Y-45721980D01*
X116063725Y-45692528D01*
X116056125Y-45662185D01*
X116051535Y-45631243D01*
X116050000Y-45600000D01*
X116050000Y-44887500D01*
X116051535Y-44856257D01*
X116056125Y-44825315D01*
X116063725Y-44794972D01*
X116074263Y-44765520D01*
X116087638Y-44737242D01*
X116103719Y-44710412D01*
X116122353Y-44685287D01*
X116143360Y-44662110D01*
X116166537Y-44641103D01*
X116191662Y-44622469D01*
X116218492Y-44606388D01*
X116246770Y-44593013D01*
X116276222Y-44582475D01*
X116306565Y-44574875D01*
X116337507Y-44570285D01*
X116368750Y-44568750D01*
X117006250Y-44568750D01*
X117037493Y-44570285D01*
G37*
G36*
X118612493Y-44570285D02*
G01*
X118643435Y-44574875D01*
X118673778Y-44582475D01*
X118703230Y-44593013D01*
X118731508Y-44606388D01*
X118758338Y-44622469D01*
X118783463Y-44641103D01*
X118806640Y-44662110D01*
X118827647Y-44685287D01*
X118846281Y-44710412D01*
X118862362Y-44737242D01*
X118875737Y-44765520D01*
X118886275Y-44794972D01*
X118893875Y-44825315D01*
X118898465Y-44856257D01*
X118900000Y-44887500D01*
X118900000Y-45600000D01*
X118898465Y-45631243D01*
X118893875Y-45662185D01*
X118886275Y-45692528D01*
X118875737Y-45721980D01*
X118862362Y-45750258D01*
X118846281Y-45777088D01*
X118827647Y-45802213D01*
X118806640Y-45825390D01*
X118783463Y-45846397D01*
X118758338Y-45865031D01*
X118731508Y-45881112D01*
X118703230Y-45894487D01*
X118673778Y-45905025D01*
X118643435Y-45912625D01*
X118612493Y-45917215D01*
X118581250Y-45918750D01*
X117943750Y-45918750D01*
X117912507Y-45917215D01*
X117881565Y-45912625D01*
X117851222Y-45905025D01*
X117821770Y-45894487D01*
X117793492Y-45881112D01*
X117766662Y-45865031D01*
X117741537Y-45846397D01*
X117718360Y-45825390D01*
X117697353Y-45802213D01*
X117678719Y-45777088D01*
X117662638Y-45750258D01*
X117649263Y-45721980D01*
X117638725Y-45692528D01*
X117631125Y-45662185D01*
X117626535Y-45631243D01*
X117625000Y-45600000D01*
X117625000Y-44887500D01*
X117626535Y-44856257D01*
X117631125Y-44825315D01*
X117638725Y-44794972D01*
X117649263Y-44765520D01*
X117662638Y-44737242D01*
X117678719Y-44710412D01*
X117697353Y-44685287D01*
X117718360Y-44662110D01*
X117741537Y-44641103D01*
X117766662Y-44622469D01*
X117793492Y-44606388D01*
X117821770Y-44593013D01*
X117851222Y-44582475D01*
X117881565Y-44574875D01*
X117912507Y-44570285D01*
X117943750Y-44568750D01*
X118581250Y-44568750D01*
X118612493Y-44570285D01*
G37*
G36*
X183712493Y-44570285D02*
G01*
X183743435Y-44574875D01*
X183773778Y-44582475D01*
X183803230Y-44593013D01*
X183831508Y-44606388D01*
X183858338Y-44622469D01*
X183883463Y-44641103D01*
X183906640Y-44662110D01*
X183927647Y-44685287D01*
X183946281Y-44710412D01*
X183962362Y-44737242D01*
X183975737Y-44765520D01*
X183986275Y-44794972D01*
X183993875Y-44825315D01*
X183998465Y-44856257D01*
X184000000Y-44887500D01*
X184000000Y-45600000D01*
X183998465Y-45631243D01*
X183993875Y-45662185D01*
X183986275Y-45692528D01*
X183975737Y-45721980D01*
X183962362Y-45750258D01*
X183946281Y-45777088D01*
X183927647Y-45802213D01*
X183906640Y-45825390D01*
X183883463Y-45846397D01*
X183858338Y-45865031D01*
X183831508Y-45881112D01*
X183803230Y-45894487D01*
X183773778Y-45905025D01*
X183743435Y-45912625D01*
X183712493Y-45917215D01*
X183681250Y-45918750D01*
X183043750Y-45918750D01*
X183012507Y-45917215D01*
X182981565Y-45912625D01*
X182951222Y-45905025D01*
X182921770Y-45894487D01*
X182893492Y-45881112D01*
X182866662Y-45865031D01*
X182841537Y-45846397D01*
X182818360Y-45825390D01*
X182797353Y-45802213D01*
X182778719Y-45777088D01*
X182762638Y-45750258D01*
X182749263Y-45721980D01*
X182738725Y-45692528D01*
X182731125Y-45662185D01*
X182726535Y-45631243D01*
X182725000Y-45600000D01*
X182725000Y-44887500D01*
X182726535Y-44856257D01*
X182731125Y-44825315D01*
X182738725Y-44794972D01*
X182749263Y-44765520D01*
X182762638Y-44737242D01*
X182778719Y-44710412D01*
X182797353Y-44685287D01*
X182818360Y-44662110D01*
X182841537Y-44641103D01*
X182866662Y-44622469D01*
X182893492Y-44606388D01*
X182921770Y-44593013D01*
X182951222Y-44582475D01*
X182981565Y-44574875D01*
X183012507Y-44570285D01*
X183043750Y-44568750D01*
X183681250Y-44568750D01*
X183712493Y-44570285D01*
G37*
G36*
X185287493Y-44570285D02*
G01*
X185318435Y-44574875D01*
X185348778Y-44582475D01*
X185378230Y-44593013D01*
X185406508Y-44606388D01*
X185433338Y-44622469D01*
X185458463Y-44641103D01*
X185481640Y-44662110D01*
X185502647Y-44685287D01*
X185521281Y-44710412D01*
X185537362Y-44737242D01*
X185550737Y-44765520D01*
X185561275Y-44794972D01*
X185568875Y-44825315D01*
X185573465Y-44856257D01*
X185575000Y-44887500D01*
X185575000Y-45600000D01*
X185573465Y-45631243D01*
X185568875Y-45662185D01*
X185561275Y-45692528D01*
X185550737Y-45721980D01*
X185537362Y-45750258D01*
X185521281Y-45777088D01*
X185502647Y-45802213D01*
X185481640Y-45825390D01*
X185458463Y-45846397D01*
X185433338Y-45865031D01*
X185406508Y-45881112D01*
X185378230Y-45894487D01*
X185348778Y-45905025D01*
X185318435Y-45912625D01*
X185287493Y-45917215D01*
X185256250Y-45918750D01*
X184618750Y-45918750D01*
X184587507Y-45917215D01*
X184556565Y-45912625D01*
X184526222Y-45905025D01*
X184496770Y-45894487D01*
X184468492Y-45881112D01*
X184441662Y-45865031D01*
X184416537Y-45846397D01*
X184393360Y-45825390D01*
X184372353Y-45802213D01*
X184353719Y-45777088D01*
X184337638Y-45750258D01*
X184324263Y-45721980D01*
X184313725Y-45692528D01*
X184306125Y-45662185D01*
X184301535Y-45631243D01*
X184300000Y-45600000D01*
X184300000Y-44887500D01*
X184301535Y-44856257D01*
X184306125Y-44825315D01*
X184313725Y-44794972D01*
X184324263Y-44765520D01*
X184337638Y-44737242D01*
X184353719Y-44710412D01*
X184372353Y-44685287D01*
X184393360Y-44662110D01*
X184416537Y-44641103D01*
X184441662Y-44622469D01*
X184468492Y-44606388D01*
X184496770Y-44593013D01*
X184526222Y-44582475D01*
X184556565Y-44574875D01*
X184587507Y-44570285D01*
X184618750Y-44568750D01*
X185256250Y-44568750D01*
X185287493Y-44570285D01*
G37*
D23*
X268313399Y-38095000D03*
X267513399Y-38095000D03*
X262613399Y-38095000D03*
X261813399Y-38095000D03*
X261813399Y-38095000D03*
X262613399Y-38095000D03*
X267513399Y-38095000D03*
X268313399Y-38095000D03*
D24*
X263313399Y-38095000D03*
X263813399Y-38095000D03*
X264313399Y-38095000D03*
X265313399Y-38095000D03*
X265813399Y-38095000D03*
X266313399Y-38095000D03*
X266813399Y-38095000D03*
X264813399Y-38095000D03*
D25*
X269383399Y-37180000D03*
X260743399Y-37180000D03*
D26*
X262173399Y-36650000D03*
D27*
X260743399Y-33000000D03*
D26*
X267953399Y-36650000D03*
D27*
X269383399Y-33000000D03*
D28*
X273975000Y-85692500D03*
X273975000Y-88892500D03*
X269075000Y-85692500D03*
X269075000Y-88892500D03*
X186600000Y-85712500D03*
X186600000Y-88912500D03*
X181700000Y-85712500D03*
X181700000Y-88912500D03*
X119925000Y-85712500D03*
X119925000Y-88912500D03*
X115025000Y-85712500D03*
X115025000Y-88912500D03*
X53250000Y-85712500D03*
X53250000Y-88912500D03*
X48350000Y-85712500D03*
X48350000Y-88912500D03*
X53250000Y-47612500D03*
X53250000Y-50812500D03*
X48350000Y-47612500D03*
X48350000Y-50812500D03*
X119925000Y-47612500D03*
X119925000Y-50812500D03*
X115025000Y-47612500D03*
X115025000Y-50812500D03*
X186600000Y-47612500D03*
X186600000Y-50812500D03*
X181700000Y-47612500D03*
X181700000Y-50812500D03*
X263653750Y-47612500D03*
X263653750Y-50812500D03*
X258753750Y-47612500D03*
X258753750Y-50812500D03*
D19*
X271840000Y-95885000D03*
D20*
X274320000Y-98425000D03*
X284480000Y-98425000D03*
D12*
X279400000Y-98425000D03*
D21*
X275590000Y-95885000D03*
X281940000Y-93345000D03*
D19*
X285690000Y-93345000D03*
X269458750Y-57785000D03*
D20*
X271938750Y-60325000D03*
X282098750Y-60325000D03*
D12*
X277018750Y-60325000D03*
D21*
X273208750Y-57785000D03*
X279558750Y-55245000D03*
D19*
X283308750Y-55245000D03*
X271840000Y-76835000D03*
D20*
X274320000Y-79375000D03*
X284480000Y-79375000D03*
D12*
X279400000Y-79375000D03*
D21*
X275590000Y-76835000D03*
X281940000Y-74295000D03*
D19*
X285690000Y-74295000D03*
X252790000Y-95885000D03*
D20*
X255270000Y-98425000D03*
X265430000Y-98425000D03*
D12*
X260350000Y-98425000D03*
D21*
X256540000Y-95885000D03*
X262890000Y-93345000D03*
D19*
X266640000Y-93345000D03*
X233740000Y-95885000D03*
D20*
X236220000Y-98425000D03*
X246380000Y-98425000D03*
D12*
X241300000Y-98425000D03*
D21*
X237490000Y-95885000D03*
X243840000Y-93345000D03*
D19*
X247590000Y-93345000D03*
X214690000Y-95885000D03*
D20*
X217170000Y-98425000D03*
X227330000Y-98425000D03*
D12*
X222250000Y-98425000D03*
D21*
X218440000Y-95885000D03*
X224790000Y-93345000D03*
D19*
X228540000Y-93345000D03*
X195640000Y-95885000D03*
D20*
X198120000Y-98425000D03*
X208280000Y-98425000D03*
D12*
X203200000Y-98425000D03*
D21*
X199390000Y-95885000D03*
X205740000Y-93345000D03*
D19*
X209490000Y-93345000D03*
X174208750Y-95885000D03*
D20*
X176688750Y-98425000D03*
X186848750Y-98425000D03*
D12*
X181768750Y-98425000D03*
D21*
X177958750Y-95885000D03*
X184308750Y-93345000D03*
D19*
X188058750Y-93345000D03*
X143252500Y-95885000D03*
D20*
X145732500Y-98425000D03*
X155892500Y-98425000D03*
D12*
X150812500Y-98425000D03*
D21*
X147002500Y-95885000D03*
X153352500Y-93345000D03*
D19*
X157102500Y-93345000D03*
X112296250Y-95885000D03*
D20*
X114776250Y-98425000D03*
X124936250Y-98425000D03*
D12*
X119856250Y-98425000D03*
D21*
X116046250Y-95885000D03*
X122396250Y-93345000D03*
D19*
X126146250Y-93345000D03*
X90865000Y-95885000D03*
D20*
X93345000Y-98425000D03*
X103505000Y-98425000D03*
D12*
X98425000Y-98425000D03*
D21*
X94615000Y-95885000D03*
X100965000Y-93345000D03*
D19*
X104715000Y-93345000D03*
X71815000Y-95885000D03*
D20*
X74295000Y-98425000D03*
X84455000Y-98425000D03*
D12*
X79375000Y-98425000D03*
D21*
X75565000Y-95885000D03*
X81915000Y-93345000D03*
D19*
X85665000Y-93345000D03*
X52765000Y-95885000D03*
D20*
X55245000Y-98425000D03*
X65405000Y-98425000D03*
D12*
X60325000Y-98425000D03*
D21*
X56515000Y-95885000D03*
X62865000Y-93345000D03*
D19*
X66615000Y-93345000D03*
X33715000Y-95885000D03*
D20*
X36195000Y-98425000D03*
X46355000Y-98425000D03*
D12*
X41275000Y-98425000D03*
D21*
X37465000Y-95885000D03*
X43815000Y-93345000D03*
D19*
X47565000Y-93345000D03*
X252790000Y-76835000D03*
D20*
X255270000Y-79375000D03*
X265430000Y-79375000D03*
D12*
X260350000Y-79375000D03*
D21*
X256540000Y-76835000D03*
X262890000Y-74295000D03*
D19*
X266640000Y-74295000D03*
X233740000Y-76835000D03*
D20*
X236220000Y-79375000D03*
X246380000Y-79375000D03*
D12*
X241300000Y-79375000D03*
D21*
X237490000Y-76835000D03*
X243840000Y-74295000D03*
D19*
X247590000Y-74295000D03*
X214690000Y-76835000D03*
D20*
X217170000Y-79375000D03*
X227330000Y-79375000D03*
D12*
X222250000Y-79375000D03*
D21*
X218440000Y-76835000D03*
X224790000Y-74295000D03*
D19*
X228540000Y-74295000D03*
X195640000Y-76835000D03*
D20*
X198120000Y-79375000D03*
X208280000Y-79375000D03*
D12*
X203200000Y-79375000D03*
D21*
X199390000Y-76835000D03*
X205740000Y-74295000D03*
D19*
X209490000Y-74295000D03*
X176590000Y-76835000D03*
D20*
X179070000Y-79375000D03*
X189230000Y-79375000D03*
D12*
X184150000Y-79375000D03*
D21*
X180340000Y-76835000D03*
X186690000Y-74295000D03*
D19*
X190440000Y-74295000D03*
X157540000Y-76835000D03*
D20*
X160020000Y-79375000D03*
X170180000Y-79375000D03*
D12*
X165100000Y-79375000D03*
D21*
X161290000Y-76835000D03*
X167640000Y-74295000D03*
D19*
X171390000Y-74295000D03*
X138490000Y-76835000D03*
D20*
X140970000Y-79375000D03*
X151130000Y-79375000D03*
D12*
X146050000Y-79375000D03*
D21*
X142240000Y-76835000D03*
X148590000Y-74295000D03*
D19*
X152340000Y-74295000D03*
X119440000Y-76835000D03*
D20*
X121920000Y-79375000D03*
X132080000Y-79375000D03*
D12*
X127000000Y-79375000D03*
D21*
X123190000Y-76835000D03*
X129540000Y-74295000D03*
D19*
X133290000Y-74295000D03*
X100390000Y-76835000D03*
D20*
X102870000Y-79375000D03*
X113030000Y-79375000D03*
D12*
X107950000Y-79375000D03*
D21*
X104140000Y-76835000D03*
X110490000Y-74295000D03*
D19*
X114240000Y-74295000D03*
X81340000Y-76835000D03*
D20*
X83820000Y-79375000D03*
X93980000Y-79375000D03*
D12*
X88900000Y-79375000D03*
D21*
X85090000Y-76835000D03*
X91440000Y-74295000D03*
D19*
X95190000Y-74295000D03*
X62290000Y-76835000D03*
D20*
X64770000Y-79375000D03*
X74930000Y-79375000D03*
D12*
X69850000Y-79375000D03*
D21*
X66040000Y-76835000D03*
X72390000Y-74295000D03*
D19*
X76140000Y-74295000D03*
X38477500Y-76835000D03*
D20*
X40957500Y-79375000D03*
X51117500Y-79375000D03*
D12*
X46037500Y-79375000D03*
D21*
X42227500Y-76835000D03*
X48577500Y-74295000D03*
D19*
X52327500Y-74295000D03*
X248027500Y-57785000D03*
D20*
X250507500Y-60325000D03*
X260667500Y-60325000D03*
D12*
X255587500Y-60325000D03*
D21*
X251777500Y-57785000D03*
X258127500Y-55245000D03*
D19*
X261877500Y-55245000D03*
X209927500Y-57785000D03*
D20*
X212407500Y-60325000D03*
X222567500Y-60325000D03*
D12*
X217487500Y-60325000D03*
D21*
X213677500Y-57785000D03*
X220027500Y-55245000D03*
D19*
X223777500Y-55245000D03*
X190877500Y-57785000D03*
D20*
X193357500Y-60325000D03*
X203517500Y-60325000D03*
D12*
X198437500Y-60325000D03*
D21*
X194627500Y-57785000D03*
X200977500Y-55245000D03*
D19*
X204727500Y-55245000D03*
X171827500Y-57785000D03*
D20*
X174307500Y-60325000D03*
X184467500Y-60325000D03*
D12*
X179387500Y-60325000D03*
D21*
X175577500Y-57785000D03*
X181927500Y-55245000D03*
D19*
X185677500Y-55245000D03*
X152777500Y-57785000D03*
D20*
X155257500Y-60325000D03*
X165417500Y-60325000D03*
D12*
X160337500Y-60325000D03*
D21*
X156527500Y-57785000D03*
X162877500Y-55245000D03*
D19*
X166627500Y-55245000D03*
X133727500Y-57785000D03*
D20*
X136207500Y-60325000D03*
X146367500Y-60325000D03*
D12*
X141287500Y-60325000D03*
D21*
X137477500Y-57785000D03*
X143827500Y-55245000D03*
D19*
X147577500Y-55245000D03*
X114677500Y-57785000D03*
D20*
X117157500Y-60325000D03*
X127317500Y-60325000D03*
D12*
X122237500Y-60325000D03*
D21*
X118427500Y-57785000D03*
X124777500Y-55245000D03*
D19*
X128527500Y-55245000D03*
X95627500Y-57785000D03*
D20*
X98107500Y-60325000D03*
X108267500Y-60325000D03*
D12*
X103187500Y-60325000D03*
D21*
X99377500Y-57785000D03*
X105727500Y-55245000D03*
D19*
X109477500Y-55245000D03*
X76577500Y-57785000D03*
D20*
X79057500Y-60325000D03*
X89217500Y-60325000D03*
D12*
X84137500Y-60325000D03*
D21*
X80327500Y-57785000D03*
X86677500Y-55245000D03*
D19*
X90427500Y-55245000D03*
X224215000Y-38735000D03*
D20*
X226695000Y-41275000D03*
X236855000Y-41275000D03*
D12*
X231775000Y-41275000D03*
D21*
X227965000Y-38735000D03*
X234315000Y-36195000D03*
D19*
X238065000Y-36195000D03*
X205165000Y-38735000D03*
D20*
X207645000Y-41275000D03*
X217805000Y-41275000D03*
D12*
X212725000Y-41275000D03*
D21*
X208915000Y-38735000D03*
X215265000Y-36195000D03*
D19*
X219015000Y-36195000D03*
X186115000Y-38735000D03*
D20*
X188595000Y-41275000D03*
X198755000Y-41275000D03*
D12*
X193675000Y-41275000D03*
D21*
X189865000Y-38735000D03*
X196215000Y-36195000D03*
D19*
X199965000Y-36195000D03*
X167065000Y-38735000D03*
D20*
X169545000Y-41275000D03*
X179705000Y-41275000D03*
D12*
X174625000Y-41275000D03*
D21*
X170815000Y-38735000D03*
X177165000Y-36195000D03*
D19*
X180915000Y-36195000D03*
X148015000Y-38735000D03*
D20*
X150495000Y-41275000D03*
X160655000Y-41275000D03*
D12*
X155575000Y-41275000D03*
D21*
X151765000Y-38735000D03*
X158115000Y-36195000D03*
D19*
X161865000Y-36195000D03*
X128965000Y-38735000D03*
D20*
X131445000Y-41275000D03*
X141605000Y-41275000D03*
D12*
X136525000Y-41275000D03*
D21*
X132715000Y-38735000D03*
X139065000Y-36195000D03*
D19*
X142815000Y-36195000D03*
X109915000Y-38735000D03*
D20*
X112395000Y-41275000D03*
X122555000Y-41275000D03*
D12*
X117475000Y-41275000D03*
D21*
X113665000Y-38735000D03*
X120015000Y-36195000D03*
D19*
X123765000Y-36195000D03*
X90865000Y-38735000D03*
D20*
X93345000Y-41275000D03*
X103505000Y-41275000D03*
D12*
X98425000Y-41275000D03*
D21*
X94615000Y-38735000D03*
X100965000Y-36195000D03*
D19*
X104715000Y-36195000D03*
X71815000Y-38735000D03*
D20*
X74295000Y-41275000D03*
X84455000Y-41275000D03*
D12*
X79375000Y-41275000D03*
D21*
X75565000Y-38735000D03*
X81915000Y-36195000D03*
D19*
X85665000Y-36195000D03*
M02*
