%TF.GenerationSoftware,KiCad,Pcbnew,(5.1.5)-3*%
%TF.CreationDate,2020-03-30T21:53:17+02:00*%
%TF.ProjectId,UT51,55543531-2e6b-4696-9361-645f70636258,rev?*%
%TF.SameCoordinates,Original*%
%TF.FileFunction,Copper,L1,Top*%
%TF.FilePolarity,Positive*%
%FSLAX46Y46*%
G04 Gerber Fmt 4.6, Leading zero omitted, Abs format (unit mm)*
G04 Created by KiCad (PCBNEW (5.1.5)-3) date 2020-03-30 21:53:17*
%MOMM*%
%LPD*%
G04 APERTURE LIST*
%ADD10C,0.700000*%
%ADD11O,1.000000X2.100000*%
%ADD12O,1.000000X1.600000*%
%ADD13C,0.600000*%
%ADD14C,0.381000*%
%ADD15C,0.250000*%
G04 APERTURE END LIST*
D10*
X277074089Y-102433642D02*
X276770517Y-104862214D01*
X276877660Y-105147928D01*
X277002660Y-105290785D01*
X277270517Y-105433642D01*
X277841946Y-105433642D01*
X278145517Y-105290785D01*
X278306232Y-105147928D01*
X278484803Y-104862214D01*
X278788375Y-102433642D01*
X279788375Y-102433642D02*
X281502660Y-102433642D01*
X280270517Y-105433642D02*
X280645517Y-102433642D01*
X283931232Y-102433642D02*
X282502660Y-102433642D01*
X282181232Y-103862214D01*
X282341946Y-103719357D01*
X282645517Y-103576500D01*
X283359803Y-103576500D01*
X283627660Y-103719357D01*
X283752660Y-103862214D01*
X283859803Y-104147928D01*
X283770517Y-104862214D01*
X283591946Y-105147928D01*
X283431232Y-105290785D01*
X283127660Y-105433642D01*
X282413375Y-105433642D01*
X282145517Y-105290785D01*
X282020517Y-105147928D01*
X286556232Y-105433642D02*
X284841946Y-105433642D01*
X285699089Y-105433642D02*
X286074089Y-102433642D01*
X285734803Y-102862214D01*
X285413375Y-103147928D01*
X285109803Y-103290785D01*
X277486839Y-102846392D02*
X277183267Y-105274964D01*
X277290410Y-105560678D01*
X277415410Y-105703535D01*
X277683267Y-105846392D01*
X278254696Y-105846392D01*
X278558267Y-105703535D01*
X278718982Y-105560678D01*
X278897553Y-105274964D01*
X279201125Y-102846392D01*
X280201125Y-102846392D02*
X281915410Y-102846392D01*
X280683267Y-105846392D02*
X281058267Y-102846392D01*
X284343982Y-102846392D02*
X282915410Y-102846392D01*
X282593982Y-104274964D01*
X282754696Y-104132107D01*
X283058267Y-103989250D01*
X283772553Y-103989250D01*
X284040410Y-104132107D01*
X284165410Y-104274964D01*
X284272553Y-104560678D01*
X284183267Y-105274964D01*
X284004696Y-105560678D01*
X283843982Y-105703535D01*
X283540410Y-105846392D01*
X282826125Y-105846392D01*
X282558267Y-105703535D01*
X282433267Y-105560678D01*
X286968982Y-105846392D02*
X285254696Y-105846392D01*
X286111839Y-105846392D02*
X286486839Y-102846392D01*
X286147553Y-103274964D01*
X285826125Y-103560678D01*
X285522553Y-103703535D01*
D11*
X269383399Y-37180000D03*
X260743399Y-37180000D03*
D12*
X260743399Y-33000000D03*
X269383399Y-33000000D03*
D13*
X220980000Y-50292000D03*
X179959000Y-50800000D03*
X182118000Y-45212000D03*
X46609000Y-50800000D03*
X48768000Y-45212000D03*
X113284000Y-50800000D03*
X115316000Y-45212000D03*
X179959000Y-88900000D03*
X182118000Y-83312000D03*
X113411000Y-88900000D03*
X115443000Y-83312000D03*
X229840000Y-88950000D03*
X258860000Y-40630000D03*
X258900000Y-45550000D03*
X272050000Y-70800000D03*
X254290000Y-71090000D03*
X269510000Y-83360000D03*
X270880000Y-88960000D03*
X255875000Y-49975000D03*
X220218000Y-48260000D03*
X229108000Y-82550000D03*
X264200000Y-49075000D03*
X264525000Y-62175000D03*
X267499812Y-68925134D03*
X266800000Y-68100000D03*
X245150000Y-45570000D03*
X252125000Y-52175000D03*
X265775000Y-52325000D03*
X272350000Y-51525000D03*
X251060000Y-65780000D03*
X266940000Y-69640000D03*
X264210000Y-71740000D03*
X268240000Y-101680000D03*
X267510000Y-39770000D03*
X262610000Y-39750000D03*
X129413000Y-36576000D03*
X134239000Y-55626000D03*
X143764000Y-93726000D03*
X138938000Y-74676000D03*
X34163000Y-36576000D03*
X36576000Y-55626000D03*
X34163000Y-93726000D03*
X38989000Y-74676000D03*
X53213000Y-36576000D03*
X58039000Y-55626000D03*
X53213000Y-93726000D03*
X62738000Y-74676000D03*
X72263000Y-36576000D03*
X77089000Y-55626000D03*
X72263000Y-93726000D03*
X81788000Y-74676000D03*
X91313000Y-36576000D03*
X96139000Y-55626000D03*
X91313000Y-93726000D03*
X100838000Y-74676000D03*
X110363000Y-36576000D03*
X115189000Y-55626000D03*
X112776000Y-93726000D03*
X119888000Y-74676000D03*
X148463000Y-36576000D03*
X153289000Y-55626000D03*
X157988000Y-74676000D03*
X167513000Y-36576000D03*
X172339000Y-55626000D03*
X174752000Y-93726000D03*
X177038000Y-74676000D03*
X259556250Y-64449900D03*
X263500000Y-44000000D03*
X262025000Y-43975000D03*
X276000000Y-35775000D03*
X258870000Y-65060000D03*
X261020000Y-47640000D03*
X46609000Y-85598000D03*
X50800000Y-50927000D03*
X186563000Y-36576000D03*
X191389000Y-55626000D03*
X196088000Y-93726000D03*
X196088000Y-74676000D03*
X205613000Y-36576000D03*
X210439000Y-55626000D03*
X215138000Y-93726000D03*
X215138000Y-74676000D03*
X224663000Y-36576000D03*
X229489000Y-55626000D03*
X234188000Y-93726000D03*
X234188000Y-74676000D03*
X252790000Y-93810000D03*
X252790000Y-74440000D03*
X248050000Y-55580000D03*
X243430000Y-36230000D03*
X264290000Y-53680000D03*
X263807400Y-61470000D03*
X263750000Y-55190000D03*
X263230000Y-62300000D03*
X271840000Y-93620000D03*
X271810000Y-74560000D03*
X266610000Y-66600000D03*
X269465849Y-55605849D03*
X282180000Y-45990000D03*
D14*
X225298000Y-55524410D02*
X220980000Y-51206410D01*
X225298000Y-69723000D02*
X225298000Y-55524410D01*
X229870000Y-74295000D02*
X225298000Y-69723000D01*
X229870000Y-82931000D02*
X229870000Y-74295000D01*
X220980000Y-51206410D02*
X220980000Y-50292000D01*
X182118000Y-48641000D02*
X179959000Y-50800000D01*
X182118000Y-45720000D02*
X182118000Y-48641000D01*
X182118000Y-45212000D02*
X182118000Y-45720000D01*
X48768000Y-48641000D02*
X46609000Y-50800000D01*
X48768000Y-45720000D02*
X48768000Y-48641000D01*
X48768000Y-45212000D02*
X48768000Y-45720000D01*
X115316000Y-48768000D02*
X113284000Y-50800000D01*
X115316000Y-45720000D02*
X115316000Y-48768000D01*
X115316000Y-45212000D02*
X115316000Y-45720000D01*
X181991000Y-86868000D02*
X179959000Y-88900000D01*
X182118000Y-86868000D02*
X181991000Y-86868000D01*
X182118000Y-83312000D02*
X182118000Y-86868000D01*
X115443000Y-86868000D02*
X113411000Y-88900000D01*
X115443000Y-85090000D02*
X115443000Y-86868000D01*
X115443000Y-83312000D02*
X115443000Y-85090000D01*
X229870000Y-82931000D02*
X229840000Y-88950000D01*
X229840000Y-88950000D02*
X229870000Y-88920000D01*
X258860000Y-40630000D02*
X258860000Y-45510000D01*
X258860000Y-45510000D02*
X258900000Y-45550000D01*
X272050000Y-70800000D02*
X254580000Y-70800000D01*
X254580000Y-70800000D02*
X254290000Y-71090000D01*
X269510000Y-83360000D02*
X270880000Y-84730000D01*
X270880000Y-84730000D02*
X270880000Y-88960000D01*
X269510000Y-73340000D02*
X272050000Y-70800000D01*
X269510000Y-83360000D02*
X269510000Y-73340000D01*
X258900000Y-46950000D02*
X255875000Y-49975000D01*
X258900000Y-45550000D02*
X258900000Y-46950000D01*
X220218000Y-51562000D02*
X220218000Y-48260000D01*
X224536000Y-55880000D02*
X220218000Y-51562000D01*
X224536000Y-70104000D02*
X224536000Y-55880000D01*
X229108000Y-74676000D02*
X224536000Y-70104000D01*
X229108000Y-82550000D02*
X229108000Y-74676000D01*
X265057908Y-61642092D02*
X264525000Y-62175000D01*
X264200000Y-49075000D02*
X265057908Y-49932908D01*
X265057908Y-49932908D02*
X265057908Y-61642092D01*
X264525000Y-65466494D02*
X266301407Y-67242901D01*
X264525000Y-62175000D02*
X264525000Y-65466494D01*
X266301407Y-67242901D02*
X266894395Y-67242901D01*
X266894395Y-67242901D02*
X267499812Y-67848318D01*
X267499812Y-67848318D02*
X267499812Y-68925134D01*
D15*
X266375736Y-68100000D02*
X264415736Y-66140000D01*
X266800000Y-68100000D02*
X266375736Y-68100000D01*
X259095446Y-66140000D02*
X258150000Y-65194554D01*
X264415736Y-66140000D02*
X259095446Y-66140000D01*
X258150000Y-65194554D02*
X258150000Y-59525974D01*
X258150000Y-59525974D02*
X258150000Y-58250000D01*
X258150000Y-58250000D02*
X252125000Y-52175000D01*
X245470000Y-45570000D02*
X245150000Y-45570000D01*
X252125000Y-52175000D02*
X245470000Y-45570000D01*
X265775000Y-52325000D02*
X266575000Y-51525000D01*
X266575000Y-51525000D02*
X272350000Y-51525000D01*
X251060000Y-65780000D02*
X254920000Y-69640000D01*
X254920000Y-69640000D02*
X266940000Y-69640000D01*
X264210000Y-71740000D02*
X268240000Y-75770000D01*
X268240000Y-75770000D02*
X268240000Y-101680000D01*
D14*
X267510000Y-39770000D02*
X267480000Y-39770000D01*
X267480000Y-39770000D02*
X267460000Y-39750000D01*
X267460000Y-39750000D02*
X262610000Y-39750000D01*
D15*
X143764000Y-93726000D02*
X143764000Y-88265000D01*
X143764000Y-88265000D02*
X138938000Y-83439000D01*
X138938000Y-83439000D02*
X138938000Y-74676000D01*
X134239000Y-55626000D02*
X134239000Y-69977000D01*
X134239000Y-69977000D02*
X138938000Y-74676000D01*
X129413000Y-36576000D02*
X129413000Y-50800000D01*
X129413000Y-50800000D02*
X134239000Y-55626000D01*
X34163000Y-91059000D02*
X38989000Y-86233000D01*
X34163000Y-93726000D02*
X34163000Y-91059000D01*
X38989000Y-74676000D02*
X38989000Y-86233000D01*
X34163000Y-36576000D02*
X34163000Y-53213000D01*
X34163000Y-53213000D02*
X36576000Y-55626000D01*
X36576000Y-55626000D02*
X36576000Y-72263000D01*
X36576000Y-72263000D02*
X38989000Y-74676000D01*
X62738000Y-74676000D02*
X62738000Y-84201000D01*
X62738000Y-84201000D02*
X53213000Y-93726000D01*
X58039000Y-55626000D02*
X58039000Y-69977000D01*
X58039000Y-69977000D02*
X62738000Y-74676000D01*
X53213000Y-36576000D02*
X53213000Y-50800000D01*
X53213000Y-50800000D02*
X58039000Y-55626000D01*
X81788000Y-74676000D02*
X81788000Y-84201000D01*
X81788000Y-84201000D02*
X72263000Y-93726000D01*
X77089000Y-55626000D02*
X77089000Y-69977000D01*
X77089000Y-69977000D02*
X81788000Y-74676000D01*
X72263000Y-36576000D02*
X72263000Y-50800000D01*
X72263000Y-50800000D02*
X77089000Y-55626000D01*
X100838000Y-74676000D02*
X100838000Y-84201000D01*
X100838000Y-84201000D02*
X91313000Y-93726000D01*
X96139000Y-55626000D02*
X96139000Y-69977000D01*
X96139000Y-69977000D02*
X100838000Y-74676000D01*
X91313000Y-36576000D02*
X91313000Y-50800000D01*
X91313000Y-50800000D02*
X96139000Y-55626000D01*
X119888000Y-74676000D02*
X119888000Y-86614000D01*
X119888000Y-86614000D02*
X112776000Y-93726000D01*
X115189000Y-55626000D02*
X115189000Y-69977000D01*
X115189000Y-69977000D02*
X119888000Y-74676000D01*
X110363000Y-36576000D02*
X110363000Y-50800000D01*
X110363000Y-50800000D02*
X115189000Y-55626000D01*
X148463000Y-36576000D02*
X148463000Y-50800000D01*
X148463000Y-50800000D02*
X153289000Y-55626000D01*
X157988000Y-72898000D02*
X153289000Y-68199000D01*
X157988000Y-74676000D02*
X157988000Y-72898000D01*
X153289000Y-68199000D02*
X153289000Y-55626000D01*
X177038000Y-74676000D02*
X177038000Y-91440000D01*
X177038000Y-91440000D02*
X174752000Y-93726000D01*
X172339000Y-55626000D02*
X172339000Y-69977000D01*
X172339000Y-69977000D02*
X177038000Y-74676000D01*
X167513000Y-36576000D02*
X167513000Y-50800000D01*
X167513000Y-50800000D02*
X172339000Y-55626000D01*
X261597401Y-45902599D02*
X263500000Y-44000000D01*
X259556250Y-64025636D02*
X259539199Y-64008585D01*
X261597401Y-57725213D02*
X261597401Y-45902599D01*
X259556250Y-64449900D02*
X259556250Y-64025636D01*
X259539199Y-64008585D02*
X259539199Y-59783415D01*
X259539199Y-59783415D02*
X261597401Y-57725213D01*
X263500000Y-44000000D02*
X269850000Y-44000000D01*
X269850000Y-44000000D02*
X271425000Y-42425000D01*
X276000000Y-36550974D02*
X276000000Y-35775000D01*
X271425000Y-42425000D02*
X271425000Y-41125974D01*
X271425000Y-41125974D02*
X276000000Y-36550974D01*
X258870000Y-65060000D02*
X258870000Y-58440000D01*
X258870000Y-58440000D02*
X261020000Y-56290000D01*
X261020000Y-56290000D02*
X261020000Y-47640000D01*
X48895000Y-85598000D02*
X46609000Y-85598000D01*
X53848000Y-80645000D02*
X48895000Y-85598000D01*
X53848000Y-73025000D02*
X53848000Y-80645000D01*
X50800000Y-69977000D02*
X53848000Y-73025000D01*
X50800000Y-55880000D02*
X50800000Y-69977000D01*
X50800000Y-50927000D02*
X50800000Y-55880000D01*
X196088000Y-74676000D02*
X196088000Y-93726000D01*
X191389000Y-55626000D02*
X191389000Y-69977000D01*
X191389000Y-69977000D02*
X196088000Y-74676000D01*
X186563000Y-36576000D02*
X186563000Y-50800000D01*
X186563000Y-50800000D02*
X191389000Y-55626000D01*
X215138000Y-74676000D02*
X215138000Y-93726000D01*
X210439000Y-55626000D02*
X210439000Y-69977000D01*
X210439000Y-69977000D02*
X215138000Y-74676000D01*
X205613000Y-36576000D02*
X205613000Y-50800000D01*
X205613000Y-50800000D02*
X210439000Y-55626000D01*
X234188000Y-74676000D02*
X234188000Y-93726000D01*
X229489000Y-55626000D02*
X229489000Y-69977000D01*
X229489000Y-69977000D02*
X234188000Y-74676000D01*
X224663000Y-36576000D02*
X224663000Y-50800000D01*
X224663000Y-50800000D02*
X229489000Y-55626000D01*
X252790000Y-93810000D02*
X252790000Y-74440000D01*
X252790000Y-74440000D02*
X252790000Y-74440000D01*
X252790000Y-74440000D02*
X248050000Y-69700000D01*
X248050000Y-69700000D02*
X248050000Y-55580000D01*
X248050000Y-55580000D02*
X248050000Y-55580000D01*
X248050000Y-55580000D02*
X243440000Y-50970000D01*
X243440000Y-50970000D02*
X243430000Y-36230000D01*
X243430000Y-36230000D02*
X243440000Y-36240000D01*
X264589999Y-60687401D02*
X263807400Y-61470000D01*
X264290000Y-53680000D02*
X264589999Y-53979999D01*
X264589999Y-53979999D02*
X264589999Y-60687401D01*
X263750000Y-55614264D02*
X263230000Y-56134264D01*
X263750000Y-55190000D02*
X263750000Y-55614264D01*
X263230000Y-56134264D02*
X263230000Y-62300000D01*
X271840000Y-93620000D02*
X271840000Y-74590000D01*
X271840000Y-74590000D02*
X271810000Y-74560000D01*
X271810000Y-74560000D02*
X272930000Y-73440000D01*
X268704554Y-66600000D02*
X266610000Y-66600000D01*
X272930000Y-73440000D02*
X272930000Y-70825446D01*
X272930000Y-70825446D02*
X268704554Y-66600000D01*
X266610000Y-66600000D02*
X266610000Y-58461698D01*
X266610000Y-58461698D02*
X269465849Y-55605849D01*
X269465849Y-55605849D02*
X272564151Y-55605849D01*
X272564151Y-55605849D02*
X282180000Y-45990000D01*
M02*
