M48
; DRILL file {KiCad (5.1.5)-3} date 30.03.2020 21:53:21
; FORMAT={3:3/ absolute / metric / suppress leading zeros}
; #@! TF.CreationDate,2020-03-30T21:53:21+02:00
; #@! TF.GenerationSoftware,Kicad,Pcbnew,(5.1.5)-3
; #@! TF.FileFunction,NonPlated,1,2,NPTH
FMAT,2
METRIC,TZ
T1C0.650
T2C1.702
T3C3.000
T4C3.048
T5C3.988
%
G90
G05
T1
X262173Y-36650
X267953Y-36650
T2
X193358Y-60325
X203517Y-60325
X121920Y-79375
X132080Y-79375
X114776Y-98425
X124936Y-98425
X140970Y-79375
X151130Y-79375
X98108Y-60325
X108268Y-60325
X93345Y-41275
X103505Y-41275
X150495Y-41275
X160655Y-41275
X38576Y-60325
X48736Y-60325
X217170Y-98425
X227330Y-98425
X179070Y-79375
X189230Y-79375
X176689Y-98425
X186849Y-98425
X40957Y-79375
X51118Y-79375
X212408Y-60325
X222568Y-60325
X207645Y-41275
X217805Y-41275
X169545Y-41275
X179705Y-41275
X269558Y-41275
X279717Y-41275
X83820Y-79375
X93980Y-79375
X198120Y-98425
X208280Y-98425
X255270Y-79375
X265430Y-79375
X136207Y-60325
X146368Y-60325
X112395Y-41275
X122555Y-41275
X155257Y-60325
X165418Y-60325
X231458Y-60325
X241617Y-60325
X255270Y-98425
X265430Y-98425
X250508Y-60325
X260667Y-60325
X236220Y-98425
X246380Y-98425
X64770Y-79375
X74930Y-79375
X174308Y-60325
X184468Y-60325
X131445Y-41275
X141605Y-41275
X188595Y-41275
X198755Y-41275
X245745Y-41275
X255905Y-41275
X36195Y-41275
X46355Y-41275
X160020Y-79375
X170180Y-79375
X145732Y-98425
X155892Y-98425
X102870Y-79375
X113030Y-79375
X274320Y-79375
X284480Y-79375
X36195Y-98425
X46355Y-98425
X117158Y-60325
X127318Y-60325
X55245Y-41275
X65405Y-41275
X236220Y-79375
X246380Y-79375
X274320Y-98425
X284480Y-98425
X74295Y-98425
X84455Y-98425
X271939Y-60325
X282099Y-60325
X198120Y-79375
X208280Y-79375
X74295Y-41275
X84455Y-41275
X79057Y-60325
X89218Y-60325
X60008Y-60325
X70168Y-60325
X55245Y-98425
X65405Y-98425
X93345Y-98425
X103505Y-98425
X217170Y-79375
X227330Y-79375
X226695Y-41275
X236855Y-41275
T3
X199390Y-95885
X205740Y-93345
X256540Y-76835
X262890Y-74295
X137477Y-57785
X143827Y-55245
X113665Y-38735
X120015Y-36195
X156528Y-57785
X162878Y-55245
X232728Y-57785
X239077Y-55245
X256540Y-95885
X262890Y-93345
X251777Y-57785
X258128Y-55245
X237490Y-95885
X243840Y-93345
X66040Y-76835
X72390Y-74295
X175578Y-57785
X181928Y-55245
X132715Y-38735
X139065Y-36195
X189865Y-38735
X196215Y-36195
X247015Y-38735
X253365Y-36195
X37465Y-38735
X43815Y-36195
X161290Y-76835
X167640Y-74295
X147003Y-95885
X153352Y-93345
X104140Y-76835
X110490Y-74295
X275590Y-76835
X281940Y-74295
X37465Y-95885
X43815Y-93345
X118427Y-57785
X124777Y-55245
X56515Y-38735
X62865Y-36195
X237490Y-76835
X243840Y-74295
X275590Y-95885
X281940Y-93345
X75565Y-95885
X81915Y-93345
X273209Y-57785
X279559Y-55245
X199390Y-76835
X205740Y-74295
X75565Y-38735
X81915Y-36195
X80328Y-57785
X86678Y-55245
X61278Y-57785
X67628Y-55245
X56515Y-95885
X62865Y-93345
X94615Y-95885
X100965Y-93345
X218440Y-76835
X224790Y-74295
X227965Y-38735
X234315Y-36195
X194628Y-57785
X200978Y-55245
X123190Y-76835
X129540Y-74295
X116046Y-95885
X122396Y-93345
X142240Y-76835
X148590Y-74295
X99378Y-57785
X105727Y-55245
X94615Y-38735
X100965Y-36195
X151765Y-38735
X158115Y-36195
X39846Y-57785
X46196Y-55245
X218440Y-95885
X224790Y-93345
X180340Y-76835
X186690Y-74295
X177959Y-95885
X184309Y-93345
X42228Y-76835
X48578Y-74295
X213677Y-57785
X220028Y-55245
X208915Y-38735
X215265Y-36195
X170815Y-38735
X177165Y-36195
X272097Y-46355
X278448Y-43815
X85090Y-76835
X91440Y-74295
T4
X138800Y-104540
X162600Y-104540
T5
X79375Y-41275
X84138Y-60325
X65087Y-60325
X60325Y-98425
X98425Y-98425
X222250Y-79375
X231775Y-41275
X198438Y-60325
X127000Y-79375
X119856Y-98425
X146050Y-79375
X138800Y-89300
X162600Y-89300
X103188Y-60325
X98425Y-41275
X155575Y-41275
X43656Y-60325
X222250Y-98425
X184150Y-79375
X181769Y-98425
X46038Y-79375
X217488Y-60325
X212725Y-41275
X174625Y-41275
X274638Y-41275
X88900Y-79375
X203200Y-98425
X260350Y-79375
X141288Y-60325
X117475Y-41275
X160338Y-60325
X236538Y-60325
X260350Y-98425
X255588Y-60325
X241300Y-98425
X69850Y-79375
X179388Y-60325
X136525Y-41275
X193675Y-41275
X250825Y-41275
X41275Y-41275
X165100Y-79375
X150813Y-98425
X107950Y-79375
X279400Y-79375
X41275Y-98425
X122238Y-60325
X60325Y-41275
X241300Y-79375
X279400Y-98425
X79375Y-98425
X277019Y-60325
X203200Y-79375
T0
M30
