%TF.GenerationSoftware,KiCad,Pcbnew,(5.1.5)-3*%
%TF.CreationDate,2020-03-30T21:53:17+02:00*%
%TF.ProjectId,UT51,55543531-2e6b-4696-9361-645f70636258,rev?*%
%TF.SameCoordinates,Original*%
%TF.FileFunction,Paste,Bot*%
%TF.FilePolarity,Positive*%
%FSLAX46Y46*%
G04 Gerber Fmt 4.6, Leading zero omitted, Abs format (unit mm)*
G04 Created by KiCad (PCBNEW (5.1.5)-3) date 2020-03-30 21:53:17*
%MOMM*%
%LPD*%
G04 APERTURE LIST*
%ADD10C,0.100000*%
%ADD11R,1.800000X2.100000*%
%ADD12R,0.700000X0.600000*%
%ADD13R,0.700000X1.000000*%
%ADD14R,1.500000X1.500000*%
%ADD15R,0.900000X1.200000*%
%ADD16R,2.550000X2.500000*%
%ADD17R,1.200000X0.900000*%
%ADD18R,0.600000X1.450000*%
%ADD19R,0.300000X1.450000*%
%ADD20R,1.500000X1.000000*%
G04 APERTURE END LIST*
D10*
G36*
X270865192Y-70326053D02*
G01*
X270886427Y-70329203D01*
X270907251Y-70334419D01*
X270927463Y-70341651D01*
X270946869Y-70350830D01*
X270965282Y-70361866D01*
X270982525Y-70374654D01*
X270998431Y-70389070D01*
X271012847Y-70404976D01*
X271025635Y-70422219D01*
X271036671Y-70440632D01*
X271045850Y-70460038D01*
X271053082Y-70480250D01*
X271058298Y-70501074D01*
X271061448Y-70522309D01*
X271062501Y-70543750D01*
X271062501Y-71056250D01*
X271061448Y-71077691D01*
X271058298Y-71098926D01*
X271053082Y-71119750D01*
X271045850Y-71139962D01*
X271036671Y-71159368D01*
X271025635Y-71177781D01*
X271012847Y-71195024D01*
X270998431Y-71210930D01*
X270982525Y-71225346D01*
X270965282Y-71238134D01*
X270946869Y-71249170D01*
X270927463Y-71258349D01*
X270907251Y-71265581D01*
X270886427Y-71270797D01*
X270865192Y-71273947D01*
X270843751Y-71275000D01*
X270406251Y-71275000D01*
X270384810Y-71273947D01*
X270363575Y-71270797D01*
X270342751Y-71265581D01*
X270322539Y-71258349D01*
X270303133Y-71249170D01*
X270284720Y-71238134D01*
X270267477Y-71225346D01*
X270251571Y-71210930D01*
X270237155Y-71195024D01*
X270224367Y-71177781D01*
X270213331Y-71159368D01*
X270204152Y-71139962D01*
X270196920Y-71119750D01*
X270191704Y-71098926D01*
X270188554Y-71077691D01*
X270187501Y-71056250D01*
X270187501Y-70543750D01*
X270188554Y-70522309D01*
X270191704Y-70501074D01*
X270196920Y-70480250D01*
X270204152Y-70460038D01*
X270213331Y-70440632D01*
X270224367Y-70422219D01*
X270237155Y-70404976D01*
X270251571Y-70389070D01*
X270267477Y-70374654D01*
X270284720Y-70361866D01*
X270303133Y-70350830D01*
X270322539Y-70341651D01*
X270342751Y-70334419D01*
X270363575Y-70329203D01*
X270384810Y-70326053D01*
X270406251Y-70325000D01*
X270843751Y-70325000D01*
X270865192Y-70326053D01*
G37*
G36*
X269290192Y-70326053D02*
G01*
X269311427Y-70329203D01*
X269332251Y-70334419D01*
X269352463Y-70341651D01*
X269371869Y-70350830D01*
X269390282Y-70361866D01*
X269407525Y-70374654D01*
X269423431Y-70389070D01*
X269437847Y-70404976D01*
X269450635Y-70422219D01*
X269461671Y-70440632D01*
X269470850Y-70460038D01*
X269478082Y-70480250D01*
X269483298Y-70501074D01*
X269486448Y-70522309D01*
X269487501Y-70543750D01*
X269487501Y-71056250D01*
X269486448Y-71077691D01*
X269483298Y-71098926D01*
X269478082Y-71119750D01*
X269470850Y-71139962D01*
X269461671Y-71159368D01*
X269450635Y-71177781D01*
X269437847Y-71195024D01*
X269423431Y-71210930D01*
X269407525Y-71225346D01*
X269390282Y-71238134D01*
X269371869Y-71249170D01*
X269352463Y-71258349D01*
X269332251Y-71265581D01*
X269311427Y-71270797D01*
X269290192Y-71273947D01*
X269268751Y-71275000D01*
X268831251Y-71275000D01*
X268809810Y-71273947D01*
X268788575Y-71270797D01*
X268767751Y-71265581D01*
X268747539Y-71258349D01*
X268728133Y-71249170D01*
X268709720Y-71238134D01*
X268692477Y-71225346D01*
X268676571Y-71210930D01*
X268662155Y-71195024D01*
X268649367Y-71177781D01*
X268638331Y-71159368D01*
X268629152Y-71139962D01*
X268621920Y-71119750D01*
X268616704Y-71098926D01*
X268613554Y-71077691D01*
X268612501Y-71056250D01*
X268612501Y-70543750D01*
X268613554Y-70522309D01*
X268616704Y-70501074D01*
X268621920Y-70480250D01*
X268629152Y-70460038D01*
X268638331Y-70440632D01*
X268649367Y-70422219D01*
X268662155Y-70404976D01*
X268676571Y-70389070D01*
X268692477Y-70374654D01*
X268709720Y-70361866D01*
X268728133Y-70350830D01*
X268747539Y-70341651D01*
X268767751Y-70334419D01*
X268788575Y-70329203D01*
X268809810Y-70326053D01*
X268831251Y-70325000D01*
X269268751Y-70325000D01*
X269290192Y-70326053D01*
G37*
D11*
X269540000Y-64540000D03*
X269540000Y-67440000D03*
X271840000Y-67440000D03*
X271840000Y-64540000D03*
D12*
X264513399Y-41149101D03*
X264513399Y-43049101D03*
X266513399Y-43049101D03*
D13*
X266513399Y-41349101D03*
D10*
G36*
X264780227Y-63435301D02*
G01*
X264786294Y-63436201D01*
X264792244Y-63437691D01*
X264798019Y-63439758D01*
X264803563Y-63442380D01*
X264808824Y-63445533D01*
X264813751Y-63449187D01*
X264818295Y-63453306D01*
X264822414Y-63457850D01*
X264826068Y-63462777D01*
X264829221Y-63468038D01*
X264831843Y-63473582D01*
X264833910Y-63479357D01*
X264835400Y-63485307D01*
X264836300Y-63491374D01*
X264836601Y-63497500D01*
X264836601Y-64247500D01*
X264836300Y-64253626D01*
X264835400Y-64259693D01*
X264833910Y-64265643D01*
X264831843Y-64271418D01*
X264829221Y-64276962D01*
X264826068Y-64282223D01*
X264822414Y-64287150D01*
X264818295Y-64291694D01*
X264813751Y-64295813D01*
X264808824Y-64299467D01*
X264803563Y-64302620D01*
X264798019Y-64305242D01*
X264792244Y-64307309D01*
X264786294Y-64308799D01*
X264780227Y-64309699D01*
X264774101Y-64310000D01*
X264649101Y-64310000D01*
X264642975Y-64309699D01*
X264636908Y-64308799D01*
X264630958Y-64307309D01*
X264625183Y-64305242D01*
X264619639Y-64302620D01*
X264614378Y-64299467D01*
X264609451Y-64295813D01*
X264604907Y-64291694D01*
X264600788Y-64287150D01*
X264597134Y-64282223D01*
X264593981Y-64276962D01*
X264591359Y-64271418D01*
X264589292Y-64265643D01*
X264587802Y-64259693D01*
X264586902Y-64253626D01*
X264586601Y-64247500D01*
X264586601Y-63497500D01*
X264586902Y-63491374D01*
X264587802Y-63485307D01*
X264589292Y-63479357D01*
X264591359Y-63473582D01*
X264593981Y-63468038D01*
X264597134Y-63462777D01*
X264600788Y-63457850D01*
X264604907Y-63453306D01*
X264609451Y-63449187D01*
X264614378Y-63445533D01*
X264619639Y-63442380D01*
X264625183Y-63439758D01*
X264630958Y-63437691D01*
X264636908Y-63436201D01*
X264642975Y-63435301D01*
X264649101Y-63435000D01*
X264774101Y-63435000D01*
X264780227Y-63435301D01*
G37*
G36*
X264280227Y-63435301D02*
G01*
X264286294Y-63436201D01*
X264292244Y-63437691D01*
X264298019Y-63439758D01*
X264303563Y-63442380D01*
X264308824Y-63445533D01*
X264313751Y-63449187D01*
X264318295Y-63453306D01*
X264322414Y-63457850D01*
X264326068Y-63462777D01*
X264329221Y-63468038D01*
X264331843Y-63473582D01*
X264333910Y-63479357D01*
X264335400Y-63485307D01*
X264336300Y-63491374D01*
X264336601Y-63497500D01*
X264336601Y-64247500D01*
X264336300Y-64253626D01*
X264335400Y-64259693D01*
X264333910Y-64265643D01*
X264331843Y-64271418D01*
X264329221Y-64276962D01*
X264326068Y-64282223D01*
X264322414Y-64287150D01*
X264318295Y-64291694D01*
X264313751Y-64295813D01*
X264308824Y-64299467D01*
X264303563Y-64302620D01*
X264298019Y-64305242D01*
X264292244Y-64307309D01*
X264286294Y-64308799D01*
X264280227Y-64309699D01*
X264274101Y-64310000D01*
X264149101Y-64310000D01*
X264142975Y-64309699D01*
X264136908Y-64308799D01*
X264130958Y-64307309D01*
X264125183Y-64305242D01*
X264119639Y-64302620D01*
X264114378Y-64299467D01*
X264109451Y-64295813D01*
X264104907Y-64291694D01*
X264100788Y-64287150D01*
X264097134Y-64282223D01*
X264093981Y-64276962D01*
X264091359Y-64271418D01*
X264089292Y-64265643D01*
X264087802Y-64259693D01*
X264086902Y-64253626D01*
X264086601Y-64247500D01*
X264086601Y-63497500D01*
X264086902Y-63491374D01*
X264087802Y-63485307D01*
X264089292Y-63479357D01*
X264091359Y-63473582D01*
X264093981Y-63468038D01*
X264097134Y-63462777D01*
X264100788Y-63457850D01*
X264104907Y-63453306D01*
X264109451Y-63449187D01*
X264114378Y-63445533D01*
X264119639Y-63442380D01*
X264125183Y-63439758D01*
X264130958Y-63437691D01*
X264136908Y-63436201D01*
X264142975Y-63435301D01*
X264149101Y-63435000D01*
X264274101Y-63435000D01*
X264280227Y-63435301D01*
G37*
G36*
X263780227Y-63435301D02*
G01*
X263786294Y-63436201D01*
X263792244Y-63437691D01*
X263798019Y-63439758D01*
X263803563Y-63442380D01*
X263808824Y-63445533D01*
X263813751Y-63449187D01*
X263818295Y-63453306D01*
X263822414Y-63457850D01*
X263826068Y-63462777D01*
X263829221Y-63468038D01*
X263831843Y-63473582D01*
X263833910Y-63479357D01*
X263835400Y-63485307D01*
X263836300Y-63491374D01*
X263836601Y-63497500D01*
X263836601Y-64247500D01*
X263836300Y-64253626D01*
X263835400Y-64259693D01*
X263833910Y-64265643D01*
X263831843Y-64271418D01*
X263829221Y-64276962D01*
X263826068Y-64282223D01*
X263822414Y-64287150D01*
X263818295Y-64291694D01*
X263813751Y-64295813D01*
X263808824Y-64299467D01*
X263803563Y-64302620D01*
X263798019Y-64305242D01*
X263792244Y-64307309D01*
X263786294Y-64308799D01*
X263780227Y-64309699D01*
X263774101Y-64310000D01*
X263649101Y-64310000D01*
X263642975Y-64309699D01*
X263636908Y-64308799D01*
X263630958Y-64307309D01*
X263625183Y-64305242D01*
X263619639Y-64302620D01*
X263614378Y-64299467D01*
X263609451Y-64295813D01*
X263604907Y-64291694D01*
X263600788Y-64287150D01*
X263597134Y-64282223D01*
X263593981Y-64276962D01*
X263591359Y-64271418D01*
X263589292Y-64265643D01*
X263587802Y-64259693D01*
X263586902Y-64253626D01*
X263586601Y-64247500D01*
X263586601Y-63497500D01*
X263586902Y-63491374D01*
X263587802Y-63485307D01*
X263589292Y-63479357D01*
X263591359Y-63473582D01*
X263593981Y-63468038D01*
X263597134Y-63462777D01*
X263600788Y-63457850D01*
X263604907Y-63453306D01*
X263609451Y-63449187D01*
X263614378Y-63445533D01*
X263619639Y-63442380D01*
X263625183Y-63439758D01*
X263630958Y-63437691D01*
X263636908Y-63436201D01*
X263642975Y-63435301D01*
X263649101Y-63435000D01*
X263774101Y-63435000D01*
X263780227Y-63435301D01*
G37*
G36*
X263280227Y-63435301D02*
G01*
X263286294Y-63436201D01*
X263292244Y-63437691D01*
X263298019Y-63439758D01*
X263303563Y-63442380D01*
X263308824Y-63445533D01*
X263313751Y-63449187D01*
X263318295Y-63453306D01*
X263322414Y-63457850D01*
X263326068Y-63462777D01*
X263329221Y-63468038D01*
X263331843Y-63473582D01*
X263333910Y-63479357D01*
X263335400Y-63485307D01*
X263336300Y-63491374D01*
X263336601Y-63497500D01*
X263336601Y-64247500D01*
X263336300Y-64253626D01*
X263335400Y-64259693D01*
X263333910Y-64265643D01*
X263331843Y-64271418D01*
X263329221Y-64276962D01*
X263326068Y-64282223D01*
X263322414Y-64287150D01*
X263318295Y-64291694D01*
X263313751Y-64295813D01*
X263308824Y-64299467D01*
X263303563Y-64302620D01*
X263298019Y-64305242D01*
X263292244Y-64307309D01*
X263286294Y-64308799D01*
X263280227Y-64309699D01*
X263274101Y-64310000D01*
X263149101Y-64310000D01*
X263142975Y-64309699D01*
X263136908Y-64308799D01*
X263130958Y-64307309D01*
X263125183Y-64305242D01*
X263119639Y-64302620D01*
X263114378Y-64299467D01*
X263109451Y-64295813D01*
X263104907Y-64291694D01*
X263100788Y-64287150D01*
X263097134Y-64282223D01*
X263093981Y-64276962D01*
X263091359Y-64271418D01*
X263089292Y-64265643D01*
X263087802Y-64259693D01*
X263086902Y-64253626D01*
X263086601Y-64247500D01*
X263086601Y-63497500D01*
X263086902Y-63491374D01*
X263087802Y-63485307D01*
X263089292Y-63479357D01*
X263091359Y-63473582D01*
X263093981Y-63468038D01*
X263097134Y-63462777D01*
X263100788Y-63457850D01*
X263104907Y-63453306D01*
X263109451Y-63449187D01*
X263114378Y-63445533D01*
X263119639Y-63442380D01*
X263125183Y-63439758D01*
X263130958Y-63437691D01*
X263136908Y-63436201D01*
X263142975Y-63435301D01*
X263149101Y-63435000D01*
X263274101Y-63435000D01*
X263280227Y-63435301D01*
G37*
G36*
X262780227Y-63435301D02*
G01*
X262786294Y-63436201D01*
X262792244Y-63437691D01*
X262798019Y-63439758D01*
X262803563Y-63442380D01*
X262808824Y-63445533D01*
X262813751Y-63449187D01*
X262818295Y-63453306D01*
X262822414Y-63457850D01*
X262826068Y-63462777D01*
X262829221Y-63468038D01*
X262831843Y-63473582D01*
X262833910Y-63479357D01*
X262835400Y-63485307D01*
X262836300Y-63491374D01*
X262836601Y-63497500D01*
X262836601Y-64247500D01*
X262836300Y-64253626D01*
X262835400Y-64259693D01*
X262833910Y-64265643D01*
X262831843Y-64271418D01*
X262829221Y-64276962D01*
X262826068Y-64282223D01*
X262822414Y-64287150D01*
X262818295Y-64291694D01*
X262813751Y-64295813D01*
X262808824Y-64299467D01*
X262803563Y-64302620D01*
X262798019Y-64305242D01*
X262792244Y-64307309D01*
X262786294Y-64308799D01*
X262780227Y-64309699D01*
X262774101Y-64310000D01*
X262649101Y-64310000D01*
X262642975Y-64309699D01*
X262636908Y-64308799D01*
X262630958Y-64307309D01*
X262625183Y-64305242D01*
X262619639Y-64302620D01*
X262614378Y-64299467D01*
X262609451Y-64295813D01*
X262604907Y-64291694D01*
X262600788Y-64287150D01*
X262597134Y-64282223D01*
X262593981Y-64276962D01*
X262591359Y-64271418D01*
X262589292Y-64265643D01*
X262587802Y-64259693D01*
X262586902Y-64253626D01*
X262586601Y-64247500D01*
X262586601Y-63497500D01*
X262586902Y-63491374D01*
X262587802Y-63485307D01*
X262589292Y-63479357D01*
X262591359Y-63473582D01*
X262593981Y-63468038D01*
X262597134Y-63462777D01*
X262600788Y-63457850D01*
X262604907Y-63453306D01*
X262609451Y-63449187D01*
X262614378Y-63445533D01*
X262619639Y-63442380D01*
X262625183Y-63439758D01*
X262630958Y-63437691D01*
X262636908Y-63436201D01*
X262642975Y-63435301D01*
X262649101Y-63435000D01*
X262774101Y-63435000D01*
X262780227Y-63435301D01*
G37*
G36*
X262280227Y-63435301D02*
G01*
X262286294Y-63436201D01*
X262292244Y-63437691D01*
X262298019Y-63439758D01*
X262303563Y-63442380D01*
X262308824Y-63445533D01*
X262313751Y-63449187D01*
X262318295Y-63453306D01*
X262322414Y-63457850D01*
X262326068Y-63462777D01*
X262329221Y-63468038D01*
X262331843Y-63473582D01*
X262333910Y-63479357D01*
X262335400Y-63485307D01*
X262336300Y-63491374D01*
X262336601Y-63497500D01*
X262336601Y-64247500D01*
X262336300Y-64253626D01*
X262335400Y-64259693D01*
X262333910Y-64265643D01*
X262331843Y-64271418D01*
X262329221Y-64276962D01*
X262326068Y-64282223D01*
X262322414Y-64287150D01*
X262318295Y-64291694D01*
X262313751Y-64295813D01*
X262308824Y-64299467D01*
X262303563Y-64302620D01*
X262298019Y-64305242D01*
X262292244Y-64307309D01*
X262286294Y-64308799D01*
X262280227Y-64309699D01*
X262274101Y-64310000D01*
X262149101Y-64310000D01*
X262142975Y-64309699D01*
X262136908Y-64308799D01*
X262130958Y-64307309D01*
X262125183Y-64305242D01*
X262119639Y-64302620D01*
X262114378Y-64299467D01*
X262109451Y-64295813D01*
X262104907Y-64291694D01*
X262100788Y-64287150D01*
X262097134Y-64282223D01*
X262093981Y-64276962D01*
X262091359Y-64271418D01*
X262089292Y-64265643D01*
X262087802Y-64259693D01*
X262086902Y-64253626D01*
X262086601Y-64247500D01*
X262086601Y-63497500D01*
X262086902Y-63491374D01*
X262087802Y-63485307D01*
X262089292Y-63479357D01*
X262091359Y-63473582D01*
X262093981Y-63468038D01*
X262097134Y-63462777D01*
X262100788Y-63457850D01*
X262104907Y-63453306D01*
X262109451Y-63449187D01*
X262114378Y-63445533D01*
X262119639Y-63442380D01*
X262125183Y-63439758D01*
X262130958Y-63437691D01*
X262136908Y-63436201D01*
X262142975Y-63435301D01*
X262149101Y-63435000D01*
X262274101Y-63435000D01*
X262280227Y-63435301D01*
G37*
G36*
X261780227Y-63435301D02*
G01*
X261786294Y-63436201D01*
X261792244Y-63437691D01*
X261798019Y-63439758D01*
X261803563Y-63442380D01*
X261808824Y-63445533D01*
X261813751Y-63449187D01*
X261818295Y-63453306D01*
X261822414Y-63457850D01*
X261826068Y-63462777D01*
X261829221Y-63468038D01*
X261831843Y-63473582D01*
X261833910Y-63479357D01*
X261835400Y-63485307D01*
X261836300Y-63491374D01*
X261836601Y-63497500D01*
X261836601Y-64247500D01*
X261836300Y-64253626D01*
X261835400Y-64259693D01*
X261833910Y-64265643D01*
X261831843Y-64271418D01*
X261829221Y-64276962D01*
X261826068Y-64282223D01*
X261822414Y-64287150D01*
X261818295Y-64291694D01*
X261813751Y-64295813D01*
X261808824Y-64299467D01*
X261803563Y-64302620D01*
X261798019Y-64305242D01*
X261792244Y-64307309D01*
X261786294Y-64308799D01*
X261780227Y-64309699D01*
X261774101Y-64310000D01*
X261649101Y-64310000D01*
X261642975Y-64309699D01*
X261636908Y-64308799D01*
X261630958Y-64307309D01*
X261625183Y-64305242D01*
X261619639Y-64302620D01*
X261614378Y-64299467D01*
X261609451Y-64295813D01*
X261604907Y-64291694D01*
X261600788Y-64287150D01*
X261597134Y-64282223D01*
X261593981Y-64276962D01*
X261591359Y-64271418D01*
X261589292Y-64265643D01*
X261587802Y-64259693D01*
X261586902Y-64253626D01*
X261586601Y-64247500D01*
X261586601Y-63497500D01*
X261586902Y-63491374D01*
X261587802Y-63485307D01*
X261589292Y-63479357D01*
X261591359Y-63473582D01*
X261593981Y-63468038D01*
X261597134Y-63462777D01*
X261600788Y-63457850D01*
X261604907Y-63453306D01*
X261609451Y-63449187D01*
X261614378Y-63445533D01*
X261619639Y-63442380D01*
X261625183Y-63439758D01*
X261630958Y-63437691D01*
X261636908Y-63436201D01*
X261642975Y-63435301D01*
X261649101Y-63435000D01*
X261774101Y-63435000D01*
X261780227Y-63435301D01*
G37*
G36*
X261280227Y-63435301D02*
G01*
X261286294Y-63436201D01*
X261292244Y-63437691D01*
X261298019Y-63439758D01*
X261303563Y-63442380D01*
X261308824Y-63445533D01*
X261313751Y-63449187D01*
X261318295Y-63453306D01*
X261322414Y-63457850D01*
X261326068Y-63462777D01*
X261329221Y-63468038D01*
X261331843Y-63473582D01*
X261333910Y-63479357D01*
X261335400Y-63485307D01*
X261336300Y-63491374D01*
X261336601Y-63497500D01*
X261336601Y-64247500D01*
X261336300Y-64253626D01*
X261335400Y-64259693D01*
X261333910Y-64265643D01*
X261331843Y-64271418D01*
X261329221Y-64276962D01*
X261326068Y-64282223D01*
X261322414Y-64287150D01*
X261318295Y-64291694D01*
X261313751Y-64295813D01*
X261308824Y-64299467D01*
X261303563Y-64302620D01*
X261298019Y-64305242D01*
X261292244Y-64307309D01*
X261286294Y-64308799D01*
X261280227Y-64309699D01*
X261274101Y-64310000D01*
X261149101Y-64310000D01*
X261142975Y-64309699D01*
X261136908Y-64308799D01*
X261130958Y-64307309D01*
X261125183Y-64305242D01*
X261119639Y-64302620D01*
X261114378Y-64299467D01*
X261109451Y-64295813D01*
X261104907Y-64291694D01*
X261100788Y-64287150D01*
X261097134Y-64282223D01*
X261093981Y-64276962D01*
X261091359Y-64271418D01*
X261089292Y-64265643D01*
X261087802Y-64259693D01*
X261086902Y-64253626D01*
X261086601Y-64247500D01*
X261086601Y-63497500D01*
X261086902Y-63491374D01*
X261087802Y-63485307D01*
X261089292Y-63479357D01*
X261091359Y-63473582D01*
X261093981Y-63468038D01*
X261097134Y-63462777D01*
X261100788Y-63457850D01*
X261104907Y-63453306D01*
X261109451Y-63449187D01*
X261114378Y-63445533D01*
X261119639Y-63442380D01*
X261125183Y-63439758D01*
X261130958Y-63437691D01*
X261136908Y-63436201D01*
X261142975Y-63435301D01*
X261149101Y-63435000D01*
X261274101Y-63435000D01*
X261280227Y-63435301D01*
G37*
G36*
X260905227Y-64435301D02*
G01*
X260911294Y-64436201D01*
X260917244Y-64437691D01*
X260923019Y-64439758D01*
X260928563Y-64442380D01*
X260933824Y-64445533D01*
X260938751Y-64449187D01*
X260943295Y-64453306D01*
X260947414Y-64457850D01*
X260951068Y-64462777D01*
X260954221Y-64468038D01*
X260956843Y-64473582D01*
X260958910Y-64479357D01*
X260960400Y-64485307D01*
X260961300Y-64491374D01*
X260961601Y-64497500D01*
X260961601Y-64622500D01*
X260961300Y-64628626D01*
X260960400Y-64634693D01*
X260958910Y-64640643D01*
X260956843Y-64646418D01*
X260954221Y-64651962D01*
X260951068Y-64657223D01*
X260947414Y-64662150D01*
X260943295Y-64666694D01*
X260938751Y-64670813D01*
X260933824Y-64674467D01*
X260928563Y-64677620D01*
X260923019Y-64680242D01*
X260917244Y-64682309D01*
X260911294Y-64683799D01*
X260905227Y-64684699D01*
X260899101Y-64685000D01*
X260149101Y-64685000D01*
X260142975Y-64684699D01*
X260136908Y-64683799D01*
X260130958Y-64682309D01*
X260125183Y-64680242D01*
X260119639Y-64677620D01*
X260114378Y-64674467D01*
X260109451Y-64670813D01*
X260104907Y-64666694D01*
X260100788Y-64662150D01*
X260097134Y-64657223D01*
X260093981Y-64651962D01*
X260091359Y-64646418D01*
X260089292Y-64640643D01*
X260087802Y-64634693D01*
X260086902Y-64628626D01*
X260086601Y-64622500D01*
X260086601Y-64497500D01*
X260086902Y-64491374D01*
X260087802Y-64485307D01*
X260089292Y-64479357D01*
X260091359Y-64473582D01*
X260093981Y-64468038D01*
X260097134Y-64462777D01*
X260100788Y-64457850D01*
X260104907Y-64453306D01*
X260109451Y-64449187D01*
X260114378Y-64445533D01*
X260119639Y-64442380D01*
X260125183Y-64439758D01*
X260130958Y-64437691D01*
X260136908Y-64436201D01*
X260142975Y-64435301D01*
X260149101Y-64435000D01*
X260899101Y-64435000D01*
X260905227Y-64435301D01*
G37*
G36*
X260905227Y-64935301D02*
G01*
X260911294Y-64936201D01*
X260917244Y-64937691D01*
X260923019Y-64939758D01*
X260928563Y-64942380D01*
X260933824Y-64945533D01*
X260938751Y-64949187D01*
X260943295Y-64953306D01*
X260947414Y-64957850D01*
X260951068Y-64962777D01*
X260954221Y-64968038D01*
X260956843Y-64973582D01*
X260958910Y-64979357D01*
X260960400Y-64985307D01*
X260961300Y-64991374D01*
X260961601Y-64997500D01*
X260961601Y-65122500D01*
X260961300Y-65128626D01*
X260960400Y-65134693D01*
X260958910Y-65140643D01*
X260956843Y-65146418D01*
X260954221Y-65151962D01*
X260951068Y-65157223D01*
X260947414Y-65162150D01*
X260943295Y-65166694D01*
X260938751Y-65170813D01*
X260933824Y-65174467D01*
X260928563Y-65177620D01*
X260923019Y-65180242D01*
X260917244Y-65182309D01*
X260911294Y-65183799D01*
X260905227Y-65184699D01*
X260899101Y-65185000D01*
X260149101Y-65185000D01*
X260142975Y-65184699D01*
X260136908Y-65183799D01*
X260130958Y-65182309D01*
X260125183Y-65180242D01*
X260119639Y-65177620D01*
X260114378Y-65174467D01*
X260109451Y-65170813D01*
X260104907Y-65166694D01*
X260100788Y-65162150D01*
X260097134Y-65157223D01*
X260093981Y-65151962D01*
X260091359Y-65146418D01*
X260089292Y-65140643D01*
X260087802Y-65134693D01*
X260086902Y-65128626D01*
X260086601Y-65122500D01*
X260086601Y-64997500D01*
X260086902Y-64991374D01*
X260087802Y-64985307D01*
X260089292Y-64979357D01*
X260091359Y-64973582D01*
X260093981Y-64968038D01*
X260097134Y-64962777D01*
X260100788Y-64957850D01*
X260104907Y-64953306D01*
X260109451Y-64949187D01*
X260114378Y-64945533D01*
X260119639Y-64942380D01*
X260125183Y-64939758D01*
X260130958Y-64937691D01*
X260136908Y-64936201D01*
X260142975Y-64935301D01*
X260149101Y-64935000D01*
X260899101Y-64935000D01*
X260905227Y-64935301D01*
G37*
G36*
X260905227Y-65435301D02*
G01*
X260911294Y-65436201D01*
X260917244Y-65437691D01*
X260923019Y-65439758D01*
X260928563Y-65442380D01*
X260933824Y-65445533D01*
X260938751Y-65449187D01*
X260943295Y-65453306D01*
X260947414Y-65457850D01*
X260951068Y-65462777D01*
X260954221Y-65468038D01*
X260956843Y-65473582D01*
X260958910Y-65479357D01*
X260960400Y-65485307D01*
X260961300Y-65491374D01*
X260961601Y-65497500D01*
X260961601Y-65622500D01*
X260961300Y-65628626D01*
X260960400Y-65634693D01*
X260958910Y-65640643D01*
X260956843Y-65646418D01*
X260954221Y-65651962D01*
X260951068Y-65657223D01*
X260947414Y-65662150D01*
X260943295Y-65666694D01*
X260938751Y-65670813D01*
X260933824Y-65674467D01*
X260928563Y-65677620D01*
X260923019Y-65680242D01*
X260917244Y-65682309D01*
X260911294Y-65683799D01*
X260905227Y-65684699D01*
X260899101Y-65685000D01*
X260149101Y-65685000D01*
X260142975Y-65684699D01*
X260136908Y-65683799D01*
X260130958Y-65682309D01*
X260125183Y-65680242D01*
X260119639Y-65677620D01*
X260114378Y-65674467D01*
X260109451Y-65670813D01*
X260104907Y-65666694D01*
X260100788Y-65662150D01*
X260097134Y-65657223D01*
X260093981Y-65651962D01*
X260091359Y-65646418D01*
X260089292Y-65640643D01*
X260087802Y-65634693D01*
X260086902Y-65628626D01*
X260086601Y-65622500D01*
X260086601Y-65497500D01*
X260086902Y-65491374D01*
X260087802Y-65485307D01*
X260089292Y-65479357D01*
X260091359Y-65473582D01*
X260093981Y-65468038D01*
X260097134Y-65462777D01*
X260100788Y-65457850D01*
X260104907Y-65453306D01*
X260109451Y-65449187D01*
X260114378Y-65445533D01*
X260119639Y-65442380D01*
X260125183Y-65439758D01*
X260130958Y-65437691D01*
X260136908Y-65436201D01*
X260142975Y-65435301D01*
X260149101Y-65435000D01*
X260899101Y-65435000D01*
X260905227Y-65435301D01*
G37*
G36*
X260905227Y-65935301D02*
G01*
X260911294Y-65936201D01*
X260917244Y-65937691D01*
X260923019Y-65939758D01*
X260928563Y-65942380D01*
X260933824Y-65945533D01*
X260938751Y-65949187D01*
X260943295Y-65953306D01*
X260947414Y-65957850D01*
X260951068Y-65962777D01*
X260954221Y-65968038D01*
X260956843Y-65973582D01*
X260958910Y-65979357D01*
X260960400Y-65985307D01*
X260961300Y-65991374D01*
X260961601Y-65997500D01*
X260961601Y-66122500D01*
X260961300Y-66128626D01*
X260960400Y-66134693D01*
X260958910Y-66140643D01*
X260956843Y-66146418D01*
X260954221Y-66151962D01*
X260951068Y-66157223D01*
X260947414Y-66162150D01*
X260943295Y-66166694D01*
X260938751Y-66170813D01*
X260933824Y-66174467D01*
X260928563Y-66177620D01*
X260923019Y-66180242D01*
X260917244Y-66182309D01*
X260911294Y-66183799D01*
X260905227Y-66184699D01*
X260899101Y-66185000D01*
X260149101Y-66185000D01*
X260142975Y-66184699D01*
X260136908Y-66183799D01*
X260130958Y-66182309D01*
X260125183Y-66180242D01*
X260119639Y-66177620D01*
X260114378Y-66174467D01*
X260109451Y-66170813D01*
X260104907Y-66166694D01*
X260100788Y-66162150D01*
X260097134Y-66157223D01*
X260093981Y-66151962D01*
X260091359Y-66146418D01*
X260089292Y-66140643D01*
X260087802Y-66134693D01*
X260086902Y-66128626D01*
X260086601Y-66122500D01*
X260086601Y-65997500D01*
X260086902Y-65991374D01*
X260087802Y-65985307D01*
X260089292Y-65979357D01*
X260091359Y-65973582D01*
X260093981Y-65968038D01*
X260097134Y-65962777D01*
X260100788Y-65957850D01*
X260104907Y-65953306D01*
X260109451Y-65949187D01*
X260114378Y-65945533D01*
X260119639Y-65942380D01*
X260125183Y-65939758D01*
X260130958Y-65937691D01*
X260136908Y-65936201D01*
X260142975Y-65935301D01*
X260149101Y-65935000D01*
X260899101Y-65935000D01*
X260905227Y-65935301D01*
G37*
G36*
X260905227Y-66435301D02*
G01*
X260911294Y-66436201D01*
X260917244Y-66437691D01*
X260923019Y-66439758D01*
X260928563Y-66442380D01*
X260933824Y-66445533D01*
X260938751Y-66449187D01*
X260943295Y-66453306D01*
X260947414Y-66457850D01*
X260951068Y-66462777D01*
X260954221Y-66468038D01*
X260956843Y-66473582D01*
X260958910Y-66479357D01*
X260960400Y-66485307D01*
X260961300Y-66491374D01*
X260961601Y-66497500D01*
X260961601Y-66622500D01*
X260961300Y-66628626D01*
X260960400Y-66634693D01*
X260958910Y-66640643D01*
X260956843Y-66646418D01*
X260954221Y-66651962D01*
X260951068Y-66657223D01*
X260947414Y-66662150D01*
X260943295Y-66666694D01*
X260938751Y-66670813D01*
X260933824Y-66674467D01*
X260928563Y-66677620D01*
X260923019Y-66680242D01*
X260917244Y-66682309D01*
X260911294Y-66683799D01*
X260905227Y-66684699D01*
X260899101Y-66685000D01*
X260149101Y-66685000D01*
X260142975Y-66684699D01*
X260136908Y-66683799D01*
X260130958Y-66682309D01*
X260125183Y-66680242D01*
X260119639Y-66677620D01*
X260114378Y-66674467D01*
X260109451Y-66670813D01*
X260104907Y-66666694D01*
X260100788Y-66662150D01*
X260097134Y-66657223D01*
X260093981Y-66651962D01*
X260091359Y-66646418D01*
X260089292Y-66640643D01*
X260087802Y-66634693D01*
X260086902Y-66628626D01*
X260086601Y-66622500D01*
X260086601Y-66497500D01*
X260086902Y-66491374D01*
X260087802Y-66485307D01*
X260089292Y-66479357D01*
X260091359Y-66473582D01*
X260093981Y-66468038D01*
X260097134Y-66462777D01*
X260100788Y-66457850D01*
X260104907Y-66453306D01*
X260109451Y-66449187D01*
X260114378Y-66445533D01*
X260119639Y-66442380D01*
X260125183Y-66439758D01*
X260130958Y-66437691D01*
X260136908Y-66436201D01*
X260142975Y-66435301D01*
X260149101Y-66435000D01*
X260899101Y-66435000D01*
X260905227Y-66435301D01*
G37*
G36*
X260905227Y-66935301D02*
G01*
X260911294Y-66936201D01*
X260917244Y-66937691D01*
X260923019Y-66939758D01*
X260928563Y-66942380D01*
X260933824Y-66945533D01*
X260938751Y-66949187D01*
X260943295Y-66953306D01*
X260947414Y-66957850D01*
X260951068Y-66962777D01*
X260954221Y-66968038D01*
X260956843Y-66973582D01*
X260958910Y-66979357D01*
X260960400Y-66985307D01*
X260961300Y-66991374D01*
X260961601Y-66997500D01*
X260961601Y-67122500D01*
X260961300Y-67128626D01*
X260960400Y-67134693D01*
X260958910Y-67140643D01*
X260956843Y-67146418D01*
X260954221Y-67151962D01*
X260951068Y-67157223D01*
X260947414Y-67162150D01*
X260943295Y-67166694D01*
X260938751Y-67170813D01*
X260933824Y-67174467D01*
X260928563Y-67177620D01*
X260923019Y-67180242D01*
X260917244Y-67182309D01*
X260911294Y-67183799D01*
X260905227Y-67184699D01*
X260899101Y-67185000D01*
X260149101Y-67185000D01*
X260142975Y-67184699D01*
X260136908Y-67183799D01*
X260130958Y-67182309D01*
X260125183Y-67180242D01*
X260119639Y-67177620D01*
X260114378Y-67174467D01*
X260109451Y-67170813D01*
X260104907Y-67166694D01*
X260100788Y-67162150D01*
X260097134Y-67157223D01*
X260093981Y-67151962D01*
X260091359Y-67146418D01*
X260089292Y-67140643D01*
X260087802Y-67134693D01*
X260086902Y-67128626D01*
X260086601Y-67122500D01*
X260086601Y-66997500D01*
X260086902Y-66991374D01*
X260087802Y-66985307D01*
X260089292Y-66979357D01*
X260091359Y-66973582D01*
X260093981Y-66968038D01*
X260097134Y-66962777D01*
X260100788Y-66957850D01*
X260104907Y-66953306D01*
X260109451Y-66949187D01*
X260114378Y-66945533D01*
X260119639Y-66942380D01*
X260125183Y-66939758D01*
X260130958Y-66937691D01*
X260136908Y-66936201D01*
X260142975Y-66935301D01*
X260149101Y-66935000D01*
X260899101Y-66935000D01*
X260905227Y-66935301D01*
G37*
G36*
X260905227Y-67435301D02*
G01*
X260911294Y-67436201D01*
X260917244Y-67437691D01*
X260923019Y-67439758D01*
X260928563Y-67442380D01*
X260933824Y-67445533D01*
X260938751Y-67449187D01*
X260943295Y-67453306D01*
X260947414Y-67457850D01*
X260951068Y-67462777D01*
X260954221Y-67468038D01*
X260956843Y-67473582D01*
X260958910Y-67479357D01*
X260960400Y-67485307D01*
X260961300Y-67491374D01*
X260961601Y-67497500D01*
X260961601Y-67622500D01*
X260961300Y-67628626D01*
X260960400Y-67634693D01*
X260958910Y-67640643D01*
X260956843Y-67646418D01*
X260954221Y-67651962D01*
X260951068Y-67657223D01*
X260947414Y-67662150D01*
X260943295Y-67666694D01*
X260938751Y-67670813D01*
X260933824Y-67674467D01*
X260928563Y-67677620D01*
X260923019Y-67680242D01*
X260917244Y-67682309D01*
X260911294Y-67683799D01*
X260905227Y-67684699D01*
X260899101Y-67685000D01*
X260149101Y-67685000D01*
X260142975Y-67684699D01*
X260136908Y-67683799D01*
X260130958Y-67682309D01*
X260125183Y-67680242D01*
X260119639Y-67677620D01*
X260114378Y-67674467D01*
X260109451Y-67670813D01*
X260104907Y-67666694D01*
X260100788Y-67662150D01*
X260097134Y-67657223D01*
X260093981Y-67651962D01*
X260091359Y-67646418D01*
X260089292Y-67640643D01*
X260087802Y-67634693D01*
X260086902Y-67628626D01*
X260086601Y-67622500D01*
X260086601Y-67497500D01*
X260086902Y-67491374D01*
X260087802Y-67485307D01*
X260089292Y-67479357D01*
X260091359Y-67473582D01*
X260093981Y-67468038D01*
X260097134Y-67462777D01*
X260100788Y-67457850D01*
X260104907Y-67453306D01*
X260109451Y-67449187D01*
X260114378Y-67445533D01*
X260119639Y-67442380D01*
X260125183Y-67439758D01*
X260130958Y-67437691D01*
X260136908Y-67436201D01*
X260142975Y-67435301D01*
X260149101Y-67435000D01*
X260899101Y-67435000D01*
X260905227Y-67435301D01*
G37*
G36*
X260905227Y-67935301D02*
G01*
X260911294Y-67936201D01*
X260917244Y-67937691D01*
X260923019Y-67939758D01*
X260928563Y-67942380D01*
X260933824Y-67945533D01*
X260938751Y-67949187D01*
X260943295Y-67953306D01*
X260947414Y-67957850D01*
X260951068Y-67962777D01*
X260954221Y-67968038D01*
X260956843Y-67973582D01*
X260958910Y-67979357D01*
X260960400Y-67985307D01*
X260961300Y-67991374D01*
X260961601Y-67997500D01*
X260961601Y-68122500D01*
X260961300Y-68128626D01*
X260960400Y-68134693D01*
X260958910Y-68140643D01*
X260956843Y-68146418D01*
X260954221Y-68151962D01*
X260951068Y-68157223D01*
X260947414Y-68162150D01*
X260943295Y-68166694D01*
X260938751Y-68170813D01*
X260933824Y-68174467D01*
X260928563Y-68177620D01*
X260923019Y-68180242D01*
X260917244Y-68182309D01*
X260911294Y-68183799D01*
X260905227Y-68184699D01*
X260899101Y-68185000D01*
X260149101Y-68185000D01*
X260142975Y-68184699D01*
X260136908Y-68183799D01*
X260130958Y-68182309D01*
X260125183Y-68180242D01*
X260119639Y-68177620D01*
X260114378Y-68174467D01*
X260109451Y-68170813D01*
X260104907Y-68166694D01*
X260100788Y-68162150D01*
X260097134Y-68157223D01*
X260093981Y-68151962D01*
X260091359Y-68146418D01*
X260089292Y-68140643D01*
X260087802Y-68134693D01*
X260086902Y-68128626D01*
X260086601Y-68122500D01*
X260086601Y-67997500D01*
X260086902Y-67991374D01*
X260087802Y-67985307D01*
X260089292Y-67979357D01*
X260091359Y-67973582D01*
X260093981Y-67968038D01*
X260097134Y-67962777D01*
X260100788Y-67957850D01*
X260104907Y-67953306D01*
X260109451Y-67949187D01*
X260114378Y-67945533D01*
X260119639Y-67942380D01*
X260125183Y-67939758D01*
X260130958Y-67937691D01*
X260136908Y-67936201D01*
X260142975Y-67935301D01*
X260149101Y-67935000D01*
X260899101Y-67935000D01*
X260905227Y-67935301D01*
G37*
G36*
X261280227Y-68310301D02*
G01*
X261286294Y-68311201D01*
X261292244Y-68312691D01*
X261298019Y-68314758D01*
X261303563Y-68317380D01*
X261308824Y-68320533D01*
X261313751Y-68324187D01*
X261318295Y-68328306D01*
X261322414Y-68332850D01*
X261326068Y-68337777D01*
X261329221Y-68343038D01*
X261331843Y-68348582D01*
X261333910Y-68354357D01*
X261335400Y-68360307D01*
X261336300Y-68366374D01*
X261336601Y-68372500D01*
X261336601Y-69122500D01*
X261336300Y-69128626D01*
X261335400Y-69134693D01*
X261333910Y-69140643D01*
X261331843Y-69146418D01*
X261329221Y-69151962D01*
X261326068Y-69157223D01*
X261322414Y-69162150D01*
X261318295Y-69166694D01*
X261313751Y-69170813D01*
X261308824Y-69174467D01*
X261303563Y-69177620D01*
X261298019Y-69180242D01*
X261292244Y-69182309D01*
X261286294Y-69183799D01*
X261280227Y-69184699D01*
X261274101Y-69185000D01*
X261149101Y-69185000D01*
X261142975Y-69184699D01*
X261136908Y-69183799D01*
X261130958Y-69182309D01*
X261125183Y-69180242D01*
X261119639Y-69177620D01*
X261114378Y-69174467D01*
X261109451Y-69170813D01*
X261104907Y-69166694D01*
X261100788Y-69162150D01*
X261097134Y-69157223D01*
X261093981Y-69151962D01*
X261091359Y-69146418D01*
X261089292Y-69140643D01*
X261087802Y-69134693D01*
X261086902Y-69128626D01*
X261086601Y-69122500D01*
X261086601Y-68372500D01*
X261086902Y-68366374D01*
X261087802Y-68360307D01*
X261089292Y-68354357D01*
X261091359Y-68348582D01*
X261093981Y-68343038D01*
X261097134Y-68337777D01*
X261100788Y-68332850D01*
X261104907Y-68328306D01*
X261109451Y-68324187D01*
X261114378Y-68320533D01*
X261119639Y-68317380D01*
X261125183Y-68314758D01*
X261130958Y-68312691D01*
X261136908Y-68311201D01*
X261142975Y-68310301D01*
X261149101Y-68310000D01*
X261274101Y-68310000D01*
X261280227Y-68310301D01*
G37*
G36*
X261780227Y-68310301D02*
G01*
X261786294Y-68311201D01*
X261792244Y-68312691D01*
X261798019Y-68314758D01*
X261803563Y-68317380D01*
X261808824Y-68320533D01*
X261813751Y-68324187D01*
X261818295Y-68328306D01*
X261822414Y-68332850D01*
X261826068Y-68337777D01*
X261829221Y-68343038D01*
X261831843Y-68348582D01*
X261833910Y-68354357D01*
X261835400Y-68360307D01*
X261836300Y-68366374D01*
X261836601Y-68372500D01*
X261836601Y-69122500D01*
X261836300Y-69128626D01*
X261835400Y-69134693D01*
X261833910Y-69140643D01*
X261831843Y-69146418D01*
X261829221Y-69151962D01*
X261826068Y-69157223D01*
X261822414Y-69162150D01*
X261818295Y-69166694D01*
X261813751Y-69170813D01*
X261808824Y-69174467D01*
X261803563Y-69177620D01*
X261798019Y-69180242D01*
X261792244Y-69182309D01*
X261786294Y-69183799D01*
X261780227Y-69184699D01*
X261774101Y-69185000D01*
X261649101Y-69185000D01*
X261642975Y-69184699D01*
X261636908Y-69183799D01*
X261630958Y-69182309D01*
X261625183Y-69180242D01*
X261619639Y-69177620D01*
X261614378Y-69174467D01*
X261609451Y-69170813D01*
X261604907Y-69166694D01*
X261600788Y-69162150D01*
X261597134Y-69157223D01*
X261593981Y-69151962D01*
X261591359Y-69146418D01*
X261589292Y-69140643D01*
X261587802Y-69134693D01*
X261586902Y-69128626D01*
X261586601Y-69122500D01*
X261586601Y-68372500D01*
X261586902Y-68366374D01*
X261587802Y-68360307D01*
X261589292Y-68354357D01*
X261591359Y-68348582D01*
X261593981Y-68343038D01*
X261597134Y-68337777D01*
X261600788Y-68332850D01*
X261604907Y-68328306D01*
X261609451Y-68324187D01*
X261614378Y-68320533D01*
X261619639Y-68317380D01*
X261625183Y-68314758D01*
X261630958Y-68312691D01*
X261636908Y-68311201D01*
X261642975Y-68310301D01*
X261649101Y-68310000D01*
X261774101Y-68310000D01*
X261780227Y-68310301D01*
G37*
G36*
X262280227Y-68310301D02*
G01*
X262286294Y-68311201D01*
X262292244Y-68312691D01*
X262298019Y-68314758D01*
X262303563Y-68317380D01*
X262308824Y-68320533D01*
X262313751Y-68324187D01*
X262318295Y-68328306D01*
X262322414Y-68332850D01*
X262326068Y-68337777D01*
X262329221Y-68343038D01*
X262331843Y-68348582D01*
X262333910Y-68354357D01*
X262335400Y-68360307D01*
X262336300Y-68366374D01*
X262336601Y-68372500D01*
X262336601Y-69122500D01*
X262336300Y-69128626D01*
X262335400Y-69134693D01*
X262333910Y-69140643D01*
X262331843Y-69146418D01*
X262329221Y-69151962D01*
X262326068Y-69157223D01*
X262322414Y-69162150D01*
X262318295Y-69166694D01*
X262313751Y-69170813D01*
X262308824Y-69174467D01*
X262303563Y-69177620D01*
X262298019Y-69180242D01*
X262292244Y-69182309D01*
X262286294Y-69183799D01*
X262280227Y-69184699D01*
X262274101Y-69185000D01*
X262149101Y-69185000D01*
X262142975Y-69184699D01*
X262136908Y-69183799D01*
X262130958Y-69182309D01*
X262125183Y-69180242D01*
X262119639Y-69177620D01*
X262114378Y-69174467D01*
X262109451Y-69170813D01*
X262104907Y-69166694D01*
X262100788Y-69162150D01*
X262097134Y-69157223D01*
X262093981Y-69151962D01*
X262091359Y-69146418D01*
X262089292Y-69140643D01*
X262087802Y-69134693D01*
X262086902Y-69128626D01*
X262086601Y-69122500D01*
X262086601Y-68372500D01*
X262086902Y-68366374D01*
X262087802Y-68360307D01*
X262089292Y-68354357D01*
X262091359Y-68348582D01*
X262093981Y-68343038D01*
X262097134Y-68337777D01*
X262100788Y-68332850D01*
X262104907Y-68328306D01*
X262109451Y-68324187D01*
X262114378Y-68320533D01*
X262119639Y-68317380D01*
X262125183Y-68314758D01*
X262130958Y-68312691D01*
X262136908Y-68311201D01*
X262142975Y-68310301D01*
X262149101Y-68310000D01*
X262274101Y-68310000D01*
X262280227Y-68310301D01*
G37*
G36*
X262780227Y-68310301D02*
G01*
X262786294Y-68311201D01*
X262792244Y-68312691D01*
X262798019Y-68314758D01*
X262803563Y-68317380D01*
X262808824Y-68320533D01*
X262813751Y-68324187D01*
X262818295Y-68328306D01*
X262822414Y-68332850D01*
X262826068Y-68337777D01*
X262829221Y-68343038D01*
X262831843Y-68348582D01*
X262833910Y-68354357D01*
X262835400Y-68360307D01*
X262836300Y-68366374D01*
X262836601Y-68372500D01*
X262836601Y-69122500D01*
X262836300Y-69128626D01*
X262835400Y-69134693D01*
X262833910Y-69140643D01*
X262831843Y-69146418D01*
X262829221Y-69151962D01*
X262826068Y-69157223D01*
X262822414Y-69162150D01*
X262818295Y-69166694D01*
X262813751Y-69170813D01*
X262808824Y-69174467D01*
X262803563Y-69177620D01*
X262798019Y-69180242D01*
X262792244Y-69182309D01*
X262786294Y-69183799D01*
X262780227Y-69184699D01*
X262774101Y-69185000D01*
X262649101Y-69185000D01*
X262642975Y-69184699D01*
X262636908Y-69183799D01*
X262630958Y-69182309D01*
X262625183Y-69180242D01*
X262619639Y-69177620D01*
X262614378Y-69174467D01*
X262609451Y-69170813D01*
X262604907Y-69166694D01*
X262600788Y-69162150D01*
X262597134Y-69157223D01*
X262593981Y-69151962D01*
X262591359Y-69146418D01*
X262589292Y-69140643D01*
X262587802Y-69134693D01*
X262586902Y-69128626D01*
X262586601Y-69122500D01*
X262586601Y-68372500D01*
X262586902Y-68366374D01*
X262587802Y-68360307D01*
X262589292Y-68354357D01*
X262591359Y-68348582D01*
X262593981Y-68343038D01*
X262597134Y-68337777D01*
X262600788Y-68332850D01*
X262604907Y-68328306D01*
X262609451Y-68324187D01*
X262614378Y-68320533D01*
X262619639Y-68317380D01*
X262625183Y-68314758D01*
X262630958Y-68312691D01*
X262636908Y-68311201D01*
X262642975Y-68310301D01*
X262649101Y-68310000D01*
X262774101Y-68310000D01*
X262780227Y-68310301D01*
G37*
G36*
X263280227Y-68310301D02*
G01*
X263286294Y-68311201D01*
X263292244Y-68312691D01*
X263298019Y-68314758D01*
X263303563Y-68317380D01*
X263308824Y-68320533D01*
X263313751Y-68324187D01*
X263318295Y-68328306D01*
X263322414Y-68332850D01*
X263326068Y-68337777D01*
X263329221Y-68343038D01*
X263331843Y-68348582D01*
X263333910Y-68354357D01*
X263335400Y-68360307D01*
X263336300Y-68366374D01*
X263336601Y-68372500D01*
X263336601Y-69122500D01*
X263336300Y-69128626D01*
X263335400Y-69134693D01*
X263333910Y-69140643D01*
X263331843Y-69146418D01*
X263329221Y-69151962D01*
X263326068Y-69157223D01*
X263322414Y-69162150D01*
X263318295Y-69166694D01*
X263313751Y-69170813D01*
X263308824Y-69174467D01*
X263303563Y-69177620D01*
X263298019Y-69180242D01*
X263292244Y-69182309D01*
X263286294Y-69183799D01*
X263280227Y-69184699D01*
X263274101Y-69185000D01*
X263149101Y-69185000D01*
X263142975Y-69184699D01*
X263136908Y-69183799D01*
X263130958Y-69182309D01*
X263125183Y-69180242D01*
X263119639Y-69177620D01*
X263114378Y-69174467D01*
X263109451Y-69170813D01*
X263104907Y-69166694D01*
X263100788Y-69162150D01*
X263097134Y-69157223D01*
X263093981Y-69151962D01*
X263091359Y-69146418D01*
X263089292Y-69140643D01*
X263087802Y-69134693D01*
X263086902Y-69128626D01*
X263086601Y-69122500D01*
X263086601Y-68372500D01*
X263086902Y-68366374D01*
X263087802Y-68360307D01*
X263089292Y-68354357D01*
X263091359Y-68348582D01*
X263093981Y-68343038D01*
X263097134Y-68337777D01*
X263100788Y-68332850D01*
X263104907Y-68328306D01*
X263109451Y-68324187D01*
X263114378Y-68320533D01*
X263119639Y-68317380D01*
X263125183Y-68314758D01*
X263130958Y-68312691D01*
X263136908Y-68311201D01*
X263142975Y-68310301D01*
X263149101Y-68310000D01*
X263274101Y-68310000D01*
X263280227Y-68310301D01*
G37*
G36*
X263780227Y-68310301D02*
G01*
X263786294Y-68311201D01*
X263792244Y-68312691D01*
X263798019Y-68314758D01*
X263803563Y-68317380D01*
X263808824Y-68320533D01*
X263813751Y-68324187D01*
X263818295Y-68328306D01*
X263822414Y-68332850D01*
X263826068Y-68337777D01*
X263829221Y-68343038D01*
X263831843Y-68348582D01*
X263833910Y-68354357D01*
X263835400Y-68360307D01*
X263836300Y-68366374D01*
X263836601Y-68372500D01*
X263836601Y-69122500D01*
X263836300Y-69128626D01*
X263835400Y-69134693D01*
X263833910Y-69140643D01*
X263831843Y-69146418D01*
X263829221Y-69151962D01*
X263826068Y-69157223D01*
X263822414Y-69162150D01*
X263818295Y-69166694D01*
X263813751Y-69170813D01*
X263808824Y-69174467D01*
X263803563Y-69177620D01*
X263798019Y-69180242D01*
X263792244Y-69182309D01*
X263786294Y-69183799D01*
X263780227Y-69184699D01*
X263774101Y-69185000D01*
X263649101Y-69185000D01*
X263642975Y-69184699D01*
X263636908Y-69183799D01*
X263630958Y-69182309D01*
X263625183Y-69180242D01*
X263619639Y-69177620D01*
X263614378Y-69174467D01*
X263609451Y-69170813D01*
X263604907Y-69166694D01*
X263600788Y-69162150D01*
X263597134Y-69157223D01*
X263593981Y-69151962D01*
X263591359Y-69146418D01*
X263589292Y-69140643D01*
X263587802Y-69134693D01*
X263586902Y-69128626D01*
X263586601Y-69122500D01*
X263586601Y-68372500D01*
X263586902Y-68366374D01*
X263587802Y-68360307D01*
X263589292Y-68354357D01*
X263591359Y-68348582D01*
X263593981Y-68343038D01*
X263597134Y-68337777D01*
X263600788Y-68332850D01*
X263604907Y-68328306D01*
X263609451Y-68324187D01*
X263614378Y-68320533D01*
X263619639Y-68317380D01*
X263625183Y-68314758D01*
X263630958Y-68312691D01*
X263636908Y-68311201D01*
X263642975Y-68310301D01*
X263649101Y-68310000D01*
X263774101Y-68310000D01*
X263780227Y-68310301D01*
G37*
G36*
X264280227Y-68310301D02*
G01*
X264286294Y-68311201D01*
X264292244Y-68312691D01*
X264298019Y-68314758D01*
X264303563Y-68317380D01*
X264308824Y-68320533D01*
X264313751Y-68324187D01*
X264318295Y-68328306D01*
X264322414Y-68332850D01*
X264326068Y-68337777D01*
X264329221Y-68343038D01*
X264331843Y-68348582D01*
X264333910Y-68354357D01*
X264335400Y-68360307D01*
X264336300Y-68366374D01*
X264336601Y-68372500D01*
X264336601Y-69122500D01*
X264336300Y-69128626D01*
X264335400Y-69134693D01*
X264333910Y-69140643D01*
X264331843Y-69146418D01*
X264329221Y-69151962D01*
X264326068Y-69157223D01*
X264322414Y-69162150D01*
X264318295Y-69166694D01*
X264313751Y-69170813D01*
X264308824Y-69174467D01*
X264303563Y-69177620D01*
X264298019Y-69180242D01*
X264292244Y-69182309D01*
X264286294Y-69183799D01*
X264280227Y-69184699D01*
X264274101Y-69185000D01*
X264149101Y-69185000D01*
X264142975Y-69184699D01*
X264136908Y-69183799D01*
X264130958Y-69182309D01*
X264125183Y-69180242D01*
X264119639Y-69177620D01*
X264114378Y-69174467D01*
X264109451Y-69170813D01*
X264104907Y-69166694D01*
X264100788Y-69162150D01*
X264097134Y-69157223D01*
X264093981Y-69151962D01*
X264091359Y-69146418D01*
X264089292Y-69140643D01*
X264087802Y-69134693D01*
X264086902Y-69128626D01*
X264086601Y-69122500D01*
X264086601Y-68372500D01*
X264086902Y-68366374D01*
X264087802Y-68360307D01*
X264089292Y-68354357D01*
X264091359Y-68348582D01*
X264093981Y-68343038D01*
X264097134Y-68337777D01*
X264100788Y-68332850D01*
X264104907Y-68328306D01*
X264109451Y-68324187D01*
X264114378Y-68320533D01*
X264119639Y-68317380D01*
X264125183Y-68314758D01*
X264130958Y-68312691D01*
X264136908Y-68311201D01*
X264142975Y-68310301D01*
X264149101Y-68310000D01*
X264274101Y-68310000D01*
X264280227Y-68310301D01*
G37*
G36*
X264780227Y-68310301D02*
G01*
X264786294Y-68311201D01*
X264792244Y-68312691D01*
X264798019Y-68314758D01*
X264803563Y-68317380D01*
X264808824Y-68320533D01*
X264813751Y-68324187D01*
X264818295Y-68328306D01*
X264822414Y-68332850D01*
X264826068Y-68337777D01*
X264829221Y-68343038D01*
X264831843Y-68348582D01*
X264833910Y-68354357D01*
X264835400Y-68360307D01*
X264836300Y-68366374D01*
X264836601Y-68372500D01*
X264836601Y-69122500D01*
X264836300Y-69128626D01*
X264835400Y-69134693D01*
X264833910Y-69140643D01*
X264831843Y-69146418D01*
X264829221Y-69151962D01*
X264826068Y-69157223D01*
X264822414Y-69162150D01*
X264818295Y-69166694D01*
X264813751Y-69170813D01*
X264808824Y-69174467D01*
X264803563Y-69177620D01*
X264798019Y-69180242D01*
X264792244Y-69182309D01*
X264786294Y-69183799D01*
X264780227Y-69184699D01*
X264774101Y-69185000D01*
X264649101Y-69185000D01*
X264642975Y-69184699D01*
X264636908Y-69183799D01*
X264630958Y-69182309D01*
X264625183Y-69180242D01*
X264619639Y-69177620D01*
X264614378Y-69174467D01*
X264609451Y-69170813D01*
X264604907Y-69166694D01*
X264600788Y-69162150D01*
X264597134Y-69157223D01*
X264593981Y-69151962D01*
X264591359Y-69146418D01*
X264589292Y-69140643D01*
X264587802Y-69134693D01*
X264586902Y-69128626D01*
X264586601Y-69122500D01*
X264586601Y-68372500D01*
X264586902Y-68366374D01*
X264587802Y-68360307D01*
X264589292Y-68354357D01*
X264591359Y-68348582D01*
X264593981Y-68343038D01*
X264597134Y-68337777D01*
X264600788Y-68332850D01*
X264604907Y-68328306D01*
X264609451Y-68324187D01*
X264614378Y-68320533D01*
X264619639Y-68317380D01*
X264625183Y-68314758D01*
X264630958Y-68312691D01*
X264636908Y-68311201D01*
X264642975Y-68310301D01*
X264649101Y-68310000D01*
X264774101Y-68310000D01*
X264780227Y-68310301D01*
G37*
G36*
X265780227Y-67935301D02*
G01*
X265786294Y-67936201D01*
X265792244Y-67937691D01*
X265798019Y-67939758D01*
X265803563Y-67942380D01*
X265808824Y-67945533D01*
X265813751Y-67949187D01*
X265818295Y-67953306D01*
X265822414Y-67957850D01*
X265826068Y-67962777D01*
X265829221Y-67968038D01*
X265831843Y-67973582D01*
X265833910Y-67979357D01*
X265835400Y-67985307D01*
X265836300Y-67991374D01*
X265836601Y-67997500D01*
X265836601Y-68122500D01*
X265836300Y-68128626D01*
X265835400Y-68134693D01*
X265833910Y-68140643D01*
X265831843Y-68146418D01*
X265829221Y-68151962D01*
X265826068Y-68157223D01*
X265822414Y-68162150D01*
X265818295Y-68166694D01*
X265813751Y-68170813D01*
X265808824Y-68174467D01*
X265803563Y-68177620D01*
X265798019Y-68180242D01*
X265792244Y-68182309D01*
X265786294Y-68183799D01*
X265780227Y-68184699D01*
X265774101Y-68185000D01*
X265024101Y-68185000D01*
X265017975Y-68184699D01*
X265011908Y-68183799D01*
X265005958Y-68182309D01*
X265000183Y-68180242D01*
X264994639Y-68177620D01*
X264989378Y-68174467D01*
X264984451Y-68170813D01*
X264979907Y-68166694D01*
X264975788Y-68162150D01*
X264972134Y-68157223D01*
X264968981Y-68151962D01*
X264966359Y-68146418D01*
X264964292Y-68140643D01*
X264962802Y-68134693D01*
X264961902Y-68128626D01*
X264961601Y-68122500D01*
X264961601Y-67997500D01*
X264961902Y-67991374D01*
X264962802Y-67985307D01*
X264964292Y-67979357D01*
X264966359Y-67973582D01*
X264968981Y-67968038D01*
X264972134Y-67962777D01*
X264975788Y-67957850D01*
X264979907Y-67953306D01*
X264984451Y-67949187D01*
X264989378Y-67945533D01*
X264994639Y-67942380D01*
X265000183Y-67939758D01*
X265005958Y-67937691D01*
X265011908Y-67936201D01*
X265017975Y-67935301D01*
X265024101Y-67935000D01*
X265774101Y-67935000D01*
X265780227Y-67935301D01*
G37*
G36*
X265780227Y-67435301D02*
G01*
X265786294Y-67436201D01*
X265792244Y-67437691D01*
X265798019Y-67439758D01*
X265803563Y-67442380D01*
X265808824Y-67445533D01*
X265813751Y-67449187D01*
X265818295Y-67453306D01*
X265822414Y-67457850D01*
X265826068Y-67462777D01*
X265829221Y-67468038D01*
X265831843Y-67473582D01*
X265833910Y-67479357D01*
X265835400Y-67485307D01*
X265836300Y-67491374D01*
X265836601Y-67497500D01*
X265836601Y-67622500D01*
X265836300Y-67628626D01*
X265835400Y-67634693D01*
X265833910Y-67640643D01*
X265831843Y-67646418D01*
X265829221Y-67651962D01*
X265826068Y-67657223D01*
X265822414Y-67662150D01*
X265818295Y-67666694D01*
X265813751Y-67670813D01*
X265808824Y-67674467D01*
X265803563Y-67677620D01*
X265798019Y-67680242D01*
X265792244Y-67682309D01*
X265786294Y-67683799D01*
X265780227Y-67684699D01*
X265774101Y-67685000D01*
X265024101Y-67685000D01*
X265017975Y-67684699D01*
X265011908Y-67683799D01*
X265005958Y-67682309D01*
X265000183Y-67680242D01*
X264994639Y-67677620D01*
X264989378Y-67674467D01*
X264984451Y-67670813D01*
X264979907Y-67666694D01*
X264975788Y-67662150D01*
X264972134Y-67657223D01*
X264968981Y-67651962D01*
X264966359Y-67646418D01*
X264964292Y-67640643D01*
X264962802Y-67634693D01*
X264961902Y-67628626D01*
X264961601Y-67622500D01*
X264961601Y-67497500D01*
X264961902Y-67491374D01*
X264962802Y-67485307D01*
X264964292Y-67479357D01*
X264966359Y-67473582D01*
X264968981Y-67468038D01*
X264972134Y-67462777D01*
X264975788Y-67457850D01*
X264979907Y-67453306D01*
X264984451Y-67449187D01*
X264989378Y-67445533D01*
X264994639Y-67442380D01*
X265000183Y-67439758D01*
X265005958Y-67437691D01*
X265011908Y-67436201D01*
X265017975Y-67435301D01*
X265024101Y-67435000D01*
X265774101Y-67435000D01*
X265780227Y-67435301D01*
G37*
G36*
X265780227Y-66935301D02*
G01*
X265786294Y-66936201D01*
X265792244Y-66937691D01*
X265798019Y-66939758D01*
X265803563Y-66942380D01*
X265808824Y-66945533D01*
X265813751Y-66949187D01*
X265818295Y-66953306D01*
X265822414Y-66957850D01*
X265826068Y-66962777D01*
X265829221Y-66968038D01*
X265831843Y-66973582D01*
X265833910Y-66979357D01*
X265835400Y-66985307D01*
X265836300Y-66991374D01*
X265836601Y-66997500D01*
X265836601Y-67122500D01*
X265836300Y-67128626D01*
X265835400Y-67134693D01*
X265833910Y-67140643D01*
X265831843Y-67146418D01*
X265829221Y-67151962D01*
X265826068Y-67157223D01*
X265822414Y-67162150D01*
X265818295Y-67166694D01*
X265813751Y-67170813D01*
X265808824Y-67174467D01*
X265803563Y-67177620D01*
X265798019Y-67180242D01*
X265792244Y-67182309D01*
X265786294Y-67183799D01*
X265780227Y-67184699D01*
X265774101Y-67185000D01*
X265024101Y-67185000D01*
X265017975Y-67184699D01*
X265011908Y-67183799D01*
X265005958Y-67182309D01*
X265000183Y-67180242D01*
X264994639Y-67177620D01*
X264989378Y-67174467D01*
X264984451Y-67170813D01*
X264979907Y-67166694D01*
X264975788Y-67162150D01*
X264972134Y-67157223D01*
X264968981Y-67151962D01*
X264966359Y-67146418D01*
X264964292Y-67140643D01*
X264962802Y-67134693D01*
X264961902Y-67128626D01*
X264961601Y-67122500D01*
X264961601Y-66997500D01*
X264961902Y-66991374D01*
X264962802Y-66985307D01*
X264964292Y-66979357D01*
X264966359Y-66973582D01*
X264968981Y-66968038D01*
X264972134Y-66962777D01*
X264975788Y-66957850D01*
X264979907Y-66953306D01*
X264984451Y-66949187D01*
X264989378Y-66945533D01*
X264994639Y-66942380D01*
X265000183Y-66939758D01*
X265005958Y-66937691D01*
X265011908Y-66936201D01*
X265017975Y-66935301D01*
X265024101Y-66935000D01*
X265774101Y-66935000D01*
X265780227Y-66935301D01*
G37*
G36*
X265780227Y-66435301D02*
G01*
X265786294Y-66436201D01*
X265792244Y-66437691D01*
X265798019Y-66439758D01*
X265803563Y-66442380D01*
X265808824Y-66445533D01*
X265813751Y-66449187D01*
X265818295Y-66453306D01*
X265822414Y-66457850D01*
X265826068Y-66462777D01*
X265829221Y-66468038D01*
X265831843Y-66473582D01*
X265833910Y-66479357D01*
X265835400Y-66485307D01*
X265836300Y-66491374D01*
X265836601Y-66497500D01*
X265836601Y-66622500D01*
X265836300Y-66628626D01*
X265835400Y-66634693D01*
X265833910Y-66640643D01*
X265831843Y-66646418D01*
X265829221Y-66651962D01*
X265826068Y-66657223D01*
X265822414Y-66662150D01*
X265818295Y-66666694D01*
X265813751Y-66670813D01*
X265808824Y-66674467D01*
X265803563Y-66677620D01*
X265798019Y-66680242D01*
X265792244Y-66682309D01*
X265786294Y-66683799D01*
X265780227Y-66684699D01*
X265774101Y-66685000D01*
X265024101Y-66685000D01*
X265017975Y-66684699D01*
X265011908Y-66683799D01*
X265005958Y-66682309D01*
X265000183Y-66680242D01*
X264994639Y-66677620D01*
X264989378Y-66674467D01*
X264984451Y-66670813D01*
X264979907Y-66666694D01*
X264975788Y-66662150D01*
X264972134Y-66657223D01*
X264968981Y-66651962D01*
X264966359Y-66646418D01*
X264964292Y-66640643D01*
X264962802Y-66634693D01*
X264961902Y-66628626D01*
X264961601Y-66622500D01*
X264961601Y-66497500D01*
X264961902Y-66491374D01*
X264962802Y-66485307D01*
X264964292Y-66479357D01*
X264966359Y-66473582D01*
X264968981Y-66468038D01*
X264972134Y-66462777D01*
X264975788Y-66457850D01*
X264979907Y-66453306D01*
X264984451Y-66449187D01*
X264989378Y-66445533D01*
X264994639Y-66442380D01*
X265000183Y-66439758D01*
X265005958Y-66437691D01*
X265011908Y-66436201D01*
X265017975Y-66435301D01*
X265024101Y-66435000D01*
X265774101Y-66435000D01*
X265780227Y-66435301D01*
G37*
G36*
X265780227Y-65935301D02*
G01*
X265786294Y-65936201D01*
X265792244Y-65937691D01*
X265798019Y-65939758D01*
X265803563Y-65942380D01*
X265808824Y-65945533D01*
X265813751Y-65949187D01*
X265818295Y-65953306D01*
X265822414Y-65957850D01*
X265826068Y-65962777D01*
X265829221Y-65968038D01*
X265831843Y-65973582D01*
X265833910Y-65979357D01*
X265835400Y-65985307D01*
X265836300Y-65991374D01*
X265836601Y-65997500D01*
X265836601Y-66122500D01*
X265836300Y-66128626D01*
X265835400Y-66134693D01*
X265833910Y-66140643D01*
X265831843Y-66146418D01*
X265829221Y-66151962D01*
X265826068Y-66157223D01*
X265822414Y-66162150D01*
X265818295Y-66166694D01*
X265813751Y-66170813D01*
X265808824Y-66174467D01*
X265803563Y-66177620D01*
X265798019Y-66180242D01*
X265792244Y-66182309D01*
X265786294Y-66183799D01*
X265780227Y-66184699D01*
X265774101Y-66185000D01*
X265024101Y-66185000D01*
X265017975Y-66184699D01*
X265011908Y-66183799D01*
X265005958Y-66182309D01*
X265000183Y-66180242D01*
X264994639Y-66177620D01*
X264989378Y-66174467D01*
X264984451Y-66170813D01*
X264979907Y-66166694D01*
X264975788Y-66162150D01*
X264972134Y-66157223D01*
X264968981Y-66151962D01*
X264966359Y-66146418D01*
X264964292Y-66140643D01*
X264962802Y-66134693D01*
X264961902Y-66128626D01*
X264961601Y-66122500D01*
X264961601Y-65997500D01*
X264961902Y-65991374D01*
X264962802Y-65985307D01*
X264964292Y-65979357D01*
X264966359Y-65973582D01*
X264968981Y-65968038D01*
X264972134Y-65962777D01*
X264975788Y-65957850D01*
X264979907Y-65953306D01*
X264984451Y-65949187D01*
X264989378Y-65945533D01*
X264994639Y-65942380D01*
X265000183Y-65939758D01*
X265005958Y-65937691D01*
X265011908Y-65936201D01*
X265017975Y-65935301D01*
X265024101Y-65935000D01*
X265774101Y-65935000D01*
X265780227Y-65935301D01*
G37*
G36*
X265780227Y-65435301D02*
G01*
X265786294Y-65436201D01*
X265792244Y-65437691D01*
X265798019Y-65439758D01*
X265803563Y-65442380D01*
X265808824Y-65445533D01*
X265813751Y-65449187D01*
X265818295Y-65453306D01*
X265822414Y-65457850D01*
X265826068Y-65462777D01*
X265829221Y-65468038D01*
X265831843Y-65473582D01*
X265833910Y-65479357D01*
X265835400Y-65485307D01*
X265836300Y-65491374D01*
X265836601Y-65497500D01*
X265836601Y-65622500D01*
X265836300Y-65628626D01*
X265835400Y-65634693D01*
X265833910Y-65640643D01*
X265831843Y-65646418D01*
X265829221Y-65651962D01*
X265826068Y-65657223D01*
X265822414Y-65662150D01*
X265818295Y-65666694D01*
X265813751Y-65670813D01*
X265808824Y-65674467D01*
X265803563Y-65677620D01*
X265798019Y-65680242D01*
X265792244Y-65682309D01*
X265786294Y-65683799D01*
X265780227Y-65684699D01*
X265774101Y-65685000D01*
X265024101Y-65685000D01*
X265017975Y-65684699D01*
X265011908Y-65683799D01*
X265005958Y-65682309D01*
X265000183Y-65680242D01*
X264994639Y-65677620D01*
X264989378Y-65674467D01*
X264984451Y-65670813D01*
X264979907Y-65666694D01*
X264975788Y-65662150D01*
X264972134Y-65657223D01*
X264968981Y-65651962D01*
X264966359Y-65646418D01*
X264964292Y-65640643D01*
X264962802Y-65634693D01*
X264961902Y-65628626D01*
X264961601Y-65622500D01*
X264961601Y-65497500D01*
X264961902Y-65491374D01*
X264962802Y-65485307D01*
X264964292Y-65479357D01*
X264966359Y-65473582D01*
X264968981Y-65468038D01*
X264972134Y-65462777D01*
X264975788Y-65457850D01*
X264979907Y-65453306D01*
X264984451Y-65449187D01*
X264989378Y-65445533D01*
X264994639Y-65442380D01*
X265000183Y-65439758D01*
X265005958Y-65437691D01*
X265011908Y-65436201D01*
X265017975Y-65435301D01*
X265024101Y-65435000D01*
X265774101Y-65435000D01*
X265780227Y-65435301D01*
G37*
G36*
X265780227Y-64935301D02*
G01*
X265786294Y-64936201D01*
X265792244Y-64937691D01*
X265798019Y-64939758D01*
X265803563Y-64942380D01*
X265808824Y-64945533D01*
X265813751Y-64949187D01*
X265818295Y-64953306D01*
X265822414Y-64957850D01*
X265826068Y-64962777D01*
X265829221Y-64968038D01*
X265831843Y-64973582D01*
X265833910Y-64979357D01*
X265835400Y-64985307D01*
X265836300Y-64991374D01*
X265836601Y-64997500D01*
X265836601Y-65122500D01*
X265836300Y-65128626D01*
X265835400Y-65134693D01*
X265833910Y-65140643D01*
X265831843Y-65146418D01*
X265829221Y-65151962D01*
X265826068Y-65157223D01*
X265822414Y-65162150D01*
X265818295Y-65166694D01*
X265813751Y-65170813D01*
X265808824Y-65174467D01*
X265803563Y-65177620D01*
X265798019Y-65180242D01*
X265792244Y-65182309D01*
X265786294Y-65183799D01*
X265780227Y-65184699D01*
X265774101Y-65185000D01*
X265024101Y-65185000D01*
X265017975Y-65184699D01*
X265011908Y-65183799D01*
X265005958Y-65182309D01*
X265000183Y-65180242D01*
X264994639Y-65177620D01*
X264989378Y-65174467D01*
X264984451Y-65170813D01*
X264979907Y-65166694D01*
X264975788Y-65162150D01*
X264972134Y-65157223D01*
X264968981Y-65151962D01*
X264966359Y-65146418D01*
X264964292Y-65140643D01*
X264962802Y-65134693D01*
X264961902Y-65128626D01*
X264961601Y-65122500D01*
X264961601Y-64997500D01*
X264961902Y-64991374D01*
X264962802Y-64985307D01*
X264964292Y-64979357D01*
X264966359Y-64973582D01*
X264968981Y-64968038D01*
X264972134Y-64962777D01*
X264975788Y-64957850D01*
X264979907Y-64953306D01*
X264984451Y-64949187D01*
X264989378Y-64945533D01*
X264994639Y-64942380D01*
X265000183Y-64939758D01*
X265005958Y-64937691D01*
X265011908Y-64936201D01*
X265017975Y-64935301D01*
X265024101Y-64935000D01*
X265774101Y-64935000D01*
X265780227Y-64935301D01*
G37*
G36*
X265780227Y-64435301D02*
G01*
X265786294Y-64436201D01*
X265792244Y-64437691D01*
X265798019Y-64439758D01*
X265803563Y-64442380D01*
X265808824Y-64445533D01*
X265813751Y-64449187D01*
X265818295Y-64453306D01*
X265822414Y-64457850D01*
X265826068Y-64462777D01*
X265829221Y-64468038D01*
X265831843Y-64473582D01*
X265833910Y-64479357D01*
X265835400Y-64485307D01*
X265836300Y-64491374D01*
X265836601Y-64497500D01*
X265836601Y-64622500D01*
X265836300Y-64628626D01*
X265835400Y-64634693D01*
X265833910Y-64640643D01*
X265831843Y-64646418D01*
X265829221Y-64651962D01*
X265826068Y-64657223D01*
X265822414Y-64662150D01*
X265818295Y-64666694D01*
X265813751Y-64670813D01*
X265808824Y-64674467D01*
X265803563Y-64677620D01*
X265798019Y-64680242D01*
X265792244Y-64682309D01*
X265786294Y-64683799D01*
X265780227Y-64684699D01*
X265774101Y-64685000D01*
X265024101Y-64685000D01*
X265017975Y-64684699D01*
X265011908Y-64683799D01*
X265005958Y-64682309D01*
X265000183Y-64680242D01*
X264994639Y-64677620D01*
X264989378Y-64674467D01*
X264984451Y-64670813D01*
X264979907Y-64666694D01*
X264975788Y-64662150D01*
X264972134Y-64657223D01*
X264968981Y-64651962D01*
X264966359Y-64646418D01*
X264964292Y-64640643D01*
X264962802Y-64634693D01*
X264961902Y-64628626D01*
X264961601Y-64622500D01*
X264961601Y-64497500D01*
X264961902Y-64491374D01*
X264962802Y-64485307D01*
X264964292Y-64479357D01*
X264966359Y-64473582D01*
X264968981Y-64468038D01*
X264972134Y-64462777D01*
X264975788Y-64457850D01*
X264979907Y-64453306D01*
X264984451Y-64449187D01*
X264989378Y-64445533D01*
X264994639Y-64442380D01*
X265000183Y-64439758D01*
X265005958Y-64437691D01*
X265011908Y-64436201D01*
X265017975Y-64435301D01*
X265024101Y-64435000D01*
X265774101Y-64435000D01*
X265780227Y-64435301D01*
G37*
G36*
X262159440Y-66925999D02*
G01*
X262179582Y-66928987D01*
X262199335Y-66933935D01*
X262218508Y-66940795D01*
X262236916Y-66949501D01*
X262254382Y-66959970D01*
X262270738Y-66972100D01*
X262285826Y-66985775D01*
X262299501Y-67000863D01*
X262311631Y-67017219D01*
X262322100Y-67034685D01*
X262330806Y-67053093D01*
X262337666Y-67072266D01*
X262342614Y-67092019D01*
X262345602Y-67112161D01*
X262346601Y-67132500D01*
X262346601Y-67547500D01*
X262345602Y-67567839D01*
X262342614Y-67587981D01*
X262337666Y-67607734D01*
X262330806Y-67626907D01*
X262322100Y-67645315D01*
X262311631Y-67662781D01*
X262299501Y-67679137D01*
X262285826Y-67694225D01*
X262270738Y-67707900D01*
X262254382Y-67720030D01*
X262236916Y-67730499D01*
X262218508Y-67739205D01*
X262199335Y-67746065D01*
X262179582Y-67751013D01*
X262159440Y-67754001D01*
X262139101Y-67755000D01*
X261724101Y-67755000D01*
X261703762Y-67754001D01*
X261683620Y-67751013D01*
X261663867Y-67746065D01*
X261644694Y-67739205D01*
X261626286Y-67730499D01*
X261608820Y-67720030D01*
X261592464Y-67707900D01*
X261577376Y-67694225D01*
X261563701Y-67679137D01*
X261551571Y-67662781D01*
X261541102Y-67645315D01*
X261532396Y-67626907D01*
X261525536Y-67607734D01*
X261520588Y-67587981D01*
X261517600Y-67567839D01*
X261516601Y-67547500D01*
X261516601Y-67132500D01*
X261517600Y-67112161D01*
X261520588Y-67092019D01*
X261525536Y-67072266D01*
X261532396Y-67053093D01*
X261541102Y-67034685D01*
X261551571Y-67017219D01*
X261563701Y-67000863D01*
X261577376Y-66985775D01*
X261592464Y-66972100D01*
X261608820Y-66959970D01*
X261626286Y-66949501D01*
X261644694Y-66940795D01*
X261663867Y-66933935D01*
X261683620Y-66928987D01*
X261703762Y-66925999D01*
X261724101Y-66925000D01*
X262139101Y-66925000D01*
X262159440Y-66925999D01*
G37*
G36*
X262159440Y-65895999D02*
G01*
X262179582Y-65898987D01*
X262199335Y-65903935D01*
X262218508Y-65910795D01*
X262236916Y-65919501D01*
X262254382Y-65929970D01*
X262270738Y-65942100D01*
X262285826Y-65955775D01*
X262299501Y-65970863D01*
X262311631Y-65987219D01*
X262322100Y-66004685D01*
X262330806Y-66023093D01*
X262337666Y-66042266D01*
X262342614Y-66062019D01*
X262345602Y-66082161D01*
X262346601Y-66102500D01*
X262346601Y-66517500D01*
X262345602Y-66537839D01*
X262342614Y-66557981D01*
X262337666Y-66577734D01*
X262330806Y-66596907D01*
X262322100Y-66615315D01*
X262311631Y-66632781D01*
X262299501Y-66649137D01*
X262285826Y-66664225D01*
X262270738Y-66677900D01*
X262254382Y-66690030D01*
X262236916Y-66700499D01*
X262218508Y-66709205D01*
X262199335Y-66716065D01*
X262179582Y-66721013D01*
X262159440Y-66724001D01*
X262139101Y-66725000D01*
X261724101Y-66725000D01*
X261703762Y-66724001D01*
X261683620Y-66721013D01*
X261663867Y-66716065D01*
X261644694Y-66709205D01*
X261626286Y-66700499D01*
X261608820Y-66690030D01*
X261592464Y-66677900D01*
X261577376Y-66664225D01*
X261563701Y-66649137D01*
X261551571Y-66632781D01*
X261541102Y-66615315D01*
X261532396Y-66596907D01*
X261525536Y-66577734D01*
X261520588Y-66557981D01*
X261517600Y-66537839D01*
X261516601Y-66517500D01*
X261516601Y-66102500D01*
X261517600Y-66082161D01*
X261520588Y-66062019D01*
X261525536Y-66042266D01*
X261532396Y-66023093D01*
X261541102Y-66004685D01*
X261551571Y-65987219D01*
X261563701Y-65970863D01*
X261577376Y-65955775D01*
X261592464Y-65942100D01*
X261608820Y-65929970D01*
X261626286Y-65919501D01*
X261644694Y-65910795D01*
X261663867Y-65903935D01*
X261683620Y-65898987D01*
X261703762Y-65895999D01*
X261724101Y-65895000D01*
X262139101Y-65895000D01*
X262159440Y-65895999D01*
G37*
G36*
X262159440Y-64865999D02*
G01*
X262179582Y-64868987D01*
X262199335Y-64873935D01*
X262218508Y-64880795D01*
X262236916Y-64889501D01*
X262254382Y-64899970D01*
X262270738Y-64912100D01*
X262285826Y-64925775D01*
X262299501Y-64940863D01*
X262311631Y-64957219D01*
X262322100Y-64974685D01*
X262330806Y-64993093D01*
X262337666Y-65012266D01*
X262342614Y-65032019D01*
X262345602Y-65052161D01*
X262346601Y-65072500D01*
X262346601Y-65487500D01*
X262345602Y-65507839D01*
X262342614Y-65527981D01*
X262337666Y-65547734D01*
X262330806Y-65566907D01*
X262322100Y-65585315D01*
X262311631Y-65602781D01*
X262299501Y-65619137D01*
X262285826Y-65634225D01*
X262270738Y-65647900D01*
X262254382Y-65660030D01*
X262236916Y-65670499D01*
X262218508Y-65679205D01*
X262199335Y-65686065D01*
X262179582Y-65691013D01*
X262159440Y-65694001D01*
X262139101Y-65695000D01*
X261724101Y-65695000D01*
X261703762Y-65694001D01*
X261683620Y-65691013D01*
X261663867Y-65686065D01*
X261644694Y-65679205D01*
X261626286Y-65670499D01*
X261608820Y-65660030D01*
X261592464Y-65647900D01*
X261577376Y-65634225D01*
X261563701Y-65619137D01*
X261551571Y-65602781D01*
X261541102Y-65585315D01*
X261532396Y-65566907D01*
X261525536Y-65547734D01*
X261520588Y-65527981D01*
X261517600Y-65507839D01*
X261516601Y-65487500D01*
X261516601Y-65072500D01*
X261517600Y-65052161D01*
X261520588Y-65032019D01*
X261525536Y-65012266D01*
X261532396Y-64993093D01*
X261541102Y-64974685D01*
X261551571Y-64957219D01*
X261563701Y-64940863D01*
X261577376Y-64925775D01*
X261592464Y-64912100D01*
X261608820Y-64899970D01*
X261626286Y-64889501D01*
X261644694Y-64880795D01*
X261663867Y-64873935D01*
X261683620Y-64868987D01*
X261703762Y-64865999D01*
X261724101Y-64865000D01*
X262139101Y-64865000D01*
X262159440Y-64865999D01*
G37*
G36*
X263189440Y-66925999D02*
G01*
X263209582Y-66928987D01*
X263229335Y-66933935D01*
X263248508Y-66940795D01*
X263266916Y-66949501D01*
X263284382Y-66959970D01*
X263300738Y-66972100D01*
X263315826Y-66985775D01*
X263329501Y-67000863D01*
X263341631Y-67017219D01*
X263352100Y-67034685D01*
X263360806Y-67053093D01*
X263367666Y-67072266D01*
X263372614Y-67092019D01*
X263375602Y-67112161D01*
X263376601Y-67132500D01*
X263376601Y-67547500D01*
X263375602Y-67567839D01*
X263372614Y-67587981D01*
X263367666Y-67607734D01*
X263360806Y-67626907D01*
X263352100Y-67645315D01*
X263341631Y-67662781D01*
X263329501Y-67679137D01*
X263315826Y-67694225D01*
X263300738Y-67707900D01*
X263284382Y-67720030D01*
X263266916Y-67730499D01*
X263248508Y-67739205D01*
X263229335Y-67746065D01*
X263209582Y-67751013D01*
X263189440Y-67754001D01*
X263169101Y-67755000D01*
X262754101Y-67755000D01*
X262733762Y-67754001D01*
X262713620Y-67751013D01*
X262693867Y-67746065D01*
X262674694Y-67739205D01*
X262656286Y-67730499D01*
X262638820Y-67720030D01*
X262622464Y-67707900D01*
X262607376Y-67694225D01*
X262593701Y-67679137D01*
X262581571Y-67662781D01*
X262571102Y-67645315D01*
X262562396Y-67626907D01*
X262555536Y-67607734D01*
X262550588Y-67587981D01*
X262547600Y-67567839D01*
X262546601Y-67547500D01*
X262546601Y-67132500D01*
X262547600Y-67112161D01*
X262550588Y-67092019D01*
X262555536Y-67072266D01*
X262562396Y-67053093D01*
X262571102Y-67034685D01*
X262581571Y-67017219D01*
X262593701Y-67000863D01*
X262607376Y-66985775D01*
X262622464Y-66972100D01*
X262638820Y-66959970D01*
X262656286Y-66949501D01*
X262674694Y-66940795D01*
X262693867Y-66933935D01*
X262713620Y-66928987D01*
X262733762Y-66925999D01*
X262754101Y-66925000D01*
X263169101Y-66925000D01*
X263189440Y-66925999D01*
G37*
G36*
X263189440Y-65895999D02*
G01*
X263209582Y-65898987D01*
X263229335Y-65903935D01*
X263248508Y-65910795D01*
X263266916Y-65919501D01*
X263284382Y-65929970D01*
X263300738Y-65942100D01*
X263315826Y-65955775D01*
X263329501Y-65970863D01*
X263341631Y-65987219D01*
X263352100Y-66004685D01*
X263360806Y-66023093D01*
X263367666Y-66042266D01*
X263372614Y-66062019D01*
X263375602Y-66082161D01*
X263376601Y-66102500D01*
X263376601Y-66517500D01*
X263375602Y-66537839D01*
X263372614Y-66557981D01*
X263367666Y-66577734D01*
X263360806Y-66596907D01*
X263352100Y-66615315D01*
X263341631Y-66632781D01*
X263329501Y-66649137D01*
X263315826Y-66664225D01*
X263300738Y-66677900D01*
X263284382Y-66690030D01*
X263266916Y-66700499D01*
X263248508Y-66709205D01*
X263229335Y-66716065D01*
X263209582Y-66721013D01*
X263189440Y-66724001D01*
X263169101Y-66725000D01*
X262754101Y-66725000D01*
X262733762Y-66724001D01*
X262713620Y-66721013D01*
X262693867Y-66716065D01*
X262674694Y-66709205D01*
X262656286Y-66700499D01*
X262638820Y-66690030D01*
X262622464Y-66677900D01*
X262607376Y-66664225D01*
X262593701Y-66649137D01*
X262581571Y-66632781D01*
X262571102Y-66615315D01*
X262562396Y-66596907D01*
X262555536Y-66577734D01*
X262550588Y-66557981D01*
X262547600Y-66537839D01*
X262546601Y-66517500D01*
X262546601Y-66102500D01*
X262547600Y-66082161D01*
X262550588Y-66062019D01*
X262555536Y-66042266D01*
X262562396Y-66023093D01*
X262571102Y-66004685D01*
X262581571Y-65987219D01*
X262593701Y-65970863D01*
X262607376Y-65955775D01*
X262622464Y-65942100D01*
X262638820Y-65929970D01*
X262656286Y-65919501D01*
X262674694Y-65910795D01*
X262693867Y-65903935D01*
X262713620Y-65898987D01*
X262733762Y-65895999D01*
X262754101Y-65895000D01*
X263169101Y-65895000D01*
X263189440Y-65895999D01*
G37*
G36*
X263189440Y-64865999D02*
G01*
X263209582Y-64868987D01*
X263229335Y-64873935D01*
X263248508Y-64880795D01*
X263266916Y-64889501D01*
X263284382Y-64899970D01*
X263300738Y-64912100D01*
X263315826Y-64925775D01*
X263329501Y-64940863D01*
X263341631Y-64957219D01*
X263352100Y-64974685D01*
X263360806Y-64993093D01*
X263367666Y-65012266D01*
X263372614Y-65032019D01*
X263375602Y-65052161D01*
X263376601Y-65072500D01*
X263376601Y-65487500D01*
X263375602Y-65507839D01*
X263372614Y-65527981D01*
X263367666Y-65547734D01*
X263360806Y-65566907D01*
X263352100Y-65585315D01*
X263341631Y-65602781D01*
X263329501Y-65619137D01*
X263315826Y-65634225D01*
X263300738Y-65647900D01*
X263284382Y-65660030D01*
X263266916Y-65670499D01*
X263248508Y-65679205D01*
X263229335Y-65686065D01*
X263209582Y-65691013D01*
X263189440Y-65694001D01*
X263169101Y-65695000D01*
X262754101Y-65695000D01*
X262733762Y-65694001D01*
X262713620Y-65691013D01*
X262693867Y-65686065D01*
X262674694Y-65679205D01*
X262656286Y-65670499D01*
X262638820Y-65660030D01*
X262622464Y-65647900D01*
X262607376Y-65634225D01*
X262593701Y-65619137D01*
X262581571Y-65602781D01*
X262571102Y-65585315D01*
X262562396Y-65566907D01*
X262555536Y-65547734D01*
X262550588Y-65527981D01*
X262547600Y-65507839D01*
X262546601Y-65487500D01*
X262546601Y-65072500D01*
X262547600Y-65052161D01*
X262550588Y-65032019D01*
X262555536Y-65012266D01*
X262562396Y-64993093D01*
X262571102Y-64974685D01*
X262581571Y-64957219D01*
X262593701Y-64940863D01*
X262607376Y-64925775D01*
X262622464Y-64912100D01*
X262638820Y-64899970D01*
X262656286Y-64889501D01*
X262674694Y-64880795D01*
X262693867Y-64873935D01*
X262713620Y-64868987D01*
X262733762Y-64865999D01*
X262754101Y-64865000D01*
X263169101Y-64865000D01*
X263189440Y-64865999D01*
G37*
G36*
X264219440Y-66925999D02*
G01*
X264239582Y-66928987D01*
X264259335Y-66933935D01*
X264278508Y-66940795D01*
X264296916Y-66949501D01*
X264314382Y-66959970D01*
X264330738Y-66972100D01*
X264345826Y-66985775D01*
X264359501Y-67000863D01*
X264371631Y-67017219D01*
X264382100Y-67034685D01*
X264390806Y-67053093D01*
X264397666Y-67072266D01*
X264402614Y-67092019D01*
X264405602Y-67112161D01*
X264406601Y-67132500D01*
X264406601Y-67547500D01*
X264405602Y-67567839D01*
X264402614Y-67587981D01*
X264397666Y-67607734D01*
X264390806Y-67626907D01*
X264382100Y-67645315D01*
X264371631Y-67662781D01*
X264359501Y-67679137D01*
X264345826Y-67694225D01*
X264330738Y-67707900D01*
X264314382Y-67720030D01*
X264296916Y-67730499D01*
X264278508Y-67739205D01*
X264259335Y-67746065D01*
X264239582Y-67751013D01*
X264219440Y-67754001D01*
X264199101Y-67755000D01*
X263784101Y-67755000D01*
X263763762Y-67754001D01*
X263743620Y-67751013D01*
X263723867Y-67746065D01*
X263704694Y-67739205D01*
X263686286Y-67730499D01*
X263668820Y-67720030D01*
X263652464Y-67707900D01*
X263637376Y-67694225D01*
X263623701Y-67679137D01*
X263611571Y-67662781D01*
X263601102Y-67645315D01*
X263592396Y-67626907D01*
X263585536Y-67607734D01*
X263580588Y-67587981D01*
X263577600Y-67567839D01*
X263576601Y-67547500D01*
X263576601Y-67132500D01*
X263577600Y-67112161D01*
X263580588Y-67092019D01*
X263585536Y-67072266D01*
X263592396Y-67053093D01*
X263601102Y-67034685D01*
X263611571Y-67017219D01*
X263623701Y-67000863D01*
X263637376Y-66985775D01*
X263652464Y-66972100D01*
X263668820Y-66959970D01*
X263686286Y-66949501D01*
X263704694Y-66940795D01*
X263723867Y-66933935D01*
X263743620Y-66928987D01*
X263763762Y-66925999D01*
X263784101Y-66925000D01*
X264199101Y-66925000D01*
X264219440Y-66925999D01*
G37*
G36*
X264219440Y-65895999D02*
G01*
X264239582Y-65898987D01*
X264259335Y-65903935D01*
X264278508Y-65910795D01*
X264296916Y-65919501D01*
X264314382Y-65929970D01*
X264330738Y-65942100D01*
X264345826Y-65955775D01*
X264359501Y-65970863D01*
X264371631Y-65987219D01*
X264382100Y-66004685D01*
X264390806Y-66023093D01*
X264397666Y-66042266D01*
X264402614Y-66062019D01*
X264405602Y-66082161D01*
X264406601Y-66102500D01*
X264406601Y-66517500D01*
X264405602Y-66537839D01*
X264402614Y-66557981D01*
X264397666Y-66577734D01*
X264390806Y-66596907D01*
X264382100Y-66615315D01*
X264371631Y-66632781D01*
X264359501Y-66649137D01*
X264345826Y-66664225D01*
X264330738Y-66677900D01*
X264314382Y-66690030D01*
X264296916Y-66700499D01*
X264278508Y-66709205D01*
X264259335Y-66716065D01*
X264239582Y-66721013D01*
X264219440Y-66724001D01*
X264199101Y-66725000D01*
X263784101Y-66725000D01*
X263763762Y-66724001D01*
X263743620Y-66721013D01*
X263723867Y-66716065D01*
X263704694Y-66709205D01*
X263686286Y-66700499D01*
X263668820Y-66690030D01*
X263652464Y-66677900D01*
X263637376Y-66664225D01*
X263623701Y-66649137D01*
X263611571Y-66632781D01*
X263601102Y-66615315D01*
X263592396Y-66596907D01*
X263585536Y-66577734D01*
X263580588Y-66557981D01*
X263577600Y-66537839D01*
X263576601Y-66517500D01*
X263576601Y-66102500D01*
X263577600Y-66082161D01*
X263580588Y-66062019D01*
X263585536Y-66042266D01*
X263592396Y-66023093D01*
X263601102Y-66004685D01*
X263611571Y-65987219D01*
X263623701Y-65970863D01*
X263637376Y-65955775D01*
X263652464Y-65942100D01*
X263668820Y-65929970D01*
X263686286Y-65919501D01*
X263704694Y-65910795D01*
X263723867Y-65903935D01*
X263743620Y-65898987D01*
X263763762Y-65895999D01*
X263784101Y-65895000D01*
X264199101Y-65895000D01*
X264219440Y-65895999D01*
G37*
G36*
X264219440Y-64865999D02*
G01*
X264239582Y-64868987D01*
X264259335Y-64873935D01*
X264278508Y-64880795D01*
X264296916Y-64889501D01*
X264314382Y-64899970D01*
X264330738Y-64912100D01*
X264345826Y-64925775D01*
X264359501Y-64940863D01*
X264371631Y-64957219D01*
X264382100Y-64974685D01*
X264390806Y-64993093D01*
X264397666Y-65012266D01*
X264402614Y-65032019D01*
X264405602Y-65052161D01*
X264406601Y-65072500D01*
X264406601Y-65487500D01*
X264405602Y-65507839D01*
X264402614Y-65527981D01*
X264397666Y-65547734D01*
X264390806Y-65566907D01*
X264382100Y-65585315D01*
X264371631Y-65602781D01*
X264359501Y-65619137D01*
X264345826Y-65634225D01*
X264330738Y-65647900D01*
X264314382Y-65660030D01*
X264296916Y-65670499D01*
X264278508Y-65679205D01*
X264259335Y-65686065D01*
X264239582Y-65691013D01*
X264219440Y-65694001D01*
X264199101Y-65695000D01*
X263784101Y-65695000D01*
X263763762Y-65694001D01*
X263743620Y-65691013D01*
X263723867Y-65686065D01*
X263704694Y-65679205D01*
X263686286Y-65670499D01*
X263668820Y-65660030D01*
X263652464Y-65647900D01*
X263637376Y-65634225D01*
X263623701Y-65619137D01*
X263611571Y-65602781D01*
X263601102Y-65585315D01*
X263592396Y-65566907D01*
X263585536Y-65547734D01*
X263580588Y-65527981D01*
X263577600Y-65507839D01*
X263576601Y-65487500D01*
X263576601Y-65072500D01*
X263577600Y-65052161D01*
X263580588Y-65032019D01*
X263585536Y-65012266D01*
X263592396Y-64993093D01*
X263601102Y-64974685D01*
X263611571Y-64957219D01*
X263623701Y-64940863D01*
X263637376Y-64925775D01*
X263652464Y-64912100D01*
X263668820Y-64899970D01*
X263686286Y-64889501D01*
X263704694Y-64880795D01*
X263723867Y-64873935D01*
X263743620Y-64868987D01*
X263763762Y-64865999D01*
X263784101Y-64865000D01*
X264199101Y-64865000D01*
X264219440Y-64865999D01*
G37*
D14*
X277812500Y-35718750D03*
X285612500Y-35718750D03*
D10*
G36*
X265632691Y-54696053D02*
G01*
X265653926Y-54699203D01*
X265674750Y-54704419D01*
X265694962Y-54711651D01*
X265714368Y-54720830D01*
X265732781Y-54731866D01*
X265750024Y-54744654D01*
X265765930Y-54759070D01*
X265780346Y-54774976D01*
X265793134Y-54792219D01*
X265804170Y-54810632D01*
X265813349Y-54830038D01*
X265820581Y-54850250D01*
X265825797Y-54871074D01*
X265828947Y-54892309D01*
X265830000Y-54913750D01*
X265830000Y-55426250D01*
X265828947Y-55447691D01*
X265825797Y-55468926D01*
X265820581Y-55489750D01*
X265813349Y-55509962D01*
X265804170Y-55529368D01*
X265793134Y-55547781D01*
X265780346Y-55565024D01*
X265765930Y-55580930D01*
X265750024Y-55595346D01*
X265732781Y-55608134D01*
X265714368Y-55619170D01*
X265694962Y-55628349D01*
X265674750Y-55635581D01*
X265653926Y-55640797D01*
X265632691Y-55643947D01*
X265611250Y-55645000D01*
X265173750Y-55645000D01*
X265152309Y-55643947D01*
X265131074Y-55640797D01*
X265110250Y-55635581D01*
X265090038Y-55628349D01*
X265070632Y-55619170D01*
X265052219Y-55608134D01*
X265034976Y-55595346D01*
X265019070Y-55580930D01*
X265004654Y-55565024D01*
X264991866Y-55547781D01*
X264980830Y-55529368D01*
X264971651Y-55509962D01*
X264964419Y-55489750D01*
X264959203Y-55468926D01*
X264956053Y-55447691D01*
X264955000Y-55426250D01*
X264955000Y-54913750D01*
X264956053Y-54892309D01*
X264959203Y-54871074D01*
X264964419Y-54850250D01*
X264971651Y-54830038D01*
X264980830Y-54810632D01*
X264991866Y-54792219D01*
X265004654Y-54774976D01*
X265019070Y-54759070D01*
X265034976Y-54744654D01*
X265052219Y-54731866D01*
X265070632Y-54720830D01*
X265090038Y-54711651D01*
X265110250Y-54704419D01*
X265131074Y-54699203D01*
X265152309Y-54696053D01*
X265173750Y-54695000D01*
X265611250Y-54695000D01*
X265632691Y-54696053D01*
G37*
G36*
X267207691Y-54696053D02*
G01*
X267228926Y-54699203D01*
X267249750Y-54704419D01*
X267269962Y-54711651D01*
X267289368Y-54720830D01*
X267307781Y-54731866D01*
X267325024Y-54744654D01*
X267340930Y-54759070D01*
X267355346Y-54774976D01*
X267368134Y-54792219D01*
X267379170Y-54810632D01*
X267388349Y-54830038D01*
X267395581Y-54850250D01*
X267400797Y-54871074D01*
X267403947Y-54892309D01*
X267405000Y-54913750D01*
X267405000Y-55426250D01*
X267403947Y-55447691D01*
X267400797Y-55468926D01*
X267395581Y-55489750D01*
X267388349Y-55509962D01*
X267379170Y-55529368D01*
X267368134Y-55547781D01*
X267355346Y-55565024D01*
X267340930Y-55580930D01*
X267325024Y-55595346D01*
X267307781Y-55608134D01*
X267289368Y-55619170D01*
X267269962Y-55628349D01*
X267249750Y-55635581D01*
X267228926Y-55640797D01*
X267207691Y-55643947D01*
X267186250Y-55645000D01*
X266748750Y-55645000D01*
X266727309Y-55643947D01*
X266706074Y-55640797D01*
X266685250Y-55635581D01*
X266665038Y-55628349D01*
X266645632Y-55619170D01*
X266627219Y-55608134D01*
X266609976Y-55595346D01*
X266594070Y-55580930D01*
X266579654Y-55565024D01*
X266566866Y-55547781D01*
X266555830Y-55529368D01*
X266546651Y-55509962D01*
X266539419Y-55489750D01*
X266534203Y-55468926D01*
X266531053Y-55447691D01*
X266530000Y-55426250D01*
X266530000Y-54913750D01*
X266531053Y-54892309D01*
X266534203Y-54871074D01*
X266539419Y-54850250D01*
X266546651Y-54830038D01*
X266555830Y-54810632D01*
X266566866Y-54792219D01*
X266579654Y-54774976D01*
X266594070Y-54759070D01*
X266609976Y-54744654D01*
X266627219Y-54731866D01*
X266645632Y-54720830D01*
X266665038Y-54711651D01*
X266685250Y-54704419D01*
X266706074Y-54699203D01*
X266727309Y-54696053D01*
X266748750Y-54695000D01*
X267186250Y-54695000D01*
X267207691Y-54696053D01*
G37*
G36*
X267207691Y-53156053D02*
G01*
X267228926Y-53159203D01*
X267249750Y-53164419D01*
X267269962Y-53171651D01*
X267289368Y-53180830D01*
X267307781Y-53191866D01*
X267325024Y-53204654D01*
X267340930Y-53219070D01*
X267355346Y-53234976D01*
X267368134Y-53252219D01*
X267379170Y-53270632D01*
X267388349Y-53290038D01*
X267395581Y-53310250D01*
X267400797Y-53331074D01*
X267403947Y-53352309D01*
X267405000Y-53373750D01*
X267405000Y-53886250D01*
X267403947Y-53907691D01*
X267400797Y-53928926D01*
X267395581Y-53949750D01*
X267388349Y-53969962D01*
X267379170Y-53989368D01*
X267368134Y-54007781D01*
X267355346Y-54025024D01*
X267340930Y-54040930D01*
X267325024Y-54055346D01*
X267307781Y-54068134D01*
X267289368Y-54079170D01*
X267269962Y-54088349D01*
X267249750Y-54095581D01*
X267228926Y-54100797D01*
X267207691Y-54103947D01*
X267186250Y-54105000D01*
X266748750Y-54105000D01*
X266727309Y-54103947D01*
X266706074Y-54100797D01*
X266685250Y-54095581D01*
X266665038Y-54088349D01*
X266645632Y-54079170D01*
X266627219Y-54068134D01*
X266609976Y-54055346D01*
X266594070Y-54040930D01*
X266579654Y-54025024D01*
X266566866Y-54007781D01*
X266555830Y-53989368D01*
X266546651Y-53969962D01*
X266539419Y-53949750D01*
X266534203Y-53928926D01*
X266531053Y-53907691D01*
X266530000Y-53886250D01*
X266530000Y-53373750D01*
X266531053Y-53352309D01*
X266534203Y-53331074D01*
X266539419Y-53310250D01*
X266546651Y-53290038D01*
X266555830Y-53270632D01*
X266566866Y-53252219D01*
X266579654Y-53234976D01*
X266594070Y-53219070D01*
X266609976Y-53204654D01*
X266627219Y-53191866D01*
X266645632Y-53180830D01*
X266665038Y-53171651D01*
X266685250Y-53164419D01*
X266706074Y-53159203D01*
X266727309Y-53156053D01*
X266748750Y-53155000D01*
X267186250Y-53155000D01*
X267207691Y-53156053D01*
G37*
G36*
X265632691Y-53156053D02*
G01*
X265653926Y-53159203D01*
X265674750Y-53164419D01*
X265694962Y-53171651D01*
X265714368Y-53180830D01*
X265732781Y-53191866D01*
X265750024Y-53204654D01*
X265765930Y-53219070D01*
X265780346Y-53234976D01*
X265793134Y-53252219D01*
X265804170Y-53270632D01*
X265813349Y-53290038D01*
X265820581Y-53310250D01*
X265825797Y-53331074D01*
X265828947Y-53352309D01*
X265830000Y-53373750D01*
X265830000Y-53886250D01*
X265828947Y-53907691D01*
X265825797Y-53928926D01*
X265820581Y-53949750D01*
X265813349Y-53969962D01*
X265804170Y-53989368D01*
X265793134Y-54007781D01*
X265780346Y-54025024D01*
X265765930Y-54040930D01*
X265750024Y-54055346D01*
X265732781Y-54068134D01*
X265714368Y-54079170D01*
X265694962Y-54088349D01*
X265674750Y-54095581D01*
X265653926Y-54100797D01*
X265632691Y-54103947D01*
X265611250Y-54105000D01*
X265173750Y-54105000D01*
X265152309Y-54103947D01*
X265131074Y-54100797D01*
X265110250Y-54095581D01*
X265090038Y-54088349D01*
X265070632Y-54079170D01*
X265052219Y-54068134D01*
X265034976Y-54055346D01*
X265019070Y-54040930D01*
X265004654Y-54025024D01*
X264991866Y-54007781D01*
X264980830Y-53989368D01*
X264971651Y-53969962D01*
X264964419Y-53949750D01*
X264959203Y-53928926D01*
X264956053Y-53907691D01*
X264955000Y-53886250D01*
X264955000Y-53373750D01*
X264956053Y-53352309D01*
X264959203Y-53331074D01*
X264964419Y-53310250D01*
X264971651Y-53290038D01*
X264980830Y-53270632D01*
X264991866Y-53252219D01*
X265004654Y-53234976D01*
X265019070Y-53219070D01*
X265034976Y-53204654D01*
X265052219Y-53191866D01*
X265070632Y-53180830D01*
X265090038Y-53171651D01*
X265110250Y-53164419D01*
X265131074Y-53159203D01*
X265152309Y-53156053D01*
X265173750Y-53155000D01*
X265611250Y-53155000D01*
X265632691Y-53156053D01*
G37*
G36*
X274365191Y-35676053D02*
G01*
X274386426Y-35679203D01*
X274407250Y-35684419D01*
X274427462Y-35691651D01*
X274446868Y-35700830D01*
X274465281Y-35711866D01*
X274482524Y-35724654D01*
X274498430Y-35739070D01*
X274512846Y-35754976D01*
X274525634Y-35772219D01*
X274536670Y-35790632D01*
X274545849Y-35810038D01*
X274553081Y-35830250D01*
X274558297Y-35851074D01*
X274561447Y-35872309D01*
X274562500Y-35893750D01*
X274562500Y-36406250D01*
X274561447Y-36427691D01*
X274558297Y-36448926D01*
X274553081Y-36469750D01*
X274545849Y-36489962D01*
X274536670Y-36509368D01*
X274525634Y-36527781D01*
X274512846Y-36545024D01*
X274498430Y-36560930D01*
X274482524Y-36575346D01*
X274465281Y-36588134D01*
X274446868Y-36599170D01*
X274427462Y-36608349D01*
X274407250Y-36615581D01*
X274386426Y-36620797D01*
X274365191Y-36623947D01*
X274343750Y-36625000D01*
X273906250Y-36625000D01*
X273884809Y-36623947D01*
X273863574Y-36620797D01*
X273842750Y-36615581D01*
X273822538Y-36608349D01*
X273803132Y-36599170D01*
X273784719Y-36588134D01*
X273767476Y-36575346D01*
X273751570Y-36560930D01*
X273737154Y-36545024D01*
X273724366Y-36527781D01*
X273713330Y-36509368D01*
X273704151Y-36489962D01*
X273696919Y-36469750D01*
X273691703Y-36448926D01*
X273688553Y-36427691D01*
X273687500Y-36406250D01*
X273687500Y-35893750D01*
X273688553Y-35872309D01*
X273691703Y-35851074D01*
X273696919Y-35830250D01*
X273704151Y-35810038D01*
X273713330Y-35790632D01*
X273724366Y-35772219D01*
X273737154Y-35754976D01*
X273751570Y-35739070D01*
X273767476Y-35724654D01*
X273784719Y-35711866D01*
X273803132Y-35700830D01*
X273822538Y-35691651D01*
X273842750Y-35684419D01*
X273863574Y-35679203D01*
X273884809Y-35676053D01*
X273906250Y-35675000D01*
X274343750Y-35675000D01*
X274365191Y-35676053D01*
G37*
G36*
X272790191Y-35676053D02*
G01*
X272811426Y-35679203D01*
X272832250Y-35684419D01*
X272852462Y-35691651D01*
X272871868Y-35700830D01*
X272890281Y-35711866D01*
X272907524Y-35724654D01*
X272923430Y-35739070D01*
X272937846Y-35754976D01*
X272950634Y-35772219D01*
X272961670Y-35790632D01*
X272970849Y-35810038D01*
X272978081Y-35830250D01*
X272983297Y-35851074D01*
X272986447Y-35872309D01*
X272987500Y-35893750D01*
X272987500Y-36406250D01*
X272986447Y-36427691D01*
X272983297Y-36448926D01*
X272978081Y-36469750D01*
X272970849Y-36489962D01*
X272961670Y-36509368D01*
X272950634Y-36527781D01*
X272937846Y-36545024D01*
X272923430Y-36560930D01*
X272907524Y-36575346D01*
X272890281Y-36588134D01*
X272871868Y-36599170D01*
X272852462Y-36608349D01*
X272832250Y-36615581D01*
X272811426Y-36620797D01*
X272790191Y-36623947D01*
X272768750Y-36625000D01*
X272331250Y-36625000D01*
X272309809Y-36623947D01*
X272288574Y-36620797D01*
X272267750Y-36615581D01*
X272247538Y-36608349D01*
X272228132Y-36599170D01*
X272209719Y-36588134D01*
X272192476Y-36575346D01*
X272176570Y-36560930D01*
X272162154Y-36545024D01*
X272149366Y-36527781D01*
X272138330Y-36509368D01*
X272129151Y-36489962D01*
X272121919Y-36469750D01*
X272116703Y-36448926D01*
X272113553Y-36427691D01*
X272112500Y-36406250D01*
X272112500Y-35893750D01*
X272113553Y-35872309D01*
X272116703Y-35851074D01*
X272121919Y-35830250D01*
X272129151Y-35810038D01*
X272138330Y-35790632D01*
X272149366Y-35772219D01*
X272162154Y-35754976D01*
X272176570Y-35739070D01*
X272192476Y-35724654D01*
X272209719Y-35711866D01*
X272228132Y-35700830D01*
X272247538Y-35691651D01*
X272267750Y-35684419D01*
X272288574Y-35679203D01*
X272309809Y-35676053D01*
X272331250Y-35675000D01*
X272768750Y-35675000D01*
X272790191Y-35676053D01*
G37*
G36*
X272790191Y-34026053D02*
G01*
X272811426Y-34029203D01*
X272832250Y-34034419D01*
X272852462Y-34041651D01*
X272871868Y-34050830D01*
X272890281Y-34061866D01*
X272907524Y-34074654D01*
X272923430Y-34089070D01*
X272937846Y-34104976D01*
X272950634Y-34122219D01*
X272961670Y-34140632D01*
X272970849Y-34160038D01*
X272978081Y-34180250D01*
X272983297Y-34201074D01*
X272986447Y-34222309D01*
X272987500Y-34243750D01*
X272987500Y-34756250D01*
X272986447Y-34777691D01*
X272983297Y-34798926D01*
X272978081Y-34819750D01*
X272970849Y-34839962D01*
X272961670Y-34859368D01*
X272950634Y-34877781D01*
X272937846Y-34895024D01*
X272923430Y-34910930D01*
X272907524Y-34925346D01*
X272890281Y-34938134D01*
X272871868Y-34949170D01*
X272852462Y-34958349D01*
X272832250Y-34965581D01*
X272811426Y-34970797D01*
X272790191Y-34973947D01*
X272768750Y-34975000D01*
X272331250Y-34975000D01*
X272309809Y-34973947D01*
X272288574Y-34970797D01*
X272267750Y-34965581D01*
X272247538Y-34958349D01*
X272228132Y-34949170D01*
X272209719Y-34938134D01*
X272192476Y-34925346D01*
X272176570Y-34910930D01*
X272162154Y-34895024D01*
X272149366Y-34877781D01*
X272138330Y-34859368D01*
X272129151Y-34839962D01*
X272121919Y-34819750D01*
X272116703Y-34798926D01*
X272113553Y-34777691D01*
X272112500Y-34756250D01*
X272112500Y-34243750D01*
X272113553Y-34222309D01*
X272116703Y-34201074D01*
X272121919Y-34180250D01*
X272129151Y-34160038D01*
X272138330Y-34140632D01*
X272149366Y-34122219D01*
X272162154Y-34104976D01*
X272176570Y-34089070D01*
X272192476Y-34074654D01*
X272209719Y-34061866D01*
X272228132Y-34050830D01*
X272247538Y-34041651D01*
X272267750Y-34034419D01*
X272288574Y-34029203D01*
X272309809Y-34026053D01*
X272331250Y-34025000D01*
X272768750Y-34025000D01*
X272790191Y-34026053D01*
G37*
G36*
X274365191Y-34026053D02*
G01*
X274386426Y-34029203D01*
X274407250Y-34034419D01*
X274427462Y-34041651D01*
X274446868Y-34050830D01*
X274465281Y-34061866D01*
X274482524Y-34074654D01*
X274498430Y-34089070D01*
X274512846Y-34104976D01*
X274525634Y-34122219D01*
X274536670Y-34140632D01*
X274545849Y-34160038D01*
X274553081Y-34180250D01*
X274558297Y-34201074D01*
X274561447Y-34222309D01*
X274562500Y-34243750D01*
X274562500Y-34756250D01*
X274561447Y-34777691D01*
X274558297Y-34798926D01*
X274553081Y-34819750D01*
X274545849Y-34839962D01*
X274536670Y-34859368D01*
X274525634Y-34877781D01*
X274512846Y-34895024D01*
X274498430Y-34910930D01*
X274482524Y-34925346D01*
X274465281Y-34938134D01*
X274446868Y-34949170D01*
X274427462Y-34958349D01*
X274407250Y-34965581D01*
X274386426Y-34970797D01*
X274365191Y-34973947D01*
X274343750Y-34975000D01*
X273906250Y-34975000D01*
X273884809Y-34973947D01*
X273863574Y-34970797D01*
X273842750Y-34965581D01*
X273822538Y-34958349D01*
X273803132Y-34949170D01*
X273784719Y-34938134D01*
X273767476Y-34925346D01*
X273751570Y-34910930D01*
X273737154Y-34895024D01*
X273724366Y-34877781D01*
X273713330Y-34859368D01*
X273704151Y-34839962D01*
X273696919Y-34819750D01*
X273691703Y-34798926D01*
X273688553Y-34777691D01*
X273687500Y-34756250D01*
X273687500Y-34243750D01*
X273688553Y-34222309D01*
X273691703Y-34201074D01*
X273696919Y-34180250D01*
X273704151Y-34160038D01*
X273713330Y-34140632D01*
X273724366Y-34122219D01*
X273737154Y-34104976D01*
X273751570Y-34089070D01*
X273767476Y-34074654D01*
X273784719Y-34061866D01*
X273803132Y-34050830D01*
X273822538Y-34041651D01*
X273842750Y-34034419D01*
X273863574Y-34029203D01*
X273884809Y-34026053D01*
X273906250Y-34025000D01*
X274343750Y-34025000D01*
X274365191Y-34026053D01*
G37*
G36*
X257720191Y-70676053D02*
G01*
X257741426Y-70679203D01*
X257762250Y-70684419D01*
X257782462Y-70691651D01*
X257801868Y-70700830D01*
X257820281Y-70711866D01*
X257837524Y-70724654D01*
X257853430Y-70739070D01*
X257867846Y-70754976D01*
X257880634Y-70772219D01*
X257891670Y-70790632D01*
X257900849Y-70810038D01*
X257908081Y-70830250D01*
X257913297Y-70851074D01*
X257916447Y-70872309D01*
X257917500Y-70893750D01*
X257917500Y-71406250D01*
X257916447Y-71427691D01*
X257913297Y-71448926D01*
X257908081Y-71469750D01*
X257900849Y-71489962D01*
X257891670Y-71509368D01*
X257880634Y-71527781D01*
X257867846Y-71545024D01*
X257853430Y-71560930D01*
X257837524Y-71575346D01*
X257820281Y-71588134D01*
X257801868Y-71599170D01*
X257782462Y-71608349D01*
X257762250Y-71615581D01*
X257741426Y-71620797D01*
X257720191Y-71623947D01*
X257698750Y-71625000D01*
X257261250Y-71625000D01*
X257239809Y-71623947D01*
X257218574Y-71620797D01*
X257197750Y-71615581D01*
X257177538Y-71608349D01*
X257158132Y-71599170D01*
X257139719Y-71588134D01*
X257122476Y-71575346D01*
X257106570Y-71560930D01*
X257092154Y-71545024D01*
X257079366Y-71527781D01*
X257068330Y-71509368D01*
X257059151Y-71489962D01*
X257051919Y-71469750D01*
X257046703Y-71448926D01*
X257043553Y-71427691D01*
X257042500Y-71406250D01*
X257042500Y-70893750D01*
X257043553Y-70872309D01*
X257046703Y-70851074D01*
X257051919Y-70830250D01*
X257059151Y-70810038D01*
X257068330Y-70790632D01*
X257079366Y-70772219D01*
X257092154Y-70754976D01*
X257106570Y-70739070D01*
X257122476Y-70724654D01*
X257139719Y-70711866D01*
X257158132Y-70700830D01*
X257177538Y-70691651D01*
X257197750Y-70684419D01*
X257218574Y-70679203D01*
X257239809Y-70676053D01*
X257261250Y-70675000D01*
X257698750Y-70675000D01*
X257720191Y-70676053D01*
G37*
G36*
X256145191Y-70676053D02*
G01*
X256166426Y-70679203D01*
X256187250Y-70684419D01*
X256207462Y-70691651D01*
X256226868Y-70700830D01*
X256245281Y-70711866D01*
X256262524Y-70724654D01*
X256278430Y-70739070D01*
X256292846Y-70754976D01*
X256305634Y-70772219D01*
X256316670Y-70790632D01*
X256325849Y-70810038D01*
X256333081Y-70830250D01*
X256338297Y-70851074D01*
X256341447Y-70872309D01*
X256342500Y-70893750D01*
X256342500Y-71406250D01*
X256341447Y-71427691D01*
X256338297Y-71448926D01*
X256333081Y-71469750D01*
X256325849Y-71489962D01*
X256316670Y-71509368D01*
X256305634Y-71527781D01*
X256292846Y-71545024D01*
X256278430Y-71560930D01*
X256262524Y-71575346D01*
X256245281Y-71588134D01*
X256226868Y-71599170D01*
X256207462Y-71608349D01*
X256187250Y-71615581D01*
X256166426Y-71620797D01*
X256145191Y-71623947D01*
X256123750Y-71625000D01*
X255686250Y-71625000D01*
X255664809Y-71623947D01*
X255643574Y-71620797D01*
X255622750Y-71615581D01*
X255602538Y-71608349D01*
X255583132Y-71599170D01*
X255564719Y-71588134D01*
X255547476Y-71575346D01*
X255531570Y-71560930D01*
X255517154Y-71545024D01*
X255504366Y-71527781D01*
X255493330Y-71509368D01*
X255484151Y-71489962D01*
X255476919Y-71469750D01*
X255471703Y-71448926D01*
X255468553Y-71427691D01*
X255467500Y-71406250D01*
X255467500Y-70893750D01*
X255468553Y-70872309D01*
X255471703Y-70851074D01*
X255476919Y-70830250D01*
X255484151Y-70810038D01*
X255493330Y-70790632D01*
X255504366Y-70772219D01*
X255517154Y-70754976D01*
X255531570Y-70739070D01*
X255547476Y-70724654D01*
X255564719Y-70711866D01*
X255583132Y-70700830D01*
X255602538Y-70691651D01*
X255622750Y-70684419D01*
X255643574Y-70679203D01*
X255664809Y-70676053D01*
X255686250Y-70675000D01*
X256123750Y-70675000D01*
X256145191Y-70676053D01*
G37*
G36*
X262265191Y-43501053D02*
G01*
X262286426Y-43504203D01*
X262307250Y-43509419D01*
X262327462Y-43516651D01*
X262346868Y-43525830D01*
X262365281Y-43536866D01*
X262382524Y-43549654D01*
X262398430Y-43564070D01*
X262412846Y-43579976D01*
X262425634Y-43597219D01*
X262436670Y-43615632D01*
X262445849Y-43635038D01*
X262453081Y-43655250D01*
X262458297Y-43676074D01*
X262461447Y-43697309D01*
X262462500Y-43718750D01*
X262462500Y-44231250D01*
X262461447Y-44252691D01*
X262458297Y-44273926D01*
X262453081Y-44294750D01*
X262445849Y-44314962D01*
X262436670Y-44334368D01*
X262425634Y-44352781D01*
X262412846Y-44370024D01*
X262398430Y-44385930D01*
X262382524Y-44400346D01*
X262365281Y-44413134D01*
X262346868Y-44424170D01*
X262327462Y-44433349D01*
X262307250Y-44440581D01*
X262286426Y-44445797D01*
X262265191Y-44448947D01*
X262243750Y-44450000D01*
X261806250Y-44450000D01*
X261784809Y-44448947D01*
X261763574Y-44445797D01*
X261742750Y-44440581D01*
X261722538Y-44433349D01*
X261703132Y-44424170D01*
X261684719Y-44413134D01*
X261667476Y-44400346D01*
X261651570Y-44385930D01*
X261637154Y-44370024D01*
X261624366Y-44352781D01*
X261613330Y-44334368D01*
X261604151Y-44314962D01*
X261596919Y-44294750D01*
X261591703Y-44273926D01*
X261588553Y-44252691D01*
X261587500Y-44231250D01*
X261587500Y-43718750D01*
X261588553Y-43697309D01*
X261591703Y-43676074D01*
X261596919Y-43655250D01*
X261604151Y-43635038D01*
X261613330Y-43615632D01*
X261624366Y-43597219D01*
X261637154Y-43579976D01*
X261651570Y-43564070D01*
X261667476Y-43549654D01*
X261684719Y-43536866D01*
X261703132Y-43525830D01*
X261722538Y-43516651D01*
X261742750Y-43509419D01*
X261763574Y-43504203D01*
X261784809Y-43501053D01*
X261806250Y-43500000D01*
X262243750Y-43500000D01*
X262265191Y-43501053D01*
G37*
G36*
X260690191Y-43501053D02*
G01*
X260711426Y-43504203D01*
X260732250Y-43509419D01*
X260752462Y-43516651D01*
X260771868Y-43525830D01*
X260790281Y-43536866D01*
X260807524Y-43549654D01*
X260823430Y-43564070D01*
X260837846Y-43579976D01*
X260850634Y-43597219D01*
X260861670Y-43615632D01*
X260870849Y-43635038D01*
X260878081Y-43655250D01*
X260883297Y-43676074D01*
X260886447Y-43697309D01*
X260887500Y-43718750D01*
X260887500Y-44231250D01*
X260886447Y-44252691D01*
X260883297Y-44273926D01*
X260878081Y-44294750D01*
X260870849Y-44314962D01*
X260861670Y-44334368D01*
X260850634Y-44352781D01*
X260837846Y-44370024D01*
X260823430Y-44385930D01*
X260807524Y-44400346D01*
X260790281Y-44413134D01*
X260771868Y-44424170D01*
X260752462Y-44433349D01*
X260732250Y-44440581D01*
X260711426Y-44445797D01*
X260690191Y-44448947D01*
X260668750Y-44450000D01*
X260231250Y-44450000D01*
X260209809Y-44448947D01*
X260188574Y-44445797D01*
X260167750Y-44440581D01*
X260147538Y-44433349D01*
X260128132Y-44424170D01*
X260109719Y-44413134D01*
X260092476Y-44400346D01*
X260076570Y-44385930D01*
X260062154Y-44370024D01*
X260049366Y-44352781D01*
X260038330Y-44334368D01*
X260029151Y-44314962D01*
X260021919Y-44294750D01*
X260016703Y-44273926D01*
X260013553Y-44252691D01*
X260012500Y-44231250D01*
X260012500Y-43718750D01*
X260013553Y-43697309D01*
X260016703Y-43676074D01*
X260021919Y-43655250D01*
X260029151Y-43635038D01*
X260038330Y-43615632D01*
X260049366Y-43597219D01*
X260062154Y-43579976D01*
X260076570Y-43564070D01*
X260092476Y-43549654D01*
X260109719Y-43536866D01*
X260128132Y-43525830D01*
X260147538Y-43516651D01*
X260167750Y-43509419D01*
X260188574Y-43504203D01*
X260209809Y-43501053D01*
X260231250Y-43500000D01*
X260668750Y-43500000D01*
X260690191Y-43501053D01*
G37*
D15*
X269010000Y-49910000D03*
X272310000Y-49910000D03*
D10*
G36*
X260710192Y-45216053D02*
G01*
X260731427Y-45219203D01*
X260752251Y-45224419D01*
X260772463Y-45231651D01*
X260791869Y-45240830D01*
X260810282Y-45251866D01*
X260827525Y-45264654D01*
X260843431Y-45279070D01*
X260857847Y-45294976D01*
X260870635Y-45312219D01*
X260881671Y-45330632D01*
X260890850Y-45350038D01*
X260898082Y-45370250D01*
X260903298Y-45391074D01*
X260906448Y-45412309D01*
X260907501Y-45433750D01*
X260907501Y-45946250D01*
X260906448Y-45967691D01*
X260903298Y-45988926D01*
X260898082Y-46009750D01*
X260890850Y-46029962D01*
X260881671Y-46049368D01*
X260870635Y-46067781D01*
X260857847Y-46085024D01*
X260843431Y-46100930D01*
X260827525Y-46115346D01*
X260810282Y-46128134D01*
X260791869Y-46139170D01*
X260772463Y-46148349D01*
X260752251Y-46155581D01*
X260731427Y-46160797D01*
X260710192Y-46163947D01*
X260688751Y-46165000D01*
X260251251Y-46165000D01*
X260229810Y-46163947D01*
X260208575Y-46160797D01*
X260187751Y-46155581D01*
X260167539Y-46148349D01*
X260148133Y-46139170D01*
X260129720Y-46128134D01*
X260112477Y-46115346D01*
X260096571Y-46100930D01*
X260082155Y-46085024D01*
X260069367Y-46067781D01*
X260058331Y-46049368D01*
X260049152Y-46029962D01*
X260041920Y-46009750D01*
X260036704Y-45988926D01*
X260033554Y-45967691D01*
X260032501Y-45946250D01*
X260032501Y-45433750D01*
X260033554Y-45412309D01*
X260036704Y-45391074D01*
X260041920Y-45370250D01*
X260049152Y-45350038D01*
X260058331Y-45330632D01*
X260069367Y-45312219D01*
X260082155Y-45294976D01*
X260096571Y-45279070D01*
X260112477Y-45264654D01*
X260129720Y-45251866D01*
X260148133Y-45240830D01*
X260167539Y-45231651D01*
X260187751Y-45224419D01*
X260208575Y-45219203D01*
X260229810Y-45216053D01*
X260251251Y-45215000D01*
X260688751Y-45215000D01*
X260710192Y-45216053D01*
G37*
G36*
X262285192Y-45216053D02*
G01*
X262306427Y-45219203D01*
X262327251Y-45224419D01*
X262347463Y-45231651D01*
X262366869Y-45240830D01*
X262385282Y-45251866D01*
X262402525Y-45264654D01*
X262418431Y-45279070D01*
X262432847Y-45294976D01*
X262445635Y-45312219D01*
X262456671Y-45330632D01*
X262465850Y-45350038D01*
X262473082Y-45370250D01*
X262478298Y-45391074D01*
X262481448Y-45412309D01*
X262482501Y-45433750D01*
X262482501Y-45946250D01*
X262481448Y-45967691D01*
X262478298Y-45988926D01*
X262473082Y-46009750D01*
X262465850Y-46029962D01*
X262456671Y-46049368D01*
X262445635Y-46067781D01*
X262432847Y-46085024D01*
X262418431Y-46100930D01*
X262402525Y-46115346D01*
X262385282Y-46128134D01*
X262366869Y-46139170D01*
X262347463Y-46148349D01*
X262327251Y-46155581D01*
X262306427Y-46160797D01*
X262285192Y-46163947D01*
X262263751Y-46165000D01*
X261826251Y-46165000D01*
X261804810Y-46163947D01*
X261783575Y-46160797D01*
X261762751Y-46155581D01*
X261742539Y-46148349D01*
X261723133Y-46139170D01*
X261704720Y-46128134D01*
X261687477Y-46115346D01*
X261671571Y-46100930D01*
X261657155Y-46085024D01*
X261644367Y-46067781D01*
X261633331Y-46049368D01*
X261624152Y-46029962D01*
X261616920Y-46009750D01*
X261611704Y-45988926D01*
X261608554Y-45967691D01*
X261607501Y-45946250D01*
X261607501Y-45433750D01*
X261608554Y-45412309D01*
X261611704Y-45391074D01*
X261616920Y-45370250D01*
X261624152Y-45350038D01*
X261633331Y-45330632D01*
X261644367Y-45312219D01*
X261657155Y-45294976D01*
X261671571Y-45279070D01*
X261687477Y-45264654D01*
X261704720Y-45251866D01*
X261723133Y-45240830D01*
X261742539Y-45231651D01*
X261762751Y-45224419D01*
X261783575Y-45219203D01*
X261804810Y-45216053D01*
X261826251Y-45215000D01*
X262263751Y-45215000D01*
X262285192Y-45216053D01*
G37*
G36*
X267195191Y-56296053D02*
G01*
X267216426Y-56299203D01*
X267237250Y-56304419D01*
X267257462Y-56311651D01*
X267276868Y-56320830D01*
X267295281Y-56331866D01*
X267312524Y-56344654D01*
X267328430Y-56359070D01*
X267342846Y-56374976D01*
X267355634Y-56392219D01*
X267366670Y-56410632D01*
X267375849Y-56430038D01*
X267383081Y-56450250D01*
X267388297Y-56471074D01*
X267391447Y-56492309D01*
X267392500Y-56513750D01*
X267392500Y-57026250D01*
X267391447Y-57047691D01*
X267388297Y-57068926D01*
X267383081Y-57089750D01*
X267375849Y-57109962D01*
X267366670Y-57129368D01*
X267355634Y-57147781D01*
X267342846Y-57165024D01*
X267328430Y-57180930D01*
X267312524Y-57195346D01*
X267295281Y-57208134D01*
X267276868Y-57219170D01*
X267257462Y-57228349D01*
X267237250Y-57235581D01*
X267216426Y-57240797D01*
X267195191Y-57243947D01*
X267173750Y-57245000D01*
X266736250Y-57245000D01*
X266714809Y-57243947D01*
X266693574Y-57240797D01*
X266672750Y-57235581D01*
X266652538Y-57228349D01*
X266633132Y-57219170D01*
X266614719Y-57208134D01*
X266597476Y-57195346D01*
X266581570Y-57180930D01*
X266567154Y-57165024D01*
X266554366Y-57147781D01*
X266543330Y-57129368D01*
X266534151Y-57109962D01*
X266526919Y-57089750D01*
X266521703Y-57068926D01*
X266518553Y-57047691D01*
X266517500Y-57026250D01*
X266517500Y-56513750D01*
X266518553Y-56492309D01*
X266521703Y-56471074D01*
X266526919Y-56450250D01*
X266534151Y-56430038D01*
X266543330Y-56410632D01*
X266554366Y-56392219D01*
X266567154Y-56374976D01*
X266581570Y-56359070D01*
X266597476Y-56344654D01*
X266614719Y-56331866D01*
X266633132Y-56320830D01*
X266652538Y-56311651D01*
X266672750Y-56304419D01*
X266693574Y-56299203D01*
X266714809Y-56296053D01*
X266736250Y-56295000D01*
X267173750Y-56295000D01*
X267195191Y-56296053D01*
G37*
G36*
X265620191Y-56296053D02*
G01*
X265641426Y-56299203D01*
X265662250Y-56304419D01*
X265682462Y-56311651D01*
X265701868Y-56320830D01*
X265720281Y-56331866D01*
X265737524Y-56344654D01*
X265753430Y-56359070D01*
X265767846Y-56374976D01*
X265780634Y-56392219D01*
X265791670Y-56410632D01*
X265800849Y-56430038D01*
X265808081Y-56450250D01*
X265813297Y-56471074D01*
X265816447Y-56492309D01*
X265817500Y-56513750D01*
X265817500Y-57026250D01*
X265816447Y-57047691D01*
X265813297Y-57068926D01*
X265808081Y-57089750D01*
X265800849Y-57109962D01*
X265791670Y-57129368D01*
X265780634Y-57147781D01*
X265767846Y-57165024D01*
X265753430Y-57180930D01*
X265737524Y-57195346D01*
X265720281Y-57208134D01*
X265701868Y-57219170D01*
X265682462Y-57228349D01*
X265662250Y-57235581D01*
X265641426Y-57240797D01*
X265620191Y-57243947D01*
X265598750Y-57245000D01*
X265161250Y-57245000D01*
X265139809Y-57243947D01*
X265118574Y-57240797D01*
X265097750Y-57235581D01*
X265077538Y-57228349D01*
X265058132Y-57219170D01*
X265039719Y-57208134D01*
X265022476Y-57195346D01*
X265006570Y-57180930D01*
X264992154Y-57165024D01*
X264979366Y-57147781D01*
X264968330Y-57129368D01*
X264959151Y-57109962D01*
X264951919Y-57089750D01*
X264946703Y-57068926D01*
X264943553Y-57047691D01*
X264942500Y-57026250D01*
X264942500Y-56513750D01*
X264943553Y-56492309D01*
X264946703Y-56471074D01*
X264951919Y-56450250D01*
X264959151Y-56430038D01*
X264968330Y-56410632D01*
X264979366Y-56392219D01*
X264992154Y-56374976D01*
X265006570Y-56359070D01*
X265022476Y-56344654D01*
X265039719Y-56331866D01*
X265058132Y-56320830D01*
X265077538Y-56311651D01*
X265097750Y-56304419D01*
X265118574Y-56299203D01*
X265139809Y-56296053D01*
X265161250Y-56295000D01*
X265598750Y-56295000D01*
X265620191Y-56296053D01*
G37*
G36*
X276705191Y-67586053D02*
G01*
X276726426Y-67589203D01*
X276747250Y-67594419D01*
X276767462Y-67601651D01*
X276786868Y-67610830D01*
X276805281Y-67621866D01*
X276822524Y-67634654D01*
X276838430Y-67649070D01*
X276852846Y-67664976D01*
X276865634Y-67682219D01*
X276876670Y-67700632D01*
X276885849Y-67720038D01*
X276893081Y-67740250D01*
X276898297Y-67761074D01*
X276901447Y-67782309D01*
X276902500Y-67803750D01*
X276902500Y-68316250D01*
X276901447Y-68337691D01*
X276898297Y-68358926D01*
X276893081Y-68379750D01*
X276885849Y-68399962D01*
X276876670Y-68419368D01*
X276865634Y-68437781D01*
X276852846Y-68455024D01*
X276838430Y-68470930D01*
X276822524Y-68485346D01*
X276805281Y-68498134D01*
X276786868Y-68509170D01*
X276767462Y-68518349D01*
X276747250Y-68525581D01*
X276726426Y-68530797D01*
X276705191Y-68533947D01*
X276683750Y-68535000D01*
X276246250Y-68535000D01*
X276224809Y-68533947D01*
X276203574Y-68530797D01*
X276182750Y-68525581D01*
X276162538Y-68518349D01*
X276143132Y-68509170D01*
X276124719Y-68498134D01*
X276107476Y-68485346D01*
X276091570Y-68470930D01*
X276077154Y-68455024D01*
X276064366Y-68437781D01*
X276053330Y-68419368D01*
X276044151Y-68399962D01*
X276036919Y-68379750D01*
X276031703Y-68358926D01*
X276028553Y-68337691D01*
X276027500Y-68316250D01*
X276027500Y-67803750D01*
X276028553Y-67782309D01*
X276031703Y-67761074D01*
X276036919Y-67740250D01*
X276044151Y-67720038D01*
X276053330Y-67700632D01*
X276064366Y-67682219D01*
X276077154Y-67664976D01*
X276091570Y-67649070D01*
X276107476Y-67634654D01*
X276124719Y-67621866D01*
X276143132Y-67610830D01*
X276162538Y-67601651D01*
X276182750Y-67594419D01*
X276203574Y-67589203D01*
X276224809Y-67586053D01*
X276246250Y-67585000D01*
X276683750Y-67585000D01*
X276705191Y-67586053D01*
G37*
G36*
X275130191Y-67586053D02*
G01*
X275151426Y-67589203D01*
X275172250Y-67594419D01*
X275192462Y-67601651D01*
X275211868Y-67610830D01*
X275230281Y-67621866D01*
X275247524Y-67634654D01*
X275263430Y-67649070D01*
X275277846Y-67664976D01*
X275290634Y-67682219D01*
X275301670Y-67700632D01*
X275310849Y-67720038D01*
X275318081Y-67740250D01*
X275323297Y-67761074D01*
X275326447Y-67782309D01*
X275327500Y-67803750D01*
X275327500Y-68316250D01*
X275326447Y-68337691D01*
X275323297Y-68358926D01*
X275318081Y-68379750D01*
X275310849Y-68399962D01*
X275301670Y-68419368D01*
X275290634Y-68437781D01*
X275277846Y-68455024D01*
X275263430Y-68470930D01*
X275247524Y-68485346D01*
X275230281Y-68498134D01*
X275211868Y-68509170D01*
X275192462Y-68518349D01*
X275172250Y-68525581D01*
X275151426Y-68530797D01*
X275130191Y-68533947D01*
X275108750Y-68535000D01*
X274671250Y-68535000D01*
X274649809Y-68533947D01*
X274628574Y-68530797D01*
X274607750Y-68525581D01*
X274587538Y-68518349D01*
X274568132Y-68509170D01*
X274549719Y-68498134D01*
X274532476Y-68485346D01*
X274516570Y-68470930D01*
X274502154Y-68455024D01*
X274489366Y-68437781D01*
X274478330Y-68419368D01*
X274469151Y-68399962D01*
X274461919Y-68379750D01*
X274456703Y-68358926D01*
X274453553Y-68337691D01*
X274452500Y-68316250D01*
X274452500Y-67803750D01*
X274453553Y-67782309D01*
X274456703Y-67761074D01*
X274461919Y-67740250D01*
X274469151Y-67720038D01*
X274478330Y-67700632D01*
X274489366Y-67682219D01*
X274502154Y-67664976D01*
X274516570Y-67649070D01*
X274532476Y-67634654D01*
X274549719Y-67621866D01*
X274568132Y-67610830D01*
X274587538Y-67601651D01*
X274607750Y-67594419D01*
X274628574Y-67589203D01*
X274649809Y-67586053D01*
X274671250Y-67585000D01*
X275108750Y-67585000D01*
X275130191Y-67586053D01*
G37*
G36*
X276705191Y-63446053D02*
G01*
X276726426Y-63449203D01*
X276747250Y-63454419D01*
X276767462Y-63461651D01*
X276786868Y-63470830D01*
X276805281Y-63481866D01*
X276822524Y-63494654D01*
X276838430Y-63509070D01*
X276852846Y-63524976D01*
X276865634Y-63542219D01*
X276876670Y-63560632D01*
X276885849Y-63580038D01*
X276893081Y-63600250D01*
X276898297Y-63621074D01*
X276901447Y-63642309D01*
X276902500Y-63663750D01*
X276902500Y-64176250D01*
X276901447Y-64197691D01*
X276898297Y-64218926D01*
X276893081Y-64239750D01*
X276885849Y-64259962D01*
X276876670Y-64279368D01*
X276865634Y-64297781D01*
X276852846Y-64315024D01*
X276838430Y-64330930D01*
X276822524Y-64345346D01*
X276805281Y-64358134D01*
X276786868Y-64369170D01*
X276767462Y-64378349D01*
X276747250Y-64385581D01*
X276726426Y-64390797D01*
X276705191Y-64393947D01*
X276683750Y-64395000D01*
X276246250Y-64395000D01*
X276224809Y-64393947D01*
X276203574Y-64390797D01*
X276182750Y-64385581D01*
X276162538Y-64378349D01*
X276143132Y-64369170D01*
X276124719Y-64358134D01*
X276107476Y-64345346D01*
X276091570Y-64330930D01*
X276077154Y-64315024D01*
X276064366Y-64297781D01*
X276053330Y-64279368D01*
X276044151Y-64259962D01*
X276036919Y-64239750D01*
X276031703Y-64218926D01*
X276028553Y-64197691D01*
X276027500Y-64176250D01*
X276027500Y-63663750D01*
X276028553Y-63642309D01*
X276031703Y-63621074D01*
X276036919Y-63600250D01*
X276044151Y-63580038D01*
X276053330Y-63560632D01*
X276064366Y-63542219D01*
X276077154Y-63524976D01*
X276091570Y-63509070D01*
X276107476Y-63494654D01*
X276124719Y-63481866D01*
X276143132Y-63470830D01*
X276162538Y-63461651D01*
X276182750Y-63454419D01*
X276203574Y-63449203D01*
X276224809Y-63446053D01*
X276246250Y-63445000D01*
X276683750Y-63445000D01*
X276705191Y-63446053D01*
G37*
G36*
X275130191Y-63446053D02*
G01*
X275151426Y-63449203D01*
X275172250Y-63454419D01*
X275192462Y-63461651D01*
X275211868Y-63470830D01*
X275230281Y-63481866D01*
X275247524Y-63494654D01*
X275263430Y-63509070D01*
X275277846Y-63524976D01*
X275290634Y-63542219D01*
X275301670Y-63560632D01*
X275310849Y-63580038D01*
X275318081Y-63600250D01*
X275323297Y-63621074D01*
X275326447Y-63642309D01*
X275327500Y-63663750D01*
X275327500Y-64176250D01*
X275326447Y-64197691D01*
X275323297Y-64218926D01*
X275318081Y-64239750D01*
X275310849Y-64259962D01*
X275301670Y-64279368D01*
X275290634Y-64297781D01*
X275277846Y-64315024D01*
X275263430Y-64330930D01*
X275247524Y-64345346D01*
X275230281Y-64358134D01*
X275211868Y-64369170D01*
X275192462Y-64378349D01*
X275172250Y-64385581D01*
X275151426Y-64390797D01*
X275130191Y-64393947D01*
X275108750Y-64395000D01*
X274671250Y-64395000D01*
X274649809Y-64393947D01*
X274628574Y-64390797D01*
X274607750Y-64385581D01*
X274587538Y-64378349D01*
X274568132Y-64369170D01*
X274549719Y-64358134D01*
X274532476Y-64345346D01*
X274516570Y-64330930D01*
X274502154Y-64315024D01*
X274489366Y-64297781D01*
X274478330Y-64279368D01*
X274469151Y-64259962D01*
X274461919Y-64239750D01*
X274456703Y-64218926D01*
X274453553Y-64197691D01*
X274452500Y-64176250D01*
X274452500Y-63663750D01*
X274453553Y-63642309D01*
X274456703Y-63621074D01*
X274461919Y-63600250D01*
X274469151Y-63580038D01*
X274478330Y-63560632D01*
X274489366Y-63542219D01*
X274502154Y-63524976D01*
X274516570Y-63509070D01*
X274532476Y-63494654D01*
X274549719Y-63481866D01*
X274568132Y-63470830D01*
X274587538Y-63461651D01*
X274607750Y-63454419D01*
X274628574Y-63449203D01*
X274649809Y-63446053D01*
X274671250Y-63445000D01*
X275108750Y-63445000D01*
X275130191Y-63446053D01*
G37*
G36*
X270020190Y-60776053D02*
G01*
X270041425Y-60779203D01*
X270062249Y-60784419D01*
X270082461Y-60791651D01*
X270101867Y-60800830D01*
X270120280Y-60811866D01*
X270137523Y-60824654D01*
X270153429Y-60839070D01*
X270167845Y-60854976D01*
X270180633Y-60872219D01*
X270191669Y-60890632D01*
X270200848Y-60910038D01*
X270208080Y-60930250D01*
X270213296Y-60951074D01*
X270216446Y-60972309D01*
X270217499Y-60993750D01*
X270217499Y-61506250D01*
X270216446Y-61527691D01*
X270213296Y-61548926D01*
X270208080Y-61569750D01*
X270200848Y-61589962D01*
X270191669Y-61609368D01*
X270180633Y-61627781D01*
X270167845Y-61645024D01*
X270153429Y-61660930D01*
X270137523Y-61675346D01*
X270120280Y-61688134D01*
X270101867Y-61699170D01*
X270082461Y-61708349D01*
X270062249Y-61715581D01*
X270041425Y-61720797D01*
X270020190Y-61723947D01*
X269998749Y-61725000D01*
X269561249Y-61725000D01*
X269539808Y-61723947D01*
X269518573Y-61720797D01*
X269497749Y-61715581D01*
X269477537Y-61708349D01*
X269458131Y-61699170D01*
X269439718Y-61688134D01*
X269422475Y-61675346D01*
X269406569Y-61660930D01*
X269392153Y-61645024D01*
X269379365Y-61627781D01*
X269368329Y-61609368D01*
X269359150Y-61589962D01*
X269351918Y-61569750D01*
X269346702Y-61548926D01*
X269343552Y-61527691D01*
X269342499Y-61506250D01*
X269342499Y-60993750D01*
X269343552Y-60972309D01*
X269346702Y-60951074D01*
X269351918Y-60930250D01*
X269359150Y-60910038D01*
X269368329Y-60890632D01*
X269379365Y-60872219D01*
X269392153Y-60854976D01*
X269406569Y-60839070D01*
X269422475Y-60824654D01*
X269439718Y-60811866D01*
X269458131Y-60800830D01*
X269477537Y-60791651D01*
X269497749Y-60784419D01*
X269518573Y-60779203D01*
X269539808Y-60776053D01*
X269561249Y-60775000D01*
X269998749Y-60775000D01*
X270020190Y-60776053D01*
G37*
G36*
X268445190Y-60776053D02*
G01*
X268466425Y-60779203D01*
X268487249Y-60784419D01*
X268507461Y-60791651D01*
X268526867Y-60800830D01*
X268545280Y-60811866D01*
X268562523Y-60824654D01*
X268578429Y-60839070D01*
X268592845Y-60854976D01*
X268605633Y-60872219D01*
X268616669Y-60890632D01*
X268625848Y-60910038D01*
X268633080Y-60930250D01*
X268638296Y-60951074D01*
X268641446Y-60972309D01*
X268642499Y-60993750D01*
X268642499Y-61506250D01*
X268641446Y-61527691D01*
X268638296Y-61548926D01*
X268633080Y-61569750D01*
X268625848Y-61589962D01*
X268616669Y-61609368D01*
X268605633Y-61627781D01*
X268592845Y-61645024D01*
X268578429Y-61660930D01*
X268562523Y-61675346D01*
X268545280Y-61688134D01*
X268526867Y-61699170D01*
X268507461Y-61708349D01*
X268487249Y-61715581D01*
X268466425Y-61720797D01*
X268445190Y-61723947D01*
X268423749Y-61725000D01*
X267986249Y-61725000D01*
X267964808Y-61723947D01*
X267943573Y-61720797D01*
X267922749Y-61715581D01*
X267902537Y-61708349D01*
X267883131Y-61699170D01*
X267864718Y-61688134D01*
X267847475Y-61675346D01*
X267831569Y-61660930D01*
X267817153Y-61645024D01*
X267804365Y-61627781D01*
X267793329Y-61609368D01*
X267784150Y-61589962D01*
X267776918Y-61569750D01*
X267771702Y-61548926D01*
X267768552Y-61527691D01*
X267767499Y-61506250D01*
X267767499Y-60993750D01*
X267768552Y-60972309D01*
X267771702Y-60951074D01*
X267776918Y-60930250D01*
X267784150Y-60910038D01*
X267793329Y-60890632D01*
X267804365Y-60872219D01*
X267817153Y-60854976D01*
X267831569Y-60839070D01*
X267847475Y-60824654D01*
X267864718Y-60811866D01*
X267883131Y-60800830D01*
X267902537Y-60791651D01*
X267922749Y-60784419D01*
X267943573Y-60779203D01*
X267964808Y-60776053D01*
X267986249Y-60775000D01*
X268423749Y-60775000D01*
X268445190Y-60776053D01*
G37*
G36*
X266227691Y-57978553D02*
G01*
X266248926Y-57981703D01*
X266269750Y-57986919D01*
X266289962Y-57994151D01*
X266309368Y-58003330D01*
X266327781Y-58014366D01*
X266345024Y-58027154D01*
X266360930Y-58041570D01*
X266375346Y-58057476D01*
X266388134Y-58074719D01*
X266399170Y-58093132D01*
X266408349Y-58112538D01*
X266415581Y-58132750D01*
X266420797Y-58153574D01*
X266423947Y-58174809D01*
X266425000Y-58196250D01*
X266425000Y-58633750D01*
X266423947Y-58655191D01*
X266420797Y-58676426D01*
X266415581Y-58697250D01*
X266408349Y-58717462D01*
X266399170Y-58736868D01*
X266388134Y-58755281D01*
X266375346Y-58772524D01*
X266360930Y-58788430D01*
X266345024Y-58802846D01*
X266327781Y-58815634D01*
X266309368Y-58826670D01*
X266289962Y-58835849D01*
X266269750Y-58843081D01*
X266248926Y-58848297D01*
X266227691Y-58851447D01*
X266206250Y-58852500D01*
X265693750Y-58852500D01*
X265672309Y-58851447D01*
X265651074Y-58848297D01*
X265630250Y-58843081D01*
X265610038Y-58835849D01*
X265590632Y-58826670D01*
X265572219Y-58815634D01*
X265554976Y-58802846D01*
X265539070Y-58788430D01*
X265524654Y-58772524D01*
X265511866Y-58755281D01*
X265500830Y-58736868D01*
X265491651Y-58717462D01*
X265484419Y-58697250D01*
X265479203Y-58676426D01*
X265476053Y-58655191D01*
X265475000Y-58633750D01*
X265475000Y-58196250D01*
X265476053Y-58174809D01*
X265479203Y-58153574D01*
X265484419Y-58132750D01*
X265491651Y-58112538D01*
X265500830Y-58093132D01*
X265511866Y-58074719D01*
X265524654Y-58057476D01*
X265539070Y-58041570D01*
X265554976Y-58027154D01*
X265572219Y-58014366D01*
X265590632Y-58003330D01*
X265610038Y-57994151D01*
X265630250Y-57986919D01*
X265651074Y-57981703D01*
X265672309Y-57978553D01*
X265693750Y-57977500D01*
X266206250Y-57977500D01*
X266227691Y-57978553D01*
G37*
G36*
X266227691Y-59553553D02*
G01*
X266248926Y-59556703D01*
X266269750Y-59561919D01*
X266289962Y-59569151D01*
X266309368Y-59578330D01*
X266327781Y-59589366D01*
X266345024Y-59602154D01*
X266360930Y-59616570D01*
X266375346Y-59632476D01*
X266388134Y-59649719D01*
X266399170Y-59668132D01*
X266408349Y-59687538D01*
X266415581Y-59707750D01*
X266420797Y-59728574D01*
X266423947Y-59749809D01*
X266425000Y-59771250D01*
X266425000Y-60208750D01*
X266423947Y-60230191D01*
X266420797Y-60251426D01*
X266415581Y-60272250D01*
X266408349Y-60292462D01*
X266399170Y-60311868D01*
X266388134Y-60330281D01*
X266375346Y-60347524D01*
X266360930Y-60363430D01*
X266345024Y-60377846D01*
X266327781Y-60390634D01*
X266309368Y-60401670D01*
X266289962Y-60410849D01*
X266269750Y-60418081D01*
X266248926Y-60423297D01*
X266227691Y-60426447D01*
X266206250Y-60427500D01*
X265693750Y-60427500D01*
X265672309Y-60426447D01*
X265651074Y-60423297D01*
X265630250Y-60418081D01*
X265610038Y-60410849D01*
X265590632Y-60401670D01*
X265572219Y-60390634D01*
X265554976Y-60377846D01*
X265539070Y-60363430D01*
X265524654Y-60347524D01*
X265511866Y-60330281D01*
X265500830Y-60311868D01*
X265491651Y-60292462D01*
X265484419Y-60272250D01*
X265479203Y-60251426D01*
X265476053Y-60230191D01*
X265475000Y-60208750D01*
X265475000Y-59771250D01*
X265476053Y-59749809D01*
X265479203Y-59728574D01*
X265484419Y-59707750D01*
X265491651Y-59687538D01*
X265500830Y-59668132D01*
X265511866Y-59649719D01*
X265524654Y-59632476D01*
X265539070Y-59616570D01*
X265554976Y-59602154D01*
X265572219Y-59589366D01*
X265590632Y-59578330D01*
X265610038Y-59569151D01*
X265630250Y-59561919D01*
X265651074Y-59556703D01*
X265672309Y-59553553D01*
X265693750Y-59552500D01*
X266206250Y-59552500D01*
X266227691Y-59553553D01*
G37*
D16*
X243265000Y-38735000D03*
X257115000Y-36195000D03*
X228977500Y-57785000D03*
X242827500Y-55245000D03*
X282197500Y-43815000D03*
X268347500Y-46355000D03*
X36096250Y-57785000D03*
X49946250Y-55245000D03*
X57527500Y-57785000D03*
X71377500Y-55245000D03*
X52765000Y-38735000D03*
X66615000Y-36195000D03*
X33715000Y-38735000D03*
X47565000Y-36195000D03*
D10*
G36*
X260785192Y-40243554D02*
G01*
X260806427Y-40246704D01*
X260827251Y-40251920D01*
X260847463Y-40259152D01*
X260866869Y-40268331D01*
X260885282Y-40279367D01*
X260902525Y-40292155D01*
X260918431Y-40306571D01*
X260932847Y-40322477D01*
X260945635Y-40339720D01*
X260956671Y-40358133D01*
X260965850Y-40377539D01*
X260973082Y-40397751D01*
X260978298Y-40418575D01*
X260981448Y-40439810D01*
X260982501Y-40461251D01*
X260982501Y-40898751D01*
X260981448Y-40920192D01*
X260978298Y-40941427D01*
X260973082Y-40962251D01*
X260965850Y-40982463D01*
X260956671Y-41001869D01*
X260945635Y-41020282D01*
X260932847Y-41037525D01*
X260918431Y-41053431D01*
X260902525Y-41067847D01*
X260885282Y-41080635D01*
X260866869Y-41091671D01*
X260847463Y-41100850D01*
X260827251Y-41108082D01*
X260806427Y-41113298D01*
X260785192Y-41116448D01*
X260763751Y-41117501D01*
X260251251Y-41117501D01*
X260229810Y-41116448D01*
X260208575Y-41113298D01*
X260187751Y-41108082D01*
X260167539Y-41100850D01*
X260148133Y-41091671D01*
X260129720Y-41080635D01*
X260112477Y-41067847D01*
X260096571Y-41053431D01*
X260082155Y-41037525D01*
X260069367Y-41020282D01*
X260058331Y-41001869D01*
X260049152Y-40982463D01*
X260041920Y-40962251D01*
X260036704Y-40941427D01*
X260033554Y-40920192D01*
X260032501Y-40898751D01*
X260032501Y-40461251D01*
X260033554Y-40439810D01*
X260036704Y-40418575D01*
X260041920Y-40397751D01*
X260049152Y-40377539D01*
X260058331Y-40358133D01*
X260069367Y-40339720D01*
X260082155Y-40322477D01*
X260096571Y-40306571D01*
X260112477Y-40292155D01*
X260129720Y-40279367D01*
X260148133Y-40268331D01*
X260167539Y-40259152D01*
X260187751Y-40251920D01*
X260208575Y-40246704D01*
X260229810Y-40243554D01*
X260251251Y-40242501D01*
X260763751Y-40242501D01*
X260785192Y-40243554D01*
G37*
G36*
X260785192Y-41818554D02*
G01*
X260806427Y-41821704D01*
X260827251Y-41826920D01*
X260847463Y-41834152D01*
X260866869Y-41843331D01*
X260885282Y-41854367D01*
X260902525Y-41867155D01*
X260918431Y-41881571D01*
X260932847Y-41897477D01*
X260945635Y-41914720D01*
X260956671Y-41933133D01*
X260965850Y-41952539D01*
X260973082Y-41972751D01*
X260978298Y-41993575D01*
X260981448Y-42014810D01*
X260982501Y-42036251D01*
X260982501Y-42473751D01*
X260981448Y-42495192D01*
X260978298Y-42516427D01*
X260973082Y-42537251D01*
X260965850Y-42557463D01*
X260956671Y-42576869D01*
X260945635Y-42595282D01*
X260932847Y-42612525D01*
X260918431Y-42628431D01*
X260902525Y-42642847D01*
X260885282Y-42655635D01*
X260866869Y-42666671D01*
X260847463Y-42675850D01*
X260827251Y-42683082D01*
X260806427Y-42688298D01*
X260785192Y-42691448D01*
X260763751Y-42692501D01*
X260251251Y-42692501D01*
X260229810Y-42691448D01*
X260208575Y-42688298D01*
X260187751Y-42683082D01*
X260167539Y-42675850D01*
X260148133Y-42666671D01*
X260129720Y-42655635D01*
X260112477Y-42642847D01*
X260096571Y-42628431D01*
X260082155Y-42612525D01*
X260069367Y-42595282D01*
X260058331Y-42576869D01*
X260049152Y-42557463D01*
X260041920Y-42537251D01*
X260036704Y-42516427D01*
X260033554Y-42495192D01*
X260032501Y-42473751D01*
X260032501Y-42036251D01*
X260033554Y-42014810D01*
X260036704Y-41993575D01*
X260041920Y-41972751D01*
X260049152Y-41952539D01*
X260058331Y-41933133D01*
X260069367Y-41914720D01*
X260082155Y-41897477D01*
X260096571Y-41881571D01*
X260112477Y-41867155D01*
X260129720Y-41854367D01*
X260148133Y-41843331D01*
X260167539Y-41834152D01*
X260187751Y-41826920D01*
X260208575Y-41821704D01*
X260229810Y-41818554D01*
X260251251Y-41817501D01*
X260763751Y-41817501D01*
X260785192Y-41818554D01*
G37*
D17*
X285200000Y-101375000D03*
X285200000Y-104675000D03*
X285200000Y-81575000D03*
X285200000Y-84875000D03*
X284730000Y-61400000D03*
X284730000Y-64700000D03*
X268300000Y-96775000D03*
X268300000Y-100075000D03*
X249237500Y-96775000D03*
X249237500Y-100075000D03*
X230187500Y-96775000D03*
X230187500Y-100075000D03*
X211137500Y-96775000D03*
X211137500Y-100075000D03*
X189706250Y-96775000D03*
X189706250Y-100075000D03*
X158750000Y-96775000D03*
X158750000Y-100075000D03*
X127793750Y-96775000D03*
X127793750Y-100075000D03*
X106362500Y-96775000D03*
X106362500Y-100075000D03*
X87312500Y-96775000D03*
X87312500Y-100075000D03*
X68262500Y-96775000D03*
X68262500Y-100075000D03*
X49212500Y-96775000D03*
X49212500Y-100075000D03*
X265906250Y-81693750D03*
X265906250Y-84993750D03*
X249237500Y-77725000D03*
X249237500Y-81025000D03*
X230187500Y-77725000D03*
X230187500Y-81025000D03*
X211137500Y-77725000D03*
X211137500Y-81025000D03*
X192087500Y-77725000D03*
X192087500Y-81025000D03*
X173037500Y-77725000D03*
X173037500Y-81025000D03*
X153987500Y-77725000D03*
X153987500Y-81025000D03*
X134937500Y-77725000D03*
X134937500Y-81025000D03*
X115887500Y-77725000D03*
X115887500Y-81025000D03*
X96837500Y-77725000D03*
X96837500Y-81025000D03*
X77787500Y-77725000D03*
X77787500Y-81025000D03*
X53975000Y-77725000D03*
X53975000Y-81025000D03*
X247950000Y-61290000D03*
X247950000Y-64590000D03*
X244470000Y-58940000D03*
X244470000Y-62240000D03*
X225425000Y-58675000D03*
X225425000Y-61975000D03*
X206375000Y-58675000D03*
X206375000Y-61975000D03*
X187325000Y-58675000D03*
X187325000Y-61975000D03*
X168275000Y-58675000D03*
X168275000Y-61975000D03*
X149225000Y-58675000D03*
X149225000Y-61975000D03*
X130175000Y-58675000D03*
X130175000Y-61975000D03*
X111125000Y-58675000D03*
X111125000Y-61975000D03*
X92075000Y-58675000D03*
X92075000Y-61975000D03*
X73025000Y-58675000D03*
X73025000Y-61975000D03*
X51593750Y-58675000D03*
X51593750Y-61975000D03*
X242920000Y-42270000D03*
X242920000Y-45570000D03*
X223837500Y-42006250D03*
X223837500Y-45306250D03*
X220662500Y-39625000D03*
X220662500Y-42925000D03*
X201612500Y-39625000D03*
X201612500Y-42925000D03*
X182562500Y-39625000D03*
X182562500Y-42925000D03*
X163512500Y-39625000D03*
X163512500Y-42925000D03*
X144462500Y-39625000D03*
X144462500Y-42925000D03*
X125412500Y-39625000D03*
X125412500Y-42925000D03*
X106362500Y-39625000D03*
X106362500Y-42925000D03*
X87312500Y-39625000D03*
X87312500Y-42925000D03*
X68262500Y-39625000D03*
X68262500Y-42925000D03*
X49212500Y-39625000D03*
X49212500Y-42925000D03*
D10*
G36*
X270977691Y-82849803D02*
G01*
X270998926Y-82852953D01*
X271019750Y-82858169D01*
X271039962Y-82865401D01*
X271059368Y-82874580D01*
X271077781Y-82885616D01*
X271095024Y-82898404D01*
X271110930Y-82912820D01*
X271125346Y-82928726D01*
X271138134Y-82945969D01*
X271149170Y-82964382D01*
X271158349Y-82983788D01*
X271165581Y-83004000D01*
X271170797Y-83024824D01*
X271173947Y-83046059D01*
X271175000Y-83067500D01*
X271175000Y-83580000D01*
X271173947Y-83601441D01*
X271170797Y-83622676D01*
X271165581Y-83643500D01*
X271158349Y-83663712D01*
X271149170Y-83683118D01*
X271138134Y-83701531D01*
X271125346Y-83718774D01*
X271110930Y-83734680D01*
X271095024Y-83749096D01*
X271077781Y-83761884D01*
X271059368Y-83772920D01*
X271039962Y-83782099D01*
X271019750Y-83789331D01*
X270998926Y-83794547D01*
X270977691Y-83797697D01*
X270956250Y-83798750D01*
X270518750Y-83798750D01*
X270497309Y-83797697D01*
X270476074Y-83794547D01*
X270455250Y-83789331D01*
X270435038Y-83782099D01*
X270415632Y-83772920D01*
X270397219Y-83761884D01*
X270379976Y-83749096D01*
X270364070Y-83734680D01*
X270349654Y-83718774D01*
X270336866Y-83701531D01*
X270325830Y-83683118D01*
X270316651Y-83663712D01*
X270309419Y-83643500D01*
X270304203Y-83622676D01*
X270301053Y-83601441D01*
X270300000Y-83580000D01*
X270300000Y-83067500D01*
X270301053Y-83046059D01*
X270304203Y-83024824D01*
X270309419Y-83004000D01*
X270316651Y-82983788D01*
X270325830Y-82964382D01*
X270336866Y-82945969D01*
X270349654Y-82928726D01*
X270364070Y-82912820D01*
X270379976Y-82898404D01*
X270397219Y-82885616D01*
X270415632Y-82874580D01*
X270435038Y-82865401D01*
X270455250Y-82858169D01*
X270476074Y-82852953D01*
X270497309Y-82849803D01*
X270518750Y-82848750D01*
X270956250Y-82848750D01*
X270977691Y-82849803D01*
G37*
G36*
X272552691Y-82849803D02*
G01*
X272573926Y-82852953D01*
X272594750Y-82858169D01*
X272614962Y-82865401D01*
X272634368Y-82874580D01*
X272652781Y-82885616D01*
X272670024Y-82898404D01*
X272685930Y-82912820D01*
X272700346Y-82928726D01*
X272713134Y-82945969D01*
X272724170Y-82964382D01*
X272733349Y-82983788D01*
X272740581Y-83004000D01*
X272745797Y-83024824D01*
X272748947Y-83046059D01*
X272750000Y-83067500D01*
X272750000Y-83580000D01*
X272748947Y-83601441D01*
X272745797Y-83622676D01*
X272740581Y-83643500D01*
X272733349Y-83663712D01*
X272724170Y-83683118D01*
X272713134Y-83701531D01*
X272700346Y-83718774D01*
X272685930Y-83734680D01*
X272670024Y-83749096D01*
X272652781Y-83761884D01*
X272634368Y-83772920D01*
X272614962Y-83782099D01*
X272594750Y-83789331D01*
X272573926Y-83794547D01*
X272552691Y-83797697D01*
X272531250Y-83798750D01*
X272093750Y-83798750D01*
X272072309Y-83797697D01*
X272051074Y-83794547D01*
X272030250Y-83789331D01*
X272010038Y-83782099D01*
X271990632Y-83772920D01*
X271972219Y-83761884D01*
X271954976Y-83749096D01*
X271939070Y-83734680D01*
X271924654Y-83718774D01*
X271911866Y-83701531D01*
X271900830Y-83683118D01*
X271891651Y-83663712D01*
X271884419Y-83643500D01*
X271879203Y-83622676D01*
X271876053Y-83601441D01*
X271875000Y-83580000D01*
X271875000Y-83067500D01*
X271876053Y-83046059D01*
X271879203Y-83024824D01*
X271884419Y-83004000D01*
X271891651Y-82983788D01*
X271900830Y-82964382D01*
X271911866Y-82945969D01*
X271924654Y-82928726D01*
X271939070Y-82912820D01*
X271954976Y-82898404D01*
X271972219Y-82885616D01*
X271990632Y-82874580D01*
X272010038Y-82865401D01*
X272030250Y-82858169D01*
X272051074Y-82852953D01*
X272072309Y-82849803D01*
X272093750Y-82848750D01*
X272531250Y-82848750D01*
X272552691Y-82849803D01*
G37*
G36*
X183602691Y-82869803D02*
G01*
X183623926Y-82872953D01*
X183644750Y-82878169D01*
X183664962Y-82885401D01*
X183684368Y-82894580D01*
X183702781Y-82905616D01*
X183720024Y-82918404D01*
X183735930Y-82932820D01*
X183750346Y-82948726D01*
X183763134Y-82965969D01*
X183774170Y-82984382D01*
X183783349Y-83003788D01*
X183790581Y-83024000D01*
X183795797Y-83044824D01*
X183798947Y-83066059D01*
X183800000Y-83087500D01*
X183800000Y-83600000D01*
X183798947Y-83621441D01*
X183795797Y-83642676D01*
X183790581Y-83663500D01*
X183783349Y-83683712D01*
X183774170Y-83703118D01*
X183763134Y-83721531D01*
X183750346Y-83738774D01*
X183735930Y-83754680D01*
X183720024Y-83769096D01*
X183702781Y-83781884D01*
X183684368Y-83792920D01*
X183664962Y-83802099D01*
X183644750Y-83809331D01*
X183623926Y-83814547D01*
X183602691Y-83817697D01*
X183581250Y-83818750D01*
X183143750Y-83818750D01*
X183122309Y-83817697D01*
X183101074Y-83814547D01*
X183080250Y-83809331D01*
X183060038Y-83802099D01*
X183040632Y-83792920D01*
X183022219Y-83781884D01*
X183004976Y-83769096D01*
X182989070Y-83754680D01*
X182974654Y-83738774D01*
X182961866Y-83721531D01*
X182950830Y-83703118D01*
X182941651Y-83683712D01*
X182934419Y-83663500D01*
X182929203Y-83642676D01*
X182926053Y-83621441D01*
X182925000Y-83600000D01*
X182925000Y-83087500D01*
X182926053Y-83066059D01*
X182929203Y-83044824D01*
X182934419Y-83024000D01*
X182941651Y-83003788D01*
X182950830Y-82984382D01*
X182961866Y-82965969D01*
X182974654Y-82948726D01*
X182989070Y-82932820D01*
X183004976Y-82918404D01*
X183022219Y-82905616D01*
X183040632Y-82894580D01*
X183060038Y-82885401D01*
X183080250Y-82878169D01*
X183101074Y-82872953D01*
X183122309Y-82869803D01*
X183143750Y-82868750D01*
X183581250Y-82868750D01*
X183602691Y-82869803D01*
G37*
G36*
X185177691Y-82869803D02*
G01*
X185198926Y-82872953D01*
X185219750Y-82878169D01*
X185239962Y-82885401D01*
X185259368Y-82894580D01*
X185277781Y-82905616D01*
X185295024Y-82918404D01*
X185310930Y-82932820D01*
X185325346Y-82948726D01*
X185338134Y-82965969D01*
X185349170Y-82984382D01*
X185358349Y-83003788D01*
X185365581Y-83024000D01*
X185370797Y-83044824D01*
X185373947Y-83066059D01*
X185375000Y-83087500D01*
X185375000Y-83600000D01*
X185373947Y-83621441D01*
X185370797Y-83642676D01*
X185365581Y-83663500D01*
X185358349Y-83683712D01*
X185349170Y-83703118D01*
X185338134Y-83721531D01*
X185325346Y-83738774D01*
X185310930Y-83754680D01*
X185295024Y-83769096D01*
X185277781Y-83781884D01*
X185259368Y-83792920D01*
X185239962Y-83802099D01*
X185219750Y-83809331D01*
X185198926Y-83814547D01*
X185177691Y-83817697D01*
X185156250Y-83818750D01*
X184718750Y-83818750D01*
X184697309Y-83817697D01*
X184676074Y-83814547D01*
X184655250Y-83809331D01*
X184635038Y-83802099D01*
X184615632Y-83792920D01*
X184597219Y-83781884D01*
X184579976Y-83769096D01*
X184564070Y-83754680D01*
X184549654Y-83738774D01*
X184536866Y-83721531D01*
X184525830Y-83703118D01*
X184516651Y-83683712D01*
X184509419Y-83663500D01*
X184504203Y-83642676D01*
X184501053Y-83621441D01*
X184500000Y-83600000D01*
X184500000Y-83087500D01*
X184501053Y-83066059D01*
X184504203Y-83044824D01*
X184509419Y-83024000D01*
X184516651Y-83003788D01*
X184525830Y-82984382D01*
X184536866Y-82965969D01*
X184549654Y-82948726D01*
X184564070Y-82932820D01*
X184579976Y-82918404D01*
X184597219Y-82905616D01*
X184615632Y-82894580D01*
X184635038Y-82885401D01*
X184655250Y-82878169D01*
X184676074Y-82872953D01*
X184697309Y-82869803D01*
X184718750Y-82868750D01*
X185156250Y-82868750D01*
X185177691Y-82869803D01*
G37*
G36*
X116927691Y-82869803D02*
G01*
X116948926Y-82872953D01*
X116969750Y-82878169D01*
X116989962Y-82885401D01*
X117009368Y-82894580D01*
X117027781Y-82905616D01*
X117045024Y-82918404D01*
X117060930Y-82932820D01*
X117075346Y-82948726D01*
X117088134Y-82965969D01*
X117099170Y-82984382D01*
X117108349Y-83003788D01*
X117115581Y-83024000D01*
X117120797Y-83044824D01*
X117123947Y-83066059D01*
X117125000Y-83087500D01*
X117125000Y-83600000D01*
X117123947Y-83621441D01*
X117120797Y-83642676D01*
X117115581Y-83663500D01*
X117108349Y-83683712D01*
X117099170Y-83703118D01*
X117088134Y-83721531D01*
X117075346Y-83738774D01*
X117060930Y-83754680D01*
X117045024Y-83769096D01*
X117027781Y-83781884D01*
X117009368Y-83792920D01*
X116989962Y-83802099D01*
X116969750Y-83809331D01*
X116948926Y-83814547D01*
X116927691Y-83817697D01*
X116906250Y-83818750D01*
X116468750Y-83818750D01*
X116447309Y-83817697D01*
X116426074Y-83814547D01*
X116405250Y-83809331D01*
X116385038Y-83802099D01*
X116365632Y-83792920D01*
X116347219Y-83781884D01*
X116329976Y-83769096D01*
X116314070Y-83754680D01*
X116299654Y-83738774D01*
X116286866Y-83721531D01*
X116275830Y-83703118D01*
X116266651Y-83683712D01*
X116259419Y-83663500D01*
X116254203Y-83642676D01*
X116251053Y-83621441D01*
X116250000Y-83600000D01*
X116250000Y-83087500D01*
X116251053Y-83066059D01*
X116254203Y-83044824D01*
X116259419Y-83024000D01*
X116266651Y-83003788D01*
X116275830Y-82984382D01*
X116286866Y-82965969D01*
X116299654Y-82948726D01*
X116314070Y-82932820D01*
X116329976Y-82918404D01*
X116347219Y-82905616D01*
X116365632Y-82894580D01*
X116385038Y-82885401D01*
X116405250Y-82878169D01*
X116426074Y-82872953D01*
X116447309Y-82869803D01*
X116468750Y-82868750D01*
X116906250Y-82868750D01*
X116927691Y-82869803D01*
G37*
G36*
X118502691Y-82869803D02*
G01*
X118523926Y-82872953D01*
X118544750Y-82878169D01*
X118564962Y-82885401D01*
X118584368Y-82894580D01*
X118602781Y-82905616D01*
X118620024Y-82918404D01*
X118635930Y-82932820D01*
X118650346Y-82948726D01*
X118663134Y-82965969D01*
X118674170Y-82984382D01*
X118683349Y-83003788D01*
X118690581Y-83024000D01*
X118695797Y-83044824D01*
X118698947Y-83066059D01*
X118700000Y-83087500D01*
X118700000Y-83600000D01*
X118698947Y-83621441D01*
X118695797Y-83642676D01*
X118690581Y-83663500D01*
X118683349Y-83683712D01*
X118674170Y-83703118D01*
X118663134Y-83721531D01*
X118650346Y-83738774D01*
X118635930Y-83754680D01*
X118620024Y-83769096D01*
X118602781Y-83781884D01*
X118584368Y-83792920D01*
X118564962Y-83802099D01*
X118544750Y-83809331D01*
X118523926Y-83814547D01*
X118502691Y-83817697D01*
X118481250Y-83818750D01*
X118043750Y-83818750D01*
X118022309Y-83817697D01*
X118001074Y-83814547D01*
X117980250Y-83809331D01*
X117960038Y-83802099D01*
X117940632Y-83792920D01*
X117922219Y-83781884D01*
X117904976Y-83769096D01*
X117889070Y-83754680D01*
X117874654Y-83738774D01*
X117861866Y-83721531D01*
X117850830Y-83703118D01*
X117841651Y-83683712D01*
X117834419Y-83663500D01*
X117829203Y-83642676D01*
X117826053Y-83621441D01*
X117825000Y-83600000D01*
X117825000Y-83087500D01*
X117826053Y-83066059D01*
X117829203Y-83044824D01*
X117834419Y-83024000D01*
X117841651Y-83003788D01*
X117850830Y-82984382D01*
X117861866Y-82965969D01*
X117874654Y-82948726D01*
X117889070Y-82932820D01*
X117904976Y-82918404D01*
X117922219Y-82905616D01*
X117940632Y-82894580D01*
X117960038Y-82885401D01*
X117980250Y-82878169D01*
X118001074Y-82872953D01*
X118022309Y-82869803D01*
X118043750Y-82868750D01*
X118481250Y-82868750D01*
X118502691Y-82869803D01*
G37*
G36*
X50252691Y-82869803D02*
G01*
X50273926Y-82872953D01*
X50294750Y-82878169D01*
X50314962Y-82885401D01*
X50334368Y-82894580D01*
X50352781Y-82905616D01*
X50370024Y-82918404D01*
X50385930Y-82932820D01*
X50400346Y-82948726D01*
X50413134Y-82965969D01*
X50424170Y-82984382D01*
X50433349Y-83003788D01*
X50440581Y-83024000D01*
X50445797Y-83044824D01*
X50448947Y-83066059D01*
X50450000Y-83087500D01*
X50450000Y-83600000D01*
X50448947Y-83621441D01*
X50445797Y-83642676D01*
X50440581Y-83663500D01*
X50433349Y-83683712D01*
X50424170Y-83703118D01*
X50413134Y-83721531D01*
X50400346Y-83738774D01*
X50385930Y-83754680D01*
X50370024Y-83769096D01*
X50352781Y-83781884D01*
X50334368Y-83792920D01*
X50314962Y-83802099D01*
X50294750Y-83809331D01*
X50273926Y-83814547D01*
X50252691Y-83817697D01*
X50231250Y-83818750D01*
X49793750Y-83818750D01*
X49772309Y-83817697D01*
X49751074Y-83814547D01*
X49730250Y-83809331D01*
X49710038Y-83802099D01*
X49690632Y-83792920D01*
X49672219Y-83781884D01*
X49654976Y-83769096D01*
X49639070Y-83754680D01*
X49624654Y-83738774D01*
X49611866Y-83721531D01*
X49600830Y-83703118D01*
X49591651Y-83683712D01*
X49584419Y-83663500D01*
X49579203Y-83642676D01*
X49576053Y-83621441D01*
X49575000Y-83600000D01*
X49575000Y-83087500D01*
X49576053Y-83066059D01*
X49579203Y-83044824D01*
X49584419Y-83024000D01*
X49591651Y-83003788D01*
X49600830Y-82984382D01*
X49611866Y-82965969D01*
X49624654Y-82948726D01*
X49639070Y-82932820D01*
X49654976Y-82918404D01*
X49672219Y-82905616D01*
X49690632Y-82894580D01*
X49710038Y-82885401D01*
X49730250Y-82878169D01*
X49751074Y-82872953D01*
X49772309Y-82869803D01*
X49793750Y-82868750D01*
X50231250Y-82868750D01*
X50252691Y-82869803D01*
G37*
G36*
X51827691Y-82869803D02*
G01*
X51848926Y-82872953D01*
X51869750Y-82878169D01*
X51889962Y-82885401D01*
X51909368Y-82894580D01*
X51927781Y-82905616D01*
X51945024Y-82918404D01*
X51960930Y-82932820D01*
X51975346Y-82948726D01*
X51988134Y-82965969D01*
X51999170Y-82984382D01*
X52008349Y-83003788D01*
X52015581Y-83024000D01*
X52020797Y-83044824D01*
X52023947Y-83066059D01*
X52025000Y-83087500D01*
X52025000Y-83600000D01*
X52023947Y-83621441D01*
X52020797Y-83642676D01*
X52015581Y-83663500D01*
X52008349Y-83683712D01*
X51999170Y-83703118D01*
X51988134Y-83721531D01*
X51975346Y-83738774D01*
X51960930Y-83754680D01*
X51945024Y-83769096D01*
X51927781Y-83781884D01*
X51909368Y-83792920D01*
X51889962Y-83802099D01*
X51869750Y-83809331D01*
X51848926Y-83814547D01*
X51827691Y-83817697D01*
X51806250Y-83818750D01*
X51368750Y-83818750D01*
X51347309Y-83817697D01*
X51326074Y-83814547D01*
X51305250Y-83809331D01*
X51285038Y-83802099D01*
X51265632Y-83792920D01*
X51247219Y-83781884D01*
X51229976Y-83769096D01*
X51214070Y-83754680D01*
X51199654Y-83738774D01*
X51186866Y-83721531D01*
X51175830Y-83703118D01*
X51166651Y-83683712D01*
X51159419Y-83663500D01*
X51154203Y-83642676D01*
X51151053Y-83621441D01*
X51150000Y-83600000D01*
X51150000Y-83087500D01*
X51151053Y-83066059D01*
X51154203Y-83044824D01*
X51159419Y-83024000D01*
X51166651Y-83003788D01*
X51175830Y-82984382D01*
X51186866Y-82965969D01*
X51199654Y-82948726D01*
X51214070Y-82932820D01*
X51229976Y-82918404D01*
X51247219Y-82905616D01*
X51265632Y-82894580D01*
X51285038Y-82885401D01*
X51305250Y-82878169D01*
X51326074Y-82872953D01*
X51347309Y-82869803D01*
X51368750Y-82868750D01*
X51806250Y-82868750D01*
X51827691Y-82869803D01*
G37*
G36*
X50252691Y-44769803D02*
G01*
X50273926Y-44772953D01*
X50294750Y-44778169D01*
X50314962Y-44785401D01*
X50334368Y-44794580D01*
X50352781Y-44805616D01*
X50370024Y-44818404D01*
X50385930Y-44832820D01*
X50400346Y-44848726D01*
X50413134Y-44865969D01*
X50424170Y-44884382D01*
X50433349Y-44903788D01*
X50440581Y-44924000D01*
X50445797Y-44944824D01*
X50448947Y-44966059D01*
X50450000Y-44987500D01*
X50450000Y-45500000D01*
X50448947Y-45521441D01*
X50445797Y-45542676D01*
X50440581Y-45563500D01*
X50433349Y-45583712D01*
X50424170Y-45603118D01*
X50413134Y-45621531D01*
X50400346Y-45638774D01*
X50385930Y-45654680D01*
X50370024Y-45669096D01*
X50352781Y-45681884D01*
X50334368Y-45692920D01*
X50314962Y-45702099D01*
X50294750Y-45709331D01*
X50273926Y-45714547D01*
X50252691Y-45717697D01*
X50231250Y-45718750D01*
X49793750Y-45718750D01*
X49772309Y-45717697D01*
X49751074Y-45714547D01*
X49730250Y-45709331D01*
X49710038Y-45702099D01*
X49690632Y-45692920D01*
X49672219Y-45681884D01*
X49654976Y-45669096D01*
X49639070Y-45654680D01*
X49624654Y-45638774D01*
X49611866Y-45621531D01*
X49600830Y-45603118D01*
X49591651Y-45583712D01*
X49584419Y-45563500D01*
X49579203Y-45542676D01*
X49576053Y-45521441D01*
X49575000Y-45500000D01*
X49575000Y-44987500D01*
X49576053Y-44966059D01*
X49579203Y-44944824D01*
X49584419Y-44924000D01*
X49591651Y-44903788D01*
X49600830Y-44884382D01*
X49611866Y-44865969D01*
X49624654Y-44848726D01*
X49639070Y-44832820D01*
X49654976Y-44818404D01*
X49672219Y-44805616D01*
X49690632Y-44794580D01*
X49710038Y-44785401D01*
X49730250Y-44778169D01*
X49751074Y-44772953D01*
X49772309Y-44769803D01*
X49793750Y-44768750D01*
X50231250Y-44768750D01*
X50252691Y-44769803D01*
G37*
G36*
X51827691Y-44769803D02*
G01*
X51848926Y-44772953D01*
X51869750Y-44778169D01*
X51889962Y-44785401D01*
X51909368Y-44794580D01*
X51927781Y-44805616D01*
X51945024Y-44818404D01*
X51960930Y-44832820D01*
X51975346Y-44848726D01*
X51988134Y-44865969D01*
X51999170Y-44884382D01*
X52008349Y-44903788D01*
X52015581Y-44924000D01*
X52020797Y-44944824D01*
X52023947Y-44966059D01*
X52025000Y-44987500D01*
X52025000Y-45500000D01*
X52023947Y-45521441D01*
X52020797Y-45542676D01*
X52015581Y-45563500D01*
X52008349Y-45583712D01*
X51999170Y-45603118D01*
X51988134Y-45621531D01*
X51975346Y-45638774D01*
X51960930Y-45654680D01*
X51945024Y-45669096D01*
X51927781Y-45681884D01*
X51909368Y-45692920D01*
X51889962Y-45702099D01*
X51869750Y-45709331D01*
X51848926Y-45714547D01*
X51827691Y-45717697D01*
X51806250Y-45718750D01*
X51368750Y-45718750D01*
X51347309Y-45717697D01*
X51326074Y-45714547D01*
X51305250Y-45709331D01*
X51285038Y-45702099D01*
X51265632Y-45692920D01*
X51247219Y-45681884D01*
X51229976Y-45669096D01*
X51214070Y-45654680D01*
X51199654Y-45638774D01*
X51186866Y-45621531D01*
X51175830Y-45603118D01*
X51166651Y-45583712D01*
X51159419Y-45563500D01*
X51154203Y-45542676D01*
X51151053Y-45521441D01*
X51150000Y-45500000D01*
X51150000Y-44987500D01*
X51151053Y-44966059D01*
X51154203Y-44944824D01*
X51159419Y-44924000D01*
X51166651Y-44903788D01*
X51175830Y-44884382D01*
X51186866Y-44865969D01*
X51199654Y-44848726D01*
X51214070Y-44832820D01*
X51229976Y-44818404D01*
X51247219Y-44805616D01*
X51265632Y-44794580D01*
X51285038Y-44785401D01*
X51305250Y-44778169D01*
X51326074Y-44772953D01*
X51347309Y-44769803D01*
X51368750Y-44768750D01*
X51806250Y-44768750D01*
X51827691Y-44769803D01*
G37*
G36*
X116927691Y-44769803D02*
G01*
X116948926Y-44772953D01*
X116969750Y-44778169D01*
X116989962Y-44785401D01*
X117009368Y-44794580D01*
X117027781Y-44805616D01*
X117045024Y-44818404D01*
X117060930Y-44832820D01*
X117075346Y-44848726D01*
X117088134Y-44865969D01*
X117099170Y-44884382D01*
X117108349Y-44903788D01*
X117115581Y-44924000D01*
X117120797Y-44944824D01*
X117123947Y-44966059D01*
X117125000Y-44987500D01*
X117125000Y-45500000D01*
X117123947Y-45521441D01*
X117120797Y-45542676D01*
X117115581Y-45563500D01*
X117108349Y-45583712D01*
X117099170Y-45603118D01*
X117088134Y-45621531D01*
X117075346Y-45638774D01*
X117060930Y-45654680D01*
X117045024Y-45669096D01*
X117027781Y-45681884D01*
X117009368Y-45692920D01*
X116989962Y-45702099D01*
X116969750Y-45709331D01*
X116948926Y-45714547D01*
X116927691Y-45717697D01*
X116906250Y-45718750D01*
X116468750Y-45718750D01*
X116447309Y-45717697D01*
X116426074Y-45714547D01*
X116405250Y-45709331D01*
X116385038Y-45702099D01*
X116365632Y-45692920D01*
X116347219Y-45681884D01*
X116329976Y-45669096D01*
X116314070Y-45654680D01*
X116299654Y-45638774D01*
X116286866Y-45621531D01*
X116275830Y-45603118D01*
X116266651Y-45583712D01*
X116259419Y-45563500D01*
X116254203Y-45542676D01*
X116251053Y-45521441D01*
X116250000Y-45500000D01*
X116250000Y-44987500D01*
X116251053Y-44966059D01*
X116254203Y-44944824D01*
X116259419Y-44924000D01*
X116266651Y-44903788D01*
X116275830Y-44884382D01*
X116286866Y-44865969D01*
X116299654Y-44848726D01*
X116314070Y-44832820D01*
X116329976Y-44818404D01*
X116347219Y-44805616D01*
X116365632Y-44794580D01*
X116385038Y-44785401D01*
X116405250Y-44778169D01*
X116426074Y-44772953D01*
X116447309Y-44769803D01*
X116468750Y-44768750D01*
X116906250Y-44768750D01*
X116927691Y-44769803D01*
G37*
G36*
X118502691Y-44769803D02*
G01*
X118523926Y-44772953D01*
X118544750Y-44778169D01*
X118564962Y-44785401D01*
X118584368Y-44794580D01*
X118602781Y-44805616D01*
X118620024Y-44818404D01*
X118635930Y-44832820D01*
X118650346Y-44848726D01*
X118663134Y-44865969D01*
X118674170Y-44884382D01*
X118683349Y-44903788D01*
X118690581Y-44924000D01*
X118695797Y-44944824D01*
X118698947Y-44966059D01*
X118700000Y-44987500D01*
X118700000Y-45500000D01*
X118698947Y-45521441D01*
X118695797Y-45542676D01*
X118690581Y-45563500D01*
X118683349Y-45583712D01*
X118674170Y-45603118D01*
X118663134Y-45621531D01*
X118650346Y-45638774D01*
X118635930Y-45654680D01*
X118620024Y-45669096D01*
X118602781Y-45681884D01*
X118584368Y-45692920D01*
X118564962Y-45702099D01*
X118544750Y-45709331D01*
X118523926Y-45714547D01*
X118502691Y-45717697D01*
X118481250Y-45718750D01*
X118043750Y-45718750D01*
X118022309Y-45717697D01*
X118001074Y-45714547D01*
X117980250Y-45709331D01*
X117960038Y-45702099D01*
X117940632Y-45692920D01*
X117922219Y-45681884D01*
X117904976Y-45669096D01*
X117889070Y-45654680D01*
X117874654Y-45638774D01*
X117861866Y-45621531D01*
X117850830Y-45603118D01*
X117841651Y-45583712D01*
X117834419Y-45563500D01*
X117829203Y-45542676D01*
X117826053Y-45521441D01*
X117825000Y-45500000D01*
X117825000Y-44987500D01*
X117826053Y-44966059D01*
X117829203Y-44944824D01*
X117834419Y-44924000D01*
X117841651Y-44903788D01*
X117850830Y-44884382D01*
X117861866Y-44865969D01*
X117874654Y-44848726D01*
X117889070Y-44832820D01*
X117904976Y-44818404D01*
X117922219Y-44805616D01*
X117940632Y-44794580D01*
X117960038Y-44785401D01*
X117980250Y-44778169D01*
X118001074Y-44772953D01*
X118022309Y-44769803D01*
X118043750Y-44768750D01*
X118481250Y-44768750D01*
X118502691Y-44769803D01*
G37*
G36*
X183602691Y-44769803D02*
G01*
X183623926Y-44772953D01*
X183644750Y-44778169D01*
X183664962Y-44785401D01*
X183684368Y-44794580D01*
X183702781Y-44805616D01*
X183720024Y-44818404D01*
X183735930Y-44832820D01*
X183750346Y-44848726D01*
X183763134Y-44865969D01*
X183774170Y-44884382D01*
X183783349Y-44903788D01*
X183790581Y-44924000D01*
X183795797Y-44944824D01*
X183798947Y-44966059D01*
X183800000Y-44987500D01*
X183800000Y-45500000D01*
X183798947Y-45521441D01*
X183795797Y-45542676D01*
X183790581Y-45563500D01*
X183783349Y-45583712D01*
X183774170Y-45603118D01*
X183763134Y-45621531D01*
X183750346Y-45638774D01*
X183735930Y-45654680D01*
X183720024Y-45669096D01*
X183702781Y-45681884D01*
X183684368Y-45692920D01*
X183664962Y-45702099D01*
X183644750Y-45709331D01*
X183623926Y-45714547D01*
X183602691Y-45717697D01*
X183581250Y-45718750D01*
X183143750Y-45718750D01*
X183122309Y-45717697D01*
X183101074Y-45714547D01*
X183080250Y-45709331D01*
X183060038Y-45702099D01*
X183040632Y-45692920D01*
X183022219Y-45681884D01*
X183004976Y-45669096D01*
X182989070Y-45654680D01*
X182974654Y-45638774D01*
X182961866Y-45621531D01*
X182950830Y-45603118D01*
X182941651Y-45583712D01*
X182934419Y-45563500D01*
X182929203Y-45542676D01*
X182926053Y-45521441D01*
X182925000Y-45500000D01*
X182925000Y-44987500D01*
X182926053Y-44966059D01*
X182929203Y-44944824D01*
X182934419Y-44924000D01*
X182941651Y-44903788D01*
X182950830Y-44884382D01*
X182961866Y-44865969D01*
X182974654Y-44848726D01*
X182989070Y-44832820D01*
X183004976Y-44818404D01*
X183022219Y-44805616D01*
X183040632Y-44794580D01*
X183060038Y-44785401D01*
X183080250Y-44778169D01*
X183101074Y-44772953D01*
X183122309Y-44769803D01*
X183143750Y-44768750D01*
X183581250Y-44768750D01*
X183602691Y-44769803D01*
G37*
G36*
X185177691Y-44769803D02*
G01*
X185198926Y-44772953D01*
X185219750Y-44778169D01*
X185239962Y-44785401D01*
X185259368Y-44794580D01*
X185277781Y-44805616D01*
X185295024Y-44818404D01*
X185310930Y-44832820D01*
X185325346Y-44848726D01*
X185338134Y-44865969D01*
X185349170Y-44884382D01*
X185358349Y-44903788D01*
X185365581Y-44924000D01*
X185370797Y-44944824D01*
X185373947Y-44966059D01*
X185375000Y-44987500D01*
X185375000Y-45500000D01*
X185373947Y-45521441D01*
X185370797Y-45542676D01*
X185365581Y-45563500D01*
X185358349Y-45583712D01*
X185349170Y-45603118D01*
X185338134Y-45621531D01*
X185325346Y-45638774D01*
X185310930Y-45654680D01*
X185295024Y-45669096D01*
X185277781Y-45681884D01*
X185259368Y-45692920D01*
X185239962Y-45702099D01*
X185219750Y-45709331D01*
X185198926Y-45714547D01*
X185177691Y-45717697D01*
X185156250Y-45718750D01*
X184718750Y-45718750D01*
X184697309Y-45717697D01*
X184676074Y-45714547D01*
X184655250Y-45709331D01*
X184635038Y-45702099D01*
X184615632Y-45692920D01*
X184597219Y-45681884D01*
X184579976Y-45669096D01*
X184564070Y-45654680D01*
X184549654Y-45638774D01*
X184536866Y-45621531D01*
X184525830Y-45603118D01*
X184516651Y-45583712D01*
X184509419Y-45563500D01*
X184504203Y-45542676D01*
X184501053Y-45521441D01*
X184500000Y-45500000D01*
X184500000Y-44987500D01*
X184501053Y-44966059D01*
X184504203Y-44944824D01*
X184509419Y-44924000D01*
X184516651Y-44903788D01*
X184525830Y-44884382D01*
X184536866Y-44865969D01*
X184549654Y-44848726D01*
X184564070Y-44832820D01*
X184579976Y-44818404D01*
X184597219Y-44805616D01*
X184615632Y-44794580D01*
X184635038Y-44785401D01*
X184655250Y-44778169D01*
X184676074Y-44772953D01*
X184697309Y-44769803D01*
X184718750Y-44768750D01*
X185156250Y-44768750D01*
X185177691Y-44769803D01*
G37*
D18*
X268313399Y-38095000D03*
X267513399Y-38095000D03*
X262613399Y-38095000D03*
X261813399Y-38095000D03*
X261813399Y-38095000D03*
X262613399Y-38095000D03*
X267513399Y-38095000D03*
X268313399Y-38095000D03*
D19*
X263313399Y-38095000D03*
X263813399Y-38095000D03*
X264313399Y-38095000D03*
X265313399Y-38095000D03*
X265813399Y-38095000D03*
X266313399Y-38095000D03*
X266813399Y-38095000D03*
X264813399Y-38095000D03*
D20*
X273975000Y-85692500D03*
X273975000Y-88892500D03*
X269075000Y-85692500D03*
X269075000Y-88892500D03*
X186600000Y-85712500D03*
X186600000Y-88912500D03*
X181700000Y-85712500D03*
X181700000Y-88912500D03*
X119925000Y-85712500D03*
X119925000Y-88912500D03*
X115025000Y-85712500D03*
X115025000Y-88912500D03*
X53250000Y-85712500D03*
X53250000Y-88912500D03*
X48350000Y-85712500D03*
X48350000Y-88912500D03*
X53250000Y-47612500D03*
X53250000Y-50812500D03*
X48350000Y-47612500D03*
X48350000Y-50812500D03*
X119925000Y-47612500D03*
X119925000Y-50812500D03*
X115025000Y-47612500D03*
X115025000Y-50812500D03*
X186600000Y-47612500D03*
X186600000Y-50812500D03*
X181700000Y-47612500D03*
X181700000Y-50812500D03*
X263653750Y-47612500D03*
X263653750Y-50812500D03*
X258753750Y-47612500D03*
X258753750Y-50812500D03*
D16*
X271840000Y-95885000D03*
X285690000Y-93345000D03*
X269458750Y-57785000D03*
X283308750Y-55245000D03*
X271840000Y-76835000D03*
X285690000Y-74295000D03*
X252790000Y-95885000D03*
X266640000Y-93345000D03*
X233740000Y-95885000D03*
X247590000Y-93345000D03*
X214690000Y-95885000D03*
X228540000Y-93345000D03*
X195640000Y-95885000D03*
X209490000Y-93345000D03*
X174208750Y-95885000D03*
X188058750Y-93345000D03*
X143252500Y-95885000D03*
X157102500Y-93345000D03*
X112296250Y-95885000D03*
X126146250Y-93345000D03*
X90865000Y-95885000D03*
X104715000Y-93345000D03*
X71815000Y-95885000D03*
X85665000Y-93345000D03*
X52765000Y-95885000D03*
X66615000Y-93345000D03*
X33715000Y-95885000D03*
X47565000Y-93345000D03*
X252790000Y-76835000D03*
X266640000Y-74295000D03*
X233740000Y-76835000D03*
X247590000Y-74295000D03*
X214690000Y-76835000D03*
X228540000Y-74295000D03*
X195640000Y-76835000D03*
X209490000Y-74295000D03*
X176590000Y-76835000D03*
X190440000Y-74295000D03*
X157540000Y-76835000D03*
X171390000Y-74295000D03*
X138490000Y-76835000D03*
X152340000Y-74295000D03*
X119440000Y-76835000D03*
X133290000Y-74295000D03*
X100390000Y-76835000D03*
X114240000Y-74295000D03*
X81340000Y-76835000D03*
X95190000Y-74295000D03*
X62290000Y-76835000D03*
X76140000Y-74295000D03*
X38477500Y-76835000D03*
X52327500Y-74295000D03*
X248027500Y-57785000D03*
X261877500Y-55245000D03*
X209927500Y-57785000D03*
X223777500Y-55245000D03*
X190877500Y-57785000D03*
X204727500Y-55245000D03*
X171827500Y-57785000D03*
X185677500Y-55245000D03*
X152777500Y-57785000D03*
X166627500Y-55245000D03*
X133727500Y-57785000D03*
X147577500Y-55245000D03*
X114677500Y-57785000D03*
X128527500Y-55245000D03*
X95627500Y-57785000D03*
X109477500Y-55245000D03*
X76577500Y-57785000D03*
X90427500Y-55245000D03*
X224215000Y-38735000D03*
X238065000Y-36195000D03*
X205165000Y-38735000D03*
X219015000Y-36195000D03*
X186115000Y-38735000D03*
X199965000Y-36195000D03*
X167065000Y-38735000D03*
X180915000Y-36195000D03*
X148015000Y-38735000D03*
X161865000Y-36195000D03*
X128965000Y-38735000D03*
X142815000Y-36195000D03*
X109915000Y-38735000D03*
X123765000Y-36195000D03*
X90865000Y-38735000D03*
X104715000Y-36195000D03*
X71815000Y-38735000D03*
X85665000Y-36195000D03*
M02*
